/* XPM */
static char *result[] = {
/* columns rows colors chars-per-pixel */
"64 64 230 2 ",
"   c #030504",
".  c #150C0C",
"X  c #141519",
"o  c #16191D",
"O  c #270D08",
"+  c #281D19",
"@  c #342313",
"#  c #191725",
"$  c #161A21",
"%  c #1A1D23",
"&  c #1C1D2A",
"*  c #1C1E32",
"=  c #291E26",
"-  c #1C2126",
";  c #1E232A",
":  c #1E2232",
">  c #1F2239",
",  c #21252D",
"<  c #2A2529",
"1  c #23282E",
"2  c #382827",
"3  c #222533",
"4  c #2E2634",
"5  c #252A33",
"6  c #2A2D35",
"7  c #22263A",
"8  c #252A3A",
"9  c #292E3B",
"0  c #352935",
"q  c #2B3137",
"w  c #2C323C",
"e  c #31353D",
"r  c #4A0107",
"t  c #44251B",
"y  c #572E1A",
"u  c #6C301B",
"i  c #77351E",
"p  c #562723",
"a  c #523031",
"s  c #662A27",
"d  c #693626",
"f  c #773726",
"g  c #6A3133",
"h  c #77421E",
"j  c #7D4328",
"k  c #262B41",
"l  c #292D43",
"z  c #2B2F49",
"x  c #2D3343",
"c  c #2E334C",
"v  c #313643",
"b  c #343A45",
"n  c #383E47",
"m  c #31364B",
"M  c #353B4C",
"N  c #393E4C",
"B  c #2F3350",
"V  c #363C52",
"C  c #333855",
"Z  c #393E53",
"A  c #393F5B",
"S  c #533A45",
"D  c #3B414D",
"F  c #3C4354",
"G  c #3D445A",
"H  c #3F485A",
"J  c #3D4462",
"K  c #424554",
"L  c #4D4755",
"P  c #434956",
"I  c #40455C",
"U  c #434B5C",
"Y  c #4A4E5C",
"T  c #574A55",
"R  c #4B515E",
"E  c #714F54",
"W  c #404664",
"Q  c #454D63",
"!  c #494E62",
"~  c #454C6B",
"^  c #484F6C",
"/  c #475063",
"(  c #4B5364",
")  c #4F5A67",
"_  c #4C556A",
"`  c #4F596C",
"'  c #515565",
"]  c #515769",
"[  c #575A68",
"{  c #525A6D",
"}  c #484D76",
"|  c #4C5472",
" . c #4F5876",
".. c #545D72",
"X. c #595E72",
"o. c #525B7B",
"O. c #6B5968",
"+. c #59616F",
"@. c #566175",
"#. c #5A6275",
"$. c #56617B",
"%. c #5C657B",
"&. c #5E697E",
"*. c #61677B",
"=. c #626A7D",
"-. c #9C1B18",
";. c #952C1D",
":. c #88371E",
">. c #8F3930",
",. c #AC3323",
"<. c #CA271C",
"1. c #D6251C",
"2. c #D9261C",
"3. c #D32C1D",
"4. c #DC2A1E",
"5. c #D92C1C",
"6. c #CD331E",
"7. c #DB331C",
"8. c #D9381E",
"9. c #C42824",
"0. c #C93526",
"q. c #D53C22",
"w. c #DC3D20",
"e. c #9A451F",
"r. c #B3461F",
"t. c #874922",
"y. c #94492E",
"u. c #894436",
"i. c #B14E2D",
"p. c #A74837",
"a. c #BF672B",
"s. c #DC411F",
"d. c #E0421F",
"f. c #DA4522",
"g. c #D94927",
"h. c #DD4C24",
"j. c #CC5826",
"k. c #DB5527",
"l. c #C94F31",
"z. c #E24422",
"x. c #E34B23",
"c. c #E94C24",
"v. c #E35425",
"b. c #E95426",
"n. c #EA5C26",
"m. c #E6552A",
"M. c #E5592A",
"N. c #EB5A29",
"B. c #E35933",
"V. c #DB6527",
"C. c #D16A32",
"Z. c #ED632C",
"A. c #E66A28",
"S. c #ED6A2D",
"D. c #F16C27",
"F. c #EA762B",
"G. c #F2742C",
"H. c #F47B2D",
"J. c #EB6933",
"K. c #F26E32",
"L. c #EA7730",
"P. c #F37332",
"I. c #F57B34",
"U. c #F77F38",
"Y. c #97584D",
"T. c #A84B44",
"R. c #A95A4D",
"E. c #906669",
"W. c #E78337",
"Q. c #F68333",
"!. c #F68637",
"~. c #F88539",
"^. c #F98D3C",
"/. c #FA933D",
"(. c #F79A3D",
"). c #F88E40",
"_. c #F99743",
"`. c #FA9C44",
"'. c #FC9D4A",
"]. c #FBA346",
"[. c #F8A847",
"{. c #FCA54B",
"}. c #FBAB4C",
"|. c #FBB14E",
" X c #FCAC53",
".X c #FDAC5A",
"XX c #FBB254",
"oX c #FCB259",
"OX c #FDAD65",
"+X c #FDB468",
"@X c #FDB674",
"#X c #545D82",
"$X c #5A6483",
"%X c #5F6A81",
"&X c #5B658A",
"*X c #636D83",
"=X c #626D8B",
"-X c #667086",
";X c #697186",
":X c #66728A",
">X c #6B758B",
",X c #6E788E",
"<X c #717A8E",
"1X c #636D95",
"2X c #6E7A92",
"3X c #677499",
"4X c #737D94",
"5X c #727E99",
"6X c #6A75A1",
"7X c #758096",
"8X c #788195",
"9X c #75819A",
"0X c #7A859C",
"qX c #7E889F",
"wX c #7B88A3",
"eX c #7E8AA2",
"rX c #80899F",
"tX c #838DA4",
"yX c #838FA9",
"uX c #8490A6",
"iX c #8691AA",
"pX c #8A93AC",
"aX c #8B96B1",
"sX c #8798B4",
"dX c #8D99B2",
"fX c #929CB5",
"gX c #929EB9",
"hX c #95A1BB",
"jX c #9AA5BE",
"kX c #9AA7C3",
/* pixels */
"tXtXeXqXqX0X8X8X5X4X<X,X>X;X*X*X*X{ _ ..v 9 >X0X8X8X8X8X4X4X8X<X4X<X<X<X;X=.=.*.*.*.0 M { ` ......@.......` H D 9XsXiXiXiXiXuXuX",
"eXqX0X0X0X5X5X4X<X<X>X>X>X-X*X*X%.@.....w U 8X<X<X<X8X<X>X>X<X;X;X=.=.*.*.*.*.*.*.=.n 5 / / / _ _ / _ ( / ` D F sXeXiXeXeXeXtXeX",
"0XwX0X0X5X5X4X4X<X>X>X-X*X*XX.o......./ n #.;XX.+.<X=.E.l.E.=.*.*.*.+.#.*.*.+.*.#.*.K 3 C R U / / J / H H G : ) gX9X9XeXeXeXqXqX",
",X0X4X4X4X2X>X;X;X*X*X*.&.$XX.X.......F F ;X=.) +.=.=.=.T.d.i.[ [ [ [ X.[ +.+.+.X.X.Y 3 > c F D F D V M x > ; %XeX9X9XeX0X0XqX,X",
";X2X>X>X:X:X*X*X%X&.&.&.] _ #.X...{  .M P =.*.*.*.*.#.@.O.x.N.g.T R ' ' [ [ X.{ { [ P , ; : > > > > 8 > : ; 5 -X9X9X9X5X7X7X2X:X",
">X;X:X;X:X*X*X*X$X&.&.%.! ! ......{ Q w ' *.*.*.*.+.+.{ [ x.~.N.l.P L Y R ' ] [ [ { N , 8 1 : : : 1 ; ; 1 1 - ) wX>X2X,X,X,X,X,X",
">X:X:X:X*X*X*X&.&.%.%.%.........{ ..M 9 { [ X.#.+.X.{ [ u.n._.^.c.u.D K L Y ' ! ( Y q ; 1 q q q w w x x b x ; q 3X:X,X,X,X,X:X:X",
":X-X*X*X*X*X&.&.&.%.$.#.#.......` _ 8 w X.[ ] X.+.[ ' R B.~.'.'.G.B.b N K P U L _ D ; w v x m V D F F H H H D o H 9X:X>X>X>X>X:X",
"-X*X*X%X%X&.&.%.%.$.#.........{ ..V ; M ] { ] ] X.{ R u.N.{.{.{._.b.a b m N K L Y 4 5 V m M M D F H H F H H / x : %X:X*X>X:X:X:X",
"*X%X*X%X&.&.%.%.#.#.#.........( V 8 ; w S ! ' Y R _ E n.`.{.{.].`.Z.d 6 x S K K m , x M M D F F H H H H H H _ H : D 3X%X%X:X-X*X",
"*X&.&.&.%.%.%.$.#.......@._ G c k , 1 - l F G Y Y P p.^.].I.I._.].G.d 6 9 v v m 5 5 M V F F H H H / / _ ` ` ) ..H ; _ %X&.%X*X*X",
"%X%.&.%.%.$.#...X.#.@._ G c l k 1 5 x x : 8 m Z S T G.`.I.v.n.A.(.I.p , 7 4 9 9 ; x F F H U Q Y _ ` ) ` ` ..` ..$.e x o.&.&.&.&.",
"%.%.%.$.@...%.&.%.( V c z z l 3 w D F U G w , l m u.Q.!.l.d :.S.Q.P.= % , , 5 ; 1 M H H U U _ _ _ ` ....+.@.@.@.$.` 5 F @.&.$.&.",
"*X@...%.&.&.@.( G c z c z k 5 v G I Q / _ { F 3 ; j G.C., & % d H.i X o % % - - w F I U / _ { { @.@.%.%.&.&.&.&.&.-XH 8 J  .%.&.",
"%.*X*X=...Q V c c c c c 8 5 M H U / _ { @.@.O.E w < G.e.% o X + :.$ ; 3 9 x 9 - x H Q / ` @.( { %X=.%X-X-X-X:X&.:X:X%Xx c J ` @.",
"` *X=.G c c B c c c c 8 5 D U U ( { { %.=.*.T.0.@.D d j.% $ # & ; 5 8 9 x M v , b / _ ` { %.@.&.-X-X:X>X:X:X7X7X>X>X7X` 1 F G ..",
"{ &.( l 7 c c c B l 5 q V H U _ ` ..%.%.-X>XT.8.E X.M 2 + ; > > 6 9 v x w F b 1 F ( ) ..#.&.-X-X>X>X,X4X7X7X7X7X7X,X:X7XD 8 G G ",
"Z @.J z c z B c w ; 5 m F H _ { @.&.*X*X-X<XR.z.v.[ M 8 % : a a x v M N F Q b : F { @.%.&.=.-X:X,X4X8X8X0X0X7X7X9X7X7X7X%X5 z C ",
"m C M c B c 8 - - 5 M Q H / ` @.&.*X>X>X>X>XE.b.d.l.M 8 - 8 a 1.a F F K Q _ v 5 H _ ..&.-X>X7X>X8X9X9XqXeXeXeXeXeXeX7X7X9XH - C ",
"B c c z 8 ; 5 v q ; c ` H U ` @.&.;X2X4X4X4X>XC.D.D.T 8 ; w x 1.1.S K Y / / w : V U ) ..=.,X7X9X8X0XtXtXuXiXiXpXpXeX0X,X$.| w > ",
"x z , , w ( >XwX..; 8 D H _ { ..%.-X:X2X2X2X,X=.a.R.S 8 : v m >.1.9.L ! H F 5 ; x F J ` @.$.>X9X9XqXpXaXdXdXsXsXwX7X=X .| o.J ; ",
"$ - b *.iXdXdXiXwXD ; c F Q ` $.&.:X,X7X9X2X>X-X$.^ J 8 s g m g 1.1.9.N M 9 - ; : x G Q ` &.%X:X4XeXuXaXpXpXwX9X1X$X$.o. .#XH - ",
"D ;XgXkXfXuXtX0XeX&.5 8 c A J ^  .$.%X1X2X1X%X$.^ W A ;.4.0 6 0 4.4.2.,.> % - : 8 ; 8 G J | $.%X,X9XwXeX0X3X:X&Xo.| #X#X&XH o ; ",
"hXkXfXpXtXtX0X4X4X4XF - 9 x M F J | o.#X1X1X&X| W C a 5.<.* 3 0 4.7.4.2.;.o - 8 x m 9 : G J J | $.%X2XeXqX$X&X=X$X .&X&XD X D 7X",
"hXdXuXtXtX0X5X4X<X<X..5 ; 1 1 1 q w v D N N v 6 ; = 5.5.3.p = -.2.4.z.4.4.p : 4 x D F w ; w H  . . .#X:X7X&X=X1X3X3X .8 q :XkXkX",
"tX0XtXtX0X5X4X<X;X;X*XN - 5 5 5 : 1 ; - , - - ; ; 0.2.3.3.5.2.5.1.q.c.w.2.1.4 9 D x c c : X o w J #X$Xo.$X=X1X6X1XG 1 H eXkXgXsX",
"rX8XrX0X5X4X2X;X*X%.X.Q 5 5 x v c c D M m M m v g 2.7.7.3.3.7.3.<.q.c.z.3.3.s 3 8 x 5 o ; / ) - - D H #X&X&Xo.H 1 $ &.kXsXsXeXeX",
"eXeX9X4X,X:X*X%X%.$...I 6 x M M D D D F Z Z M b 0.3.z.w.<.6.3.3.<.d.c.c.w.1.,.& : $ - D :XeXsX7X5 X ; 8 M c q ; o D eXwX0XeXeXeX",
"7X4X2X>X-X*X%X%.%.#...D 8 M Z F F F G I F F Z S q.5.c.c.q.<.<.<.w.c.c.b.z.5.6.X X 5 ) 7X7X8XeXsX9Xw ; ; 5 D H $.H D 9X9X7X7X7X7X",
",X>X;X:X*X%X%.%.@.X.` v w G F I H H U F U U ! >.5.w.N.b.c.d.w.z.b.b.c.b.z.7.5.+ w ..&.7X-X;XpXsXeX$.$ w H @.-X7X%.F 7X9X7X7X7X:X",
":X:X-X*X*X%X%.#.....^ x w U U Q / ` / F ! ] ! >.7.f.N.b.b.N.N.N.b.b.b.n.z.7.6.0 F R +.7X7X0XeXgXsXwXw w _ H *XeX:XF -X7X&.@.:X>X",
"-X-X*X%X%.%.$.....{ U w v / _ _ ` ..{ _ { ] ( >.7.z.Z.b.b.b.N.b.b.b.b.Z.s.7.,.w D R +.=.7XqXsXeXhXeXH 5 H @.7XeX7XD &.7X%X@.:X:X",
"*X%X&.&.%.$.@....._ F 5 D U ! ..#.X.X.*.#.X.[ >.7.z.K.N.N.N.Z.Z.Z.Z.Z.Z.8.7.s 6 n R #.;X4XrXuXpXdXfX>Xe H &.2XiX7XD &.:X-X:X-X%X",
"&.%.%.#.@...../ / U M 5 G Q U ( X.$X*X*X*.*.[ E w.z.K.K.K.K.Z.Z.Z.J.P.c.8.0., q K R #.;X<XrXtXpXpXfXaXK v %.:XeX@.9 @.:X%X=.%X=.",
"$.#.@.@... ./ F F F 9 7 U ( ( Q ^ X.*.;X;X*.*.[ q.w.N.P.Z.P.K.K.K.K.P.f.7.u , q K ' #.;X<XrXtXuXpXfXfX%.x J  .$XG q _ @.&.&.&.&.",
"#...@.` ( I H H F x : w ~ ( _ _ ^ ' ] X.*.*.=.*.p.7.m.U.P.P.P.K.P.P.Z.w.q.o , e >.E #.;X<X8XrXtXiXpXfXeXD k G J l - J ` ` @.@.@.",
"{ _ U U H H F M k 3 ; 6 Q Q ( ` X.{ | { ......{ T q.q.S.~.K.P.K.P.Q.v.8.i % 4 v g.g.X.*X;X4X8XrXyXpXfXpXX.< w x x q c / / / ` ` ",
"U I I H F M l > : 5 5 ; 6 Q ^ ^ ] ..X...` _ / ! I >.w.k.~.U.U.U.~.Q.s.d.t # 4 v p.d.T.*.=.<X8XrXrXuXfXpX2Xv ; I &.2XD x Q U H / ",
"H H D m k 8 8 : e F H M 5 5 G | ~ ( | #.%.O.! ! Y m g.8.K.~.U.~.^.P.s.s.t , 1 e u.z.f.Y.=.=.<X4XrXtXpXpXeXU w ..&.9X7Xx k F U H ",
"M l z 8 q : q F H F U _ _ M 6 M | | W ^ | E i.' K 5 s d.v.~.~.~.^.I.s.8.:.% 5 e y.N.b.i.+.=.;X<X4XrXtXfXwX%.x I @.%XwX-X8 k V D ",
"k > : ; - % D / F b / _ ` .._ v v Q o.^ W I z.p.M 3 0 f.s.P.).^./.^.v.f.h.:.p f q.K.~.B.' X.*.;X<X8XrXdX:X%XP x ..%.-XwX( : 8 k ",
"; 5 b Y _ 5 8 _ _ _ ` ......@.$.P x M ( | I B.h.M w 4 x.f.A._.).^._.P.f.f.z.f.f.v._.).l.U ' +.=.<X5XrXuX*X*X` x / ` @.%X%Xx : : ",
"D @.0XpXiX:Xq w ..%.@.%.%.&.&.&.*X@.M w Z T m.z.g 0 f x.h.M.).{.'.'.{.I.k.h.g.c.U.`.P.>.D Y { =.;X4XeX4X%X-X&.x D / ` _ J F - q ",
"2XwXuXyXwXeX,Xq x %.&.:X>X>X,X,X;X:X*XU 9 a x.m.M.M.d.M.M.k._..X+XOXOX.X/.I.P.).`.(.v.g b K [ #.;X;X%.%X-X%.=XM > F H B m v F #.",
"4X5X0X<X&.0XaX>Xw C %.,X5XqXrX5X5X4X>X*X#.u.Z.P.m.v.M.M.M.M.'.+XOX@X@X@X{.`.`.].`.S.k.6 b K R ' { { %.9X>X$.%XH 5 7 8 9 D ) :X9X",
"<X<X5X5X:X8XiXpX=.8 G $.4XrXrX<XrXuX8X;X{ l.^.^.B.M.m.M.f.S. XOXOX+X@XoX.X/._.`.~.f.,., 6 b F U ' %.*X*X-X%X .G 5 , x U $.:X>X,X",
">X<X2X4X0X8X9XeXiX` 8 J $.8X0X*X;X%._ A S b.`.].P.:.r.A.I.'..X+X@X@X+X+Xa.C.].`.Z.h.j.% 5 v F / _ ( ( ( ....W F , w ( $.&.&.%X-X",
";X;X;X,X4X4X5X0X9XwXD l ~ ..5X| G A A V >.G.].`.{.t.  . y.]. XOXOX+Xt.  . W._.`.S.M.Z.2 - w M N G G G J Q J W w 1 F { ....#.&.%X",
"X.*X;X;X,X4X,X*X,X4X:X5 V } #X} ~ A c 0 A.^.{.`./.C.  r   t.}. X}.u O r   `./.'.!.v.n.y % 3 l m V A G G J J F ; e / H / ....$.%.",
"..*X*X*X*X*X*X%X-X>X5XF - M C V M v M E n.]. X{.].C.  -.O   L.(.W.  O r   }.].{.}.G.b.f & 3 w m V G G A F x 8 : D F M H ` ` ..@.",
"..X.o.X.%.%.%X%X=X:X>X^ - - w b F ) $.R.G.}..X}.{.[.h   O d t.(.e.i @ + W. X X}.XX_.n.:.& : 9 x x x x 9 q : ; ; c F M H ( ( _ ..",
"| ..o.X.$.%.&.%X*X*X%XH 1 m U / _ _ _ i.H.XX}. X X}. X[.[.].(.(.].[.`.{.}. X X XXX XH.r.X $ & ; 5 9 v F / ..F - : M H H ^ ( _ _ ",
"{ ......$.%.%.&.%.&.$XD 5 F c D R / R C.^.}.oXoXoX.XoX X{.[.[.[.[.].].XXoXXXXX X XoXQ.j.X X o 3 x M U ` @.%.:XD $ > M H Q / _ _ ",
"_ _ ` ....#.%.$.@.@.| c w D x M H U H C.^.XXoXoXoXXXoXoX X}.[.[.(.[.}. XXXoXoXoXXXXXQ.k.o % % 4 v x U %.&.*X,X2Xw # 7 x M G U / ",
"F G U U Q Q U U H G G l 8 m D G H H U i.Q.}.oXXXoXXXXXXXXX|.i.y u (.|.XXXXXXXXXXoXoXQ.j.& = % 5 D U { =.:X2X,XwX-X: : > 7 z c M ",
"7 k c c c c c B B C M 9 : > x M F H H u.D.`.XXXXoXoXXXoX}.t . @ @ . t.XXXXXXXXoXXX(.D.e., 5 % 5 M / @.&.,X7X0X0XeXP - 5 : : : 8 ",
"5 , ; 3 3 3 3 , : : - - : : > l c m M L G.Q.|.XX|.|.|.|.W.h [.[.[.a.t.|.|.|.|.|.|.A.D.d 6 4 $ : z F H  .%X1X3X3X6X$X; o q q 1 1 ",
"=.&.@.{ ) U K K D D b w q 5 ; : 5 8 k k j D.Q.}.|.|.|.[.[.(.(.A.A.(.(.(.[.|.|.[.A.G.L.6 , & o o : w M x J J G G J x w @.9X7X7X:X",
"jXjXgXgXfXdXdXpXqXqX7X,X&.@.) H w ; : 5 5 y.D.W.|.[.[.[.(.W.V.A.A.V.V.F.Q.W.W.V.H.H.a & & $ & n / &.@.D - - / ) - q eXkXjXjXhXhX",
"hXfXfXfXfXdXpXpXeXiXeXeXqX0X7X7X-XF ; - ; ; e.G.Q.(.(.Q.F.F.Q.Q.F.Q.H.D.A.A.H.Q.V.2 % & # - +.qXsXdXgXsX@.1 / 9X5 @.kXkXjXhXjXhX",
"dXdXpXiXiXtXtXrXrXrXrX5X7X8X-X>X,X:X_ 1 o - o y e.j.V.r.e.h y @ y y h r.V.C.e.y $ 3 * & % ) ,X7X0XqXqXuXsX7XD - q 9XjXhXgXfXiXaX",
"pXpXpXuXtXtXtXtX0XrX5X4X2X,X>X>X-X-X*X_ 1 - o - q e n n e n b b D n n e 1 1 - + X X & % D &.&.:X7X7X0X8X7X7X2Xq b dXhXdXgXuX;X0X",
"pXuXuXtXtXrX0XrX8X4X5X4X<X>X>X-X=.=.&.#.D o - ) =.+.) R R L R P D D P P P P D D b - X e ) { #.-X:X=.-X-X%X$.$.D ( hXhXpXdXuX8XtX",
"tXtXtXtXrXrX0XrX8X5X4X<X<X>X;X*X*X+.) +.D - P ;X=.+.+.[ ) ) [ ) P F R R R R P R R D - D U ) ) @.&.( @.#.@.@.` D -XdXpXpXuXpXpXuX"
};
