/* XPM */
static char *_df21177589145b3e4721a3e0c35d30f6OlUfw6s1F6sR618[] = {
/* columns rows colors chars-per-pixel */
"64 64 226 2 ",
"   c #020101",
".  c #0A0709",
"X  c #160D0E",
"o  c #0F1114",
"O  c #121216",
"+  c #13161A",
"@  c #1B1418",
"#  c #16191E",
"$  c #300E0B",
"%  c #2A1714",
"&  c #331517",
"*  c #3B2213",
"=  c #171A21",
"-  c #1A1D23",
";  c #1B1F2B",
":  c #291E25",
">  c #1D2126",
",  c #1E222A",
"<  c #1E2232",
"1  c #21262D",
"2  c #2B2328",
"3  c #23282E",
"4  c #34282F",
"5  c #222533",
"6  c #2B2637",
"7  c #252A34",
"8  c #292D36",
"9  c #22263A",
"0  c #252A3A",
"q  c #2A2E3B",
"w  c #372D39",
"e  c #2A3037",
"r  c #2C323C",
"t  c #511311",
"y  c #6E1717",
"u  c #562819",
"i  c #70301B",
"p  c #591E23",
"a  c #7D1E20",
"s  c #4B2E33",
"d  c #563337",
"f  c #673739",
"g  c #703231",
"h  c #7D431F",
"j  c #724539",
"k  c #262B41",
"l  c #292D43",
"z  c #2B2F49",
"x  c #2D3343",
"c  c #2E334C",
"v  c #313643",
"b  c #343A46",
"n  c #3B3846",
"m  c #32364B",
"M  c #30304D",
"N  c #353B4C",
"B  c #3A3D4C",
"V  c #363C52",
"C  c #363A56",
"Z  c #3A3E53",
"A  c #413D54",
"S  c #623743",
"D  c #3B414D",
"F  c #3C4354",
"G  c #3D445A",
"H  c #3F4858",
"J  c #3E4562",
"K  c #424654",
"L  c #424955",
"P  c #41455B",
"I  c #4A4658",
"U  c #434B5C",
"Y  c #4B4D5C",
"T  c #534953",
"R  c #49505E",
"E  c #714A53",
"W  c #454D62",
"Q  c #434967",
"!  c #484F62",
"~  c #475063",
"^  c #4A5264",
"/  c #4F5A67",
"(  c #4C556A",
")  c #4F596C",
"_  c #525564",
"`  c #55596A",
"'  c #525A6D",
"]  c #474D75",
"[  c #4C5472",
"{  c #4E5778",
"}  c #545D72",
"|  c #595F72",
" . c #525B7B",
".. c #645967",
"X. c #59606F",
"o. c #576174",
"O. c #5A6275",
"+. c #56617A",
"@. c #5B657A",
"#. c #5E697D",
"$. c #74646F",
"%. c #616577",
"&. c #626A7D",
"*. c #881A19",
"=. c #971C1A",
"-. c #9C1F1B",
";. c #A50F14",
":. c #A41F1C",
">. c #AC1E1C",
",. c #B31E1C",
"<. c #BC1F1C",
"1. c #8C2E1B",
"2. c #97231E",
"3. c #AD241E",
"4. c #A93A1D",
"5. c #B73A1D",
"6. c #A51C26",
"7. c #862828",
"8. c #93322E",
"9. c #B33128",
"0. c #C31E1C",
"q. c #CC1E1C",
"w. c #D41D1C",
"e. c #DB1D1E",
"r. c #E21E1F",
"t. c #CD271C",
"y. c #D4241C",
"u. c #D9261C",
"i. c #D32B1D",
"p. c #DB2C1E",
"a. c #CC3B1D",
"s. c #D4341C",
"d. c #DB371D",
"f. c #D33D1E",
"g. c #E32A1F",
"h. c #E4371F",
"j. c #CF1D20",
"k. c #D81D20",
"l. c #E31D21",
"z. c #CD3822",
"x. c #D73D21",
"c. c #E42620",
"v. c #E42C20",
"b. c #E53220",
"n. c #E63C20",
"m. c #B7471E",
"M. c #934926",
"N. c #9A4637",
"B. c #B84924",
"V. c #AD502E",
"C. c #B8572B",
"Z. c #B4642A",
"A. c #C5491E",
"S. c #DB461E",
"D. c #E2491F",
"F. c #E3511F",
"G. c #C74824",
"H. c #D84421",
"J. c #C75526",
"K. c #D95724",
"L. c #C05932",
"P. c #E44321",
"I. c #E54C25",
"U. c #EA4A24",
"Y. c #F74E25",
"T. c #E45324",
"R. c #E85B24",
"E. c #DA6429",
"W. c #D16A2F",
"Q. c #E46428",
"!. c #F6682B",
"~. c #EF7731",
"^. c #833E46",
"/. c #8B514B",
"(. c #A25F52",
"). c #DC8636",
"_. c #EF8F3B",
"`. c #F68638",
"'. c #F18D41",
"]. c #F79942",
"[. c #F9A647",
"{. c #FBAC4C",
"}. c #FCB24D",
"|. c #FBAD52",
" X c #FCB453",
".X c #FCB957",
"XX c #FCB559",
"oX c #545D82",
"OX c #5B6587",
"+X c #5F6A81",
"@X c #636D83",
"#X c #626C8B",
"$X c #667086",
"%X c #697186",
"&X c #66728A",
"*X c #6B758B",
"=X c #6D788E",
"-X c #747587",
";X c #71798D",
":X c #636D94",
">X c #6E7A92",
",X c #677499",
"<X c #737D94",
"1X c #737F98",
"2X c #6A75A1",
"3X c #758196",
"4X c #798397",
"5X c #76819A",
"6X c #7A859C",
"7X c #7D889D",
"8X c #7E89A1",
"9X c #7C89A4",
"0X c #80899F",
"qX c #838DA4",
"wX c #848FA9",
"eX c #8692A7",
"rX c #8691AA",
"tX c #8A94AC",
"yX c #8B97B1",
"uX c #8798B4",
"iX c #8D99B3",
"pX c #929CB5",
"aX c #939EB9",
"sX c #95A1BB",
"dX c #9AA5BE",
"fX c #9AA7C3",
/* pixels */
"qXqX8X8X7X6X6X1X<X<X>X;X*X%X@X@X@X' ( | m 8 *X7X4X4X4X4X4X4X4X-XE /.$.| _ _ R R _ / 7 N ' ^ } } o.o.} } } ) H D 5XuXrXrXrXeXeXwX",
"8X7X6X6X6X1X<X<X<X<X*X*X*X#X@X%.@.O.| } r U 4X;X;X;X3X3X;X3X;X%XE 2.g Y U L L Y Y / r q U ~ ~ ^ ^ ( ( ^ ~ ) D F uX9XeX8X8X8XqX8X",
"6X9X6X6X1X<X<X<X;X*X*X$X@X@X .%.} } ' U b O.%XX.O.;X-X*X-X;X%X&.` 8.2.g K D D D K Y B , m ~ U U ~ ~ ~ U H H < / aX5X5X8X7X9X7X9X",
"*X6X<X<X<X>X*X*X$X@X@X%.@.@.+.| } } } G F %X&./ X.%X&.&.%X&.&.O.` 7.=.2.g n r n D K B > < c F F D V N m x < < #.9X6X5X8X7X7X7X*X",
"*X>X*X*X&X@X@X@X+X#.#.#.( ) O.| } ' { N L @X&.&.&.&.&.&.&.@.O.` _ 7.-.-.*.s e r b B n > , < < < < k < 0 < < 7 $X5X5X5X3X3X>X5X&X",
"*X*X&X*X&X@X@X+X+X#.#.@.! ! | | } ) W x _ %.@.%.&.O.%.%.@.X.| ' T 7.-.2.2.p 2 8 r n 8 > , 7 < , , < < , 3 3 > / 9X*X>X=X=X*X*X=X",
"*X&X&X&X@X@X@X+X#.#.@.@.} } |  .' } N 7 ' ` | | X.%.O.O.X.` ` R S 2.-.-.2.*.2 3 7 r > > < 7 e e r x x x v v , e ,X&X>X>X=X*X*X*X",
"@X$X@X@X@X@X+X#.#.+.+.o.+.| ' } ' ( 0 v | ` ` | X.X.| ` ` / R T 7.>.:.:.:.7.& > 7 3 # 7 r x c N D F F F H H D = H 5XOX=X*X*X*X$X",
"$X@X@X@X+X#.#.#.+.@.+.o.} } } ' o.V > N ' ` _ ' X.| ( _ ^ Y P f 2.:.:.:.:.=.& , 5 = ; q x m N D F H G F H H J x < +X&X$X&X&X&X&X",
"@X+X#.@X#.#.@.@.O.O.} } } } } ^ C 9 , r G Y _ ! _ | ` _ ^ Y S -.>.:.:.:.:.6.& ; - @ 5 q x m F H H J H H H ~ / ~ < D ,X+X+X&X$X@X",
"@X+X#.#.#.+.@.+.| | | | o.( G c 0 3 1 , q Z P I _ Y ` ` K d -.>.3.:.3.>.>.=.% + + = 0 x b F G U ~ ~ ~ ( ) ( / } H 7 ( +X+X+X@X@X",
"+X@.#.@.@.+.o.o.| +.o.( G c k k 3 7 v x 1 7 Z A K I Y I d :.>.>.>.>.>.>.>.*.@ + O , r v D U U W ~ ( ) ) ) ) ) ' +.r r  .#.+X#.#.",
"@.@.@.+.o.o.o.@.@.~ C m z z k 5 r N G P F r 1 r m B B d 6.,.>.>.,.,.,.>.,.y O o + 7 x N G U ^ ( / ) } } o.o.o.o.@.) 7 F } #.+.#.",
"@X| } @.#.#.o.( G c c z c k 7 v G P U R ( ( K 7 1 q w 6.>.>.>.0.,.>.>.,.,.t . o - 0 v F U ^ ) ' o.o.@.@.#.#.#.#.#.#XH 0 J { @.#.",
"@.@X@X@X| Q C c c c c c q 7 N H U U ^ ' ' ' +.( l : a ,.>.,.j.j.,.,.,.,.>.& o o , x D H ^ ' ^ ' @X&.+X$X$X$X&X@X&X&X+Xr c J ) @.",
"' #.@XG c c c m c c c 7 7 V U U ! ( ( ' O.| | O.+.S >.,.,.k.l.0.>.,.,.,.*.% = o 3 v F ~ ' o.o.&.$X&X%X*X*X&X3X=X=X&X3X) 7 F G ) ",
"' @.~ z 9 z m c c x 7 e N H U ^ ) ' ' } %.%.| O.%.^.<.,.0.l.k.<.,.,.,.<.t o = + 7 D U ^ o.@.&.&X%X%X>X<X=X3X3X3X3X>X=X>XD < G G ",
"Z o.J z z c c c r , 0 m F H ~ ) ' } ` /...%.%.%.$.^.<.<.k.l.j.<.<.<.<.:.& = = + r L ~ ' O.&.*X*X>X<X3X5X6X6X5X5X5X5X3X>X&X7 z C ",
"c C V c c c 0 , > 7 m ~ J ~ ) } o.| N.z.E ' O.&.@XS ,.0.k.l.k.0.<.<.0.*.@ = = O q D R o.$X%X*X=X1X6X4X8X8X8X8X8X8X8X5X3X5XH , V ",
"m c z c 9 , 7 b e , m ) H U / } O.(.H.p.$.o.X.O.+.E ,.0.k.l.k.q.<.<.0.y X = O = 9 b H ( O.*X3X6X3X4XqXqXeXeXeXtXeX8X6X=X .{ r < ",
"r z 5 , r ~ *X9Xo.> 9 F H ( ) ) | J.H.p.8.} ' ) ( Y 8.0.k.l.l.w.<.<.0.*.X + o + ; 0 V R / +.&X3X6X7XtXyXiXiXuXuX9X3X#X{ [ { J , ",
"= , N %.rXaXtXrX9XD > c F W ) o.+.T.x.z.0...' o.) U S <.k.l.l.e.q.0.0.>.$ o . O # 5 x Z / +.#.$X<X8XeXyXeXtX9X5X&XOX . .{ OXH , ",
"D %XaXfXpXwXqX6X8X+X3 9 c G J Q ^ T.x.i.j.E ~ ~ W J P 6.w.k.l.l.e.0.0.q.y . . O # = , c G J } #.=X3X7X9X6X>X#XOX .[ oXoXOXH # , ",
"sXfXpXtXqXqX7X<X<X3XF , 0 x m F G I.z.N.8.T [ J G m 7 *.q.l.r.r.l.q.0.q.0.$ o O = , , , m J J [  .@X>X9X8XOXOX:XOX{ OX:XD # v 3X",
"sXpXeXqXqX6X1X<X;X;X .7 , 3 1 3 7 K.s 8 w r 6 , > = # p 0.e.r.r.l.e.q.q.q.;.$ o = 5 7 5 - 8 G [ [ { oX&X3XOXOX#X:X2X .e 7 &XfXfX",
"qX4XqXqX7X1X<X;X*X@X@XB > 7 3 7 1 B.2 - - ; = - , - > p 0.w.r.r.r.l.w.q.q.w.*.@ = ; < 9 - o + r J oXOX .OX:X:X2X:XG 7 H 9XfXsXuX",
"7X5X8X4X1X<X*X*X@X@.| W 3 8 x c m M.w v s w 6 7 5 < 1 p q.w.r.r.r.r.r.w.w.w.q.t O = - O > D U > > D J oXOXOX+.G 3 = #.sXuXrX8XeX",
"8X9X6X<X=X$X@X+X@.+.| P 8 v N N D d n A 6.a q 7 5 , , *.w.w.e.r.r.r.l.e.w.w.e.,.% o O 8 ) >X8X&Xe o , e N m e , # D 9X9X7X7X8X8X",
"3X<X>X%X$X@X+X@.@.O.} D 0 N Z B F D Z S e.,.w 7 5 , 2 <.e.w.e.l.r.r.g.r.w.w.w.q.t # b ` #.&.4X9X3Xe , , e D J #.H D 5X5X3X3X3X3X",
">X%X*X&X$X+X#.@.+.| ) v r G F P G G A 8.k.k.8.w 2 4 2.y.y.w.u.g.g.g.c.v.w.w.y.w.u r L / / @.8X8X9X+.= r H / #.3X#.F >X5X3X&X3X=X",
"%X&X&X@X+X+X@.+.} } ^ x r U U W ~ ( Y 8.u.u.y.<.3.<.u.y.y.y.u.v.c.c.v.v.u.y.u.y.s w L / &.3X7XeXuX9Xr r J ^ @X8X&XF $X5X#.o.&X=X",
"&X$X@X#.+X+.o.| } ) W q v W ( ) ) ) _ 8.u.u.u.u.u.u.u.i.y.t.u.v.v.v.g.g.u.i.u.:.4 D R / &.=X8X8XiX9XH 7 ~ o.3X9X3XF #.3X+X+.&X&X",
"@X+X#.#.@.o.o.} | ^ F 0 Z U W } |  . ./.i.p.p.p.i.u.i.i.t.y.x.v.g.p.b.p.i.u.t.p e D _ O.%X3X7XqXtXpX*Xr H #.>XrX3Xb @.&X$X*X$X+X",
"#.@.@.+.o. .} ~ W U v 7 G W U ^  .%.+X..9.p.b.p.t.t.t.y.i.v.v.b.v.v.b.i.u.p.7.e b Y ' @.-X;X7X0XeXpXeXF x @.&X9X+.r o.$X$X#.#.#.",
"+.+.o.| | } ~ F G F q 7 U ( ^ ~ ! ` %.%./.z.h.b.x.u.i.z.b.b.b.b.h.b.p.s.x.3.2 r D Y O.&.*X3X4X0XqXiXiX@.x Q } OXG 7 ( +.@.#.#.@.",
"O.| } } ~ H H H D c 5 r W ^ ( ( ( _ ( { ../.p.n.n.n.n.n.b.n.b.n.h.h.s.p.9.* 7 b L _ O.&.%X;X;X4X0XeXtX7XD l C J x , J ' ( o.@.o.",
") ^ ~ U H H F V k 9 , e J ~ ^ }  .' ( ( ! /.t.d.P.n.n.P.n.n.n.n.D.s.s.s.u , 6 B L _ | %.&.&.-X3X4X0XtXtX` 7 q x b 0 x ~ ^ ~ ( ) ",
"U P G U F m l < < 7 7 > 8 Q Q ^ _ } | _ Y E i.d.x.U.U.U.I.P.P.I.d.s.d.1.@ - 8 b L E /...&.@.&.%X;X<XqX0X>Xr > U #.>XD x J ~ U ~ ",
"H F D c k k 0 , x F H D 8 7 G { W W [ ) ( N.d.s.z.I.U.P.U.I.I.U.f.d.f.t @ 1 7 n K T G.N.X.X.X.O.&.-X6XqX1XU r } #.5X3Xx k G U H ",
"N c l 0 0 7 e F H F U ^ ( N 8 N [ [ Q J I B.d.z.x.I.T.I.I.I.R.I.s.d.a.t O # 7 r v T P.d.T Y / / %.&.;X0X1XO.v P o.+X8X$X0 k N D ",
"k < , , > - N / H N U ) ) | ^ v x P [ P S x.n.z.T.!.!.U.I.T.R.I.a.s.f.a o + > 7 r g Y.d.8.D H R _ %.%X4X#.@.H v } @.&X8X~ , k k ",
", 0 b ~ ^ 8 5 ( ( ( ' ' } } o.+.U x v I B.n.z.5.K.Q.!.!.R.T.R.R.f.a.d.S.u @ # > 2 G.Y.d.B.w s F Y ` &.;Xo.OX/ x ^ ) +.+X+Xx , < ",
"F O.5XtXrX#Xr r } +.+.@.@.#.#.+X&.} v d x.P.x.4.u t u A.!.!.R.Q.S.5.S.Y.5.X . $ 1.U.f.f.S.g g v K R @.@.o.@.@.x D ~ ) ~ J F > e ",
">X8XqXrX7XrX*Xr b o.#.&X*X*X*X*X@X@XO.N.H.x.H.W.*   . $ V.~.!.!.S.a.S.4.$ X   u Y.H.a.f.F.1.8.r D L H ^ o.o.+Xm < F G C m x F @.",
"1X1X8X;X@.6XiX%Xe V @.*X1X6X0X1X>X*X$.G.P.z.R.'.%   ;.t   M.`.!.!.R.1.  $ ;.. $ H.H.A.S.S.4.4.5 8 r L O.O.) @.G 7 0 9 q D / &X3X",
";X;X<X<X*X<XrXuX#.8 J +.<X0XqX;X8X9X(.D.H.G.!.{.h . t $   % E.~.`.~.$   $ $ X i A.z.Q.T.d.4.4.> 8 D L / o.o.) J 7 1 r U +X#X*X*X",
"*X*X;X<X6X5X6X8XrX) 0 J | 6X6X@X+X} /.D.G.K.].`.`.i   * V.M.Z.~.`.V.M.m.t $ 1.f.a.K.{.E.S.5.5.> 7 r b D ^ ) Q V 1 r ( @.@.&.+X&X",
"%X%X*X*X<X<X<X6X5X9XD z Q  .1X[ C C N.I.H.~.{.`.`.}.W._.}.`._.`.`._.].[.`.J.F.K.Q.[.[.Q.D.5.5.= , 7 l x C Z G r 1 P ) } } +.#.+X",
" .@X%X*X=X>X=X$X*X1X&X5 C ]  .] Q A 4.I.K.].{.[.[.]. X{.[.].].}.}.}.[.[.}.{.[.}.}.}.[.Q.S.4.m.# ; 9 x m V G V , x ~ H ~ } } o.@.",
"| @X@X@X@X+X@X@X#X*X1XG , N C V b n V.H.Q.XX X{.|.|.{.[.}.}.}..X}.}..X}.{.}.|..X{.}.}.Q.S.4.4.- 5 0 x m m x 7 , D H D H ( ) } o.",
"} |  .| @.+X+X@X@X&X*X~ , > r b K _ C.D.Q.XXXXXXXXXXXX|.}..XM.* % u W..X|.{.|.|.{..X[.K.F.1.8.> , 5 5 7 7 7 , , c D N J ( ^ ) } ",
"' } } | @.@.@.+X@X#X+XH 3 v U ~ ( ! (.F.E.XX.XXXXXXXXXXX[.u . * * X X M. X X|.{..X.X).K.F.u u # - , 8 v H ) F > < N H J ~ ^ ( ( ",
"[  .} | +.@.@.#.#.+X+XD 8 F c N ~ ~ /.K.K.[..XXX|.XXXX XZ.i Z._.[.).h h  X X}..X.X}.A.F.G.% % , 5 r F ~ ' O.$XD = 9 N H W W ^ ( ",
"^ ^ ) ' } o.O.o.o.+.[ x r D x D U ~ _ C.K.W.}. XXXXXXX X[.}.}.[.}.[.}.[.}..X.X.X}.J.A.F.i @ = , 0 r F ' @.#.*X=Xr - 9 c V G W ~ ",
"F G W W W W W Q H G J k < V D G H U R /.T.K.W.{. X X X X}.~.A.A.m.E.}.}..X.X.X[.J.m.R.m.2 1 = 7 N F ( #.$X>X*X9X$X1 < < 9 z c N ",
"0 k z c c c c c c c V r < < x N G U R ( V.T.K.J.).].[.).C.m.B.J.A.A.A.).[.].E.m.A.R.E.d w 8 - 7 D R ' #.&X<X6X7X9XU , 5 , < < 9 ",
"7 3 3 5 5 9 5 5 < < , , , < 7 k c V F H _ L.Q.R.J.J.J.J.J.E.E.E.Q.K.K.J.J.J.A.K.Q.Q.j n K w ; 9 z F J ) OX&X,X,X,XoX, # e e 7 < ",
"&.@.o.` ^ Y K A D D x r r 7 , < < x c m N T V.Q.Q.E.E.E.Q.Q.J.C.m.m.E.E.E.E.Q.Q.L.E Y Y B 6 - # < x x x J J H G W c r ' 3X3X3X&X",
"dXdXsXpXpXiXtXtX9X6X5X*X+Xo./ U r 1 9 x x c N j C.L.C.V.M.j s 8 > s h M.C.C.C.N.T _ _ A 6 < 7 K ' $X@.D > > ~ / = r rXfXdXdXsXsX",
"pXsXpXiXpXiXtXtXrX9XwX8X7X7X>X3X$XH 3 > 8 0 l x z 0 < < , > , > # # > , q N K L Y T A M 9 7 *XyXsXsXaXuXo.7 ~ 5X7 o.fXfXdXdXdXsX",
"yXiXtXtXrXqXqXqXqX0X0X1X3X5X@X%X;X=X) 8 > 3 3 , - 7 8 r b D D D L H D r q 7 7 l Z Q C 6 7 @XeX7X8X8X8XtXuX3XD , e 5XdXsXpXpXeXyX",
"tXtXeXeXqXqXqXqX1X0X1X<X<X=X;X*X&X&X&X} e 3 > e ^ X.&.3X4X4X7X7X7X4X4X;X&./ K v 8 e x 1 ' 5X=X3X5X7X7X4X3X3X>X0 v iXsXiXpXeX&.7X",
"eXwXeXqXqXqX6XqX6X1X1X<X;X;X*X$X$X&.&.&.U > 3 $XiXeXeXeXeXeXeX7X-X%X0X4X<X<X;X-XX.e # H $X#.+X=X=X@X$X&X#.+.#.D / aXpXuXyXeX4XqX",
"qXqXqXqX6XqX6X4X4X<X<X;X*X*X%X@X+Xo.' o.H > R eX7X7X7X7X0X4X7X7X&.&.;X;X;X-X%X&.=X' < H o.' o.#.#./ ' @.o.} ) D +XaXtXtXeXtXyXeX"
};
