/* XPM */
static char *result[] = {
/* columns rows colors chars-per-pixel */
"64 64 225 2 ",
"   c #000101",
".  c #090809",
"X  c #140F0F",
"o  c #13151B",
"O  c #161519",
"+  c #15191D",
"@  c #2B1816",
"#  c #341311",
"$  c #181722",
"%  c #161922",
"&  c #1A1D23",
"*  c #1C1E2A",
"=  c #1C1E32",
"-  c #281C24",
";  c #1D2126",
":  c #1E222A",
">  c #1F2232",
",  c #1F2239",
"<  c #262128",
"1  c #22252D",
"2  c #23282E",
"3  c #35282B",
"4  c #222533",
"5  c #252A33",
"6  c #292D36",
"7  c #22263A",
"8  c #252A3A",
"9  c #2A2E3B",
"0  c #2A3037",
"q  c #2C323C",
"w  c #35343E",
"e  c #4D1617",
"r  c #6F1618",
"t  c #452315",
"y  c #572A18",
"u  c #6E3119",
"i  c #77371C",
"p  c #611B20",
"a  c #4D2C33",
"s  c #622D2E",
"d  c #663429",
"f  c #733130",
"g  c #7C4630",
"h  c #272B41",
"j  c #2A2D43",
"k  c #2B2F49",
"l  c #2D3343",
"z  c #2E334C",
"x  c #303643",
"c  c #333A45",
"v  c #383B47",
"b  c #32364B",
"n  c #343B4C",
"m  c #393E4C",
"M  c #2F3350",
"N  c #353C52",
"B  c #363B57",
"V  c #393F54",
"C  c #4C3844",
"Z  c #6E3B43",
"A  c #3B414D",
"S  c #3C4354",
"D  c #3F4857",
"F  c #3D445A",
"G  c #3F4859",
"H  c #3E4563",
"J  c #434653",
"K  c #444A56",
"L  c #41455B",
"P  c #434B5C",
"I  c #494D5C",
"U  c #544D5C",
"Y  c #49515E",
"T  c #6F4A50",
"R  c #404665",
"E  c #454D63",
"W  c #474D68",
"Q  c #475063",
"!  c #4B5364",
"~  c #4F5A67",
"^  c #4C556A",
"/  c #4F596B",
"(  c #505665",
")  c #535866",
"_  c #535769",
"`  c #535A6D",
"'  c #595E6D",
"]  c #484D76",
"[  c #4C5473",
"{  c #4F5976",
"}  c #545D72",
"|  c #595F72",
" . c #525B7B",
".. c #576175",
"X. c #5A6275",
"o. c #56617A",
"O. c #5C657B",
"+. c #5E697E",
"@. c #606679",
"#. c #616A7D",
"$. c #796677",
"%. c #881C1B",
"&. c #971819",
"*. c #9A1D1B",
"=. c #A61419",
"-. c #A31D1B",
";. c #AB1C1C",
":. c #B31D1D",
">. c #BC1C1D",
",. c #85331B",
"<. c #96321D",
"1. c #A9221A",
"2. c #B6211E",
"3. c #BA211E",
"4. c #8E1F21",
"5. c #B11F20",
"6. c #8A2425",
"7. c #8F312F",
"8. c #A6272A",
"9. c #AF3125",
"0. c #C71C1D",
"q. c #D41D1C",
"w. c #DD1E1E",
"e. c #C1211E",
"r. c #D4211E",
"t. c #D9251D",
"y. c #DC2C1E",
"u. c #DE321F",
"i. c #E1361F",
"p. c #D81F21",
"a. c #E41F22",
"s. c #E81E23",
"d. c #C62321",
"f. c #D52221",
"g. c #DB2D23",
"h. c #C33424",
"j. c #DE3222",
"k. c #D43D26",
"l. c #E52422",
"z. c #E42C22",
"x. c #E23422",
"c. c #E63425",
"v. c #E53B22",
"b. c #E93C25",
"n. c #9C411C",
"m. c #93492B",
"M. c #AE4E27",
"N. c #CF4F29",
"B. c #EA4324",
"V. c #ED4B26",
"C. c #E74429",
"Z. c #EE4D29",
"A. c #F24A28",
"S. c #EF5329",
"D. c #E95529",
"F. c #F85727",
"G. c #F2552A",
"H. c #F35C2B",
"J. c #F35831",
"K. c #D96D2D",
"L. c #E9672B",
"P. c #F5632C",
"I. c #F7692B",
"U. c #E9752E",
"Y. c #F3732C",
"T. c #F47B2E",
"R. c #F9792D",
"E. c #F36C33",
"W. c #F76A34",
"Q. c #EB7735",
"!. c #F77635",
"~. c #894A46",
"^. c #A15A4C",
"/. c #FA832E",
"(. c #ED8F38",
"). c #F88636",
"_. c #FB8C3C",
"`. c #F69639",
"'. c #FB953D",
"]. c #FB9B3E",
"[. c #F7A03E",
"{. c #F9A23E",
"}. c #FD8E40",
"|. c #FE9941",
" X c #FDA441",
".X c #FDA941",
"XX c #545D82",
"oX c #5A6583",
"OX c #5F6A81",
"+X c #5B658A",
"@X c #636D83",
"#X c #626C8B",
"$X c #667086",
"%X c #697186",
"&X c #66728A",
"*X c #6B758B",
"=X c #6D798E",
"-X c #717A8E",
";X c #636D95",
":X c #6E7A92",
">X c #687599",
",X c #737D94",
"<X c #727E99",
"1X c #6A75A1",
"2X c #768096",
"3X c #798297",
"4X c #75829A",
"5X c #7A849C",
"6X c #7E889F",
"7X c #7B88A3",
"8X c #7E8AA2",
"9X c #80899F",
"0X c #838CA4",
"qX c #8390A6",
"wX c #8691AA",
"eX c #8A94AC",
"rX c #8B96B1",
"tX c #8D99B2",
"yX c #8899B5",
"uX c #929CB5",
"iX c #939EB9",
"pX c #96A0B7",
"aX c #95A1BB",
"sX c #9AA5BE",
"dX c #9AA7C3",
/* pixels */
"0X0X8X6X9X5X5X,X,X,X-X*X*X*X@X@X@X} ! } b 6 *X5X3X3X3X3X3X3X3X3X3X2X3X2X#.#.#.#.@.@.q m ` / ` } ..} } } } / G A 4XyXwXwXwXqXqX0X",
"8X6X6X5X5X<X,X,X,X,X*X*X*X#X@X@.O.X.} } l K 3X-X-X2X-X2X2X-X-X-X$.#.#.#.#.#.@.@.@.#.v 6 E E Q ! ^ ^ ^ ! Q / A S yX8XwX8XqX8X0X0X",
"5X7X5X4X<X<X,X:X-X*X*X%X@X@X| | } } } E v X.%X' ' 2X-X-X-X-X%X#.#.#.#.#.X.#.@.' X.@.J 1 N Q P E Q Q Q Y G G > ~ yX4X4X8X8X8X6X6X",
"=X5X,X,X,X=X=X%X%X@X@XO.O.O.oX| } } ` S S %X#.~ ' #.#.#.%X#.#.X.#.#.X.X.' @.' ' | | I 4 , z S S A N n z l , : OXwX4X2X6X6X5X6X*X",
"%X:X*X*X&X&X@X@XOX+.+.+._ ^ | | } ` { n J @X#.@.#.#.#.#.O.X.X.T T ' ' ` ' ' ' ' ' ' L 2 : > , , , , 8 , > : 5 $X4X5X4X4X,X:X2X&X",
"=X%X%X&X$X@X@X@XOX+.+.O.W Q | } } ` E l ( @.@.@.@.@.@.@.@.X.' 6.4.( ( U ) ) ) ) ( _ v 1 5 > 5 : : > : : 2 2 ; ~ 7X&X:X*X*X:X*X*X",
"%X&X&X&X@X@XOXOX+.+.O.O.} } } } } ` n 6 ' ' | | ' @.X.X.' ' ~ 4.&.6.K U I U Y Y ! I 0 : 5 5 0 0 q q q l A l : 0 >X*X*X:X*X*X*X*X",
"%X&X@X@X@X@XOX+.O.o.o.X.o.} } } _ ^ 7 l | ( ' | ' ' ' ' ) ) Z *.4.&.f A J J K K ! m : q l c b n S S S G S G A + G 4X&X*X:X*X&X&X",
"&X@X@X@XOXOX+.O.O.O.o.X.} } ` ` } N ; n _ ` ( _ | | _ _ ! Q 4.*.*.*.*.a x v C L L 5 6 n b n n S S D G S G G Q q > OX&X&X&X&X&X&X",
"@XOXOXOX+.+.O.O.o.| } } } } } ^ B 8 : q C Q ( Q U ' ' ( ! 6.*.*.*.*.*.6.w x m m x < l b n A S S D H G G G Q Q ! > A &XOX@X&X$X@X",
"#.OXOX+.O.O.O...X.} | ....^ F z 8 2 2 ; l V L I U Q _ _ f -.*.*.&.*.*.*.3 7 9 9 4 5 n n S S G P Q Q Q ^ / ^ ~ { D : / OXOXOX@XOX",
"OXO.O.O.O.o.....| X.} ^ F z j h 2 5 l l > 9 n V J L I f -.-.=.&.9.9.*.*.3 < 4 4 ; 9 n S F P E Q ! ! / / / / / } o.q l  .+.OXOXO.",
"O.O.O.o...} X.O.O.! N M j k h 4 q N F P F 9 1 l b b s -.-.-.-.&.R.D.&.=.- $ & & 1 x A F P Y ! ^ ^ / ....} ......o.} 5 S { +.o.+.",
"@X..} O.+.+.X.^ F z z k z h 2 c F P P ! / ` J 4 4 a -.;.=.8.&.h.}.C.=.-.X o + & 5 n F P Q ^ ` ` ......O.+.+.+.+.+.@XD 8 H } O.+.",
"O.@X@X#.} E B z k z z z 9 5 n P P Q ! | X.o.@X_ x *.;.;.=.=.=.W.).k.=.r o * * $ 6 S P Q / ..! ` @X#.$X@X$X&X$X$X$X$XOXq z H / O.",
"/ #.@XF z z M b z z z 5 5 N P P ! _ } O.@X#.@.@XT ;.8.;.5.8.C.}.!.h.=.p o * 1 & q F P ` } X...O.$X$X&X*X&X=X=X=X=X*X2X} > S G / ",
"` +.W k 7 k M b z l > 0 n G E ! ` } o.+.*X-X%X#.7.>.5.5.;.3.W.W.W.:.;.e o : 2 * c K ^ } ..O.$X&X%X*X=X,X2X=X2X2X2X=X=X2XA 8 F F ",
"V ..F k l z M z 9 2 0 b S P ! } ..+.@X@X%X,X-X%X5.3.3.3.=.C.W.W.J.;.:.@ * 5 2 * n Q ` X.+.#.$X%X=X,X2X2X5X5X3X5X4X4X2X:XOX5 z M ",
"b N N M M z 8 * ; 5 b Q G G / ..+.@X%X:X=X=X,X$.3.3.3.5.5.Z.W.W.C.5.3.@ ; q : ; N P / +.%X%X*X2X2X4X5X6X8X8X8X8X8X6X4X2X4XG ; M ",
"M k k z 7 ; 5 c 0 ; b / G E / ..OX%X,X4X5X2X=X$.e.e.e.d.:.C.J.J.b.:.>.+ 1 9 : * z K ! ..#.=X2X4X2X5X0X0XqXwXwXwXwX8X5X=Xo.{ q > ",
"l j 4 : q ! *X7X} : 8 S G ^ / ..O.@X&X2X,X4X&XO.d.0.d.e.>.g.Z.Z.C.e.>.* > 5 & * 8 n G / } O.&X4X3X6XwXrXtXuXyXyX8X4X#X .[ XXH : ",
"+ : v O.wXtXrXeX8XA * z F E / ..+.&X:X4X5X2X*X#.8.0.p.f.>.>.c.V.A.g.>.@ % % + % : l N H ^ ..+.$X,X8XwXrXwXwX8X4X#XoX . .{ XXD : ",
"A *XpXdXuXwX9X5X8X+.5 7 z B R W { o.OX;X>X&XOX .Z d.p.s.f.e.>.f.x.c.p.p o o o * < : 8 N H Q { +.*X,X7X8X5X:X#X+X .{ oXXX+XG + : ",
"pXdXuXeX0X0X5X2X,X4XA ; q l n F H [  .+X+X;X+X[ H 3.f.a.a.p.f.>.0.f.f.p.# X % = 5.s 5 1 b H W [ o.@X:X8X6XoX+X;XoX{ +X+Xc o A 2X",
"pXtXwX0X0X5X,X,X-X-X .5 : 2 2 2 0 q x A m m q 5 ; e f.f.s.s.f.p.f.0.f.f.f.r r 8.t.6.x 7 * 6 F [ [ { XX#X2X#X;X+X;X1X{ 0 0 &XdXdX",
"qX3X0X0X9X<X,X-X*X@X@Xv : 5 2 5 > 2 : ; 1 < : : : : r f.p.a.s.s.p.p.f.q.f.q.r.r.r.;.6 h ; X o 9 H XX+X .oX+X;X1X;XF 5 G 8XdXaXyX",
"6X2X6X5X<X,X=X%X@XO.o.P 2 5 x x z z A c b b b x h 5 1 %.r.a.a.a.s.a.p.f.f.0.q.f.r.2.; O ; A P ; ; c H o.+X+Xo.G > % +.aXyXyX8X8X",
"8X8X4X2X=X$X@X+.+.o.| P 6 l N n A A S S V V n 6.8.8 4 : *.q.a.a.a.a.s.p.t.q.q.q.q.*.o 0 / :X5X@X5 o : q c z 0 : + A 8X8X3X8X8X8X",
"2X:X=X*X$X@XOX+.o.X.} N 6 n A V S S S F S S V 7.q.a 5 : * f.q.s.a.s.w.s.q.q.q.q.q.r w ) ..+.2X8X2X0 ; : 8 A Q o.G A 4X4X4X2X2X2X",
"=X*X&X&X$XOX+.O.| | / c q S S F G G E S L L F 8.w.4.9 5 : p q.w.s.w.a.s.p.q.q.q.q.w J I ~ ' 3X8X7X..% q G / O.2XO.D :X4X2X*X2X&X",
"*X&X$X@XOX+.O.o.} } W l l P P E Q ^ Q A P ( U q.q.8.l 9 4 < q.q.w.s.s.l.w.q.q.q.4.0 A Y ' #.2X8X8X4Xq q G ~ OX7X&XD &X2X+...&X=X",
"$X$X@XOX+.o.X.} } ` E q x E ^ _ / } ` ! ( ! 8.t.t.5.l q 5 : f.q.t.l.l.s.t.q.q.q.< 0 A Y X.=X3X8XyXyXG 5 Q ..2X8X2XA +.2X+.o.&X&X",
"@XOX+.+.O.......} ^ S 9 V P Q } | |  .| _ ~.t.t.t.t.a 5 : a t.t.t.l.l.z.t.t.t.p < w A ~ +.*X5X9XeXuX*Xw G +.:XwX2Xc o.*X&X&X$X@X",
"+.O.+.o.....{ Q W P l 5 F E P !  .@.@.| T t.t.t.g.f.g.s s j.t.t.y.z.z.z.t.t.1.+ 6 w K ' #.-X9X9XeXuXrXS l O.*X8Xo.q ..@X@X@X+.+.",
"O.| ..} } } ! S S F 9 5 P ! Q Q U } | @.c.g.t.i.u.t.y.y.t.y.y.y.y.z.i.y.y.u.@ 1 6 A Y ' #.-X3XqXqXpXuXO.q R { oXF 8 ^ ..+.+.+.O.",
"| } } ` ! G S G S l 4 9 E ^ / / ! W ! ~.g.z.u.x.x.u.j.y.u.y.y.y.z.c.z.z.y.*.+ 2 a T ) X.%X2X3XqXqXeXpX8XS 8 H H l ; G } ^ ......",
"_ ^ E P G G S n h 4 : 0 R W ! / ` ^ Q 9.u.j.j.x.c.x.u.j.i.i.x.i.b.x.x.u.i.p + 5 C u.T X.#.-X3X9XqXeXuXeX| 4 9 l c 5 l Q ! Q ^ / ",
"E F P D S b j , : 5 5 ; 5 E W W ^ _ ( A.j.v.i.b.b.b.b.x.b.i.x.c.b.b.i.i.i.# ; 5 v j.b.' #.-X-X5X0X0XuXeX,Xw ; P OX:XA l G Q G Q ",
"D S N b h h 5 2 l S G A 5 5 F [ R R W C.v.v.i.i.b.b.b.b.b.b.b.b.b.b.B.i.x.t + 5 s v.b.T @.#.-X3X9X9XeXeX7XP q } +.4X2Xl h S E G ",
"n z h 8 8 5 5 S G S G ^ ^ A 5 n [ W H C.D.a f B.B.b.B.B.B.b.B.B.B.B.i.B.B.k.t a C.C.C.m.' @.%X-X3X9X0XuX5X+.l G ..OX8X&X8 h b S ",
"h 7 : : ; ; m ^ G n P / / } ! x l F W 7.7.j 5 N.v.B.V.B.B.V.B.B.B.V.B.B.B.B.B.B.v.B.v.g Y ' #.*X-X3X0XrX&XOXD c } O.&X7XQ > 8 h ",
": 5 v Y ! 5 5 ^ ^ ! ` ` } } ..o.K q x L E b 4 f B.V.Z.Z.A.Z.Z.Z.A.A.V.Z.B.V.B.B.V.V.C.g K ! @.#.-X3X6XwX@X@X^ l ! / } OXOXl : > ",
"S ..4XrXwX&X0 9 } O.X.o.O.+.+.+.+.` c 5 x B l s Z.Z.A.G.Z.S.Z.Z.Z.G.V.V.Z.Z.Z.Z.S.S.C.a m I ' @.%X3X8X,XOX$X+.l n Q / ^ H S ; 0 ",
":X8X0X0X7X8X:X9 l O.+.*X*X*X=X*X$X@X+.P 5 < 9 s S.G.S.F.S.G.G.G.G.H.S.S.S.Z.S.G.S.D.H.d c J ( O.%X@XO.OX$XO.#Xn , S F N z x S O.",
"<X<X7X-X+.6XrX&X9 n O.&X,X5X6X,X,X-X%X@X| x + f A.F.F.F.P.P.P.H.H.P.P.F.P.F.G.S.G.D.S.,.l A Y ^ / ` O.2X*XO.OXF 5 8 7 9 A ~ &X4X",
"-X:X,X,X%X2XwXeX@X5 F oX,X6X0X-X9X0X,X#._ N * M.,.i N.!.W.W.W.W.W.W.!.!.<.,.E.P.G.H.L.9.6 c A P ^ O.#.@X$X+./ H 5 : l P +.@X*X*X",
"*X-X-X,X3X4X3X8XwX/ 8 H O.4X5X$X@XO.[ T C 5 f G.<..   @ !._.!.!.!.'.<.    i }.!.P.S.P.N.1 q A K ! ! ! ^ ....H S ; x ^ O.O.#.OX&X",
"%X%X*X=X,X,X<X5X4X7XA h ] } ,X[ H B H m.I.h.P.F.C.  # e . !._.!.'.,.  r   u }.!.!.H.P.D.$ 5 l n S B F F H H H q 1 G _ } | o.O.@X",
"| @X%X*X=X,X*X@X*X<X&X5 B ]  .] H H z 7.E.E.P.P.L.  r >.  X '.'.Q.    =.  i |.).).P.P.H.+ = 8 l n B F F H H F : x Q G Q / } o.+.",
" .@.@X@X@X@X@X@X&X*X<XS ; b N B b c A m.I.E.E.E.}.,.    t t n. X,.y #   y }._.).).Y.P.L.$ * 6 b M F F F A c > : A S A G / / } ..",
"|  . .| O.O.OX@X@X&X&XE ; ; q v S ~ +.^.E.E.E.!.].|.Q.M.]._.K.].Q.|.|.).|.'._._.`.Y.P.D.$ : 5 9 9 l 9 8 8 5 : : z S n H ! W ^ ` ",
"_ } | | o.+.oXOX@X@XOXE : c P Q ~ ~ ` m.Y.Y.E.).'.'.{. X].].].].].|.'.].'.'.`.`.].!.I.M.o % & : > 9 c S Y ..S ; > n G G Q ^ ^ / ",
"[ } } } o.O.O.O.+.+.oXN 0 S z A P Q Q T Y.E.U.].|.].].].`.|.{.{.|.].`.|.].].`.|.].Y.R.,.X o $ 4 l n P / ..O.&XA % 7 n D E Q ! ^ ",
"! / / ` } ..O.O.....[ l l A l n P P P T R.Y.!.|.{.].[.].]. X{.{..X.X[.].[.].]. X`.L.R.y + & * 5 c x Y ..+.@X&X:Xq % 7 z N F P ! ",
"S F P E Q E E F G F F l 5 b S S G P P I !.Y.Y.]. X].[..X.XM.@ . X i  X.X].[.{.{./.I.E.O - * : 8 A D } OX&X:X*X8X$X2 = , 7 l z n ",
"7 h z z z z z z M M N 5 , , l n S G D G M.T.Y.`.[. X[.{.g . y i u X t (..X[.].`.Y.R.i * 5 6 * 5 S Q ..+.*X2X5X7X8XP ; 5 > > > 7 ",
"5 1 1 1 5 > > 7 > : ; ; > > 8 j z A A S J /.T.T.[.`.{.`.n.(.{.{.[./.,.T.{.`.`.U.R.U.* 3 c 9 & , z S H / oX#X>X>X>XXX: + 0 0 5 > ",
"#.+...` ~ Y P C A A c q 0 5 > : 5 h h h q M./.T./.[.`.`.[.{./.Y.Y.T./.Y.Y./.Y./.!.3 6 w 9 4 & $ > l l A H H F G G z 0 ..4X2X2X&X",
"sXsXiXiXtXyXeXeX8X5X2X&XOX..~ D l : 2 0 , 8 m.)./././.`.`././././././././././.K.3 3 w 6 4 * < S ~ OXX.A ; ; Q ~ & 0 yXaXsXsXaXaX",
"pXuXuXuXuXtXeXeXwXqX8XqX8X5X2X:X@XD : ; : > 2 d M.U.Y.K.n.u t # @ t i M.U.M.u X < 6 6 4 - 4 @XwXiXaXaXyX} 8 Q 4X8 ..dXsXsXpXsXpX",
"rXrXeXeX0XwX0X0X0X9X9X<X2X2X@X%X2X2XG 0 ; ; ; + X + + + + ; ; ; 1 ; + O X O + + 1 9 j 1 : X.5X3X8X8X6XeXyX2XA : 0 5XsXpXpXiXqXrX",
"eXeXeXwX0X0X0X9X<X9X<X,X,X=X-X=X$X$X#.~ 0 ; + 2 c A A A K K K K K K K J c q 5 : ; : 4 * Y =X&X2X4X6X5X4X4X4X=X0 x yXpXuXpXqX$X5X",
"eX0XqX0X0X0X9X9X5X3X<X,X-X=X%X%X#.#.#.#.A + ; ' -X#.@.' ' ' ' ) Y I ) ) ) ~ ~ Y D : o A O...+.&X*X@X$X&X+.o.O.A ~ iXuXeXtXwX3X9X",
"0X0X0X0X9X0X<X9X,X,X,X-X*X*X%X@X$X..~ X.A ; K -X-X%X#.#.' @.@.@.Y Y ' ' ) ) ) ) ..G ; D ~ ~ } O.+.~ ' ....{ / A OXiXeXeXwXeXeXwX"
};
