/* XPM */
static char *result[] = {
/* columns rows colors chars-per-pixel */
"64 64 229 2 ",
"   c #000000",
".  c #0B0609",
"X  c #160A09",
"o  c #0E1114",
"O  c #121210",
"+  c #161517",
"@  c #14161B",
"#  c #16191D",
"$  c #2D110F",
"%  c #3A241C",
"&  c #151722",
"*  c #171A22",
"=  c #1A1D23",
"-  c #1C1E2A",
";  c #251D28",
":  c #3A1D22",
">  c #1C2126",
",  c #1E232A",
"<  c #1F2232",
"1  c #1F2239",
"2  c #21252D",
"3  c #2F212A",
"4  c #23282E",
"5  c #362423",
"6  c #222532",
"7  c #2B2737",
"8  c #252B33",
"9  c #292D36",
"0  c #22263A",
"q  c #252A3A",
"w  c #2A2D3B",
"e  c #2A3037",
"r  c #2C323C",
"t  c #32323E",
"y  c #511818",
"u  c #711519",
"i  c #542B17",
"p  c #6F311C",
"a  c #4C1F25",
"s  c #462A27",
"d  c #4A2D36",
"f  c #522E33",
"g  c #792426",
"h  c #69332F",
"j  c #723239",
"k  c #262B41",
"l  c #292E43",
"z  c #2B2F49",
"x  c #2E3343",
"c  c #2E334C",
"v  c #313544",
"b  c #3B3645",
"n  c #333A45",
"m  c #393D46",
"M  c #32354A",
"N  c #353B4C",
"B  c #393D4C",
"V  c #2F3350",
"C  c #363C52",
"Z  c #353A57",
"A  c #3A3E53",
"S  c #4B3845",
"D  c #683947",
"F  c #3B414D",
"G  c #3C4354",
"H  c #3F4855",
"J  c #3D445B",
"K  c #3F485A",
"L  c #3D4462",
"P  c #424454",
"I  c #444956",
"U  c #41465B",
"Y  c #434B5C",
"T  c #494D5D",
"R  c #594852",
"E  c #47505E",
"W  c #4C515E",
"Q  c #6D5253",
"!  c #404664",
"~  c #454D63",
"^  c #4A4E62",
"/  c #454C6C",
"(  c #475063",
")  c #4A5264",
"_  c #4F5A67",
"`  c #4C556A",
"'  c #4F596B",
"]  c #515565",
"[  c #555865",
"{  c #525769",
"}  c #535A6D",
"|  c #585D6E",
" . c #484D76",
".. c #4C5472",
"X. c #4F5877",
"o. c #545D72",
"O. c #595E72",
"+. c #525B7B",
"@. c #685964",
"#. c #59606D",
"$. c #566175",
"%. c #5A6275",
"&. c #56617B",
"*. c #5C657B",
"=. c #5E697E",
"-. c #6B656E",
";. c #61677A",
":. c #616A7D",
">. c #87181B",
",. c #961D1A",
"<. c #9B1D1B",
"1. c #A81D1C",
"2. c #B71D1C",
"3. c #8F2E1C",
"4. c #B7211E",
"5. c #A71F21",
"6. c #942427",
"7. c #8B302D",
"8. c #973827",
"9. c #A42326",
"0. c #AA3A29",
"q. c #B23022",
"w. c #CD121D",
"e. c #D51C1C",
"r. c #DB1E1E",
"t. c #E61E1F",
"y. c #C7211E",
"u. c #D5211E",
"i. c #DB231E",
"p. c #DB2A1D",
"a. c #DE321E",
"s. c #E4241F",
"d. c #E1361F",
"f. c #D81E21",
"g. c #E71E21",
"h. c #F81F23",
"j. c #C42220",
"k. c #D52221",
"l. c #D92723",
"z. c #E42320",
"x. c #EA2121",
"c. c #E52B20",
"v. c #E82D21",
"b. c #F12121",
"n. c #E43421",
"m. c #E63B22",
"M. c #8E481E",
"N. c #92462D",
"B. c #AF5129",
"V. c #BB5124",
"C. c #CD502C",
"Z. c #D65935",
"A. c #E94323",
"S. c #EB4B26",
"D. c #ED4C29",
"F. c #EE532A",
"G. c #ED582A",
"H. c #F1552A",
"J. c #F35C2D",
"K. c #ED5C32",
"L. c #CF672C",
"P. c #E56927",
"I. c #F5652D",
"U. c #F7772C",
"Y. c #F37B2D",
"T. c #F76932",
"R. c #F56C32",
"E. c #EA7332",
"W. c #F87434",
"Q. c #F67C35",
"!. c #F87B35",
"~. c #884E4A",
"^. c #926156",
"/. c #ED8735",
"(. c #F98334",
"). c #F28934",
"_. c #F68C37",
"`. c #F98A35",
"'. c #F68A39",
"]. c #F98C39",
"[. c #F79236",
"{. c #F59439",
"}. c #FA953B",
"|. c #F59B3C",
" X c #FB9A3C",
".X c #FBA13D",
"XX c #FD9E40",
"oX c #FCA541",
"OX c #545D82",
"+X c #5A6483",
"@X c #5F6A81",
"#X c #5B658A",
"$X c #636D83",
"%X c #616C8D",
"&X c #667086",
"*X c #697286",
"=X c #66728A",
"-X c #6B758B",
";X c #6E798E",
":X c #717A8E",
">X c #636D95",
",X c #6E7A92",
"<X c #687598",
"1X c #737D94",
"2X c #727E99",
"3X c #6A75A1",
"4X c #768096",
"5X c #798296",
"6X c #75829A",
"7X c #7A859C",
"8X c #7D889F",
"9X c #7B87A1",
"0X c #7E8AA1",
"qX c #7B8BA7",
"wX c #80899F",
"eX c #838CA4",
"rX c #838FA9",
"tX c #8490A6",
"yX c #8691AA",
"uX c #8A93AC",
"iX c #8797B3",
"pX c #8A96B1",
"aX c #8D99B2",
"sX c #929CB5",
"dX c #939FB9",
"fX c #96A0B7",
"gX c #95A2BC",
"hX c #9AA5BE",
"jX c #9AA7C3",
/* pixels */
"eXeX0X8X8X7X7X1X1X2X:X;X-X*X$X$X:.o.` $.v 9 -X5X5X5X5X5X5X5X5X5X5X:X5X:X:.:.:.-.;.;.9 N o.` X.o.$.$.o.o.o.' K F 6XiXyXyXtXtXtXtX",
"0X8X8X7X7X2X1X1X1X:X-X-X-X&X$X+X*.$.o.o.r I 5X:X4X:X4X4X1X:X:X:X:X:.:.:.:.:.:.:.;.:.m 7 ( ( ) ) ) ` ` ) ( ' F G iXqXyX0XtX0XeX0X",
"8X7X7X6X2X1X2X,X:X-X-X&X$X:.;.O.$.o.X.( N %.*X| -.5X*X*X-X*X*X*X:.;.;.;.;.;.;.#.%.;.I , C ( E ( ( ( E E K K < _ dX5X4X0X0X0X8X8X",
"-X7X2X1X1X1X-X*X*X$X$X;.:.*.+.O.o.o.} H H *X:._ #.:.:.:.$X$X^.-.;.;.#.*.#.*.#.*.O.O.T 6 1 c F C G F N c x 1 , @XqX6X4XqX8X7X8X;X",
"-X,X-X-X=X=X$X$X@X=.=.=.{ ` +.%.o.} X.N I :.;.;.=.=.;.*.*.#.Q.^.| | | | #.#.| | | | I 2 < < 1 1 1 1 q 1 < , 8 $X6X6X6X1X1X,X4X=X",
"-X*X=X*X=X$X$X$X@X=.=.*.^ ^ O.o.o.} ( r ] ;.;.;.;.*.;.%.-.@.W.Z.{ { [ { [ | } | [ } B 2 8 4 < < , < , , 4 4 > _ 9X;X,X;X;X;X=X;X",
"*X=X=X=X$X$X$X=.=.=.*.*.o.o.o.o.} X.N w | } O.%.#.%.%.| #.B.I.I.Q T ) ] [ { [ ] ` T e , 4 e e e r r r x F x , e <X=X,X;X;X-X-X-X",
"*X=X$X$X$X$X=.=.*.&.&.$.%.o.o.o.' ` 8 t O.[ { %.#.#.| | [ J.H.H.~.I T T T T ^ T { F , r x n c N G G G J G K F * K 6X=X-X-X=X-X=X",
"$X$X$X@X$X=.=.*.*.*.%.o.o.o.o.} o.C > N { } { { O.O.] ] Q D.F.A.7.J Y I I U T W ^ 7 9 N n M F F G K K G K K ( r < @X=X@X-X=X=X=X",
"$X$X@X@X=.=.*.*.&.O.$.o.o.o.o.) Z 8 , x U T ) ^ ] | | ] R Q R c.N.J F G U U T T b 6 x M N C G J K K K K K ( ) ) < F <X@X@X=X&X&X",
"$X@X=.=.*.*.*.&.%.o.O.o.o.` J c q 4 4 , w A U / ] T | | ^ S P 8.j n B P A S B B 9 q C F G H K Y ( ( ) ` ' ) _ X.H , ` @X=.$X$X$X",
"=.=.=.*.*.&.$.$.O.%.$.` J c z k 4 8 x x 2 7 B S S T ] ^ U U d S b b v b b M c r , x F G K Y Y ~ ) ) ' ' ' ' ' o.&.x x +.=.=.=.*.",
"*.=.*.&.$.o.*.*.*.) C V l z l 6 e C H U G r 2 x Z A S J B S g t t w w w w 7 9 4 9 N J K Y E ) ` ' ' X.o.$.$.$.$.=.' 8 G X.=.&.=.",
"$Xo.o.*.=.=.$.) J c z z c k 8 v J Y ~ ) ` o.H 9 7 M C M v f ,.7 6 2 2 2 4 6 2 2 r J K Y ( ` ' o.$.$.*.*.=.=.=.=.=.%XK 8 L o.=.*.",
"*.$X$X:.o.~ C c c c c c q 8 N K Y ~ ` O.&.%.$X$.n , 6 7 8 >.,.2 ; 6 w r n n x 2 n K Y ` ' o.) } $X=.:.&X=X&X&X&X&X&X@Xx c L ' *.",
"' :.$XJ c c V V c c c 8 9 F Y Y ) } } *.$X$X$X*X*X( 4 > 5 <.,.w w x x N M J N 4 N ( ) ' o.%.$.=.&X&X-X-X=X-X;X;X;X=X4X' 8 G J ' ",
"} *./ l q x V c c l 6 e C K ~ ) ' $.*.=.-X1X:X-X:X*XY q g <.6.w w t B n x K N 8 G ) ' o.$.=.:.&X*X-X;X1X4X4X4X4X4X;X=X6XF 8 J J ",
"A $.J z c z V c w 4 e M J K ) } $.=.$X$X-X6X7X5X5X:.~ d 1.y.>.l v S h G G E n 8 H } o.*.=.:.=X*X;X1X4X5X5X7X4X6X6X4X4X4X$X8 z V ",
"M Z C c V c q , , 8 M ( K E ' $.=.$X*X,X;X1X8XeXeX:.~ >.e.k.h w x n <.j Y ) t 6 H ( ' =.=X-X;X4X4X7X7X8X0X0X0X0X0X8X4X4X6XG , Z ",
"V c z c q > 8 v e > M ' H Y ' $.@X*X,X6X9X7X7X7X2X&.j 5.g.j.s q r B 6.1.Y Y e 6 C Y ) #.:.;X6X6X4X7X0XeXtXyXyXyXuXqX6X;X&.X.r < ",
"x z 2 2 r ) -XqXo.> q G K ` ' o.=.@X=X6X6X9X6X-X$X@.<.g.g.<.w r v m 7.1.j M 6 , l C J ' $.&.=X6X6X8XuXuXaXaXiXpXqX6X%XX...OXL , ",
"# , n ;.yXaXuXyXqXF > c J ~ ' $.@X=X,X6X7X6X6X,X$X6.k.h.k.g 9 w w v 7.2.9.w > > , x Z J ' =.@X=X1XeXtXuXuXyXqX6X=X+X+.+.X.OXK > ",
"F *XdXjXsXyXeX7X0X=.6 q c Z L ` X.&.#X=X6X<X#X+XR 2.g.g.2.a < , 6 0 6.f.1.: * < < , w C L X.$.@X;X4X7XtX8X<X%X%X+...+XOX#XK # , ",
"gXjXsXuXeXeX8X1X1X4XG > r x N J L ..X.+X#X>X#XX.1.k.h.e.2.3 & - , 1 2.f.2.a , 8 x x 9 9 J L L ..&.@X,XqX9X+X#X%X+XX.#X#XF o F 4X",
"fXaXyXrXeX7X2X1X:X:XO.7 , 4 4 4 8 r n F B N t f u.g.g.k.,.@ @ @ * ; k.g.4.a 8 w x F F r , r K X.X.X.+X%X6X#X#X%X>X3X$.e 8 =XjXjX",
"eX5XeXeXwX2X1X:X-X$X@XN , 6 4 8 8 , , > 2 > > <.r.x.g.l.,.o o o O u r.g.y.3 9 v F c c c < o # e / OXOX+.#X%X>X3X>XK 4 K qXjXgXiX",
"8X4X8X7X2X1X-X&X$X*.&.Y 4 9 x x c c F c M v d k.g.x.x.k.y.u o o y y.l.r.<., 7 w r c q > 8 K _ > # n ( +.#X#X+.K < * =.gXpXpXqXtX",
"0X0X7X1X;X*X$X=.*.*.o.Y 9 v C N F F G F B M j k.x.x.g.k.y.k.1.1.y.u.b.r.u > , q 1 > > F =XiXiX4Xe @ , e n M e , # F qXqX5X8X8X0X",
"4X1X,X-X&X$X@X=.&.%.o.G 9 N A G G G G J A N 6.k.x.t.z.g.y.y.y.y.r.g.g.w.& = h # # e $.7X7X5XtXiX6Xr , , 8 G ( =.K F 7X6X6X4X4X4X",
";X-X*X=X$X@X=.*.%.O.' v r G G H K K Y G G H 9.r.t.t.t.t.t.r.r.t.t.b.f.>.o % U.5 F =.;X4X-X-XyXyXqX&.= r K ' =.,X=.G ,X6X4X-X4X=X",
"=X=X&X$X@X=.&.%.o.o.` x x Y Y ^ ( ' ) F U ^ 9.g.x.s.s.s.s.x.x.s.x.i.k.$ o i U.B.#.$.:.;X4X7X0XaXiX7Xr r K ) :.qX=XH @X6X=.$.=X;X",
"&X$X$X$X=.=.&.o.o.` ~ w x ~ ` ` ' o.' ) ) T 6.c.c.z.z.z.z.z.s.v.c.e.1.. o C.R.Z.) #.:.-X5X8XtXyXaXiXK 8 ( $.4XqX4XF =.4X@X*.=X=X",
"@X@X=.=.&.$.$.&.o.` G q N Y ) } O.O.O.%.| [ D r.v.s.v.v.c.v.v.v.k.e.y . s J.H.K.T | =.-X4X5XeXuXsXsX-Xr K =.,XyX4XF *.=X=X=X&X&X",
"=.=.*.%.$.$.$.( ~ Y M 8 J ~ Y ) o.=.:.*.^.Q R w.v.v.s.v.c.s.d.v.e.e.$ # 8.S.S.0.E } =.*X4X5XeXyXuXsXpXP x &.=XqX&.e $.&X&X=.=.*.",
"&.%.&.$.$.} K K H J w 8 ~ ) ) ~ ` } &.=.Z.E.) D p.d.v.d.v.d.v.v.e.e.X = q.d.A.R I | ;.*X4X5XtXuXuXsXsX*.l ~ X.+XJ 8 ` $.=.=.=.*.",
"%.o.$.' ) J G J F c 2 r ~ ` ' ` ^ ` ` } Z.R.Q Y 9.i.m.m.n.n.m.v.r.e.y * q.d.8.S W | :.-X:X5XeXyXuXaXfX0XF l J L x > L ' ` $.%.$.",
"{ ) ~ Y K K G F q 8 , 9 ~ ~ ) } o.` ` ^ Z.H.K.J v 1.p.A.D.A.D.A.p.i.q.# g p.t F T | :.*X1X5XeXyXuXaXsXaX| 4 w x n 8 x ( ) ( ` ' ",
"Y Y K K G N l 1 < 6 e > 9 ~ / / ` o.} ` C.A.A.8.t 7 4.p.F.H.D.H.a.e.p.y 2 f t P ] #.:.:X1X7XeXeXyXuXsXuX1Xt > Y @X,XF l ~ E J ( ",
"H J F c l k 8 , t G J N 8 8 J ../ ~ ` ` ~.a.a.a.S 8 ; l.p.F.K.F.J.n.i.p.s 4 n H W | :.:X1XwXwXeXtXuXuXuX0XY r o.*.6X4Xn k J Y Y ",
"n c k l q 8 8 G K J Y ) ` N 9 N ....L J L 8.i.p.b - * : l.n.J.T.I.J.a.p.a.s t F T | :.*X:X1XwXwXeXtXuXsX9X*.v K $.$XqX&X1 k N F ",
"k 1 2 , > = N ` H n ~ ` ` o.) n r ! ..~ A C D S v 6 < - <.a.A.R.I.T.T.A.p.a.d F K _ %.$X-X5X7XwXeXeXeXaX=X@XK x o.*.=XqX( , k k ",
", 8 n E ) 9 8 ` ' ` } o.o.o.%.&.Y t N / / A M M v k 0 @ y m.n.I.W.T.W.W.D.a.m.d G E o.:.*X1X1XwX7XwXeXyX$X&X' r ) ' $.@X@Xx , < ",
"G $.6XuXiX@Xe r $.$.$.*.*.=.=.=.:.o.n e B ! S A M w # + f A.m.F.W.T.W.W.Q.F.a.A.n I ] %.:.-X:X4X7XeXyX1X@X$X*.n F K ' ` L G > e ",
",X9XyXrX9XrX;Xe v &.=.=X-X;X-X;X-X&X$XI 7 7 0.S 8 = O 2 h A.A.F.W.W.W.W.W.Q.F.n.8.m T _ ;.$X-X4X2X:X@X@X&X*.%XC 1 G L N N x G *.",
"2X2XeX:X*.wXaX*Xw C &.;X4X7X7X4X1X1X-X&X*.D A.h H ) 8 2 0.A.S.F.Q.Q.!.!.!.!.!.D.A.f F E | ;.$X=.*.*.=.5X-X$.@XJ 8 q 8 w F ' =X4X",
":X,X1X1X*X1XrXpX@X8 J &.1XeXwX;XeXtX5X=Xo.0.A.H.~.@.R 3.S.F.A.K.'.Q.!.!.!.W.].T.A.0.n P E ` { } %.$X&X$X&X@X} L 9 > x T &.=X-X-X",
"-X-X,X1X7X5X5XeXiX' w L &.4X7X&X$X=.` J S H.R.J.S.K.H.G.F.F.A.R.XX!.Q.!.(.(.Q.'.I.S.d r F Y ' $.o.o.` ` $.$.! G , r ` +.=.;.@X=X",
"*X*X=X-X1X1X2X5X6X9XF l / o.6X..L Z Z Z j J.].R.D.F.J.J.K.S.G.`.!.!.XXXX(.Q.'.'.W.S.7.e r N Y J U J L J L L ! r 2 K } o.o.&.*.$X",
"%.$X*X*X;X:X-X=X-X1X=X6 C  .OX ./ L c q 8.R.].].R.p y u I.R.Q.'.(.}.V.i p Q.].`.).I.0., 6 l N C J J L J L L J , x ( K ( X.$.$.*.",
"O.+X$X$X$X$X$X$X=X-X2XH > N C C M n F Y B.!.XX].XXN.    $ _. X`. XM..   a XX`._._.I.C.* 6 l M C J J L J F x 8 , F K n K ' ' o.%.",
"O.O.O.+.*.*.@X$X$X=X=X~ > > r N H _ *.=.Z.!.XX].XXM.  2.  O |..XL.  u $ O .X]._.[.!.S.* 6 w x n M x x w e 8 , , c F N E ( ) ` o.",
"} +.O.O.+.=.=.@X$X%X@XY 4 v Y ) ` ' ' ' Z.(.}.].}.[.$ .   O B..Xp $ . X L. X_._.{.(.C.@ * , , 6 8 r v G E X.G > < N J L / ` ` ` ",
"} X.o.o.&.*.=.*.=.@X+XF w F M F ( ) ) ) C.(.XX{.{. X{.M.V.{.L.).E.[.B.). X_.[._. X`.V.o @ # = 7 x F ~ ' $.*.=XF * 1 N H Y ( ) ` ",
") ` ' o.o.$.*.&.$.&...l r C x N Y ~ ( Y B./.XX{.{.[.}.oX.X X|.{.|.|..X.X[.{.{.[.|.(.3.+ ; 2 2 w N N E $.=.$X;X;Xr = 1 c F J ~ ) ",
"A J Y ~ ~ ~ Y Y J J J x e N G G K Y Y I ~.(.XX{.{.{. X{.{.{. X.X.X|.{.[.[.{.[.{.{.(.p = 6 7 , r J ( $.&X=X,X;XqX=X, < 1 q l c N ",
"q z l c c c V c V V V e 1 1 l N G I Y H Q W.|.|.{.{.{.{.|..XL.B.L..X.X{.{.|.{.|.[.I.5 6 t t , w G ) $.=.;X1X7X7XqXY > 8 , < 1 1 ",
"4 4 < , < 1 6 1 < , > > < < q k x F G G G V._.{.|.|.).|.|.i X X . i L..X[.[.|.[.(.M.2 t S r - 0 c J K o.+X=X<X<X<X+X> # e e < 8 ",
"&X=.$.' _ E I S F F n r e 8 , , 1 x z l t R Y.{././.|.|.B.i L./.L.i 3.)././././.Y.s t b t 0 = * < l N c L L J J J c r $.4X6X4X&X",
"gXgXfXfXfXaXaXuXqX6X4X;X$X$.' Y t , 1 r q q N.Y.).|.[.|.).|.Y.P.P.Y.P.P.P.P.P.).p 7 b 7 6 - , H ' =X*.F > > ( ' * r iXgXhXhXgXgX",
"fXfXfXsXaXpXuXyXtXtXtX0X8X8X,X,X&XH , > 8 < < M.)./.[.|.[.).U.).P.Y.).U.Y.(.U.i 2 7 7 7 ; 7 $XpXgXgXgXiX$.8 ( 6X9 $.jXhXhXgXhXgX",
"aXaXuXuXyXeXeXeXwXwXwX1X4X4X$X*X4X=X_ 4 > > > # i M.P.L.M.M.i % 5 i p B.V.M.% o > w k < > *.8X5X0X0X0XuXiX4XF , 8 6XhXfXfXaXyXuX",
"uXuXuXtXeXeXeXeXwXwX2X1X1X;X:X-X=X=X&X' e > # 4 e n F m m m m F n m m t e 5 , > > , 6 = E -X=X4X6X8X8X5X6X6X=Xe F dXfXsXfXtX&X8X",
"yXyXtXtXeXwXwXwX2X1X2X1X1X-X-X*X$X:.:.:.H # > #.:X:.#.[ W W W I F F E E I I E I F , o F $.$.=.=X-X=.&X=X@X&.=.F E dXsXuXaXtX5XeX",
"eXeXeXwXeXwX2XwX5X1X1X1X-X*X*X$X=.$.#.#.F = I :X*X:.#.#.#._ [ _ I H W W W W W W _ H > H _ _ o.*.=._ #.*.$.o.' F &XiXuXuXuXuXuXtX"
};
