/* XPM */
static char *result[] = {
/* columns rows colors chars-per-pixel */
"64 64 233 2 ",
"   c #010202",
".  c #0A0406",
"X  c #140A0B",
"o  c #0D1015",
"O  c #111216",
"+  c #13151B",
"@  c #15191D",
"#  c #1B181C",
"$  c #261310",
"%  c #341812",
"&  c #171823",
"*  c #1A1D23",
"=  c #1B1F2A",
"-  c #1C1E32",
";  c #221F29",
":  c #1C2126",
">  c #1E232A",
",  c #1F2231",
"<  c #1F2239",
"1  c #21262D",
"2  c #2E252D",
"3  c #23282F",
"4  c #382522",
"5  c #212532",
"6  c #252B33",
"7  c #292E36",
"8  c #22263A",
"9  c #252A3B",
"0  c #2A2E3B",
"q  c #362B35",
"w  c #2A3037",
"e  c #2C323C",
"r  c #36353D",
"t  c #481918",
"y  c #541516",
"u  c #73181B",
"i  c #4D2A16",
"p  c #6D2B19",
"a  c #753A1C",
"s  c #481C20",
"d  c #701E21",
"f  c #482A2A",
"g  c #56262C",
"h  c #452E37",
"j  c #5A2D36",
"k  c #543A3A",
"l  c #742428",
"z  c #6E322D",
"x  c #76393A",
"c  c #7C461F",
"v  c #7D4436",
"b  c #272B41",
"n  c #2A2D43",
"m  c #2B2F49",
"M  c #2D3343",
"N  c #2E334C",
"B  c #313544",
"V  c #343A45",
"C  c #3A3947",
"Z  c #32364B",
"A  c #343B4C",
"S  c #393E4B",
"D  c #2F3350",
"F  c #363C52",
"G  c #353A56",
"H  c #3A3E53",
"J  c #4D3944",
"K  c #743C44",
"L  c #3B414C",
"P  c #3C4354",
"I  c #3D445A",
"U  c #3F4859",
"Y  c #3D4462",
"T  c #54454E",
"R  c #424554",
"E  c #484252",
"W  c #444956",
"Q  c #41465B",
"!  c #434B5C",
"~  c #494D5C",
"^  c #46505D",
"/  c #4B515E",
"(  c #70484C",
")  c #674B52",
"_  c #404666",
"`  c #454D62",
"'  c #494E62",
"]  c #454D6B",
"[  c #475063",
"{  c #4B5364",
"}  c #4D5768",
"|  c #4C556A",
" . c #4F596C",
".. c #515565",
"X. c #54596A",
"o. c #535A6D",
"O. c #4B4C70",
"+. c #4C5472",
"@. c #4F5876",
"#. c #505777",
"$. c #545D72",
"%. c #595E72",
"&. c #525B7B",
"*. c #5A626F",
"=. c #566175",
"-. c #5A6275",
";. c #56617B",
":. c #5C657B",
">. c #5E697E",
",. c #6D606E",
"<. c #61677B",
"1. c #626A7D",
"2. c #8C1C1B",
"3. c #961C1B",
"4. c #A31E1C",
"5. c #AA1C1C",
"6. c #B91B1D",
"7. c #91251B",
"8. c #88351D",
"9. c #9C331F",
"0. c #B6251F",
"q. c #B12A1E",
"w. c #B41B21",
"e. c #872426",
"r. c #962323",
"t. c #8E3631",
"y. c #A52728",
"u. c #AF322B",
"i. c #C6191E",
"p. c #D2151A",
"a. c #D31B1C",
"s. c #C6211F",
"d. c #DA251D",
"f. c #DB291E",
"g. c #E9391C",
"h. c #C81E21",
"j. c #D31D22",
"k. c #C92424",
"l. c #D92823",
"z. c #C73828",
"x. c #DC3427",
"c. c #E13422",
"v. c #EE3027",
"b. c #E53C24",
"n. c #E63B2A",
"m. c #E93828",
"M. c #8E441F",
"N. c #914524",
"B. c #AF5028",
"V. c #BD6528",
"C. c #D3452B",
"Z. c #E84225",
"A. c #E84627",
"S. c #E9432A",
"D. c #EE4C2A",
"F. c #F14A2B",
"G. c #EF512A",
"H. c #F0542C",
"J. c #F35B2D",
"K. c #F35D31",
"L. c #C8672B",
"P. c #D2692E",
"I. c #F5642E",
"U. c #E9742E",
"Y. c #F56432",
"T. c #F66B34",
"R. c #F76D36",
"E. c #F97437",
"W. c #F87836",
"Q. c #FA7C3A",
"!. c #8D3D46",
"~. c #854C4F",
"^. c #9F634B",
"/. c #E47142",
"(. c #EE8B37",
"). c #F78834",
"_. c #FA843B",
"`. c #FA8B3C",
"'. c #F5963B",
"]. c #FA933D",
"[. c #F99D3D",
"{. c #F9A13E",
"}. c #F48C41",
"|. c #F69742",
" X c #FA9D41",
".X c #F5A442",
"XX c #FAA442",
"oX c #F8A646",
"OX c #FBAB44",
"+X c #FDAD4A",
"@X c #FCB246",
"#X c #FCB348",
"$X c #545D82",
"%X c #5B6587",
"&X c #5F6A81",
"*X c #5F6991",
"=X c #636D83",
"-X c #626D8C",
";X c #667086",
":X c #6A7286",
">X c #66728A",
",X c #6B758B",
"<X c #6D798E",
"1X c #71778C",
"2X c #717A8E",
"3X c #636D95",
"4X c #6E7A92",
"5X c #687498",
"6X c #737D94",
"7X c #727E99",
"8X c #6A75A1",
"9X c #758097",
"0X c #798296",
"qX c #75829A",
"wX c #7A859C",
"eX c #7D889E",
"rX c #7B88A3",
"tX c #7E8AA2",
"yX c #80889F",
"uX c #838DA4",
"iX c #838FA9",
"pX c #8390A6",
"aX c #8691AA",
"sX c #8A93AC",
"dX c #9098AF",
"fX c #8B96B1",
"gX c #8897B4",
"hX c #8E99B3",
"jX c #929BB5",
"kX c #939EB9",
"lX c #95A1BB",
"zX c #9AA5BE",
"xX c #9AA7C3",
/* pixels */
"uXuXtXeXeXwXwX6X6X6X2X1X,X:X;X=X=Xo.| %.B 9 ,XwX0X0X0X0X0X0X0X9X0X1X0X1X1.1.1.1.<.<.7 S  . . .=.=. .=.$.$. .U L 9XgXgXsXpXsXpXpX",
"tXeXeXwXwX7X6X6X6X6X,X,X>X;X=X=X:.;.$.$.e ! 0X2X9X2X9X0X9X2X2X1X1X1.1.1.1.<.<.<.<.<.C 7 [ [ [ { | | | | [  .L P gXtXtXtXtXtXuXtX",
"eXrXwXqX7X6X6X6X1X1X:X>X=X&X&.%.$.$.$.` V -.:X*.*.0X1.1X,X:X>X&X1.<.*.:.-.<.*.*.-.<.W , F [ ~ ` [ [ [ ^ U U > } kXwXqXtXtXeXeXrX",
",XwX6X6X6X<X,X,X>X=X=X<.:.&X%.%.$.$. .P R :X1.} *.1.1.1.1.1.,./.^.*.*.-.*.-.*.*.-.%.~ 1 < N L P L F A N M < 3 >.tXwX9XrXeXeXeX,X",
":X6X,X,X>X;X=X=X&X&X>.:.|  .%.%.$. .$.A W 1.<.<.1.1.:.<.-.*.C.W.^.X.X.X.X.X.*.X.X.X.~ 6 > , < < < < 9 < , > 6 ;XqXqXqX4X6X4X9X>X",
",X>X;X,X;X=X=X&X>.>.>.:.' ' -.&.$. .` M ..<.<.<.*.<.<.<.*.~.b.}.) ......X.X.X.X...X.C 3 7 3 , , , , > > 3 3 :  .rX4X4X<X<X<X,X<X",
",X,X>X>X-X=X=X&X>.>.:.:.$.$.$.$.$.$.F 7 X.X.%.-.-.-.<.*.%.!.g.B...( ) ~ / ....../ ' 7 > 6 6 7 w e e M M V M > w >X4X<X4X<X,X,X,X",
";X=X=X=X=X1.>.>.>.;.;.-.-.$.$.$. .| 6 r %.X.X.%.*.*.X.X.X.!.A.) / u.) W ~ ~ ~ ~ } L , e M V N F L P P U U U L @ Y qX>X,X,X,X>X>X",
";X-X-X&X&X>.>.>.:.;.;.%.$.$.$. .$.F : A ..X...X.,.%.X.X.} ( u.~ x m.T E Q R R / ~ 2 9 F Z A L L P I I L U U [ e , &X>X-X,X>X>X;X",
"1.&X1.&X>.>.:.:.-.-.%.$.$.$.$.| G 9 > M Q ' ..' ..%.%.X.X.X.) ! t.Z.x C H J R Q B 5 M Z Z L P I U U ! U Y [ [ } , A >X=X=X>X;X=X",
"1.&X>.>.:.:.:.=.-.%.%.=.=.| I N 9 1 3 > 0 J Y ' ' ~ X.*./ ~ ! P y.D.N.S C C C Z 6 9 A A P P ! ! ^ [ [  . .} }  .U 6 | &X>.&X=X&X",
">.>.>.:.:.;.=.$.%.=.$.| I N b b 3 6 B M 1 6 G H E ~ ....W R P J u.Q.T.h 0 9 0 7 : e P P U ! ! ` { |  . . . . .$.=.e e &.>.&X&X>.",
":.:.:.=.=.=.-.>.:.[ F D m m m > e A U Q P e 1 B H J I Q J G G B 0.}._.t.> 1 1 1 1 V P U ! ` { |  . . .=.=.=.=.=.:. .6 P @.&X:.>.",
"1.;.=.:.>.>.=.{ I N m N N 9 5 V I ! ! {  .$.P 6 6 Z F D C B M 9 e.}. X_.4 * * * 6 H P ! [ { | $.=.=.;.:.>.>.>.&X>.;XU 9 Y  .:.>.",
"-.-X=X>.=.` G N N N N N 9 6 A U ! ' | $.-.-.=X%.V 1 6 0 7 6 1 > g Q.+X+XN.9 1 * e P ! [  .$.} o.1.=X;X=X;X;X;X;X>X;X&Xe m Y  .:.",
"o.1.=XU N N D N N N N 6 6 L ! ` {  .o.:.=X=X=X;X,X{ 6 ; 1 5 7 0 0 C. X|.].r 6 = e P ` } $.-.%.>.;X;X:X,X>X<X<X<X<X>X9X .6 P Y  .",
"o.:.] b 8 m D N N M 1 6 L I ! | o.=.-.>.,X6X<X,X2X,X` e > 0 h d e x `.Y.).k 6 : B ! { o.=.:.;X>X,X,X<X6X9X9X9X9X9X<X<X9XL 9 I P ",
"P =.U N M N D N e 3 9 A P ` { o.=.:.1.-X,XwXeXqXwX;X] F > M j u h e R.).).k 9 * A ~  .%.>.1.:X:X<X6X6X9X0XeX9X9XqX9X9X4X&X6 m G ",
"N G D N D N 9 : : 5 Z [ U `  .=.>.=X,X<X<X6XeXiXsX<X] Z 5 V e.7.g M t.W.L.A 1 * A W } :.;X:X,X9X6XqXwXeXtXtXtXtXtXtX9X9XqXU : D ",
"Z N N N 8 : 6 V e : Z  .U U  .=.&X,X4X9XwXwXeXyXwX;X| V 6 j 2.5.l r k W.v B 1 = M P [  .1.,X9XqX0X0XuXiXpXaXaXsXsXtXeX,X;.@.e < ",
"M m 5 > e { >XtX$.: 9 P U |  .=.>.&X>X9XqXeXqX9X<X=X| N q e.3.l.l B B v C 0 : : b A U | $.:.>XqXqXyXsXsXhXhXgXgXtX9X-X&.+.$XY > ",
"@ > V <.aXjXdXsXrXL : N P `  .-.>.-X9XqXrXwXqXqX6X&.] n u 2.4.v.2.7 e e e 6 * * > n G Y  .:.>.;X6XuXpXfXsXsXtXqX>X%X&.&.@.$XU : ",
"L ,XlXzXjXiXtXwXtX>.6 8 D G Y ] @.;.%X>XqX5X3X-X$X+.O.g 4.2.x.v.l , 6 9 5 & * > 3 , 0 P Y +.;.&X,X9XeXtXeX5X>X%X&.+.$X$X%XU @ > ",
"lXxXjXsXuXuXeX6X6X9XP : e M A U Y Y &.$X*X5X3X$X| Q j 4.3.w.v.x.u = 5 ; y f , 9 M V 7 < F Y +.+.;.-X4XtXwX%X%X*X%X@.%X*XL o L 9X",
"lXdXaXpXuXwX6X6X1X2X%.9 > 3 3 3 e e L M S S V 7 1 s 4.3.4.v.v.n.y @ & O y 4.q N H P L 0 1 e U @.@.@.$X-X9X%X*X*X3X5X@.9 w >XxXxX",
"yXwXpXyXeX7X6X6X:X=X=XA > 6 3 6 w 6 > > 1 > > 5 2 r.4.4.m.v.m.0.t O O + - 4.r.S C Z Z N 5 O @ e Y $X%X&.%X-X*X8X3XU 3 U tXxXlXgX",
"yX9XeXwXqX6X,X,X=X:.;.! 3 6 M B M m L L Z A Z N e.w.4.c.m.m.c.5.% o + & , e.5.l B Z 9 @ 1 U { : : L Y ;.%X%X;.U , * >.xXgXgXtXtX",
"tXtXqX9X,X>X=X&X:.;.%.! 6 B F A P P L L H H C j 0.5.n.m.n.m.n.4.$ o + & , l w.0.h * : L >.tXtX4X9 o > w A A 9 > @ L tXtX0XtXtXtX",
"9X6X4X,X;X=X&X:.:.=.$.L 9 A H H P P I U P P G t.6.k.m.n.n.m.c.3.+ o + + : g x.6.3.7 { ,X1.9XtXtX9Xw > > 6 L U :.U L qXqXqX9X9X9X",
"<X,X:X;X;X&X:.:.=.%. .V e I P U U U ! P Q ! J y.w.n.S.S.S.A.s.u + + + & * s n.k.6.~.-.<.*.1.tXtXtX;.@ e U $.;X9X:.U 4XqX9X9X9X;X",
",X>X;X-X>.>.:.-.%.$.{ e e ! ! ' Y  .[ L ~ | ~ r.i.n.A.S.D.m.h.y O + + @ + s S.n.6.y.} *.>.:X9XtXtXrXe e U [ =XtX>XP ;X9X>.=.>X>X",
";X=X=X>.>.:.;.$.$.+.` e M [ | |  .=.$.} o.o.{ t.h.b.D.S.D.n.i.d + & + o = x S.S.s.d.( } :.1.9XtXkXtXU 6 [ =.9XtX9XL >.9X>.:.>X>X",
"=X&X>.>.:.=.@.=.$.| P 6 L ! [ o.%.%.%.<.%.$.o.T w.l.K.D.H.c.j.u o o o # P y.S.K.l.j.t.' X.1.1X0XpXjX,Xe U >.4XgX9XV =.>X>X>X;X;X",
">.:.:.;.=.=.=.[ ] ! V 6 U ` ! { &.<.=X=X=X<.%...K l.S.H.D.c.j.k.$ o O n J l.n.K.c.j.y.Q ..-.:X0XyXdXsXP M :.>XtX;.w =.;X;X>.>.:.",
";.;.=.%.$.$.[ P P P 0 9 Q | { [ ..$.<.:X:X<.<.%./ y.l.H.K.b.a.a.5.% 2 x h.j.F.K.b.a.k.E / *.:X0XeXdXjX>.n Y $.%XU 7 } =.>.>.>.:.",
"-.%.$.$.[ U P U P M , 0 ` |  .| | | #.%.<.<.:X<.$.K p.Z.Y.D.a.p.j.a.j.a.p.x.H.H.f.i.l.J ~ X.1.9XyXsXhXtXL b I Y n : Y $.{ =.;.=.",
"..| ` ! I U P L b 5 > 7 ` ] { o.$.$.| #.$.$.%.%...R r.j.J.T.Z.p.p.p.p.p.l.I.Y.Y.d.p.d.r W *.1.2XeXiXjXdX$.5 0 M V w N [ { [ }  .",
"! ! U U P A n < > 6 6 > 9 ` ] ] | %.%.o.o. . .{ ' H j p.F.R.T.G.f.d.d.Z.Y.Y.T.D.a.a.r.V W X.1.2XyXuXdXsX4Xr > U >.<XL n ` [ U [ ",
"U I F Z n 9 6 , B P U A 6 5 U +.] ] o.&.=.$.+.( u.A 5 h.c.R.Y.E.E.R.E.Q.T.Y.E.l.a.f.j r W X.1.1X0XuXsXdXrX~ 0 $.:.qX9XM n P ! ! ",
"A M b 9 9 6 6 P U P ! | | L 6 A | +.] ' |  .+.u.x.8 = r.l.E.W.R.R.R.E.R.T.Q.Y.s.f.7.7 V ~ X.1.1X0XyXuXjXrX:.B U =.&XtX;X9 b D L ",
"b < > > > * A | I A ^  . .=.{ B B _ #.] Q Y K d.x.b 9 r.d.T.Q.W.E.E.E.E.W._.c.d.c.4 0 S ~ X.:X1X0XeXuXjX>X=XU V $.>.;XrX} > b b ",
"> 6 V ^ { 6 6 | } }  .o.$. .=.;.U r A | ..u.f.c.9.0 8 7.l.T._.Q.Q.Q.Q.E.`.J.d.c.d > e S ^ o.1.1X6XwXuXpX=X&X| M [  .=.&X&XM > , ",
"L =.wXsXgX&Xe e =.=.;.:.>.>.>.>.&X$.V q x.c.S.c.j 5 # z.f.R.`.Q.Q._.Q._._.b.c.q.& 1 B R { *.1.,X6XyXpX9X&X-X>.M L [  .} Y P : w ",
"4XtXaXiXeXpX<X0 M :.>.>X,X,X<X<X:X=X>.t.x.R.Y.r.: O t x.Z.Q.`._._._._.].I.c.b.i * f k R / -.1.2X2X,X>.1.>X-.-XA < P I D N M P :.",
"7X7XuX2X:.wXhX,X0 F :.,X9XeXeX9X9X,X-XD.H.].A.f 6 r A.Z.F.`.}.`.`.}.`.`.H.b.q.# : g C.R ^ o.-.-.-.=.:.qX,X;.&XU 5 9 8 9 L } ,X9X",
"1X2X6X6X,X6XiXsX>.7 I ;.9XtXeX<XeXrX4XH.H.'.I.q.x C.G.Z.K.|.`.`.`._.`._.G.Z.7.O : f A.v ! ^ {  .-.1.=X=X;X&X+.I 6 1 e ~ :.>X,X,X",
",X1X2X7XwXqXqXuXaX .9 Y ;.9XqX&X>.=.] t.b.E.].G.g.F.H.J.`.].`.`.`.].].|.J.g.A.# : z A.u.A W {  .o.| | ] =.=.Y L : V | ;.:.>.&X;X",
";X:X:X1X6X6X6XqXwXrXL n ] @.9X+.Y G D J J.H.]. X7.p 7.}.+X].`.].`.`.XXXX8.y p 9.8.K.I.Y.h V P P I I I I ` Y Y e 3 U o.$.%.;.>.&X",
"%.=X:X,X<X6X,X;X,X6X,X5 G +.$X] _ I M f I.J.`.OX|.%   . a +X[.].].XX_.$     9.J.J.G.`._.z 9 M Z Z P I I Y Y I > e [ U [ @.%.;.:.",
"&.<.=X=X=X=X=X=X-X,XqXP : A G G V V V T J.R.|.XX#X% X 6.  i OX[.XX'.  y 5.  8.Y.C.T.XX].r.6 n Z F G G I L M < , L U L U  . .$.=.",
"%.&.&.%.:.:.>.-X-X;X>X[ : * 0 A L } *.~.I.Q.oX XOXM.  X $ $ N.OXOXp       %  X).).{.oX[.B.; 9 7 0 e M 7 0 7 > > M P A U ] | | o.",
"$.$.%.%.;.:.>.&X=X;X&XU 3 A U [ } } } ~.I.`.oX X{.OXB.p P.XX(.{.'.B..XM.a XXOXXXXXXX XoXK.@ & = 1 9 M P [  .P : , A I U [ | |  .",
" .o.$.;.;.:.>.:.>.&X%XL 9 L D L ~ [ [ ( T.|.oX X{.[.+X#XOX{.{.{.|..X{.#X#X{.[.[.[.[.XXXXU.o O > 9 V ! | $.:.>XL & 8 F U ! ` ]  .",
"| |  . .o.=.-.;.=.=.+.M e L M A ! ` ! ) W.XXoX.XXXXX{.{.[.{.@X#X#X@X{.{.{.{.{.{.{.XXXXOXG.# & , M e P =.>.=X,X4Xe & < M L U ! { ",
"G U ! ` [ ` ! ! I I I n 7 A P U U U U T W.{.@X.XXXXXXX{.XX#XL.a p B.#XOX{.{.{.XX{.XXOX{.B.# & 5 V P  .:.:X<X<XtX>X> , < 9 n N A ",
"9 b m N N N D D D D A 9 , < n A P U ! U B.[.oX.XoXXXoXOX#Xa . $ %   i {.@XXX.XXXXX{.{.].a 1 @ > M ! o.>.,X9XwXeXtX! : 6 , > < 8 ",
"3 3 5 > 5 5 5 5 , > : > , , 8 n V L L P T (.@X{..X.X{..X(.c V.{.{.{.c V.@X{.{.{.{..X{.W.4 1 + > b L U +.:.-X5X5X5X%X> @ w w 6 , ",
";X:.=.o...! W H L L B e w 6 , > < n b m e v {..X.X.X.X.X{.@X#X{.{.@X{.'.{.{.{.{.{.[.).M.; = + O , 9 M M Y Y U U Y M w $.qX9X9X;X",
"lXzXlXkXjXhXdXsXtXeX9X<X>.=. .U e > , 9 9 8 N.{.@X.X.X.X{.{.'.{.'.U.U.U.U.U.(..X].).L.* @ @ & V U :.=.L : : [ } & w gXzXzXzXlXlX",
"lXlXjXjXjXhXsXsXaXpXtXtXeXeX<X9X;XU > : 1 5 , z '..X@X@X@X{.'.).(.(.).).(.(.(.(.).B.; & & * } 6XtXgXkXtX=.6 [ qX7 =.xXzXzXlXzXlX",
"sXdXsXsXaXuXuXuXyXyXyX7X9X9X;X:X9X>X} 3 : : : @ @ a V.P.(.B.a i 4 4 i M.V.P.P.M.f > ; & * ^ 1.,X0X0X0XaXgX9XL > w qXzXlXkXjXaXfX",
"sXsXsXpXuXuXuXyXwXyX6X6X6X2X<X,X>X>X;X} 3 > @ > V L L L L L r V V L L V 3 3 : # @ @ = @ L *.>.;X9X9X0X9X9X9X5Xw L hXlXjXkXpX1.eX",
"sXiXpXuXuXuXyXyXwX7X6X6X2X,X,X:X1.1.>.>.U @ : *.9X1.*.*./ / / ^ L L / T W W W W r : o 0 } } =.1.;X1.;X;X&X;.:.L [ kXjXsXdXpX0XpX",
"uXuXuXuXeXyXwXyX6X6X6X6X,X,X:X=X;X*. .*.L : L 9X:X1.*.*.*.*.....W W / / / / W W ^ L * L ^ ^ } =.=.} $.=.=.$. .L ;XgXsXsXsXaXdXpX"
};
