/* XPM */
static char *result[] = {
/* columns rows colors chars-per-pixel */
"64 64 225 2 ",
"   c #000002",
".  c #0E0105",
"X  c #190707",
"o  c #161110",
"O  c #151317",
"+  c #14161B",
"@  c #15191D",
"#  c #251A1B",
"$  c #311810",
"%  c #392115",
"&  c #171A22",
"*  c #1A1D23",
"=  c #1C1D2A",
"-  c #1C1E32",
";  c #241E27",
":  c #3F1D20",
">  c #1D2126",
",  c #1E232A",
"<  c #1F2232",
"1  c #1F2239",
"2  c #21262D",
"3  c #28272E",
"4  c #23282E",
"5  c #38292E",
"6  c #222532",
"7  c #282633",
"8  c #252A34",
"9  c #292D36",
"0  c #22263A",
"q  c #252A3A",
"w  c #292E3B",
"e  c #2A3037",
"r  c #2C323D",
"t  c #30343E",
"y  c #451918",
"u  c #6D1215",
"i  c #582A16",
"p  c #6C331A",
"a  c #7C1F22",
"s  c #4E2C30",
"d  c #762728",
"f  c #6D322B",
"g  c #7A4438",
"h  c #262B41",
"j  c #292E43",
"k  c #2B2F49",
"l  c #2D3343",
"z  c #2E324C",
"x  c #313643",
"c  c #333A45",
"v  c #393C46",
"b  c #30314B",
"n  c #31364B",
"m  c #353B4C",
"M  c #393E4C",
"N  c #363C52",
"B  c #353A56",
"V  c #393E54",
"C  c #393E60",
"Z  c #453947",
"A  c #3A414C",
"S  c #3C4354",
"D  c #3F4855",
"F  c #3D445A",
"G  c #3F485A",
"H  c #3D4462",
"J  c #42434F",
"K  c #414653",
"L  c #434956",
"P  c #40465B",
"I  c #434B5C",
"U  c #4A4D5C",
"Y  c #564A57",
"T  c #49505D",
"R  c #6C4F51",
"E  c #404764",
"W  c #454D63",
"Q  c #494E62",
"!  c #454C6B",
"~  c #494E6F",
"^  c #475062",
"/  c #4B5365",
"(  c #4F5A67",
")  c #4C556A",
"_  c #4F596B",
"`  c #515565",
"'  c #53596A",
"]  c #525A6D",
"[  c #484D76",
"{  c #4C5472",
"}  c #4F5876",
"|  c #545D72",
" . c #595F72",
".. c #505678",
"X. c #525B7B",
"o. c #59616F",
"O. c #566175",
"+. c #5A6276",
"@. c #56617B",
"#. c #5C657B",
"$. c #5E697E",
"%. c #73656D",
"&. c #616574",
"*. c #60677B",
"=. c #626A7D",
"-. c #8A1C1D",
";. c #9C1D1B",
":. c #A41D1C",
">. c #AC1E1D",
",. c #BA161C",
"<. c #B31D1D",
"1. c #BB1D1D",
"2. c #94321D",
"3. c #BC251D",
"4. c #A9301B",
"5. c #921F20",
"6. c #8F312B",
"7. c #AE2825",
"8. c #B73826",
"9. c #C41D1E",
"0. c #D1151A",
"q. c #D41C1C",
"w. c #D8241D",
"e. c #DC2B1E",
"r. c #DF311F",
"t. c #E2361F",
"y. c #CE1D20",
"u. c #CB2521",
"i. c #D42322",
"p. c #D92523",
"a. c #DB2B22",
"s. c #DE3022",
"d. c #D13C24",
"f. c #E82B22",
"g. c #F22C24",
"h. c #E33423",
"j. c #E53B23",
"k. c #E93B25",
"l. c #88421E",
"z. c #A94C1F",
"x. c #854423",
"c. c #9A4522",
"v. c #974B3A",
"b. c #A64F22",
"n. c #B45527",
"m. c #BA5138",
"M. c #D4542C",
"N. c #EA4325",
"B. c #ED4C26",
"V. c #E74429",
"C. c #ED4C29",
"Z. c #EC522B",
"A. c #F1542B",
"S. c #F2512C",
"D. c #F35A2C",
"F. c #CF682F",
"G. c #E96C2B",
"H. c #F4622E",
"J. c #F56B2D",
"K. c #EC732C",
"L. c #ED7A2E",
"P. c #F3752B",
"I. c #F7782D",
"U. c #EC6634",
"Y. c #F76832",
"T. c #F66C32",
"R. c #E97933",
"E. c #F87433",
"W. c #F67835",
"Q. c #F97B35",
"!. c #923F48",
"~. c #89544F",
"^. c #EE8936",
"/. c #FA8336",
"(. c #F88737",
"). c #F58D37",
"_. c #F68C39",
"`. c #FA8C3A",
"'. c #F69237",
"]. c #F69439",
"[. c #FB933C",
"{. c #F69B3C",
"}. c #FB9A3D",
"|. c #FAA33E",
" X c #F79041",
".X c #FCA140",
"XX c #545D82",
"oX c #5A6483",
"OX c #5F6A81",
"+X c #5B6589",
"@X c #5F6991",
"#X c #636D83",
"$X c #626C8C",
"%X c #667086",
"&X c #697186",
"*X c #66728A",
"=X c #6B758B",
"-X c #6E788E",
";X c #717A8E",
":X c #636D95",
">X c #6E7A92",
",X c #687498",
"<X c #737D94",
"1X c #727E99",
"2X c #6A75A1",
"3X c #768096",
"4X c #788196",
"5X c #75829A",
"6X c #7A859C",
"7X c #7D889F",
"8X c #7E8AA2",
"9X c #7C89A4",
"0X c #80899F",
"qX c #838CA4",
"wX c #8390A6",
"eX c #8691AA",
"rX c #8A94AC",
"tX c #8A96B1",
"yX c #8798B4",
"uX c #8D99B2",
"iX c #929CB5",
"pX c #939FB9",
"aX c #95A1BB",
"sX c #9AA5BE",
"dX c #9AA7C3",
/* pixels */
"qXqX8X7X6X6X6X5X<X<X;X-X=X&X$X#X#X] ) | x w =X6X4X4X4X4X<X<X4X<X<X;X;X=X&X=.=.=.*.&.r M | ) _ O.O.| | | | _ G A 5XyXeXeXeXwXwXqX",
"8X7X7X6X6X1X<X<X<X<X=X=X=X%X#X*.$.+.| | r I 4X;X;X4X;X;X;X;X-X&X&X=.=.=.=.&.=.&.&.*.v q ^ W ^ / ) ) / / ^ _ A D yX8XeX8X8XwX8XqX",
"6X9X6X5X<X<X<X>X;X=X=X#X#X#X . .| | | W c +.&X .o.4X=.&X*X#X=.*.&.&.+.o.#.&.&.&.&.*.K - N ^ I W ^ ^ ^ ^ G G , ( pX5X5X8X8X8X7X8X",
"-X6X<X<X<X<X=X=X&X#X*.#XoX#.@. .| | _ G K &X=.` o.=.%.m.W.F.~. .o. . .o. .o. .+. .+.U 2 1 z S S S A m z l 1 < OX9X5X5X8X7X6X7X-X",
"&X<X=X*X*X#X#X#X$.oX$.$.' ) +. .| | | m L #X*.*.#.#.&.~.P.[._.v.U ` ` ' ' '  . . .' L 7 , < < 0 1 1 1 8 < < 8 #X5X5X5X>X<X<X3X*X",
"=X*X=X*X=X#X#X#XOX$.$.$.Q Q | | | ) W w ` *.*.*.#.o.o.' M.D. X(.6.L U U ` ` ` ' ' ' v 2 8 8 < < < < < , 4 4 > ) 9X>X>X-X-X=X=X=X",
"=X*X=X*X#X#XOXOX$.#.$.+.| | | | ] | m 9 '  . . .o.o.' ` U.D.U..XY.g A L K ` ` ` / U e , 8 8 e e r r r l t c , 8 *X>X>X>X=X-X=X=X",
"&X#X#X#X#X#X$.$.$.#.@.+.+.| | | ] ~ 9 t  .` '  .o.` ` R U.U.Z.Q. Xj.c Z K K L L / S , r x x n n A S S G D G A > H 5X*X=X=X=X*X*X",
"%X#X#XOXOXOX$.#.+.+.+. .| | | _ O.N > M ) ' ` `  .' I v.T.U.Z.H. XY.d l v v Z Q W 9 q m n m m N S G G S G G G l < OX*X#X>X*X*X*X",
"#X#XOXOX$.$.#.#.@.+.O.| | | | ) B 0 , r P Q ` Q U ' T G.(.U.V.U.].Q.h.8 r v K Z n 2 l n m S D D G G G G G ^ ) / < m $X#XOX*X%X#X",
"#X$.$.$.#.#.#.O.+.|  .O.| ) F z q 4 4 , w V P W U L ~./.}.U.Z.W././.C.s 7 w r b 6 8 m M S S G I ^ ^ ^ ) _ ) _ | D < _ #X$.OX#XOX",
"$.$.oX#.#.+.+.O. .+.| ) F z k h 4 8 l l 4 7 m Z Z J R.[.[.(.Q./.E.E.A.-.; < 7 8 > r N S D P W ^ / / _ _ _ _ _ _ @.t r X.$.OX$.$.",
"#.#.#.@.O.| +.#.#./ B z k k j 6 r N S I D l , r n v._.].(.`.`.Q.E.T.H.u.@ * > > 4 x S G I W / ) _ _ ] | o.O.O.O.@._ 8 S O.$.@.$.",
"OXO.| #.$.$.O.) F z z k k h 8 x G P I / ) _ D 8 6 F.`._./.P.H.T.E.Y.D.w.# + @ * 8 A S I ^ / ] ] O.O.@.$.$.$.$.$.OX*XD 8 H } $.#.",
"#.#X#X=.O.W B z z z z z q 8 m G I ^ ) | O.O.$._ s (.`.(.G.D.B.N.H.Y.S.w.y ; ; * w S G / _ | ) ] #X=.#X%X%X%X*X#X*X*XOXr z H _ O.",
"_ =.#XF z z z z z z z 8 9 A I I / ] ] #.#X#XOXOX%.`.(.W.D.2.p 4.k.D.k.w.; < 0 * l G W _ | +.+.#.#X%X*X=X=X-X-X3X*X*X3X| < S F | ",
"] $.! j q k n n z j 4 e N G I ) _ O.+.$.=X<X&X#X%. X/.I.2.+ + + 3.N.r.;.* q 8 > m I / | O.#.=.%X=X=X-X<X3X-X3X3X3X-X-X3XA 8 F F ",
"S O.H k k z z k r 2 9 n S I / | | $.#X#X=X5X4X-X=XR Q.W.# & & @ % t.e.s 8 r 8 > M / ] +.$.#X%X=X-X<X3X3X6X6X5X6X5X5X3X-XOX8 k B ",
"z B N z n z q , > 8 n ^ G I _ O.$.#X%X-X<X<X5X6X<XO.v.W.# , 2 2 4 h.a.q r c 8 , M I _ $.%X=X-X3X<X6X6X6X8X8X8X8X8X8X5X3X5XG > z ",
"n k k z 0 , 8 c e , n _ G I _ O.#X=X>X5X6X6X4X<X-X| F x.5 8 4 8 e 7.f x m M 8 , n G / o.=.=X3X6X3X6XqXqXwXeXeXrXeX8X6X>X@.} r 1 ",
"j k 6 2 r ^ =X9X| , 0 S D ) _ O.@.OX*X3X5X7X5X=X%XO.F w 3 w s j r f Z S A l < > j B H ( O.$.*X5X5X0XrXtXuXuXyXuX9X5XOX} { XXH , ",
"& , c &.eXiXuXeX9XA > z F W _ O.$.*X3X5X7X5X5X5X*X| H w 7 x ;.d x x c x n j > > < x F ^ _ @.OX*X<XqXwXtXrXeX9X5X*X+XX.X.} XXG > ",
"A &XpXdXiXeX8X6X8X$.8 0 z B E ~ } @.+X$X5X,X$X$XX...! 8 6 s ;.;.s w l l w > , < q < w F H } @.OX-X5X9X8X7X>X$X+X@.{ XXXX+XG @ , ",
"aXdXpXrXqXqX6X<X<X3XS > r l n S H { XXXX@X,X:XXX{ H l , < a ;.;.:.5 0 8 & > < l c m w 8 G H H { O.OX>X8X9XoX+X@X+X} @X+Xm + A 3X",
"aXiXeXqXqX6X1X<X;X;X| 7 > 4 4 4 e r l A S A n r 4 > > > : ;.:.:.:.;.* + * 6 l n S F G j , r F } } } XX$X3X+X@X$X:X,X@.q 8 3XaXdX",
"qX4XwX0X6X5X<X;X=X#XoXM , 8 8 8 8 4 , > , , 4 4 8 8 8 3 ;.>.<.:.:.:.u & = q c A S S B B < + @ e H XX+XX.+X@X:X2X:XF 4 G 9XdXaX8X",
"0X3X0X6X3X<X=X=X#X#.#.I 4 9 l x z k A A n n M n n l w -.:.i.u.:.>.>.>.y = 9 x c A S l , 4 ^ ( > > A G XX+X+XX.G 1 * $.aXyXrX8XyX",
"8X8X5X3X=X*X#XOX#.+.| I 9 l N m A S A A S S S B m n d ;.p.f.>.>.>.<.>.:.* 6 9 k l , , D 3X9XyX3X8 + , w c c e , @ A 8X8X5X7X8X8X",
"3X<X>X=X%X#XOX#.#.+.| S q M V S S S S P S S Z V m s :.i.g.a.<.>.<.>.<.<.u = - = @ t $.9X7X3X8XyX5Xr > , 8 A G $.G A 7X5X5X3X3X3X",
"-X=X*X*X#X#XOX#.+.O._ c w S S G G H I S I / U P K <.<.f.g.p.1.<.1.u.1.<.<.@ O > D 3X5X7X-X3XuXrX9X@.> r G | OX3X#.D >X5X3X3X3X*X",
"=X*X%X#XOXoX#.+.| | ) r r I I Q ^ _ ^ S Q ' / Q 6.<.p.g.f.a.u.1.u.1.a.u.3.u 8 T #.=.-X5X6X8X8XiX8X9Xr e G ^ OX9X*XD #X5X$.| *X*X",
"%X#X#XOX$.+.+.| | ) E r x W ) ) _ | ] _ ] | ' Y 9.i.h.h.h.h.i.1.u.1.a.a.<.>.m D ( $.&X3X8X8XeXyXpXyXG 8 ) | 3X9X3XA $.3X$.#.*X*X",
"#XOXoX$.#.@.O.| | ) S q A I W | +. .+.*.X. . .6.9.a.k.h.t.k.e.,.y.9.h.s.1.i.s V T +.%X3X6XqXeXrXiXiX=Xr G OX>XeX3Xc @.=X%X*X%X%X",
"#.$.#.+.O.| | ^ Q I x 8 G W I /  .*.#X#X#X#X .1.0.h.k.h.h.k.k.e.,.p.k.h.i.i.d c U +.=.;X6X0XeXrXrXiXtXS l @.*X8XX.l O.%X%X$.$.$.",
"#.+.| O.| | / S S G w 8 P ) ^ ^ ~ ' *.&X&X*.&.7.y.h.V.k.k.j.N.k.a.h.N.k.p.w.-.n L ' =.;X4X7XwXrXrXiXiX$.l W _ oXG 8 _ O.$.$.$.#.",
"+.| | | ^ G G G N z 6 w W ) ' ) ~ ` { +.&.*.#X!.i.s.B.k.N.k.k.k.N.N.N.N.p.9.5.l K ` =.;X4XqXwXrXrXuXiX8XA h H H l > H _ / O.+.O.",
"' / W I G G S m j 6 , e H W ) |  .] ..` ] | ] ` i.i.V.N.N.N.N.N.N.N.N.N.w.q.5.r J ` $.=X<X0XqXrXrXrXpXrX .3 w l x 8 l ^ / ^ / _ ",
"I P G G S n j 1 , 8 9 > q W ! W ' |  .| _ ) / I 6.y.k.C.k.N.N.N.N.N.B.k.0.q.d r S ` #.&X<X0XqXqXrXrXiXrX<Xt , G OX>XA l W ^ G ^ ",
"G F A z j q 0 < r D S A 8 8 F { ! Q }  .+.| I U Y 0.w.S.N.B.N.k.N.N.B.e.0.q.: t K ` &.&X<X0XqXqXeXrXrXrX9XI r | $.5X5Xl h S I I ",
"m j j j q 8 e A G F G ) ) M 9 M { { ! ~ ) ] ' / V y.q.B.S.B.S.S.B.D.B.q.q.q.2 t K ' &.&X;X0X0XqXqXeXeXiX6X#.x I O.OX8X%X0 h B A ",
"w 1 < , > * m _ D m W ) _ | ) x l W X.~ E E P ^ m 5.q.k.Y.D.D.D.D.H.h.q.w.y 4 t L ( +.&X<X<X0X0XqXqXqXuX%XOXG x O.#.%X9X/ , h h ",
", 8 c T / 9 8 / _ / ] ] | | O.O.P t M { ..W B S n 7.p.e.Y.D.H.D.H.D.e.w.a @ 4 t L ( +.#X=X<X1X0X6X0XqXeX#X*X_ r / _ O.OXoXl < < ",
"S O.5XrXeX*Xr r O.O.#.O.#.$.$.$.#XO.A r S ~ ! B Z p.e.s.H.Y.Y.Y.E.C.w.e.O > 9 t K ` +.=.&X;X<X3X6X0XeX<XOX#X$.l m ^ _ / H D > e ",
">X9XqXeX8X9X-Xe z O.$.=X=X=X-X-X=X%X#X^ r w V n 4.r.r.s.Y.T.Y.Y.E.B.e.3.O * 9 t J ` ] &.#X&X<X<X<X;X$.OX%X$.$XN 1 S F B n x A #.",
"1X1XqX;X#.6XuX=Xr N @.-X<X6X6X5X<X<X;X=X=.A > f h.j.a.C.Q.T.E.T.Q.A.e.j.O * 4 t 6.8./  .=.=.#X#X$.O.OX5X=XO.OXF 8 q q w A _ *X3X",
";X;X<X<X=X<XqXtX$.9 F @.<XqXqX=XqXrX6X;X#.F 7 V.j.k.N.E.Q.E.E.E.Q.T.j.t.4.; > s V.d.Y / ' ' ] ] +.#X%X#X%XOX_ H 8 > l W @.*X=X=X",
"&X=X;X<X6X5X6X8XrX_ q H +.5X5X*X#X$.{ E B q 8.N.V.C./. X`.E.E.Q.Q./.D.t.k.d.2.N.j.N.6.S P T _ | | ) ) ) O.O.E S , x )  .=.$.#X%X",
"&X&X=X=X<X<X1X5X5X9XA j ! X.5X{ H V C B k f N.V.S.F.p i c.`.(.Q.Q.Q.[.M.y y 3.N.H.C.S.Z x A G G P F H F H H E r 4 S _ | | +.#.OX",
"#.#X#X=X-X>X-X%X=X<X*X8 N [ XX[ ! H z w e A.N.Z./. X$     i `.(.Q.`.n.X     D.Q.`.D.B.f 0 j n N V F F H H H F , c G G ^ | | O.$.",
"| #XoX#X#X#X#X#X*X=X1XD * n N N n m A T ~.B.U.Q. X.X% X ,.  % [.[.R.  u u   ^.[.`.J.B.2.6 q x n V H F F A n < < A G m G _ _ | O.",
"|  . .#.#.oXOX#X#X*X*X) , > r n D _ $.%XM.C.W.`.`.}.b.  . $ i G.|.p X . X 2.}.(.[.Q.D.8.2 7 j x l l j r e 8 , , n S m H W ) ) ] ",
"] ..|  .O.#.$.OX#X$XOXG 4 x I ^ _ _ _ ] M.Y. X X`.`. Xn.p ^.]./.^.n._.n.R.}.).(._.(.D.M.+ * * 2 8 w x S ^ ] S > < m G G ) ) ) ) ",
"_ | | | +.#.$.$.$.$.oXA 9 S z m ^ / / / M.T. X_.`._.`.}..X[.'.`.(.[.[.[.[.).).(.[.(.H.M.O O @ 8 r n I _ O.#.*XA & 0 M D I ^ ) ) ",
") ) ] ] | O.+.+.O.O.{ n r A l A I ^ / ^ m.E.}.].[._.)._.'.'.'.'._.).'.).).'.).'.].).H.M.& * * q x x I #.$.#X-X-Xr & 1 z N S I ^ ",
"B P P W W W E E F F H j 1 m A F G I I U v.E.].}.].].].'.'.'.}.|.|.|.'.'.'.'.'.'.{./.J.2.& ; * q S P ] =.*X>X-X9X%X, < 1 0 l z N ",
"q j k n z z n z z z m e < 1 l m S G I L R J.^.{.].].].].].|.F.p i b.|.}.'.'.'.'.{.P.I.p 3 8 * 8 A ^ O.$.-X3X5X7X9XI * 8 < < < 0 ",
"8 8 4 6 4 0 6 6 1 < > > < < q h z m A S S n.P._.|.'.{.'.|.l.X $ % o i '.{.'.{.{.^.G.P.5 9 3 & < l S H _ +X$X,X,X2XoX, @ e e 8 < ",
"=.+.O.' / I L K A A x r e 8 < < 6 j z l l Z I.I.^.{.{.{.{.p F.'.{.'.l.F.|.{.{.^.G.I.p 5 7 = & @ < j c x H H F G H l e _ 5X5X3X*X",
"aXaXpXpXiXuXrXrX8X6X3X=X$.O.( L l , 8 j j q s I.L.^.^.^.'.|.'.^.L.L.'.^.^.^.L.G./.c.7 2 = & = A ( $.#.A * > ^ _ * e yXdXsXsXaXaX",
"aXaXiXiXuXiXrXrXeXwX8XwX7X7X-X3X%XD , * < 8 8 s K.P.P.P.G.^.P./.P.P.P.P.G.P.L.L.6.2 ; = = ; +.8XyXpXiXyX| e ^ 5X8 O.dXsXsXaXsXaX",
"uXrXrXrXeXqXqXqX0X0X6X5X3X3X%X&X3X*X( 9 > > > o # p F.K.F.n.l.p p p l.n.F.z.l.% * 6 < ; > ( 3X3X6X7X7XeXtX3XA , e 3XsXaXaXiXwXrX",
"rXrXrXeXqXqXqXqX0X0X1X<X<X-X-X=X%X%X%X_ e > > 4 t A A A A A v v v v t t > > 2 @ + @ = & D =.$.=X3X5X6X4X5X5X>X8 c uXaXaXaXwX=.7X",
"rXeXwXqXqX0XqX0X1X<X<X<X;X=X=X&X=.=.=.=.D @ > o.;X=.o.( Y T T L A A J L J A J J A > O x o._ $.%X*X=.%X%XOX@.#.A ^ aXuXrXuXwX4XwX",
"qXqXqXqX0X0X6X<X0X<X<X<X=X=X&X#X%XO.( o.A > T ;X;X=.&.o.o.` ( ( J J T T T U U L / A > A ^ / _ O.#./ o.#.O.| _ A =.pXrXrXrXrXrXrX"
};
