/* XPM */
static char *_aadcf54822c4cc7cbd712fb208e03516eQU3DgNhHC91PRR[] = {
/* columns rows colors chars-per-pixel */
"64 64 206 2 ",
"   c #010102",
".  c #0E0607",
"X  c #060708",
"o  c #07080A",
"O  c #0A0A0D",
"+  c #130B0E",
"@  c #0D0E12",
"#  c #0E1114",
"$  c #0F1119",
"%  c #111216",
"&  c #13151B",
"*  c #1C1718",
"=  c #16191D",
"-  c #191B1F",
";  c #2A0C0F",
":  c #301115",
">  c #2B231F",
",  c #151621",
"<  c #161A22",
"1  c #1A1D24",
"2  c #1B1E2A",
"3  c #1C1E31",
"4  c #251C25",
"5  c #1D2126",
"6  c #1E222B",
"7  c #1F2233",
"8  c #22252D",
"9  c #24282F",
"0  c #29282A",
"q  c #372F27",
"w  c #3C312B",
"e  c #212533",
"r  c #252A33",
"t  c #292D36",
"y  c #23263A",
"u  c #262A3C",
"i  c #292E3A",
"p  c #2C323C",
"a  c gray19",
"s  c #32353E",
"d  c #4A1215",
"f  c #58161B",
"g  c #63171C",
"h  c #431B20",
"j  c #581B23",
"k  c #601C24",
"l  c #771D23",
"z  c #4C2D2C",
"x  c #483D36",
"c  c #763030",
"v  c #4B413B",
"b  c #5A4A3D",
"n  c #272B41",
"m  c #292E43",
"M  c #2E3342",
"N  c #2E3449",
"B  c #313642",
"V  c #343A45",
"C  c #383B46",
"Z  c #31364A",
"A  c #353B4A",
"S  c #393E4D",
"D  c #353B53",
"F  c #393F53",
"G  c #3B414E",
"H  c #3C4353",
"J  c #3F4856",
"K  c #3E455A",
"L  c #3C4261",
"P  c #47444B",
"I  c #574C44",
"U  c #414755",
"Y  c #424856",
"T  c #404759",
"R  c #444C5C",
"E  c #494F5D",
"W  c #47505D",
"Q  c #4B515D",
"!  c #505050",
"~  c #52545D",
"^  c #6A5646",
"/  c #675649",
"(  c #6D5A4F",
")  c #76614B",
"_  c #78624D",
"`  c #7B6656",
"'  c #454C62",
"]  c #484F61",
"[  c #454D69",
"{  c #4A5363",
"}  c #4B5364",
"|  c #4D5569",
" . c #4F586B",
".. c #515666",
"X. c #50586A",
"o. c #535A6C",
"O. c #595E6D",
"+. c #484F70",
"@. c #4C5473",
"#. c #555E71",
"$. c #585F71",
"%. c #545F7C",
"&. c #576174",
"*. c #5A6275",
"=. c #57607B",
"-. c #5C657A",
";. c #5E687D",
":. c #606060",
">. c #6D6662",
",. c #7A6F6B",
"<. c #606777",
"1. c #60677A",
"2. c #626A7D",
"3. c #871E24",
"4. c #8B2A2E",
"5. c #9C232E",
"6. c #8D2230",
"7. c #99353A",
"8. c #A4242D",
"9. c #AC252C",
"0. c #AC2C30",
"q. c #AD3735",
"w. c #AD3B36",
"e. c #86433F",
"r. c #B14138",
"t. c #B3483B",
"y. c #AA513F",
"u. c #AE4C42",
"i. c #AD5645",
"p. c #B65A43",
"a. c #886E54",
"s. c #806C59",
"d. c #906E52",
"f. c #85715E",
"g. c #997B5A",
"h. c #B36B4F",
"j. c #A37C51",
"k. c #B87C56",
"l. c #857465",
"z. c #987B66",
"x. c #947D69",
"c. c #877A72",
"v. c #D27A6C",
"b. c #9F856B",
"n. c #A68766",
"m. c #B28763",
"M. c #B28E67",
"N. c #B9946C",
"B. c #A58670",
"V. c #A58C73",
"C. c #B89678",
"Z. c #C39D76",
"A. c #C89F73",
"S. c #CBA378",
"D. c #D3A979",
"F. c #D3A97B",
"G. c #DDB07F",
"H. c #5F6A82",
"J. c #636D82",
"K. c #667186",
"L. c #6A7286",
"P. c #677289",
"I. c #6B758B",
"U. c #6E788C",
"Y. c #70778B",
"T. c #717A8E",
"R. c #6C7A91",
"E. c #737D93",
"W. c #747E95",
"Q. c #787F94",
"!. c #7A849B",
"~. c #7B859C",
"^. c #7B87A0",
"/. c #7D89A1",
"(. c #81899F",
"). c #828CA4",
"_. c #868FA8",
"`. c #8591AA",
"'. c #8A95AA",
"]. c #8A95AC",
"[. c #8B96B0",
"{. c #8E9AB3",
"}. c #929CB4",
"|. c #949FB8",
" X c #97A1BA",
".X c gray75",
"XX c #C6A185",
"oX c #DAAF81",
"OX c #D5AC8F",
"+X c #DEB184",
"@X c #DBB08D",
"#X c #D6AE91",
"$X c #E3AD8F",
"%X c #E4B484",
"&X c #E5B789",
"*X c #E7B98F",
"=X c #E4B794",
"-X c #EABC92",
";X c #E5BA99",
":X c #ECBD99",
">X c #F1BC96",
",X c #EEC09B",
"<X c #F0C19D",
"1X c #F3C5A3",
"2X c #EFEFEF",
"3X c white",
/* pixels */
").)./.~.~.~.Q.E.E.E.Y.I.L.J.J.-.-. .] #.M r 2.T.Y.T.Y.Y.!.2.Y.2.!.2.2.2.2.;.O.O.O.O.p Z { } | | | #.#. . . .K G !./././.{./.[./.",
"/.~.~.~.!.W.W.E.R.I.P.L.K.J.-.$.$.o. .| t H Y.K.2.2.2.2.2.2.2.2.<.<.*.O.O.O.#.O.O.O.B r K R ' { { { [ {  .J G H /././.^././././.",
"~.~.~.!.W.E.E.U.I.P.K.J.2.%.$.@.X.| } K M O.&.Q :.<.<.<.-.-.*.*.:.O.O.O.o.o.......O.G 6 Z J J J J J Y W J K 6 {  X!.!.^./.^././.",
"U.!.W.E.E.R.P.P.J.J.1.%.$.#.o.o.| } { A V *.c.B.Z.G.G.G.S.C.c.:.,.V.C.G.G.G.G.C.V.,.G 5 e m Z A G Z N N n 7 9 ;./.^.!.^.~.~.~.!.",
"P.R.P.P.P.J.J.-.-.-.%.#.] ] o.X.{ ] ] V g.G.G.G.G.G.G.G.G.G.G.G.G.G.G.G.G.G.G.G.G.G.D.` 7 5 6 6 7 7 7 7 6 6 r H.R.!.!.!.!.!.!.H.",
"I.P.P.P.J.J.2.-.-.-.$.#.R T X.] ] R >.F.G.G.G.G.G.G.G.G.G.G.G.G.G.G.G.G.G.G.G.G.G.G.G.G.F.I 5 1 6 6 6 6 6 6 5 { !.P.J.K.P.P.P.P.",
"P.P.J.J.J.H.-.-.%.$.#.#.| ] ] ] R V.G.G.G.G.G.&X+X%X%X&X%XG.G.G.G.G.G.G.%X%XG.%X%XG.G.G.G.G.n.0 7 t i i p i 5 r H.P.P.!.U.I.P.P.",
"L.J.J.J.H.-.-.%.$.#. .| X.] ] R l.G.G.G.%X%XG.&X&X%X%X%X%X%X%XG.G.&X&X&X%X%X%X%X%X%X+X+XG.G.G.` M Z V G G H Z = H !.2.P.P.P.P.P.",
"K.H.H.;.-.-.=.#.o.o.| } ] R R E F.G.G.%X%X%X&XG.%X%X%X%X%X%X%X%XG.,XG.G.G.G.%XG.%X%X%X%X%XG.G.D.G M Z M G H J p 2 %.H.H.!.K.K.H.",
"H.;.;.-.&.&.&.#. .| } ] ] R T l.G.G.%X%X&X%X&XG.%X&X-X:X>X<X<X<X<X<X<X<X,X,X,XG.%X%X%X&X%X%XG.G.>.Z G G G J J J 5 N H.;.%.;.J.H.",
";.;.-.=.&.&.o. .| } ] ] R H C N.G.G.%X%X%X%X&X,X<X1X1X1X1X1X1X1X1X1X<X1X1X1X1X<X,X%X%X%X%X%XG.G.Z.G G H H J J  .G 6 L H.;.-.H.H.",
";.=.=.&.#.#.o.} } } ] H B y z.oXG.%X%X%X&X,X1X1X1X1X1X1X1X1X1X1X1X1X1X1X1X1X1X1X1X<X,X>X%X%X%XG.G.b.H J J J W J  .i p @.&.;.-.-.",
"*.&.&.#.| |  .o.| H m y 7 P %XG.+X%X%X-X<X1X1X1X1X1X1X1X1X1X1X1X1X1X1X1X1X1X1X1X1X1X1X<X,X%X%X%XG.G.:.H J { { {  .{ 6 G  .-.&.%.",
";.&. .#.$.$.| K Z n y e y n.G.G.%X%X-X1X1X1X1X1X1X1X1X1X1X1X1X1X1X1X1X1X1X1X1X<X1X1X1X1X1X%X%X%XG.G.N.Y J {  . . .%.G 9 L [ &.-.",
"#.-.-.&.X.K Z n y u y y 0 G.G.G.%X-X1X1X1X1X1X1X1X1X1X1X1X1X1X1X1X1X1X1X1X1X1X<X1X1X1X1X1X1X,X%XG.G.G.~ { {  . .&.&.%.i m L  .&.",
"| -.-.H n n n n u y e 1 I G.G.G.&X1X,X+XG.G.F.F.+X&X1X1X1X1X1X1X1X1X1X1X1X1X,XG.G.F.F.G.%X<X,X%XG.G.G.,.W  .o.&.&.&.;.{ e Z H  .",
"| &.L n 7 u m y u 7 1 5 ` G.G.G.,X,X+X-X,X-X:X*X+XoX1X1X1X1X1X1X1X1X1X1X1X1XoX+X&X-X,X,X*X+X,X,XG.G.G.b.W  .o.*.-.-.2.K.G 9 H H ",
"D o.K n u n n y 6 1 1 7 s.G.G.G.,X<X;X_ C.b x x.1X1X1X1X1X1X1X1X1X1X1X1X1X1X1X1Xx.b b B.` ;X,X&XG.G.F.b...o.#.-.<.-.2.2.&.6 n N ",
"N N N m m n e = = 1 e p s.G.G.G.,X;X` > ! !     b 1X1X1X1X1X1X1X1X1X1X1X1X1X1X^     ! :.> / ;X,XG.oXoXb.Q o.*.*.2.L.2.2.R.H 6 N ",
"N n m n 7 < 5 r 5 & 6 M I +XG.G.,X;X* a 3X3X      XX1X1X1X1X1X1X1X1X1X1X1X1XOX      .X3X:.* OX*XG.oXoX:.~ O.*.2.2.2.2.1.L K p 7 ",
"i n 5 5 r G o.-.H & < 8 a G.G.G.<X1XOXa 3X~       C.1X1X1X1X1X1X1X1X1X1X1X1XC.      ~ 2X! B.1X&XG.G.G.~ ..O.*.;.;.;.#.| L @.K 6 ",
"< 5 M ..U.E.L.1.O.9 % 2 9 G.G.G.<X1X<X+           XX1X1X1X1X1X1X1X1X1X1X1X1XOX            ;X1X,XG.G.G.! Q ..o.| | L L L  .@.G 2 ",
"V ;.(.).!.L.1.O.O.S = & x +XG.G.,X<X1Xz.        x 1X1X1X1X1X1X1X;X1X1X1X1X1X1X^         / 1X,X,XG.G.G.:.J J J L J H J @.@.G $ 5 ",
"`.[.(.T.L.2.*...} R 8 % ^ G.G.G.<X1X1X1XB.x w a.1X1X1X1X1X1X<X>X$X1X1X1X1X1X1X1Xx.q z z.1X1X1X,XG.G.G.,.H V G K K K @.L N & M K.",
"_.~.!.2.K.<.O...R Y s % ) G.G.G.<X1X1X1X1X1X1X1X1X1X1X1X1X1X1X>X$X<X1X1X1X1X1X1X1X1X1X1X1X1X1X,XG.G.+Xl.G Z H J L @.H 5 6  ./.|.",
"!.L.T.L.1.&.X.E Y S B 1 ) G.G.G.,X<X1X1X1X1X1X1X1X1X1X1X1X1X1X<X:X:X1X1X1X1X1X1X1X1X1X1X1X1X,X,XG.G.G.` m Z K L K N = G !././.^.",
"!.K.L.2.*.O.} R H V s 8 ) G.G.G.-X1X1X1X1X1X1X1X1X1X1X1X1X1X1X1X1X1X1X1X1X1X1X1X1X1X1X1X1X1X1X,XG.G.+X` m M M r 1 & J !.!.!.!.!.",
"Y.U.K.<.O.} R H C B i 2 ) G.G.G.%X1X1X1X1X1X1X1X1X1X1X1X1X1X1X1X1X1X1X1X1X1X1X1X1X1X1X1X1X1X1X+XG.G.oX) = 5 = % @ r P.;.&.K.2.!.",
"2.2.;.#...W Y H A B t 1 _ G.G.G.G.,X1X1X1X1X1X1X1X1X1X1X1X1X1X1X1X1X1X1X1X1X1X1X1X1X1X1X1X1X:XG.G.G.G.) # 5 r G p t &.;.&.2.2.!.",
"2.;.#. .} W J G V s r = ) G.G.G.G.+X1X1X1X1X1X1X1X1X1X1X1X1X1X1X1X1X1X1X1X1X1X1X1X1X1X1X1X<X+XG.G.G.G.) 5 r G H G t  .&.&.&.;.&.",
";.*.#. .{ R J A B i e & _ G.G.G.G.G.+X1X1X1X1X1X1X1X1X1X1X1X1X1X1X1X1X1X1X1X1X1X1X1X1X1X1X+XG.G.G.G.G.) 5 9 G { J t { *. .J -.;.",
"*.#. ...W J G A B i 8 & _ G.G.G.G.G.S.N.@X;X1X1X1X1X1X1X1X1X1X1X1X1X1X1X1X1X1X1X1X1X,X@XN.S.G.G.G.G.G.) 5 t G { J t J &. .{ &.-.",
"&.X.| { R J G G B r 1 % x G.G.G.G.G.S.M.M.M.M.M.M.N.t.9.9.9.9.m.v.9.9.9.9.u.m.M.M.M.M.M.M.S.G.G.G.G.G.x 5 p G { W r J  .X.#.#.*.",
"o.| | ' J H A s i r < $ x G.G.G.G.G.N.M.M.M.M.M.M.t.9.9.9.9.9.9.9.9.9.9.9.9.i.M.M.M.M.M.M.N.G.G.G.G.G.v & i V R A 5 H { | X.o.O.",
"X.| { R J G V 7 8 8 & % < G.G.G.G.G.M.M.M.M.M.M.y.0.9.9.9.9.9.9.9.9.9.9.9.9.9.k.M.M.M.M.M.M.G.G.G.G.G.5 & 6 p Z u 1 G J { |  . .",
"..Q R J A M u r 7 < % & 1 G.G.G.G.D.M.M.M.M.M.h.9.9.9.9.9.9.9.9.9.9.9.9.9.9.9.q.M.M.M.M.M.M.D.G.G.G.G.p < & 7 y 5 & B H H ' } | ",
"R H H A M p i 7 < & $ $ < G.G.G.G.S.M.M.M.M.m.0.9.9.9.9.9.9.9.9.9.9.9.9.9.9.9.9.i.M.M.M.M.M.A.G.G.G.G.s 9 # < 1 6 5 7 A G H Y ] ",
"H S A B M 7 6 < & & & O O A.G.G.G.S.M.M.M.m.r.9.9.9.9.9.9.9.9.9.9.9.9.9.9.9.9.9.0.h.M.M.M.M.A.G.G.G.S.s s = # r G { t 7 Z H G H ",
"G Z M u 7 3 1 & 5 6 5 < % ) G.G.G.S.M.g.M.y.9.9.9.9.9.9.9.9.9.9.9.9.9.9.9.9.9.9.9.9.i.M.a.d.Z.G.G.G.f.s V 5 = M G { o.r 7 Z G G ",
"M u y 7 6 1 5 r r 8 8 5 5 - N.G.G.a.O > a.0.9.9.9.9.0.t.r.r.r.r.r.r.r.r.w.9.9.9.0.8.8.a.q & a.+XG.N.s C V i 5 r G J &...7 7 M N ",
"y 7 1 < = & r M r 2 8 8 5 1 & ^ g.> @ O c e.6.8.9.9.q.n.j.j.j.j.j.j.j.j.j.0.9.9.9.4.7.^ @ % 0 n._ 9 a C p p 7 6 V J { ;.G 5 7 7 ",
"5 6 p S G 5 1 M p i r r 8 1 1 = # O / #X1X1X7.8.9.9.l 5.y.y.y.y.u.i.h.k.t.9.9.9.5.7.1X1X#XI = 1 5 9 t s p B i 1 p G H { { p 6 7 ",
"V } J.U.K.{ 5 5 B B p t r 8 5 = 8 XX<X<X:XXXe.0.9.9.d 9.9.9.9.9.9.9.w.p.t.9.9.9.9.4.C.1X1X1XB.1 8 r p p t B B 5 7 M G H H N = r ",
"K.U.T.L.2.2.{ 5 6 B s p i r 8 8 x OX:X=Xw X + 8.9.3.f 9.9.9.9.9.9.9.w.t.p.3.3.9.3.+ . x =X<XOXx 8 9 7 t p p G 6 < p M u 7 i Z  .",
"L.L.L.-.E *.2.E 1 6 M B s s r 8 1 ( ;Xw @ X   . ; . 3.9.9.9.9.9.9.9.8.p.h.9.  X o O O @ w C.v 1 1 5 8 V V p A t < 2 2 e M J ;.K.",
"2.J.J.1.o.$.<.*.G 1 e p s s t 8 8 2 , $ @ O X X X X 5.9.9.9.9.9.9.9.8.r.k.9.:   X O O @ @ & & < 5 8 t i B V M u 1 = r C | &.;.2.",
"1.J.1.1.2.&.$.O.O.p , e r s i 8 1 , $ O O o X X X X 9.9.9.9.9.9.9.9.9.q.p.9.f X X O O @ % & & 1 2 5 5 8 p p i y = 8 H R | o.$.-.",
"-.1.<.-.&.&.O.O.} } 8 , e e i 1 & & # @ O     X o : 9.9.9.9.9.9.9.9.9.9.9.9.3.X o O @ @ @ & & = < 1 2 2 7 y i 5 = M H R R | $.&.",
"o.%.*.*.&.$. .{ E ] H = 1 7 e 2 , & # O o O O X   d 9.8.9.8.9.9.9.9.9.8.9.9.9.X o o O @ @ @ & & , 1 2 6 7 u 7 & 6 G Z H W { | &.",
"| #.$.$.o. .} R R R R 8 # < < & & & $ # & = & # O g 8.0.9.8.9.9.9.9.8.5.9.9.9.; o X @ @ @ $ & , 1 2 3 6 6 5 5 = i M i Z K { { X.",
"o.| | | | } } { R R U u $ @ & = = 1 5 1 = * & # # 3.8.9.9.8.9.9.9.9.9.5.9.9.9.d o @ O @ $ & & , , < < = 5 = & < 7 p p G Y ' { | ",
"| ] | | } } } ] E R H t & 1 6 6 5 1 1 1 < = = & # 9.8.9.9.8.9.9.9.9.9.5.9.9.9.l o o O @ @ @ @ & & & 1 8 t A t & 6 u Z H K K ' { ",
"| | | | | | } ] R R H r = 6 1 < 5 6 < 1 = = = & : 9.5.9.9.8.8.9.9.9.9.5.8.9.9.8.X o o @ O + @ & < 1 r p V H W p $ 3 M G H K ' { ",
"] ] [ } { { { ] Y K A 6 1 6 1 1 6 5 6 1 5 = & = j 9.8.9.9.5.8.9.9.9.9.8.8.9.9.9.; $ # $ & & % & 2 1 t C H Y {  .7 $ 7 m Z G J { ",
"D F T T H H D A N M n 6 < 2 6 5 6 5 5 < = = < $ l 8.8.9.9.5.8.9.9.9.9.8.5.9.9.9.g % & & & = % , 8 t M G R | | K.X.5 < 3 7 n m Z ",
"y y m m m m m n n u y 2 , < 2 5 5 5 5 5 < < & = 8.5.9.9.9.5.8.9.9.9.9.8.5.9.9.9.6.* , 1 4 1 & , 8 p A H Q o.*.2.P.G 5 7 6 7 7 7 ",
"9 7 5 2 6 6 2 2 1 1 = & = < < < < 1 1 2 1 < , d 8.5.9.9.8.5.8.9.9.9.9.9.5.8.9.9.9.4 4 e 0 2 $ , 6 7 m G J L @.%.=.@.5 = r 9 9 9 ",
";.&.O.| W U G V p u r 8 5 < & $ & , , , = = & l 5.8.9.9.8.5.8.9.9.9.9.9.5.5.9.9.9.z 0 0 4 , $ @ < 5 6 r Z Z G Z G i t { !.P.P.H.",
"|.|.}.[.].).~.Q.U.2.*.o.R G V t 1 $ & & & & & 5.5.9.9.9.5.5.8.9.9.9.9.9.8.5.8.9.9.3.0 2 , % & 0 B J H 9 = = G J = r !.{.{.|.|.|.",
"}.{.].]._.).).Q.!.L.L.2.*.O.W R G 9 $ % $ $ j 8.8.9.9.9.5.5.8.9.9.9.9.9.8.5.8.9.9.9.4 , % , H O.*.;.K.J.J 6 G P.7 | {.|.{.}.|.|.",
"'.'._.).(.!.Q.Q.Y.L.2.1.&.o.Y Y U G p & O # % f l 3.5.5.5.5.9.0.9.9.9.9.9.3.l j j j 8 & % G Q Q o.O.*.2.R.-.s 5 r U.{.].{.'.'.'.",
"'.`._.).).~.Q.E.Y.L.J.1.&.O...E U G C i = # O # * - - = = = & = & & = * & & & # # # & @ t G J W { O.*.*.-.;.-.r p `.'.'.{./.2.!.",
"_._.(.(.^.!.Q.E.Y.P.J.1.O.O.} E J G G V 6 O # 9 p 9 9 5 5 - 5 * & & = - 1 1 4 5 5 % O 5 V V G J W W { o. .|  .V Y {.'.'.'./.!./.",
").).).~.~.Q.E.Y.L.K.2.*.$.o.} R J C p s 6 # 5 s a 9 0 5 5 - = * % & = - 1 1 5 8 t 5 % 6 i s G G H G J W { } J B -.'.).).).'.'.)."
};
