/* XPM */
static char *f32c46bdfeac46afc0b3e900fbeead1bt8CMJ4zmtMKFhkYq[] = {
/* columns rows colors chars-per-pixel */
"64 64 180 2 ",
"   c #111516",
".  c #121618",
"X  c #15191C",
"o  c #171A22",
"O  c #1A1E23",
"+  c #1B1E29",
"@  c #1D2126",
"#  c #1E232A",
"$  c #1F2232",
"%  c #1F2239",
"&  c #21262D",
"*  c #23282E",
"=  c #212533",
"-  c #252A33",
";  c #292D36",
":  c #23263A",
">  c #252A3A",
",  c #2A2E3B",
"<  c #302D3C",
"1  c #2A3037",
"2  c #2C323C",
"3  c #31323E",
"4  c #262B41",
"5  c #292D43",
"6  c #2B2F4A",
"7  c #312E46",
"8  c #2D3343",
"9  c #2E334C",
"0  c #313544",
"q  c #3A3446",
"w  c #333A46",
"e  c #3B3847",
"r  c #32364B",
"t  c #39374F",
"y  c #343B4C",
"u  c #393D4D",
"i  c #2F3450",
"p  c #323651",
"a  c #3A3457",
"s  c #353C52",
"d  c #3A3E53",
"f  c #363C58",
"g  c #393F5A",
"h  c #383D60",
"j  c #403C4E",
"k  c #433E53",
"l  c #3A414D",
"z  c #3C4354",
"x  c #3F4853",
"c  c #3D445B",
"v  c #3F485A",
"b  c #3D4462",
"n  c #444256",
"m  c #414955",
"M  c #41465A",
"N  c #494559",
"B  c #434B5C",
"V  c #4A4B5D",
"C  c #47505E",
"Z  c #414564",
"A  c #454D63",
"S  c #4A4E62",
"D  c #454C6A",
"F  c #484F69",
"G  c #514F64",
"H  c #524E69",
"J  c #475063",
"K  c #4A5365",
"L  c #4E5966",
"P  c #4C556A",
"I  c #4F596C",
"U  c #525465",
"Y  c #515769",
"T  c #58556E",
"R  c #525A6D",
"E  c #595C6E",
"W  c #494E72",
"Q  c #474D78",
"!  c #4C5473",
"~  c #4F5872",
"^  c #4F5679",
"/  c #4F597C",
"(  c #545D72",
")  c #5A5E72",
"_  c #515779",
"`  c #525B7B",
"'  c #625F75",
"]  c #56616E",
"[  c #566175",
"{  c #5A6275",
"}  c #5C6876",
"|  c #56617A",
" . c #5C657A",
".. c #5E697E",
"X. c #636277",
"o. c #61667B",
"O. c #69667C",
"+. c #61697D",
"@. c #6B697E",
"#. c #555E83",
"$. c #566183",
"%. c #5B6583",
"&. c #5F6A81",
"*. c #5B658C",
"=. c #5E698C",
"-. c #5F6991",
";. c #636D83",
":. c #6B6B82",
">. c #616D8C",
",. c #667186",
"<. c #697186",
"1. c #66728A",
"2. c #6B758B",
"3. c #6D788E",
"4. c #737289",
"5. c #71798E",
"6. c #636E94",
"7. c #636D98",
"8. c #677394",
"9. c #6A7791",
"0. c #6E7A92",
"q. c #65719C",
"w. c #68759D",
"e. c #6F7D9A",
"r. c #737D91",
"t. c #727C93",
"y. c #757E91",
"u. c #737D95",
"i. c #737E96",
"p. c #747E95",
"a. c #757F96",
"s. c #7D7B93",
"d. c #727E99",
"f. c #6A75A1",
"g. c #758097",
"h. c #768096",
"j. c #788197",
"k. c #798396",
"l. c #798497",
"z. c #7A8497",
"x. c #758299",
"c. c #76829A",
"v. c #79839A",
"b. c #7B859A",
"n. c #7A859C",
"m. c #7A859D",
"M. c #7C879E",
"N. c #7D889E",
"B. c #7786A1",
"V. c #7B87A2",
"C. c #7D88A0",
"Z. c #7D89A1",
"A. c #7F8AA1",
"S. c #7E8AA2",
"D. c #7E8EAA",
"F. c #808A9F",
"G. c #808BA3",
"H. c #818CA3",
"J. c #828DA4",
"K. c #838DA4",
"L. c #848FA7",
"P. c #838FA9",
"I. c #8390A5",
"U. c #8691AA",
"Y. c #8A94AC",
"T. c #8C98AE",
"R. c #8696B2",
"E. c #8A96B1",
"W. c #8C97B0",
"Q. c #8D99B2",
"!. c #8D9BB7",
"~. c #8C9DB9",
"^. c #929CB5",
"/. c #939FB9",
"(. c #96A0B7",
"). c #95A2BC",
"_. c #9AA5BE",
"`. c #95A4C1",
"'. c #99A6C1",
"]. c #9CA9C5",
/* pixels */
"H.H.A.A.M.n.v.a.a.t.0.4.2.1.:.;.;.( K ( w , 2.z.z.z.z.z.k.k.k.g.h.h.h.h.+.@.+.} +.X.2 u I I I [ [ [ ( ~ ~ I v l g.R.U.U.U.U.H.K.",
"G.M.n.n.n.a.a.a.t.t.5.2.2.;.;.%. .{ ( ( 2 B b.5.5.5.5.g.g.g.5.k.5.+.@.@.} +.+.} } o.w , J J K K K P K L K I l x R.U.U.A.H.A.K.A.",
"n.n.n.v.a.a.i.0.3.5.2.;.;.+. .{ ( ( ( J w } <.) } 5.5.2.5.5.2.<.+.+.+.+.o.+.} o.X.X.m # s J C J C J J J v c $ L ~.g.g.H.A.A.A.V.",
"3.n.a.i.t.3.3.2.;.;.;. . . .| ( ( ( I z m :.} Y ] +.,.@.@.<.+.+.+.+.+.+.o.X.] } { { C $ % 8 l f l s y 9 8 % # ..D.z.g.V.n.n.N.3.",
"2.0.2.2.1.;.;.;.&... ...R P { ) ( R ~ y m +.+.o.o.+.o.+.o.+.o.o.o.o.} X.} ' ] ] E E m * # $ % % % % > % % # - ,.g.x.g.e.g.i.i.1.",
"2.2.2.1.1.;.;.&.&.&... .K A [ ( ( I J 8 L X.} X.o.} o.} o.} X.} { X.{ { ] ] E E Y E e # - - $ # * $ # # * * @ L B.3.0.3.3.3.2.2.",
"2.1.1.1.;.;.;.&... . . .( ( ( ( ( ( y ; E E { { { X.{ X.{ X.{ X.{ ] ] E ] E E U K V 1 # - 1 1 1 2 2 8 8 3 w @ - 8.0.0.3.2.3.2.2.",
";.1.;.;.;.;..... . .| [ { ( ( ( I P - 0 E L Y { ] E { ] { ] { ] ] ] E E E U U V Y z # , 8 w r s l z z v v v l @ v x.,.9.2.2.1.1.",
"1.;.;.;.&.&... . . .{ [ ( ( R R ( s @ y Y R Y U ' ] Y E E E R E ' E E Y K V V U V ; - s r y y l z z v z v v J 2 $ &.1.1.1.1.1.,.",
";.&.&.&..... . .| { [ ( ( ( ( P f > # 2 M S Y V U X.] ] E { E E E U U V U U U V q * 8 w y l z z v v B v B J K K $ r 1.;.,.,.,.,.",
"+.&..... . . .{ { ( { ( ( P z 9 > * * # , k M V U C E X.U K U U U C U C N M l a - - s l z z v B J J J P P K P ~ v * K ;...&.&.&.",
"...... .|  .| ( ( { ( P c 9 6 4 * - 8 8 & - a d n V U U V V V V V n n k d t t 8 # 8 z z v B A J K K I I I I I ( } 8 8 / ..&.&...",
" . . .| [ (  . . .K s p 6 6 6 & 2 s z B z 2 & 0 u d n M n n z d t u t w 0 , ; * - l z v B J K K L R ( ( [ [ [ [ } ~ - z ~ &.} &.",
";.[ (  .....{ K c 9 6 6 9 > - 0 z B B K R ( z - - q t t y t r 0 2 , ; > - - * & 8 z v A J P I R ( |  . ...........1.v - b ~ | ..",
" .;.;...( A f 9 9 9 9 9 , - y v B J P E [ | +.[ w @ - 2 1 - - = , , 8 w u d 8 & w B A J I ( P E ;...;.;.1.,.,.,.,.,.,.2 9 b ~ } ",
"R +.;.c 9 9 9 9 9 9 9 - - s B B K I E  .;.;.;.2.2.K - @ & - 8 w u z c z z M u - y A K I ( { [  .;.,.2.2.1.3.3.0.2.2.0.] $ f c I ",
"R } K 6 : 6 r 9 9 6 * 1 l c A K R [  ...2.t.3.3.t.,.K 8 # 8 s z z c B n y A l - z K R ( { ..;.,.2.3.3.t.0.y.g.g.d.t.0.e.l - f c ",
"c [ c 6 6 9 i 9 , * - r z B K R [  .;.;.2.x.M.v.b.,.D s # w d z B B A A K I y - B ( ) { ..;.,.2.3.t.g.g.x.b.x.n.x.x.i.0.,.- 9 p ",
"9 p s 9 i 9 > @ # - w A v A I [ ..;.2.3.0.i.M.L.U.3.! y - l z B B K P P ( ( w - v P ( +.,.<.3.0.a.v.b.n.A.A.A.A.H.A.g.g.v.v @ p ",
"r 6 i 6 : @ - w - # r I v B I [ &.2.3.g.n.n.n.G.V.,.P s 1 c B A A Y R ( ) ( 0 = f A P R ;.3.g.x.k.v.G.I.I.U.U.U.U.A.x.0.| ^ 2 = ",
", 6 = & 2 K 2.V.( # > z v P R ( } ,.1.x.x.V.n.x.0.;.! y 2 B A K R ) ) | I A > - 8 c A ~ ( ..1.x.v.M.Y.T.Q.Q.R.W.D.g.=.~ ! / A # ",
"O # w o.U.!.W.U.V.l + 9 z A I | ..1.9.x.n.x.x.x.0.%.! r 8 B B A P Y R K A s * * - 8 f A I } &.,.i.G.I.Y.U.U.D.x.1.%.` ` ^ $.z @ ",
"l <./.'.^.U.G.b.A.&.- : i f b F ~ | %.8.e.d.8.6.$.#.` 8 2 z z c c c b A z - - > > - 8 c b ! [ &.2.g.n.A.n.e.>.=.` ! $.$.*.B X # ",
"(.].^.Y.K.G.M.a.i.g.l @ 2 8 y z b ! / #.-.q.7.$.! A y = > 6 s f d g g y # # 5 8 y s 2 = l D W ~ | >.0.D.A.%.%.-.%.~ =.*.y X w e.",
"(.Q.U.L.G.n.a.t.5.3.( - @ * * * , 2 2 l z z w 2 - @ @ * - 1 8 8 8 2 , # $ 8 r z c B c 8 # 2 b ^ ^ ^ | =.0.=.=.>.q.w.[ > 1 ..).].",
"K.v.K.G.M.x.a.0.2.:.;.y # - - - $ - # # # # # = - , 1 , > = # # & * & = 8 w z B A z f r - . X 2 F $.$./ %.>.7.f.6.z # B R.].(.T.",
"N.x.N.n.a.t.3.2.;. .| B - - 8 0 9 9 l y w y y y r w 0 8 8 , > : = = - > r z B z z c 8 @ - B K @ o w A ` *.*.` c - @ ..~.R.W.U.K.",
"A.A.v.a.3.;.;.&. .| ( B ; 8 y y l l z l d z z d d y s w 0 8 8 , - = - - 8 y y g r $ # v 0.R.R.0.1 . * 1 w r 1 * X r R.V.n.n.n.N.",
"i.i.3.2.,.;.;. . .{ ( s ; y z z z z z v z c z z z z d y w r 0 8 5 > $ * 2 9 9 - @ u ,.U.A.v.K.R.g.> @ # $ l J ..B u x.b.g.g.e.t.",
"3.2.2.1.;.&... .| ) I w 2 z z M v v B n B K A S B B M M z u y 0 8 2 > * - - + 1 [ D.D.A.i.3.T.Y.R.[ O 2 v I ..0.} c 0.x.0.0.0.0.",
"2.1.1.;.&. . .| ( ( K 8 8 B B B K I J z S ( R Y Y K S A B M z u y 8 : - @ * C e.V.x.n.A.n.K.I.Q.R.x.1 2 A J ;.N.1.x ;.g.;.[ 3.3.",
";.;.;.&... .| ( ( Y A , 0 A P Y I ( R P E ) ( ( ( R Y Y K A M M l 8 $ @ 2 ;.x.i.i.x.n.V.K.I.U.Y.Q.!.C = K } 2.D.g.z  .0.;. .1.1.",
";.&... .| | [ [ ( P z > l B A ( ) ) ) X. . . .{ { ) ) R Y K K B r % O 1 ,.d.2.0.a.n.V.F.G.K.U.U.^.^.4.8 v ..0.I.0.y  .1.1.1.;.;.",
" . . .{ [ [ ( J K B 0 - c A B K ( ;.;.;.;.:.;.;.;. .{ ) ) ( A l > @ - | e.2.3.0.a.a.V.G.K.K.U.Y.Y.^.W.z 8 | 2.D.| 1 ( ,.;.;.;...",
" .| | { ( R J l z z , - B K K J K ( o.2.4.:.4.:.:.;.;.;.{ K y 4 % # L 0.1.2.3.t.a.n.a.G.G.L.L.U.Y.^.^. .2 A ( $.v > P [  .+. . .",
"{ ) ( I K B v v l 9 $ 2 A P Y P P P R | o.;.y.a.t.i.2.) B d 5 4 @ z 9.,.,.2.2.t.a.a.G.V.L.G.U.Y.Y.W./.G.z 4 b b 8 @ A I P [ | [ ",
"R K A B v v z y 4 = # 1 A F A R ( R R R (  .+.;.:.;.T B d 8 6 # 0 >.;.;.1.2.3.t.a.a.G.G.F.K.L.U.Y.Y.^.Y.) = , 8 w - 8 J K J K R ",
"B v v v l r 6 % $ - - @ > A D F P ( { ` R ( ( { ) ( K g 9 9 > -  .;.;.;.,.2.2.t.a.G.G.G.K.K.L.L.Y.Y.^.Y.a.3 @ M &.0.l 5 A J v J ",
"v z l 9 5 4 = * 8 z c l - - B ! D F ! {  .[ R ) ;.K s 9 s 6 # K ;. . .;.;.;.2.t.a.a.n.n.F.F.G.K.U.U.Y.T.C.V 2 (  .x.g.8 5 z B B ",
"r 8 5 4 > - 1 z v z B K K l - y ! ! A F ! (  .| ( s 6 d s # z &.[  .&.;. .o.2.3.i.a.s.b.b.G.G.G.U.U.U.^.C.| 8 B } &.D.,.> 4 y y ",
"5 % = # @ X u I v y B I I ( K 0 8 A ` W A A D ( P f g g & 2  .( ( |  .+.;.;.;.2.3.t.i.a.b.n.G.G.G.G.L.^.1.&.v w (  .1.V.L # 4 4 ",
"# - w B P - - P P L I R ( ( [ | B 8 y P _ D b D A b c = * ( ( I [ [  . . .;.;.2.2.2.t.i.a.a.b.n.F.F.K.I.;.;.I 2 J I [ &.%.8 # $ ",
"z [ v.T.U.;.1 2 [ [  .|  .......;.[ u 2 c W W A D f - # A ~ P R [ ( { | ..&.+.;.1.2.4.t.t.t.a.v.b.G.U.i.&.;...8 y J I P D z @ 1 ",
"e.n.I.L.A.U.9.1 r [ ..1.2.2.3.3.<.,.,.K 2 , M b w - X l ( A K P J R ( {  . . ...;.:.1.2.5.5.a.v.a.5...&.1. .>.y : z z p 9 8 z  .",
"s.a.F.t. .b.E.2., s ..2.a.n.M.a.a.a.9.0.;.z & w I 0.l 8 I J P A c Y ( ( [ {  . . .;.;.2.2.3.3.;. . ...x.2.[ &.v = > > , y L 2.i.",
"0.5.i.t.2.a.L.R.+.> c | a.G.F.3.F.U.M.0.;.A , [ V.I. .2 A J J J P R I ( ( ( | [ [  ...;.;. . .| %.:.1.;.,.&.~ b - # 0 B  .,.2.3.",
"4.2.0.i.n.a.v.G.U.I > b | g.x.;.;.;.! A f 9 0 ( ..,.,.l c A J J K P P I ( ( ( [ ( [ [ ( ( |  . .| ~ P K [ [ A z & 3 P | +.%.;.;.",
";.;.2.2.i.i.a.v.v.V.l 6 D ( i.! b b b h r $ @ w K (  .v l A A J J J K P P R I R ( ( ( R B K P A A A c b b b b 2 & c Y ( ( )  .;.",
" .;.2.2.3.t.3.;.2.d.1.- s Q #.W D b s 8 1 l B l 2 w A z z J A B B J A P P P P P K A A A d c b M c b c c c b c # w A v J I ( }  .",
"` o.;.;.;.;.;.;.;.2.d.z @ w s f y y z K 2.I.!.T.3.m > > 8 J J z z A K A A B M c c c c c c b M Z b A b c s w = # l z r v I I ( ( ",
"( [ ( )  . .&.;.;.1.1.F @ @ 1 y v I ,.0.i.g.b.U._.). .; O 8 c u y f s s s s d g c c b c b c M d y 0 8 2 ; 1 # # 9 l y J K K I ( ",
"R ( ( ` |  .%.&.>.1.&.B & 0 B K I I [ ..1.0.x.n.A.Q.'.A.l @ : 9 9 r r s s r r y r 8 8 8 8 2 , - 1 8 w z J ~ z @ $ u v b F D P P ",
"I ( ( ( |  . . .......s > z r y J L [ [ | ,.0.g.n.A.I.(.R.I @ # 2 , - , < < < 3 2 3 < , , * * 0 s z A ( (  .1.l o : y v B J P P ",
"P P I R ( [ }  .| [ ! 8 2 l w y B J I ( |  .,.0.x.b.n.n.D.U...* @ - - 0 q j j k n N n n k q ; y z w B }  .;.2.0.1 + : 8 d z B K ",
"s c B A J A B c v z c 6 > y l z v J L I [ [ ..,.3.0.g.x.b.x.B.| * ; q u j N N V G G G G V j 2 y B K ( ;.2.0.3.A.,.# $ % > 8 8 s ",
"> 4 9 9 9 9 i i i i y > $ % 8 s v B K I I [ }  ...;.1.2.3.3.2.0.k ; j k G U T ' ' ' ' ) T V , 8 B I | ;.2.g.x.C.D.B @ $ $ $ % % ",
"= = & = = - = = $ $ @ # - $ : 4 8 f c B I Y [ [ } | ....;.,.;.;.u < N G ' ' @.:.:.:.@.:.@.N = , s c D ~ %.>.8.w.q.#.# X , - - - ",
"+.} { R L B m k l l 8 2 1 * $ # $ 9 8 f c B b v I } | | [ ~ I K 0 e N G E O.4.s.s.s.s.4.H q & O % 8 r u v D c z A 8 1 ] x.x.3.,.",
"_._././.^.W.W.Y.A.n.g.2.;.[ I m 8 & - 9 9 9 p z z b c c z s r 9 = 7 k N H ' ' :.4.4.4.H a : ; V [ ,. .w O @ J L O 1 R.'._._._._.",
"(./.^.^.^.W.Y.Y.U.I.H.H.A.N.0.t.;.m & # - 8 9 r 9 9 6 5 % : - - * + & < j k H T ' ' U a : < t./._._.).R.[ - K B.= [ ]._._.)._.).",
"T.T.Y.Y.U.L.L.G.G.G.F.a.a.g.;.<.5.3.I - @ * * * # - 8 l m m C C ] C x w < , 5 r Z H Z 6 - 3.W.I.I.I.A.Y.R.g.l # > x._.(.(.W.U.W.",
"T.Y.U.L.L.K.G.F.b.b.a.i.5.0.5.2.,.,.1.( 1 * # 3 K } 2.x.I.I.I.T.I.I.H.g.:.) B e , 2 q = [ n.0.g.v.n.n.z.g.g.8.1 w ~.(.(.(.I.,.N.",
"U.U.U.L.G.G.G.M.s.v.g.t.3.3.2.:.;.;...&.m @ * +.^.T.I.T.I.Y.T.I.5.5.F.F.z.v.k.5.] 2 . v ,...,.1.3.;.,.1...} ..l K ).^.Y.Q.I.g.H.",
"K.G.L.H.G.n.b.n.a.a.t.0.3.2.2.;.&.[ ] } x @ C I.I.N.N.N.F.N.N.z.@.+.5.g.5.4.<.+.3.R - B [ ( [  . .L [ [ [ ~ I l ../.Y.Y.U.Y.Y.U."
};
