/* XPM */
static char *d2cfafb2fd9b4beed120a05a1c21df35DG3FoFDuQH4Kpmug[] = {
/* columns rows colors chars-per-pixel */
"64 64 235 2 ",
"   c #0B0001",
".  c #190408",
"X  c #1C060A",
"o  c #1F0D12",
"O  c #2A0608",
"+  c #220A0D",
"@  c #32060F",
"#  c #250D11",
"$  c #2C0E12",
"%  c #330E12",
"&  c #3B0D14",
"*  c #2D1215",
"=  c #2D1518",
"-  c #331215",
";  c #3B1415",
":  c #341518",
">  c #3D1619",
",  c #381B1B",
"<  c #3D1B1C",
"1  c #51120A",
"2  c #410F15",
"3  c #431317",
"4  c #481B16",
"5  c #441519",
"6  c #4C161A",
"7  c #431C1C",
"8  c #4C1D1D",
"9  c #53161B",
"0  c #571819",
"q  c #531C1D",
"w  c #5C1C1D",
"e  c #7D1B0F",
"r  c #6E1815",
"t  c #631C1D",
"y  c #6B1E1D",
"u  c #771C1A",
"i  c #44201E",
"p  c #4D211E",
"a  c #54211E",
"s  c #5C221E",
"d  c #5F2A1A",
"f  c #652417",
"g  c #63241E",
"h  c #6B251F",
"j  c #652A1D",
"k  c #6C291E",
"l  c #73231E",
"z  c #7A241D",
"x  c #742B1F",
"c  c #7B2C1E",
"v  c #6B361B",
"b  c #73311D",
"n  c #7B321E",
"m  c #793A1D",
"M  c #411E20",
"N  c #591F20",
"B  c #641E20",
"V  c #6D1E21",
"C  c #741D22",
"Z  c #791E22",
"A  c #462424",
"S  c #4C2423",
"D  c #532321",
"F  c #5C2320",
"G  c #572C27",
"H  c #652320",
"J  c #6B2421",
"K  c #632B25",
"L  c #6D2921",
"P  c #662F28",
"I  c #732421",
"U  c #7B2522",
"Y  c #742921",
"T  c #7B2B22",
"R  c #68322A",
"E  c #7C3323",
"W  c #773629",
"Q  c #7D401D",
"!  c #871B15",
"~  c #991A16",
"^  c #A81E16",
"/  c #88271B",
"(  c #832C1E",
")  c #982617",
"_  c #9A2C1E",
"`  c #83331E",
"'  c #8A341F",
"]  c #833C1E",
"[  c #8C3B1E",
"{  c #91311E",
"}  c #9C351D",
"|  c #933B1E",
" . c #BA2509",
".. c #BA3A08",
"X. c #A92717",
"o. c #A42A1F",
"O. c #BA2C17",
"+. c #B42C1C",
"@. c #AE3C14",
"#. c #AB351A",
"$. c #A43B1D",
"%. c #AC3B1A",
"&. c #BD3514",
"*. c #B63917",
"=. c #BD3B13",
"-. c #B3341C",
";. c #BB331B",
":. c #B33A1A",
">. c #832521",
",. c #8B2624",
"<. c #832D22",
"1. c #8B2C22",
"2. c #912721",
"3. c #932C22",
"4. c #9B2C23",
"5. c #853222",
"6. c #8C3222",
"7. c #8C3A21",
"8. c #873B28",
"9. c #933323",
"0. c #9B3423",
"q. c #943A23",
"w. c #9A3B22",
"e. c #953D2A",
"r. c #A42C22",
"t. c #AC2C22",
"y. c #A33423",
"u. c #AB3421",
"i. c #A43A23",
"p. c #AA3A24",
"a. c #B13723",
"s. c #D31500",
"d. c #C62C0A",
"f. c #D82400",
"g. c #D42D00",
"h. c #DD2C01",
"j. c #C83900",
"k. c #C2320C",
"l. c #C43B0A",
"z. c #D23501",
"x. c #D73504",
"c. c #D43D00",
"v. c #DC3D00",
"b. c #C22416",
"n. c #C33615",
"m. c #E42A00",
"M. c #FB2A00",
"N. c #E63300",
"B. c #E43C00",
"V. c #EB3C00",
"C. c #FB3100",
"Z. c #F33D00",
"A. c #FD3B00",
"S. c #8A451D",
"D. c #954F10",
"F. c #9E421D",
"G. c #974819",
"H. c #AC490A",
"J. c #BB4407",
"K. c #AA5601",
"L. c #B45600",
"P. c #A84615",
"I. c #A3411B",
"U. c #B84517",
"Y. c #B96700",
"T. c #8B4225",
"R. c #964327",
"E. c #A64523",
"W. c #B34922",
"Q. c #C54605",
"!. c #CB4301",
"~. c #CA4C00",
"^. c #D44400",
"/. c #DD4300",
"(. c #D24C00",
"). c #DC4B00",
"_. c #D7490C",
"`. c #C95506",
"'. c #D45500",
"]. c #DC5300",
"[. c #D55B00",
"{. c #DD5B01",
"}. c #C24715",
"|. c #D15519",
" X c #E44500",
".X c #ED4300",
"XX c #E44D00",
"oX c #EC4B00",
"OX c #F54500",
"+X c #FC4400",
"@X c #F34C00",
"#X c #FE4C00",
"$X c #E25602",
"%X c #ED5400",
"&X c #E25A00",
"*X c #EC5C00",
"=X c #F35400",
"-X c #FE5400",
";X c #F45B00",
":X c #FE5C00",
">X c #CA6700",
",X c #D56600",
"<X c #D96801",
"1X c #D4720F",
"2X c #E66200",
"3X c #EA6400",
"4X c #E46B00",
"5X c #EA6B00",
"6X c #F66300",
"7X c #FF6400",
"8X c #FF6C00",
"9X c #E97800",
"0X c #F67400",
"qX c #FF7300",
"wX c #FF7C00",
"eX c #E68B00",
"rX c #F48700",
"tX c #FF8400",
"yX c #FF8D00",
"uX c #FF9300",
"iX c #FF9B00",
"pX c #FFA400",
"aX c #FFAC00",
"sX c #FEA80C",
"dX c #FFB200",
"fX c #FFBB00",
"gX c #FFC500",
"hX c #FFCB00",
"jX c #FECA0E",
"kX c #FFD400",
"lX c #FFDD00",
"zX c #FFE300",
"xX c #FFEB00",
"cX c #FFF500",
"vX c #FFFE00",
/* pixels */
"s s F s H F g q J T L L x g E.W.T 5.T k J L H L j H L H g q 9.=XH Y h Y Y Y T T T <.T T J H <.8.> a s F F 3 1.W - 7 p p a a a d ",
"s j j H J j g N H T T <.l ; c 9.<.5.E T T T T T Y I J J L I B y.T Y 6.6.<.1.5.6.6.1.1.9.6.I 1.e.q Y H 7 5 T -XP - D s s s s F s ",
"j h h L L h F 8 H U <.F - a ..| 5.T T T T <.<.<.<.<.Y H H t B B.#.U 6.9.q.3.<.1.9.e.0.i.9.B c.W.L T 7 5 =.7XwXD 8 j s j j j L j ",
"Y x x Y U H 8 H T 8 < * f OXwXq.<.t B w s N w F H H t I 3.,.+.qXuX6X].~.9.T J J I 3.y.<.I |.qX9.g q 0 x.m.! +XP q h H J J h h L ",
"Y c T 1.x 7 - T 0.- 8 ) 7XkXpX8X/.4.Z U I y I J V V z.7X7X-X-XuXgXhXlXiXz.,.h V U U I 9..X-X8X0.6 C B.A.1 O ) e.7 x h x k x Y x ",
"<.' 1.L 7 - w t.#Xc..XtXxXxXyX;X@XV.OXV.g.t.r.r.z.:X8Xe.D D R 8.'.uXlXhXuX#XO.r.+.+. X+Xe u M.7Xg.+X8XM.^ ! ^ oX8 I T x T c c <.",
"<.Y N : > t _ Z.B.+XpXvXzX5X%.1.U 1.0.c.@X-X-X-X8X%Xa - 7 7 $ * 4 x [ K.1XyX-X-X:X8X-X~ ~ C.-XqX7X:X;X@X+X+X#XqXW q ' <.5.6.' 1.",
"7 - : q u r.+Xm.!  XgXzX5XE.6.U I V B B J <.!.qX%X6 q s a q 8 8 p s d p ; M R }.8X8X-X#X-X_.<.B q 6 5 6 q B H 3.W.q c T c Y H q ",
"5 8 J / d.7X:X .XXwXsXtX9.1.I V C H J I V N 6 p.:XB H w w D a N p 4 p i 7 : # o 7 U.8Xe.9 @ @ @ 2 2 2 6 6 3 2 @ 1.5.4 F a 4 < < ",
"l / r..X8X{.q K ] 8.3X^.l V V H H H H H H H H N %X6.w H g s a q q p p 7 i 7 8 8 - < I @ 2 9 6 9 N 9 9 9 0 9 0 9 t i.a a s s s j ",
"4.B.N.s.#XD 5 J 5.T l.3.V J J H H g H s H H L 6 i.Q.w L H g s F s N a 8 8 N N 8 8 D N 6 9 9 9 9 9 0 9 0 w 0 0 t 9 #.!.f c ` { _ ",
"8X8Xm.f.T 5 Y I U U =.U V J H H F s H H L H L B L ).I I I L L L J J j s s q S N N N N 9 9 0 0 t 0 B t 0 t t t y h ( 6Xc.j.z.j..X",
"F.k L P 7 I <.<.U 1.c.J H B H H j H H L L h L L s ;X0.h T <.T T Y T Y Y Y H K N s F N 9 B 0 t 0 t t t t t t y l / z {.yX;X8XwXwX",
"d a 4 < 8 T 1.0.T &.XXg H H H J L L J h j h 5.j x 7X7Xl Y 6.1.<.<.T <.T T T Y I J H B 0 r B t t t r r t y y u c ( ' ~.iXdXkXpXG.",
"] b j F q T p.9./ -X'.h Y h J L h h h h x ( H d #.pXhXc.l Y 6.0.6.6.<.<.<.T T <.<.Y H 0 B t t t y y V V y y I / ' #.Q.pXvXlX,Xm ",
"' Y h F w Y q.9.j.tX{.' ` L L h I k c ( x A > ! wXkXhXdXj.C H 1.0.y.0.w.9.9.9.5.Y H <.w B u u C u Z C Z z U U / { $.Q.rXxXaXL.P.",
"7.E L J h h ' c.qXkXtX@.q.5.x c c ( c D = % / yXhXpX{.yXiXk.y y 6.I.~.(.:.6.T Y h 6.j.0 y I z z U >.>.>.>.>.1.3.9.$.U.2XiX>X`.F.",
"7.c I L I T 0.OXhXvXlX^.c d 8 p N S : $ 6 ) 7XpX'.2.<.l Q.8X.XU.H.K.K.F.7.<.U 6.l.:X8Xx t / >.<.>./ / 1.1.1.,.9.0.$.%.^.*X[ J.| ",
"9.5.Y U Y >.%XfXvXvXcXdX{.( 8 - % ; 6 / V.8XqX3.h Y T j h qXpXpXiXuX<XQ.*.+.v.-X7X#X-X^.y z 1.,./ { 3.3.3.3.3.9.4.y.$.y.].6.q.q.",
"9.<.T <.I  XiXpXuXuXyXuXtXwX8Xv.j...f.h.C.7X:XJ J T b v `.pXzXcXzXgXpXqX#X:X7X#X!...x.7X@.z / 0.4.9.3.4.0.4.4.4.0.y.u.3.XXq.6.w.",
"0.9.<.I -.wXJ.1./.*X*Xt.$XgXyX7XtXdXiX .~ -X7XH L n v K.aXxXvXlXfXiXyXqX7XwX8X#X/.z.XXdXyX_ z 1.y.r.4.y.y.y.r.y.4.y.p.,.%Xw.<.i.",
"<.U Z 4.8XQ.8 x | Q.q.} aXuXN.-.4.l.iX8Xs.#X8XL d v D.eXkXvXdX5XH.6.I C <.:.:XwXtXtXfXvXkXv./ V 3.;.;.;.+.a.u.a.y.y.a.>.XXQ.I 9.",
"U 4.h.7XqX8 O j b x / iXfXB.>.U J B 0.yX7X7XwX[ j Q ,XaXhXyXH.5.T C V H V N J 6.(.2XuXaXgXtXo.y C 4.y.u.;.n.n.;.n.;.4.Z  X:XB C ",
"#X#X7X8X8X7XE p q c tXdX;X,.<.<.U V g ].pXhXgX5XH.{.yXpX,X<.Y I H J J J J J J j c ' $.*.*XyX-Xr.9.<.z Z >.>.,.,.4.4.,.Z n.8X.X+X",
"W S A R P.8XwX8X<XiXfXqX-.{ 6.<.Y H h @.hXzXhXiXwXtXqX6.y J V B H H H H H g H H I T 6.9.z ).tX:X^.-.,.,.>.>.>.>.,.3.3.,.v.qX8XW.",
"o # o . + > b {.iXhXfX2XQ.P.9.n L g f | gXgX0X8XuX7XT t H H H H H B H s s g H t H h x x x <.tXiXwX-XN.+.r.4.4.u.a.;.t.v.qX&XA . ",
", , , M i i 4 d D.pXhXpXQ.| q.c L H 3 T.aXyX-X8XtX1.J I H H H j F F s H g H J J J L L J T S.aXkXtX8X7X:X-X-X#XoXV.V.7XpX<X; - < ",
"S < , M p a j m S.Y.pXhXaXF.c n c H $ 1XqXg.qXtX^.J T H B H H H H J J H L L L L L I I T [ eXcXpX&.1.1.9.=.XX-XtXpXdXgXrXw s s p ",
"s a 8 7 p s j b [ K.D.4XfXiX( h j 4 n tXX.! 7XtX9.h J H H H H H j h h h L L x Y x I T ] Y.xXfX=.I B N q w V ,.n.yXcXkX[ c b j s ",
"j j s q p a j b m [ S.b @.wX*X8 d 1XgXuXv.g.8XtX6.I B j H J J h H L L L l c c T l x k S.gXkX).<.H H s w s L 6.0./.gXiX` ` c H j ",
"J J h j j d F k x c n b t q.qX0XuXhXhXyX8XqXyXwXS.n x J L H L L I L T c j s a D q s ` uXlX0X9.U L H H j j L 5.0.n.iX,Xc 5.E Y J ",
"Y Y Y L h L H j k x x x k w *.pXiX;Xz.*.U.<XiXpXK.8.` x j L I k x c c 8 = : 5 8 w { tXzXhX&.1.<.L L H s L L T 9.u.tXF.T 6.T T Y ",
"T T T T T Y h F j L L Y x ( 0.:X;.>.>.5.S.T.eXcXdXS.Q 5.T Y c c ( x , o < w r r X.qXpXgXdX0.I 6.7.n k h h c <.3.p.;XT 9.9.<.<.5.",
"6.5.5.<.T T L 8 q w j x ' k.#X=X1.T H j b Q >XhXcXaXG.b s 5 7 < > * # 9 r z _  X8X@X)  XgX^.>.T q.$.| ` T T Y H ;.-Xw H 5.9.9.6.",
"9.9.6.1.6.6.1.w 6 w l _ m.-XdXwX1.c s q j m T.>XfXvXkX4XS.Y F K H T #.B.=X-X7XwX#XX.) OXpX8Xz.$.} } ' b a q B ,.#X-XZ w q F T 9.",
"g h Y <.1.T H q y 0.v.wXaXzXvXtX9.c j p a k S.D.>XkXxXdXaXyX-X7X8X7X-XB.V.#X8X8X8X7X:X7X7XdXpX7X0X~.| n ( 3.b.A.8XqXOXo.Z w q w ",
"y V B H h t y 4.-X8XwXpXaXxXcX0X0.c j s s j j m >XaXyX'.P.[ 9. XqX#X^ ! X.-X8X7X^.1.T 6.v.pXvXzXsXwX#XZ.Z.+X:X8X-X@X7X8X#Xk.{ C ",
"OXj.k.k.y.+.OX8XwX7X/.O.O.tXkX3X| ` x g 4 : 7 ` 3XtX[.G.m j j T =X:X+X-XqX8X:.L 9 q J <.y.XXgXvXvXdXyXuXtX:X^.1.U U ,.v.8X8X7X-X",
"W K T i.-X8XqX7X0.J I 6.p.XXuX^.1.<.g < * > g | %XqXJ.W v b E 9.:XiXtXqX).I 6 8 s q j n } ].wXkXvXxXdXqXJ.I B J Y I U C c.qX:XR.",
"5 9 8 6 t 7X7XB 6 q g Y <.n.8X^.z g 6 7 q l $.#X8XqX7XQ.m k c ..yXpX7Xp.I g F N 8 8 q k [ J.3X7XiXkXyXt.T I Y T L J H 3.7X8.> ; ",
"I T <.I N :X=.3 a 8 8 s H 0.qX X3.<.1._ } %.}.U.8.E R.!.c.^.%XwXfXtX&.w.6.x s p 7 7 p s n | J.^. XiXyXy.5.Y c c Y g 6 XXU.& J Y ",
"0.9.U B 3.7XT 8 a 8 a a w 1.8X@Xh.Z.=.E G D 7 - $ ; 8 s n ~.tXgXlXyX].J.' c d p p p p s h E { y.%XtX8Xy.5.T c x H 8 8 XX<.L 1.9.",
"T V V ,.+X7XJ H g s s j J 1.8X7X=XW i * : < 4 8 8 D j x ' $.,XkXvXdX3X~.| n k s a a j a > 8 w i.7XqX8Xi.c k a < * $ L :X1.<.0.6.",
"I >.r.Z.8X^.L T L k x ( L 1.8X`.< + > A 8 8 8 S a s j c [ L.,XaXcXfX3X~.w.6.b L j h H * - 5 h B.tXpXtX^.T w > = 7 k #.7X9.B U J ",
"+.Z.7XqXqX;.T 9.6.' 6.T N -X`.X : 8 8 8 8 p D q a s h E ` F.`.9XkXpX).(.i.7.T Y x x 7 d ..2X8XwXaXyX#X7Xa.<.I T 9./.:XwXx.U ,.4.",
"7X8X).0.8X:XU U T <.T 6 ;.8X: , p 8 S 8 a a F s s s L b ` [ } {.aXyXc.n.%.q.5.<.1.D s V.uXiXyXyXtX6X%X8X7X/.oX-X:X@Xv.@X8X#XZ.-X",
":.L 6 & 5.wX@X,.<.1.1.&.wXP $ q 8 D N s s H H j H H h x c c ( &XtXtX;Xu.*.e.9.0.H g j.qXtX8.N w g x E k ].wX7X Xy.,.U Z XXwXqX:X",
"N 8 8 N > e.qXqX7X-X-XpX9X> 8 a s g j j L H J H L J I L j x ' 6X X%XyX=Xx.=.a.0.T &.wXiXH - 8 N j I J j :X@X<.V I I U J U 7Xc.J ",
"N 8 7 8 8 > Y =XiXhXjXfX[ 8 s j L L h h k x x Y x I Y H N g *.l.n I.uXkXpXwX4X'.%XpXgXE N L H J I I w :.XX>.,.1.T I L t 6./.B N ",
"N 7 8 D s s s 1.6XkXxXuX( c h h L Y Y T T Y T T T T T N w l 9.x m S.9XcXvXcXvXlXxXxX>Xm 6.T T <.<.1.V !.:.1.e.6.1.T T q w.&.V B ",
"D 8 D a j h 5.:./.pXhX~.n c Y x T T T T T T <.T <.<.T B B 1.U s d m H.fXkXiXaXdXkXkXP.T.w.9.9.y.0.T >.z.0.w.9.1.6.<.<.H }.4.L H ",
"w s s j x <.6.:.n.6XiX' x Y T T T <.<.<.5.1.5.6.1.9.I w y 3.<.H g g P.'.n n ' w.0.yX`.,.E.p.i.1.U ,.A. XY y.9.9.6.6.H W .X>.U H ",
"L x x Y L L I 1.3.c.qXL J T <.<.<.6.6.6.6.9.6.0.9.T H w I k.4.I h 3.8.8 g Y <.0.>.<. X>.3.3.,.4.Z.-XtX5X5 Y p.p.0.c : |.B.,.<.I ",
"L g H w w g z 4.4.x.-XF Y <.5.6.6.9.9.9.9.0.i.1.Y J h x r.h.V.9.r.U.> 8 T <.9.p.U B %X:X0.V.-X:X}.T *XwXN $ F 8.x a W.8XB.,.,.U ",
",.,.>.3.r.O.f.N.C.A.@Xq x 6.6.9.9.9.0.p.p.9.I g j c ( :.N.N.:XqX7XD ; w T 9.i.I g ,.8XfXyX-Xe.F 6 3 V yXe..     * &X X>.c.oX4.,.",
"#X#X+X+X#X#X-X:X7XqXwXt h 0.9.9.i.a.p.9.I N w h T 9.^.+X+X8XwXqXe.$ s s Y p.I 0 6.OXqXiXi.8 6 H L B 1.iXaX|.R A W.w.B <.<.7X7X-X",
"W P L K P L Y T u.uXfX$.g 0.p.i.0.<.J q 9 N H T 0.%XqXuXdXyXv.8Xe.; g L I I t 9.-X/ } 6X6 t Y U U I ,.iXhXyXN..X8Xw 9 >.V.%XT.W ",
"$ : : > 5 7 7 5 5 l.fXiX` ' 9.T h w N N t J <.y..X8XkXvXaX!.l %XQ.5 F B t B 9.8XA.2 / -XH T U <.1.3.U 6X:XC J V :.=Xu.c.8.: X * ",
"7 7 8 A 8 D w F w l yXkX[.x k x I T Y U >.2.b.#X8XaXvXlX{.@.c (.XXq B Y #.#X7X6XOXM.M.qX1.w 1.9.3.T I -X1.t I g <.qX7XG X : M 7 ",
"7 7 i 8 8 N D w H t U.fXuX^._ 9.$.} y.r.d.A.-X&X8.H.rXdX5X6.x U.:X#.#X-X'.e.G : < W _.tXyX^.C C V V z.7Xq h I B XX|.* + < < < 7 ",
"M i 8 8 8 D N N g 9 w.tX7XqXyXyX3XB.V.-X:XW.G * > d d H.tXq.6 %.qX7XU.P : + - < > # * D |.uX7X3.V.-X8X8XL $ 8 W T.o = M M < < i ",
"7 8 8 8 p a F s w w %Xz.3.&.dXhXaXqX8XU.S X # i p d f 4 P.8XU.7X_.D % ; 8 8 8 8 8 q q > * D $X8X*XR.R R }.W , 8.7 : 7 < , M < i ",
"7 8 8 S q s a H 8 6.n.U 3.w.0XgXaX[.b > 7 a D a a p a 8 3 ~.wX^.- 8 F H s s D N q D N N N > N ].=   X X > 8.|.R.# 7 < < 7 < < 7 ",
"a D D F F F F F H 9.I I T Y &XwX[ h j L H d s s s F a s 8 F 8XXX9 H H h L L L J L L H H H H I e.= M 7 A 8 > 0.8.* 7 i 7 7 i p p "
};
