/* XPM */
static char *_84577a089d24894e1270f1e07049e1bmcwvuMfBA5eMyLpq[] = {
/* columns rows colors chars-per-pixel */
"64 64 219 2 ",
"   c #0B0001",
".  c #190408",
"X  c #1C060A",
"o  c #1F0D12",
"O  c #2A0608",
"+  c #220A0D",
"@  c #32060F",
"#  c #250D11",
"$  c #2C0E12",
"%  c #330E12",
"&  c #3B0D14",
"*  c #2D1215",
"=  c #2D1518",
"-  c #331215",
";  c #3B1415",
":  c #341518",
">  c #3D1619",
",  c #381B1B",
"<  c #3D1B1C",
"1  c #51120A",
"2  c #410F15",
"3  c #431317",
"4  c #461915",
"5  c #4B1D16",
"6  c #441519",
"7  c #4C161A",
"8  c #431C1C",
"9  c #4C1D1D",
"0  c #53161B",
"q  c #571819",
"w  c #531C1D",
"e  c #5C1C1D",
"r  c #7D1B0F",
"t  c #6E1815",
"y  c #631C1D",
"u  c #6B1E1D",
"i  c #771C1A",
"p  c #44201E",
"a  c #4D211E",
"s  c #54211E",
"d  c #5C221E",
"f  c #5F2A1A",
"g  c #652417",
"h  c #63241E",
"j  c #6B251F",
"k  c #652A1D",
"l  c #6C291E",
"z  c #73231E",
"x  c #7A241D",
"c  c #742B1F",
"v  c #7B2C1E",
"b  c #6B361B",
"n  c #73311D",
"m  c #7B321E",
"M  c #76391D",
"N  c #7A3B1C",
"B  c #411E20",
"V  c #531F20",
"C  c #5E1E20",
"Z  c #641E20",
"A  c #6D1E21",
"S  c #741D22",
"D  c #791E22",
"F  c #462424",
"G  c #4C2423",
"H  c #532321",
"J  c #5C2320",
"K  c #572C27",
"L  c #652320",
"P  c #6B2421",
"I  c #622A25",
"U  c #6D2921",
"Y  c #662F28",
"T  c #682D28",
"R  c #732421",
"E  c #7B2522",
"W  c #742921",
"Q  c #7B2B22",
"!  c #68322A",
"~  c #763526",
"^  c #7C3323",
"/  c #75352A",
"(  c #7B3A2C",
")  c #7D401D",
"_  c #871B15",
"`  c #991A16",
"'  c #A81E16",
"]  c #85241B",
"[  c #882218",
"{  c #832C1E",
"}  c #8C2E1E",
"|  c #982617",
" . c #9A2C1E",
".. c #83331E",
"X. c #8A341F",
"o. c #833C1E",
"O. c #8C3B1E",
"+. c #91311E",
"@. c #9C321D",
"#. c #933B1E",
"$. c #9B3D1D",
"%. c #BA2A03",
"&. c #AD3D08",
"*. c #BB3300",
"=. c #B33D00",
"-. c #B5350A",
";. c #A82317",
":. c #B82B13",
">. c #A4351F",
",. c #AC321B",
"<. c #A83918",
"1. c #B03619",
"2. c #832521",
"3. c #8B2624",
"4. c #832D22",
"5. c #8B2C22",
"6. c #912721",
"7. c #932C22",
"8. c #9B2C23",
"9. c #853222",
"0. c #8C3222",
"q. c #843C22",
"w. c #8C3A21",
"e. c #85392A",
"r. c #8B3C2B",
"t. c #933323",
"y. c #9B3423",
"u. c #943A23",
"i. c #9A3B23",
"p. c #943D2A",
"a. c #A32C22",
"s. c #A92D22",
"d. c #A23424",
"f. c #AA3720",
"g. c #A53A24",
"h. c #AA3A24",
"j. c #D40500",
"k. c #CC1800",
"l. c #D91800",
"z. c #EA0800",
"x. c #F30300",
"c. c #FF0000",
"v. c #FF0F00",
"b. c #EB1700",
"n. c #E51C00",
"m. c #F31600",
"M. c #FF1300",
"N. c #F71900",
"B. c #FF1B00",
"V. c #C12402",
"C. c #C52D00",
"Z. c #CA2900",
"A. c #D42400",
"S. c #DC2100",
"D. c #D22B00",
"F. c #DB2C00",
"G. c #C43200",
"H. c #CC3400",
"J. c #C43F00",
"K. c #CB3B00",
"L. c #D33300",
"P. c #DD3200",
"I. c #D73E00",
"U. c #EA2400",
"Y. c #F42400",
"T. c #FF2300",
"R. c #F12B00",
"E. c #FF2B00",
"W. c #E83900",
"Q. c #F33200",
"!. c #FF3300",
"~. c #F43E00",
"^. c #FF3E00",
"/. c #994A04",
"(. c #934B0B",
"). c #89441E",
"_. c #A84404",
"`. c #B64500",
"'. c #B55400",
"]. c #AD4819",
"[. c #8B4223",
"{. c #8B402C",
"}. c #964226",
"|. c #A94422",
" X c #CC4400",
".X c #C24A00",
"XX c #D54400",
"oX c #DC4300",
"OX c #DB5100",
"+X c #D0540F",
"@X c #E44500",
"#X c #FF4400",
"$X c #FF4E00",
"%X c #FF5300",
"&X c #FF5C00",
"*X c #D26A00",
"=X c #E46200",
"-X c #EB6200",
";X c #FF6400",
":X c #FF6B00",
">X c #FF7300",
",X c #FF7A00",
"<X c #FF8300",
"1X c #FF8A00",
"2X c #FF9300",
"3X c #FF9C00",
"4X c #FFA300",
"5X c #FFAB00",
"6X c #FFB300",
"7X c #FFBC00",
"8X c #FFC600",
"9X c #FFCC00",
"0X c #FECA0E",
"qX c #FFD400",
"wX c #FFDC00",
"eX c #FFE200",
"rX c #FFEC00",
"tX c #FFF100",
"yX c #FFFF00",
/* pixels */
"d d J d L J h H P 4.U U x h |.|.W 9.c U P U U L k L P L h 0 t.:XL U z U W Q Q Q Q Q 4.Q P L 4.r.< s d J e 6 5./ - 8 a a s s s f ",
"d k k L L k L w L E Q { W - v y.9.9.9.Q Q Q W Q Q W P P U U Z ,.Q W 9.0.9.4.9.5.0.7.5.0.0.R 3.r.w W L 8 6 E ;X! - s J f d d d J ",
"k j j U U j J V P W 4.J - s R.w.9.Q Q Q Q 4.4.4.4.4.W L A y Z E.C.E t.t.u.7.4.4.t.p.y.g.t.Z ^.I.R W 4 8 Y.1X4XH 9 k d h k k L k ",
"W c c W x P 8 L Q 9 < * g #X4X}.4.Z C e e J e J L J y E 5.5.k.2XqX<X;X$Xt.Q P R R 5.g.2.R &X4Xp.Z V 0 v.c.[ #XY w j L j P U l U ",
"W v Q } c 9 - Q 8.- 9 | 1XyX6X1X^.7.2.E R R R j A R v.<X,X>X>X9XyXyXyXwXc.5.P A E E D t.$X;X1Xy.7 R E.E.1 O | p.8 c l l c c c v ",
"4.} 5.U 8 - e a.;X!.E.7XyXyX9X,X%X!.^.T.c.;.a.a.c.>X2Xp.H H Y r.:XqXyXyXqX%Xk.a.V.V.#X#Xr i c.1Xc.#X2Xc.' _ ' %Xa R Q c c Q Q Q ",
"4.U H : > Z  .E.!.#XrXyXyX2XJ.5.E 3.y.E.%X:X>X;X2X:XJ ; 8 < % - 7 n (.OX5X8X;X;X>X2X;X` ` c.;X3X1X>X:X$X#X^.%X3X~ w 0.4.4.X.} } ",
"8 : ; w i a.^.c.[ E.yXyX3X=.5.E R A Z Z P 0.!.4X:X6 7 J s w 9 p a s s 7 > , ! &X2X3X;X%X:X^.4.Z 0 7 6 7 0 Z P t.oXw { v Q W L H ",
"> w P [ x.<X>Xn.&X4X5X7Xt.4.R A A P P A P C 7 1.>XZ L e d H s w a a 8 a 8 , # + B #X1Xp.0 @ @ @ 2 2 2 7 6 6 2 O 3.e.5 d a 8 4 , ",
"z ] a.!.1X:Xw L q.q.<X#XE A A P P L L L L L L J ;X0.e L L d s s s 9 a 8 8 9 9 8 - < W @ 2 0 7 0 0 0 0 0 q q q 0 y &.s s d d d k ",
" .E.c.c.%XH 6 P 4.Q E.7.Z P P P h h L h L L P 7 <.^.e U L y d J J s s 5 9 a w 9 V V V 7 0 0 q q C 0 0 0 q Z e y 0 *.#Xj v ..+. .",
"1X2Xc.c./ 6 R W 2.E R.Q A P L L h d I L P P P J U &XR W R U R U P j L J d H w H w J e 0 0 0 C q q y y q y y y y u { ,X!.!.M.v.#X",
"_.l ~ K 8 R Q 4.E 5.E.P L Z L L L L U L P P c j d :Xy.P 4.Q Q Q Q W W W U P I C s J C 0 C q y q y Z y y y y u x { x :X8X>X1X5X4X",
"g s 8 4 V Q 5.y.Q Y.%Xh L L P P P P j j j l m k c <X<Xc W 9.5.4.4.4.4.Q Q Q W R U L Z q y y y y y t Z t u u i x } +.%XeXyXyXrX(.",
"o.l k d w Q g.t.5.:X;Xj W k L U j l c l c { I d %.rXyXE.z W 7.y.0.0.5.4.4.Q Q 4.4.U P q t y t y u u A A u u x x } <.#XrXyXyX2X^ ",
"O.W k L e W u.t.B.6X:XX.9.W U j U U c { W p > _ 6XqX9XyXE.A P 4.y.y.i.y.t.t.t.9.R P 4.e A A A S i S D i E x 2.} +.&.#X8XyXtX:X X",
"w.Q l P L j 0.E.3XyX7XH.u.9.c W v { Q H = % ] 8XyXrX>X9XeXz.S j 0.=.$X%XI.0.W R P w.!.q u x x x E ] 2.2.2.2.} 7.@.-.W.1XwX1X;X=.",
"u.Q R U R v y.#XyXyXyX#Xv d a 9 w G , $ 7 | 1XrX;X5.4.z #X3X^.W.OX=X-X`.w.Q 2.t.E.>X2Xz y 2.2.2.2.3.} 5.5.5.5.7.t.<.G.#X,X).@Xu.",
"w.4.W E W 4.;XyXyXyXyXyX>X{ 7 - % ; 7 [ T.2X3X7.u Q ..j j 3XrXrXeX9X1X#XD.k.B.>X,X%X:X^.u x 5.} } } 5.6.7.7.7.t.y.y.-.,.;XX.i.i.",
"t.4.4.4.R #XwXrXqXwX7XwX7X6X2XE.!.Y.c.c.c.<X>XU P v c b :XrXyXyXyXyXrX4X%X>X1X%X#XL.c.1XG.x 5.8.7.8.t.8.8.y.8.8.y.d.:.7.&Xt.w.y.",
"i.7.4.R Z.5X~.} #X>X:Xa.:XyX9X<X7XyXwXj.` &X1XL U m b *XtXyXyXyXyXeX9X3X1X5X2X%X#Xc.&XyX8X@.x 5.,.a.d.d.a.d.d.y.d.d.:.3.%Xi.9.g.",
"4.E D 8.2X#X5 c #.#Xi.>.yXqXc.Z.8.E.rX2Xc.;X2XU f b (.8XyXyXyX2XoX0.R S 4.H.,X4X7X7XyXyXyX!.] P 7.n.S.S.D.Z.%.:.s.g.C.2.%X^.P t.",
"E 8.c.<X3XV $ g n c { wXyXB.2.E P y y.8X,X1X6XO.b N 1XyXyX9XXX9.Q R A P Z y P t.%X1X9XyXyX7Xa.i S y.,.%.l.m.N.N.N.N.y.S #X>XZ D ",
"&X&X1X2X1X<X^ 5 s v 6XyX>X3.4.4.E A h ;XrXyXyX1XK.>X8XrX,Xv E R Z Z P P P P P j c 0.*.L.,X9X&Xa.t.{ D D 2.4.3.7.t.8.3.D B.2X^.#X",
"( F F ! '.1X4X3X,XwXyX4XD.t.0.4.W L j K.yXeXrXeX6X6X3X0.A P P L L L L L L L L P R Q 0.t.x %X6X,X$XC.3.2.2.E 2.2.3.7.7.3.E.3X2X&X",
"o # o . X 4 n >XeXyXyX1X%XJ.t.v U L j #.yXyX3X2X9X1XQ y P Z Z L h h L d e h y h L P c c z 4.6XeX6X;Xc.k.a.8.a.s.A.U.:.T.3X>XB . ",
"< < , < p p a g _.rXyXrX$Xt.t.m j j 3 ( yX9X:X2X6X5.P R L L k h L h J d L P L P U P U P Q O.yXyX7X1X<X,X:X;X%X%X!.T.<XtX,X> $ B ",
"F < < B a s g N /.1XrXyXyX`.v v v g $ 3X2Xc.4X7X#XP W P L J L L L L L P j U U U l R R Q O.qXyXrXR.3.7.t.Q.%X:X6XtXyXyX5Xd s d V ",
"d s 9 8 a d k n O.=X'.2XyXwX4.l k 4 ..6X%._ <X6Xt.j U Z L L L U L k j P U U j W W U E o.1XyXyXR.R Z C 0 e j 5.T.9XyXyXO.c n k d ",
"k d d w a s k l M O.).n H.5X>X5 d 5XyXqXv.c.3X6Xw.W h L j P L j P U P c c v v Q v R l ).yXyX%X4.P J J J d l 5.y.#XyXwXX.X.c L k ",
"U j k k k f J l c n m m d $.3X4XqXrXyX8X1X3X9X5Xq.^ j L U P P P U l W v j J s H w d ..9XyX5Xy.E U L k J I c 9.y.m.rX1Xv w.Q W U ",
"E c R U U j I k l c W W l e L.rXeX>XM.F.#X1XeXtX=X).X.c k P U W W { { a = : 8 5 q +.6XyXyXb.4.4.W P J h L U Q t.C.6X&.Q 9.Q Q W ",
"4.Q Q Q W W L d j U W U c { y.>Xn.2.4.0.o.[.9XyXyX).).9.W x v v { c < o 8 q t t %.3XtXyXyX8.R 0.w.c l j U v 9.5.:.>XQ t.w.5.4.4.",
"0.9.9.4.Q Q W 9 w w k c w.N.%X:X5.W h L M ) 1XyXyXyX/.n d 8 < < , * + 7 t x  .#X1X;X[ #XyX#X2.^ i.=.#.X.Q W W P n.:Xe A 4.t.y.w.",
"t.0.4.5.0.0.9.e 9 e x  .c.:XyX5X7.W d w k N ).1XyXyXyX2X[.W I L L Q ,.E.;X>X1X5X&X' | #XrX2Xc.=.$.$.X.l s w u 3.%X:XD e 0 L Q 0.",
"h j Q 4.0.Q P w u @.M.4XyXyXyX7Xy.m k 9 w c ).'.1XyXyXyXyX9X>X,X1X1X;XE.M.$X1X2X1X1X,X<X,XyXtX,X1X&X#.m ] 3.z.E.2X4X#X8.R e 0 e ",
"u Z A L L y A 8.&X2X5XrXyXyXyX3Xi.^ g s d f k M 1XyX7X>X.Xq.t.#X3X&X' _ ' &X3X1X!.0.Q 5.T.rXyXyXyX5X#Xv.!.%X>X2X:X$X1X1X$Xb.7.E ",
"$XM.m.m.f.V.^.2X5X1X#Xn.l.6XyX1X@.m c k 9 - 8 ..,X7X>X'.M b j Q &X,X!.:X4X2XL.P 0 0 P 9.y.$XyXyXyXyX9X9X7X,X^.5.E E 3.!.2X2X<X;X",
"/ Y Q *.:X1X3X<Xy.U P 5.,.&X9X#X4.4.L < * > h +.>X3X#XM b n n 0.>XwX7X3X%XE 7 7 d w k m i.;X6XyXyXyXyX4XQ.R d P W W E S E.4X,X}.",
"6 7 7 9 y ,X1XZ 7 0 h W 4.T.3X!.E Z 9 6 d z <.%X1X4X,X!.m l v R.9XtX<X-.R j J H a 9 w l X.#X,X1XwXyX9X:.Q E E c R L Z 7.1Xe.6 ; ",
"E Q 4.R C >XW.6 s 9 9 d P t.3X#X7.4.5. .@.G.#X$Xr.^ i.^.!.$X>X5XyX7XR.u.X.c d 9 8 8 9 d m #.^.!.^.eX8Xd.9.W W Q c h 7 $X@X& L W ",
"y.0.E Z 3.1XQ 0 s 9 s w C 5.2X&Xc.!.Q.^ I G < - $ > 8 f ..$X6XyXyX8X:X#Xw.c d s a a a d j ^ 0.i.;X6X3Xy.9.Q v R L 9 5 %X9.R 7.t.",
"Q A A 3.^.,XP L k d d k P 5.1X1X;X/ p * - , 8 9 9 H k n 9.`.1XyXyXyX<X$Xu.M U d d s h s > w e <.1X3X2X1.{ j V B * $ j >X5.4.y.0.",
"P 2.s.!.2X%XU W j j c 4.U 5.2X&X< + < 8 9 a 9 V s d P n O.$X1XrXyXyX,X%X<.9.v k d j k = - 6 P M.5XtX7X#Xx d < : 8 U *.1Xt.Z E P ",
"k.!.,X4X4XF.E t.0.0.0.Q 0 ;X;XX : 8 9 a G a H w s d j c 9._.:X5XyXrX%X$X&.w.^ W c c 8 J W.,X2X5XyX9X%X<XP.4.R R t.#X,X4XE.D 3.8.",
"<X1X%Xy.1X>X2.Q Q 9.v 7 F.2X: > a 9 a H w s J d d J l ^ 9.X.#.>XtX9X!.!.H.t.0.9.4.d d E.wXwX8X9X7X,X:X2X<X!.%X>X>X%XE.&X1X%X!.;X",
"L.P 7 & 9.4X%X3.2.5.4.R.5X! $ H G w s d d L L k L L l W W Q { >X7X6X:X:.Q.y.0.t.U k M.3X7Xe.0 d h l ^ j &X6X<X#Xd.3.E D %X5X4X,X",
"9 V V V > i.4X4X1X:X:XrX4X3 9 w d k k j L L P L U P R U k c X.,X#X:X9X:XM.Q.F.t.Q l.7XeXL % 9 d k c P j ,X&X2.A R R E A E 1XE.L ",
"V 9 8 G 9 ; W :XwXyX0XyXO.5 L k j j l l c W W W c W W L J h D.!.m &.qXyXtX6X1X:X:XeXyXq.0 U T P R E e H.%XE 4.9.E R U Z 5.^.Z C ",
"V V 9 s d d h 5.1XqXrX9X{ c j U U W W W Q W Q v Q Q Q C e z t.c M /.4XyXyXyXyXyXyXyX<XM w.Q E Q 4.5.Z !.F.t.t.t.0.4.Q w i.U.A J ",
"s 9 s s k j 4.H.E.rXyX&Xm Q U x Q Q Q Q Q Q 4.Q Q 4.Q C y 5.Q s f N OXyXyXeXyXyXyXyX.X}.i.t.t.d.d.Q 2.c.y.t.0.0.9.9.4.L ^.8.R J ",
"J d d k c 4.0.W.T.,XeXX.c W W Q Q 4.4.4.9.0.4.0.0.0.E e A 7.4.P h g K.:Xm ..X.y.y.9X:X3.|.h.g.7.E 3.M.#XW d.y.t.5.0.L / $X3.E L ",
"U j c W U P P 5.7.E.4XU U Q 4.4.4.0.0.0.0.0.0.y.y.Q L e E z.7.R j 5.r.5 h E Q y.E 2.#X2.7.3.3.8.T.;X7X1X6 R f.f.i.Q : :Xv.3.4.W ",
"P k L d d L E 7.8.c.>XJ W 4.4.0.0.t.t.t.t.g.d.0.R L P x y.c.E.7.a.^.< 7 Q 4.t.h.E A ;X,Xd.E.:X>X#X^ ,X6XV $ H 0.W J XX1X!.3.3.E ",
"3.3.2.6.a.k.c.c.c.M.%X0 Q 0.0.t.t.y.y.h.h.t.E d P v ..G.M.c.>X3X1XH > d Q t.g.W y 3.2XyX7X>Xi.J 7 ; S 8Xp.. .   * :X^.4.!.#X8.3.",
"&X$X#X#X$X&X;X,X,X4X5Xd P @.t.t.d.h.h.t.E V w j v t.#X#X^.2X5X4Xr.$ d e W h.W 0 0.%X3XwX<.9 7 L R L 4.wXyX<XT G %Xy.Z 4.5.<X<X&X",
"/ ! Y T T U Q Q C.qXyX=.h i.h.g.y.4.P 0 V C L Q >.;X3XwXyX8X!.1Xp.3 L U R W C t.>X{ @.,X7 d E W E R 3.eXyX8Xc.#X1XJ 0 E T.>X{.e.",
"$ % : > 8 8 8 6 6 !.yXeX..0.t.Q k e C C e A 2.f.!.2XyXyXyX^.z ;X#X6 e d y Z t.2XM.2 [ :XL Q E 4.5.t.R ,X>XS P A H.:X,.T.e.: X # ",
"8 p 9 9 7 H e J V z 8XyX<Xz z j x c W E 2.6.x.$X1XyXyXyX:XH.Q %X%X0 Z E C.%X,X<X#Xc.c.2X4.e 3.t.7.Q E ;X5.L R d 4.3X1XK X = 8 < ",
"B 8 p 8 V V V d L y W.yXqX#X+.y.<.>.d.8.c.M.>X>X[..X6XyX1Xw.W @X>X*.&X:X&Xr.K : < ( #X7X9X#XR S A A c.,Xe j E C %X;X# # B B < 8 ",
"8 8 8 V V H w V k 0 }.6X1X3X9X7X,X!.E.%X>XOXK * > f g  X7Xt.5 J.3X<X#XY : + = < , # $ H ;X9X1X7.v.:X1X1XT $ 9 / }.+ = B < < < p ",
"8 9 9 9 a w J d e e ;Xc.6.m.yX9XyX4X1X%XH X # p a f f 5 K.3XI.<X%XH - ; 9 9 9 9 9 9 w > % V >X2X,X].! ! $X/ , e.< * p < < B < p ",
"p 9 G 9 V d J J 7 w.M.E t.y.4XyXtX>Xl > 8 s s H a s s w 4 &X5X%X& 8 d J d d H s w d w J J 6 V ;X=   X X < 9.+X}.# 8 < < 8 < < 8 ",
"s s H d J J J C L t.W R Q W >X5XO.k l l L f d d J J s s 7 s 1X%X0 j P P U l R U U U L L L L W r.= B B 9 G 6 y.e.* p 8 p 8 p a a "
};
