/* XPM */
static char *_81f3ba214364c4a8d497103b1452c66gnYbfAKtNhIoIzNz[] = {
/* columns rows colors chars-per-pixel */
"64 64 231 2 ",
"   c #0B0001",
".  c #190408",
"X  c #1C060A",
"o  c #1F0D12",
"O  c #2A0608",
"+  c #220A0D",
"@  c #32060F",
"#  c #250D11",
"$  c #2C0E12",
"%  c #330E12",
"&  c #3B0D14",
"*  c #2D1215",
"=  c #2D1518",
"-  c #331215",
";  c #3B1415",
":  c #341518",
">  c #3D1619",
",  c #381B1B",
"<  c #3D1B1C",
"1  c #51120A",
"2  c #410F15",
"3  c #431317",
"4  c #461915",
"5  c #4B1D16",
"6  c #441519",
"7  c #4C161A",
"8  c #431C1C",
"9  c #4C1D1D",
"0  c #53161B",
"q  c #571819",
"w  c #531C1D",
"e  c #5C1C1D",
"r  c #7D1B0F",
"t  c #6E1815",
"y  c #631C1D",
"u  c #6B1E1D",
"i  c #771C1A",
"p  c #44201E",
"a  c #4D211E",
"s  c #54211E",
"d  c #5C221E",
"f  c #5F2A1A",
"g  c #652417",
"h  c #63241E",
"j  c #6B251F",
"k  c #652A1D",
"l  c #6C291E",
"z  c #73231E",
"x  c #7A241D",
"c  c #742B1F",
"v  c #7B2C1E",
"b  c #6B361B",
"n  c #73311D",
"m  c #7B321E",
"M  c #76391D",
"N  c #7A3B1C",
"B  c #411E20",
"V  c #531F20",
"C  c #5E1E20",
"Z  c #641E20",
"A  c #6D1E21",
"S  c #741D22",
"D  c #791E22",
"F  c #462424",
"G  c #4C2423",
"H  c #532321",
"J  c #5C2320",
"K  c #572C27",
"L  c #652320",
"P  c #6B2421",
"I  c #622A25",
"U  c #6D2921",
"Y  c #662F28",
"T  c #682D28",
"R  c #732421",
"E  c #7B2522",
"W  c #742921",
"Q  c #7B2B22",
"!  c #68322A",
"~  c #7C3323",
"^  c #75352A",
"/  c #783728",
"(  c #871B15",
")  c #991A16",
"_  c #A81E16",
"`  c #85241B",
"'  c #882218",
"]  c #832C1E",
"[  c #8C2E1E",
"{  c #982617",
"}  c #9A2C1E",
"|  c #83331E",
" . c #8A341F",
".. c #833C1E",
"X. c #8C3B1E",
"o. c #91311E",
"O. c #9C321D",
"+. c #933B1E",
"@. c #9C3D1E",
"#. c #AE2B0F",
"$. c #B82807",
"%. c #BE2D0C",
"&. c #AD3F0C",
"*. c #B53703",
"=. c #BC3402",
"-. c #BE3B00",
";. c #A72418",
":. c #A42A1F",
">. c #BB2711",
",. c #BA2D14",
"<. c #B32C1A",
"1. c #AB3A14",
"2. c #A93719",
"3. c #AA341E",
"4. c #A43A1D",
"5. c #B23317",
"6. c #832521",
"7. c #8B2624",
"8. c #832D22",
"9. c #8B2C22",
"0. c #912721",
"q. c #932C22",
"w. c #9B2C23",
"e. c #853222",
"r. c #8C3222",
"t. c #843C22",
"y. c #8C3A21",
"u. c #85392A",
"i. c #8B3C2B",
"p. c #933323",
"a. c #9B3423",
"s. c #943A23",
"d. c #9A3B23",
"f. c #943D2A",
"g. c #A32C22",
"h. c #A82C23",
"j. c #A23423",
"k. c #AA3421",
"l. c #A53A24",
"z. c #AA3A24",
"x. c #B03E27",
"c. c #C71C00",
"v. c #DA1600",
"b. c #E30D00",
"n. c #FE0000",
"m. c #FA0800",
"M. c #FE1400",
"N. c #F51800",
"B. c #FF1A00",
"V. c #CC2300",
"C. c #C42804",
"Z. c #CD2B00",
"A. c #D32500",
"S. c #DB2500",
"D. c #D42A00",
"F. c #DC2C00",
"G. c #C43500",
"H. c #CB3300",
"J. c #C33800",
"K. c #CC3B00",
"L. c #DB3400",
"P. c #D53D00",
"I. c #DE3900",
"U. c #E02900",
"Y. c #EA2900",
"T. c #FF2300",
"R. c #F12800",
"E. c #FF2A00",
"W. c #EC3500",
"Q. c #E53800",
"!. c #F53600",
"~. c #FF3400",
"^. c #FF3A00",
"/. c #9C490A",
"(. c #8B5203",
"). c #89441E",
"_. c #944614",
"`. c #A94504",
"'. c #B44001",
"]. c #BD4400",
"[. c #B54B00",
"{. c #AA5200",
"}. c #A54113",
"|. c #B24612",
" X c #BC6300",
".X c #8B4225",
"XX c #954226",
"oX c #A34523",
"OX c #C44300",
"+X c #CC4200",
"@X c #CB4E00",
"#X c #D74200",
"$X c #DE4B00",
"%X c #C95900",
"&X c #D85A00",
"*X c #DA571E",
"=X c #E24300",
"-X c #EB4400",
";X c #EC4C00",
":X c #F44200",
">X c #FF4400",
",X c #F24E00",
"<X c #FF4E00",
"1X c #E75300",
"2X c #FF5300",
"3X c #F75A00",
"4X c #FF5B00",
"5X c #F66100",
"6X c #FF6300",
"7X c #FF6B00",
"8X c #E77900",
"9X c #FF7500",
"0X c #F67800",
"qX c #FF7C00",
"wX c #FF8300",
"eX c #FF8B00",
"rX c #FF9300",
"tX c #FF9C00",
"yX c #FFA300",
"uX c #FFAC00",
"iX c #FFB200",
"pX c #FFBC00",
"aX c #FFC200",
"sX c #FFCC00",
"dX c #FECA0E",
"fX c #FFD400",
"gX c #FFDB00",
"hX c #FFE300",
"jX c #FFEB00",
"kX c #FFF400",
"lX c #FFFE00",
/* pixels */
"d d J d L J h V P 8.U U W h oX|.W e.m W U L L P k P P L L 0 p.6XL U R U W Q Q Q Q 6.~ W P L 8.i.< s d J J 6 7./ * 8 p s s s s d ",
"d k k L L k L w L Q Q 8.x : Q p.8.e.Q Q Q Q Q Q W W L U P U Z k.E W e.r.e.8.e.9.r.r.r.q.r.R 9.f.V U L 8 6 Q 4X! : s d d d d d k ",
"k j j U U j J V P W 8.J - s L.s.e.Q Q Q 8.8.Q 8.8.8.W L P L Z ~.=.E o.s.a.p.8.8.p.a.a.l.p.Z ^.J.W Q 8 6 F.9XeXH 5 k J k j k k k ",
"W c c W x P 8 L Q 9 > * k >XeXXX8.Z C e J e J J J L y E 7.7.C.wXpX9X4X>Xs.W P R R r.l.6.R 2XrXf.J w 0 E.n.' >XT w j U L k j U U ",
"W v Q [ c 9 - Q a.& 9 { 9XlXuXqX>Xw.E E R R P P Z D T.9X9X6X7XuXkXkXlXaXB.7.j A E E R p.>X4XqXa.0 D ^.~.1 O { f.8 c l l R c W v ",
"8.[ 9.U 8 - e g.4X^.^.yXlXlXuX7X<X^.^.~.M.;.g.g.M.7XwXf.H H Y i.6XpXlXlXpX<Xc.g.>.,.>X>Xr i n.qXM.>XwXn._ ( _ 2XG z Q Q v W v Q ",
"8.U H : > Z } ~.~.>XsXlXlXqX'.9.E 7.a.~.2X6X7X4XqX6Xe ; 8 > - % 5 c +.@XrXuX6X4X6XqX4X) ) M.4XeX9X7X6X>X>X>X<XeX^ w 9.] 8. . .9.",
"8 : ; w i g.>Xn.( ^.hXlXeX&.p.E R A Z C P 9.^.eX6X7 9 J w s 9 p a s d 5 : < Y 3XwXeX4X2X6X>X6.Z w 7 3 7 0 L P q.+Xw v Q v W j H ",
"< w A ` S.9X7XA.4XeXuXtXp.8.R A A P P A P C 7 2.7XC L e J s s V a a 5 p 8 , # + B =XqXs.0 @ @ & 2 2 2 7 7 2 2 O 9.u.5 J a 5 < > ",
"z ` g.~.9X4XV L t.t.9X>XW S A P P L L L L L L J 4Xr.e L h d s s s a a 8 8 9 9 8 : < W @ 2 0 7 7 0 0 0 0 0 e q 0 e 1.s w d d d k ",
"} ~.T.m.<XH 6 U e.Q W.q.Z P P P L L L k L L P 7 4.:Xe U L Z h e J w s 9 w 9 9 V V H V 7 0 0 q q C 0 q q q q e y q *.>Xk v ] o.} ",
"9XwXn.n.~ 6 R W E E L.E A P L L e L J L P P P J W 4XR W R P U U P P k d H s V H V V C 0 0 0 C q q Z q y y Z e j u ` 9X^.Q.E.R.>X",
"}.b U I 8 R Q 8.Q 7.~.P P Z L L L L U U L P c k e 6Xa.P Q 8.Q Q W Q Q W U P L J e J C 0 C q y q y y y y y y u z ` x 7XyX6XwXrXeX",
"k s 8 8 w Q 9.a.E L.<Xh L L P L L P j k j j | k l 9X9Xc W 9.9.8.8.8.Q Q Q Q W W P L Z q y y y y y t y y u u i x [  .2XaXjXlXsX_.",
"..l k d w Q l.s.9.6X4Xj W k L U j U j l v | I d $.sXlX~.R U q.a.r.r.8.8.8.8.Q 8.e.U P q t y t y u u S t u i z ` [ 4.-XsXlXlXwXN ",
"X.W k h e W s.p.R.tX6X .e.W U j l W W ] W p > ' tXfXsXgX!.u P 8.a.a.j.d.p.r.p.8.R P 8.e A A A S i D D D E W 6.[ o.1.=XuXlXfX&X].",
"y.Q U P j j  .~.eXlXyX=.s.| W Q v ] Q H = % ' uXjXsX7XuXaXS.S j e.].<X2XK.9.W R P r.!.q u x x x E ` E 8.` 8.7.q.a.1.P.9XpX9X3X}.",
"y.8.R R R Q w.>XlXlXlX>Xv f w p a G , $ 7 { 9XsX4X0.8.z :XeX>XP.@X%X%X`.y.Q 8.p.W.7XwXz y E 6.6.6.7.[ 7.9.7.9.o.p.3.*.>X7X.X#X@.",
"y.8.W W W 8.6XjXlXlXlXgX6X] 5 - % ; 5 ` E.wXeXq.u Q e.j j wXsXsXsXuX9X-XG.C.~.6X9X<X6X>Xt x 9.[ 9.o.9.} q.q.q.a.a.j.5.k.4Xr.d.s.",
"p.8.8.8.R >XpXsXpXpXyXpXyXtXqX~.!.F.n.n.M.9X7XU j Q n b 5XsXlXlXlXkXsXeX2X6X9X<X>XJ.E.9X=.x 9.a.w.q.w.q.q.a.w.w.a.j.5.o.4Xy.y.d.",
"a.9.8.R C.rX#X[ >X7X6Xg.6XjXuX9XyXgXpXc.) 2X9XL U m b  XfXlXlXlXhXaXuXeX9XtXwX2X>XN.4XhXuX} x 0.:.a.a.j.g.j.j.a.j.j.5.7.2XXX8.z.",
"8.E E w.wX-Xw c +.-Xd.4.fXpXT.%.w.W.sXwXm.4XwXU f b (.yXlXlXhXwXOXr.R S 8.=.7XeXtXyXjXlXlX^.` P w.D.Z.Z.C.,.,.5.h.l.,.6.<XW.R p.",
"6.w.n.9XwXs O f n c ] pXjX~.6.E A y a.uX9X9XtXX.b N 9XgXlXuXOXe.W R P P Z Z P p.4X9XiXgXkXyX:.z i a.h.,.Z.F.S.S.U.U.w.D >X6XZ S ",
"2X4X9XwXwX9X~ a s v tXhX6X0.8.8.E P y 6XsXlXkX9X].7XuXsX7X] W R Z Z P P P P P k x r.*.G.7XuX4Xg.r.8.x D 6.7.7.q.p.w.7.D W.wX>X>X",
"/ F F ! |.qXrXwX9XaXjXeXG.p.r.8.R L j J.lXjXgXaXtXyXeXp.A P P Z P P L L L h L L U Q 9.r.Q <XtX7X<X%.7.7.6.6.6.6.7.9.q.7.~.eXwX1X",
"o # o . + > n 7XpXkXjX9X,X-.p.v U L j X.kXkXwXwXiX9XE y P Z Z L L e d L y L L h j P c x z 8.tXaXtX4XM.C.g.w.w.k.C.F.<.E.eX7XB . ",
", , , B p p 5 f /.sXkXsX;Xs.s.v l j 4 / gXuX6XwXtX9.P R L L L L h J d d L P L P P U U P Q X.gXlXyXqX7X7X6X4X2X>X^.~.9XsX7X> $ B ",
"p B < < a s k N _.8XsXkXfX`.c | W g $ eXwXn.eXyX>Xj W P L d L L L P L U P j U U U R R Q X.pXlXsXL.7.r.p.L.2X6XtXfXgXkXtXd s d V ",
"J s 9 8 a d k n ).%X{.wXjXpX8.j j 4 | yX$.( 9XtXp.j P L L L L P P k j j U j W W c W Q ..8XlXjXL.R y e w e P 9.Q.pXlXlXX.n c k d ",
"L k d w s s k n m X.X.n -.rX7X5 g rXkXpXE.N.eXtXy.R h L L P k P P U P W c v v v c z l ).kXlX2X8.P d J e d U 9.a.>XkXpX . .c L k ",
"U U j k k d f k n n m m h +.eXeXpXgXkXyXqXeXuXrX.Xm U j P j U U U l W v U J H H w d | iXlXrXa.Q U L k J L W e.a.S.sXqXv e.~ W U ",
"W W R l j U J U l c c c l e G.sXaX6XE.G.$X0XaXsX%X).e.c j U U l c v ] p = : 6 5 e o.tXlXkXA.8.8.W L L h L U Q p.%.tX}.Q r.Q Q W ",
"Q Q Q W W W P J k U W W l  .w.7XD.6.6.e.)..XuXlXgX).).e.W x Q Q ] W , o 8 q t t #.eXsXkXgXj.z y.y.Q l k U Q e.9.5.7X8.s.p.8.8.8.",
"r.9.e.8.Q Q W 9 V e k j  .U.2X6X7.Q L k n M wXlXlXfX/.n d 8 8 < , * + 0 t x } >XqX2X{ :XkX>XE | d.&.s. .Q W R P D.4Xe Z 8.p.a.y.",
"p.s.9.r.r.r.9.w 7 e v } n.6XhXrXr.v d w f ~ ).0XhXlXlXwX).W L J L Q 2.^.4X7X9XrX4X_ { >XsXwXN.1.@.@. .k s w u 7.<X6XD e w Z Q r.",
"y j W 8.r.Q j w u p.E.rXfXlXlXyXp.v k 9 w b ).{.wXlXlXgXgXiX6X9X9X9X4X^.E.2X9XwXwX9X7X9X9XhXsX7XqX<X+.| ` 7.v.~.wXeX>Xw.D e w e ",
"Z u L L L Z A w.4XwXrXsXfXlXlXeXd.m k d h h k M 9XgXyX7X[.y.p.>XeX2X_ ( ;.4XwX9X^.9.Q 9.~.sXlXlXfXrX>XE.^.<X7XqX6X<X9X9X<XS.0.x ",
"<XR.S.U.k.$.>XwXrX9X>XA.V.tXlX9X+.] z j p : 5 | 9XtX6X{.N k k 8.4X7X^.6XeXwXJ.U w 0 P e.a.<XkXlXlXgXiXiXyX7X>X9.E E 9.~.qXwX9X6X",
"~ Y Q 5.6X9XeX9Xa.R R r.k.2XpX>X9.8.d < * > k o.6XeX#XM b b m r.6XpXyXeX<XW 7 7 J w k m d.4XtXlXlXlXhXeXI.R h j W W W S ^.eX7XXX",
"6 9 7 7 h 7X9XZ 7 w d c 8.W.wX^.x y 9 8 w z 2.2XqXeX9XQ.m l v L.uXfX9X5.W P d H a 9 e k  .=X9X9XpXlXuX<.Q W R c R L C p.9Xu.6 ; ",
"W Q 6.R C 7XP.6 w 9 a d P p.wX>Xq.8.8.O.O.*.-X=Xi.~ f.:X^.<X7XrXjXyXL.p.e.c f 9 8 9 9 d m +.=X^.^.aXyXj.e.W c Q W L 7 >X+X& j W ",
"a.p.E Z q.9XQ 9 s s a s e 9.wX4XB.^.L.~ I H 8 = * > 4 g | ;XyXkXlXuX6X=X .c k a 9 G a s j ~ y.a.4XyXeXj.8.Q v W L 9 5 2Xu.R r.p.",
"Q P A 7.>X7XP L d d d k U 9.9X9X4X/ B * - < 8 a a s k c  .`.9XlXlXgX9X<X+.m U d d s k s < 7 d 4.9XeXwX3.] j H 8 = $ j 7Xr.8.a.9.",
"A 6.h.^.wX<XP W c j l ] P 9.wX4X< + , 9 9 a 9 a s s j c X.$X9XfXlXjX9X<X4.e.v k k j L * % 7 j E.tXfXyX>XQ d > : 8 l *.9Xq.Z E P ",
"C.^.9XeXeXH.E p.r. .r.Q 0 6X4X+ : V 9 9 p 9 H w s d k ~ e.}.5XrXlXsX2X<X2.y.~ c z c 8 J P.7XwXrXgXiX<X9XH.Q W W p.>X7XeX~.D 7.w.",
"9XqX<Xa.qX7X6.E Q 8.Q 0 H.qX- > 9 p 9 V H d J d d d U v  . .+.7XfXuX^.Q.-.p.r.8.9.H d ~.pXpXuXuXyX7X6XwX9X^.<X6X6X2X~.4XwX<X^.4X",
"G.P 7 & e.eX<X7.8.9.7.L.rX! $ G G w V d d L L k L L l W c m v 6XtXtX6X5.L.a.p.p.P k Y.eXyXu.w d j c ~ j 4XtXqX>Xj.7.D D <XrXeX7X",
"7 V V V > f.eXrX9X6X6XsXeX> 9 w d k k k U L P L U U W U L z  .7X>X6XuX6XE.I.H.p.W Z.tXaXL - 5 C k j j j 7X2X7.A R R Q A Q 9X^.L ",
"V p p V w > W 6XpXjXdXjXX.a d j j U j W l c c W c W W L d j G.Q.m }.pXlXfXtXqX6X6XaXkXt.w P P P P W y J.2XE 7.8.Q R P Z r.>XZ C ",
"V V 9 H d d d 9.9XfXjXuX` W j j U W W c Q W W Q Q Q W Z e W p.c M _.eXlXlXlXlXlXlXlX9Xm y.Q E ~ 8.9.Z ^.H.r.p.i.9.8.Q w d.D.A C ",
"V 9 s s k j e.J.^.sXjX4Xm m l W W Q Q Q Q Q 8.8.8.8.Q Z y 7.Q s f N @XjXlXpXgXgXlXlX[..Xd.p.p.j.l.Q 6.B.a.p.p.r.r.8.8.L -Xq.P L ",
"J d d k c 8.r.H.!.7XaX .c W Q Q 8.8.8.8.e.9.r.e.9.q.W V y w.8.P h h -.6Xm |  .a.a.iX3X8.x.x.j.p.E 7.E.>XW k.o.p.r.r.k ~ <X7.E L ",
"U j c W W P P 8.p.~.eXU U Q 8.8.8.r.r.r.r.r.r.a.a.Q L e W S.w.R j 9.i.5 y Q 8.a.6.6.>X6.q.9.7.w.~.4XyX9X6 W k.z.a.Q , 4XE.7.7.U ",
"U j L d J h E w.w.n.6XJ W 8.8.r.9.p.p.p.a.j.l.r.R L j c w.n.~.q.:.=X> 5 W 8.p.z.E Z 4X7Xj.~.4X6X=X~ 7XtXV $ H r.W J OXwX~.7.7.Q ",
"7.8.7.9.} c.n.M.M.E.<X9 W p.r.p.p.p.a.z.z.p.W y j v ] =.E.M.7XeX9XH > V Q s.l.W y 7.wXkXyX7Xd.J 7 3 P uXf.. .   = 6X>X6.^.>Xw.7.",
"2X>X>X>X>X4X6X7X9XeXrXh P O.p.p.j.x.z.p.W V w j v s.>X>X>XqXrXeXf.$ J y W l.E 0 r.<XeXpXl.9 7 L R Z 8.pXgX9XT F &Xa.Z 8.8.9X9X4X",
"/ T T T T W W Q =.iXjX`.u d.z.l.a.e.P e 0 V y Q @.4XwXpXhXuX^.qXf.> j P R W C a.7X` O.9X5 y W E E R 7.pXlXuXM.>X9Xe 0 6.~.7X.X/ ",
"$ - - > 8 8 8 6 6 W.jXaXe.r.p.Q j e V C Z P 8.k.^.wXlXlXfX:XR 4X>X3 e Z C y q.wXE.2 x 6XP W E 8.9.p.E 9X7XD R Z J.6X3.~.u.: X $ ",
"8 8 p V 7 H w J V z uXlX9Xz j z z W W W 6.0.b.<X9XgXlXlX6X-.v <X<X0 Z W =.<X7X9X>Xn.n.wX8.C 7.p.q.E W 4X7.h W L 8.eX9XK X : B B ",
"B 8 8 8 V H H e L y +XhXpX>Xo.a.2.j.k.w.b.T.7X7X.X[.yXgX9Xs.c +X7X*.4X6X4X.XK : B / >XyXuX>XR S A A T.7Xw j W L <X4X# # B < < B ",
"8 8 p V G w J J L 5 d.yX9XwXpXyX7X^.~.4X6X@XK * 4 f g ].yXs.5 ].eX9X=XY : + * , , # $ H 3XiX9Xq.E.6XqXqXT $ 9 W XXX = B < < < 8 ",
"8 8 9 a 9 s J e V d 4XT.q.S.gXsXgXrX9X$XG X * 8 a s f 5 OXwXJ.9X<Xs - > 8 V 9 V 9 V 9 6 % V 7XwX7XoX! ! <X^ , u.B : < B < < 8 8 ",
"p 8 9 a w d V J 0 s.Y.D p.a.eXkXfX6Xl > 8 s H a a a s s 8 2XtX>X; 6 J J d d V w w d s e J 6 V 4X=   X X < e.*XXX# 8 < < 8 8 < 8 ",
"s H J J J J L J L q.R W Q W 6XtX+.k l l k d k d d J d s 7 w qX4X0 L L P U R U U U U L L L h Q i.= 8 8 F 9 ; a.u.= 8 8 p 8 p p a "
};
