/* XPM */
static char *_828d0b973be42c2b47745b749dba045y2CSN6LYQG1BxHj9[] = {
/* columns rows colors chars-per-pixel */
"64 64 245 2 ",
"   c #120406",
".  c #1A0509",
"X  c #2A0608",
"o  c #220A0D",
"O  c #32060F",
"+  c #250D11",
"@  c #2C0E12",
"#  c #330E12",
"$  c #3B0D14",
"%  c #2D1215",
"&  c #2D1518",
"*  c #331215",
"=  c #3B1415",
"-  c #341518",
";  c #3D1619",
":  c #381B1B",
">  c #3D1B1C",
",  c #51120A",
"<  c #410F15",
"1  c #431317",
"2  c #481B16",
"3  c #441519",
"4  c #4C161A",
"5  c #431C1C",
"6  c #4C1D1D",
"7  c #53161B",
"8  c #571819",
"9  c #531C1D",
"0  c #5C1C1D",
"q  c #7D1B0F",
"w  c #6E1815",
"e  c #631C1D",
"r  c #6B1E1D",
"t  c #771C1A",
"y  c #44201E",
"u  c #4D211E",
"i  c #54211E",
"p  c #5C221E",
"a  c #5F2A1A",
"s  c #652417",
"d  c #63241E",
"f  c #6B251F",
"g  c #652A1D",
"h  c #6C291E",
"j  c #73231E",
"k  c #7A241D",
"l  c #742B1F",
"z  c #7B2C1E",
"x  c #6B361B",
"c  c #76361D",
"v  c #7B321E",
"b  c #411E20",
"n  c #591F20",
"m  c #641E20",
"M  c #6D1E21",
"N  c #741D22",
"B  c #791E22",
"V  c #462424",
"C  c #4C2423",
"Z  c #532321",
"A  c #5C2320",
"S  c #572C27",
"D  c #652320",
"F  c #6B2421",
"G  c #652C27",
"H  c #6D2921",
"J  c #732421",
"K  c #7B2522",
"L  c #742921",
"P  c #7B2B22",
"I  c #68322A",
"U  c #7C3323",
"Y  c #773629",
"T  c #7D401D",
"R  c #871B15",
"E  c #991A16",
"W  c #A81E16",
"Q  c #88271B",
"!  c #832C1E",
"~  c #982617",
"^  c #9A2C1E",
"/  c #83331E",
"(  c #8A341F",
")  c #833C1E",
"_  c #8C3B1E",
"`  c #97341E",
"'  c #933B1E",
"]  c #BB390E",
"[  c #A7291B",
"{  c #B82B1B",
"}  c #AB351D",
"|  c #A43B1E",
" . c #A93A18",
".. c #AB3C1D",
"X. c #B83718",
"o. c #B9341A",
"O. c #B63B1C",
"+. c #BC3C1C",
"@. c #832521",
"#. c #8B2624",
"$. c #832D22",
"%. c #8B2C22",
"&. c #912721",
"*. c #932C22",
"=. c #9B2C23",
"-. c #853222",
";. c #8C3222",
":. c #8C3A21",
">. c #873B28",
",. c #933323",
"<. c #9B3423",
"1. c #943A23",
"2. c #9A3B23",
"3. c #953D2A",
"4. c #A42C22",
"5. c #AC2D21",
"6. c #B32C20",
"7. c #A33423",
"8. c #AC3422",
"9. c #A43A23",
"0. c #AB3A22",
"q. c #B43421",
"w. c #B93620",
"e. c #B23B22",
"r. c #CA1C07",
"t. c #C92903",
"y. c #D02D0B",
"u. c #C83809",
"i. c #D43C00",
"p. c #D83A05",
"a. c #C93815",
"s. c #C33C1A",
"d. c #D23C14",
"f. c #D93A14",
"g. c #F32C00",
"h. c #E63604",
"j. c #F33903",
"k. c #E63B13",
"l. c #8A451E",
"z. c #9A471B",
"x. c #915315",
"c. c #BC4A0A",
"v. c #B3540C",
"b. c #A84A16",
"n. c #A4421D",
"m. c #AB431C",
"M. c #B94616",
"N. c #B4441C",
"B. c #BC431A",
"V. c #A35315",
"C. c #BA531B",
"Z. c #B0620A",
"A. c #BC6211",
"S. c #8B4225",
"D. c #974326",
"F. c #A94524",
"G. c #B34824",
"H. c #B75126",
"J. c #BA6026",
"K. c #C8450A",
"L. c #D64608",
"P. c #CD570C",
"I. c #D9590B",
"U. c #C54514",
"Y. c #CC4313",
"T. c #C34B17",
"R. c #CC4B14",
"E. c #C4431A",
"W. c #CB4219",
"Q. c #CC4B1A",
"!. c #D44514",
"~. c #DC4311",
"^. c #D44C14",
"/. c #DC4B13",
"(. c #D74819",
"). c #CA5615",
"_. c #D35513",
"`. c #DD5413",
"'. c #D95917",
"]. c #EB4601",
"[. c #EC4C02",
"{. c #E74709",
"}. c #F34602",
"|. c #F44B01",
" X c #F94E00",
".X c #E85506",
"XX c #ED530D",
"oX c #EC5A0E",
"OX c #F55402",
"+X c #FA5400",
"@X c #F55D01",
"#X c #FB5C00",
"$X c #F6560B",
"%X c #F45A0A",
"&X c #E54712",
"*X c #E15513",
"=X c #EA5714",
"-X c #E45C13",
";X c #EC5C13",
":X c #F45912",
">X c #C86409",
",X c #D97608",
"<X c #C86216",
"1X c #D86415",
"2X c #D16C10",
"3X c #EB6607",
"4X c #FD6301",
"5X c #FF6B01",
"6X c #F66708",
"7X c #FB630A",
"8X c #EB780A",
"9X c #FF7301",
"0X c #FE7B01",
"qX c #F9770A",
"wX c #E76714",
"eX c #F56511",
"rX c #EA7912",
"tX c #F87A15",
"yX c #C85E23",
"uX c #D6860B",
"iX c #EC8506",
"pX c #FF8401",
"aX c #FE8B01",
"sX c #F9870A",
"dX c #E99602",
"fX c #F69506",
"gX c #FE9301",
"hX c #FF9B01",
"jX c #EB8411",
"kX c #FD8912",
"lX c #FFA400",
"zX c #FFAC00",
"xX c #F6A10E",
"cX c #FAA308",
"vX c #FFB400",
"bX c #FFBC00",
"nX c #FFC400",
"mX c #FFCD00",
"MX c #FFC80C",
"NX c #FFD300",
"BX c #FFDA00",
"VX c #FFE400",
"CX c #FFEB00",
"ZX c #FFF400",
"AX c #FFFF00",
/* pixels */
"p p A p D A d 9 F $.H H z d F.m.L -.P h H F F D D H g D d 9 ,.*XF H J L L P P P P P $.P F D $.>.> Z p A Z 3 %.Y * 5 u u i i Z p ",
"p g g D F g d n D L P P J * z <.$.;.U P P P P L L L F H H J m 7.K L -.;.$.$.%.-.;.;.;.;.;.J #.3.n J D 5 3 K |.I * i a p p p p g ",
"g f f H H f A n F K $.A % 6 X._ -.L K P P $.$.$.$.$.L D F e m d.} z ;.1.,.;.$.$.,.<.<.9.*.A E.F.J L 5 3 o.#X5XZ 6 s A p d g g g ",
"L l l L L F 5 A P 6 > % s ].9XD.$.f 0 0 p n p m D n m K %.#.6.5XaX-XR.c.,.P J F J &.9.@.J Q.qX<.n n 9 u.i.Q ].I 9 h D H H F H H ",
"L z P %.l 5 * K ` * u ~ 3XnXfX6X!.&.@.k J r M J M N s.#X#X#X+XpXvXbXmXgXa.#.F J K K B ,./.}.4X<.7 N d.j., X ~ 3.5 L h l j l l l ",
"$.( %.H 5 * n [ XXu.L.0XBXBXjX-X/.~.{.f.a.5.4.4.a.#X4X3.Z Z I S.).aXmXnXaX[.6.4.6.} !.].R q h.7Xa.{.4Xh.W R W ^.u j P l z P P P ",
"$.L n - ; e ^ h.i.].gXZXNX1XF.%.K #.<.s./.OX+XOX4X_.0 * 3 ; % @ 2 l ' b.<XsX+X X#X7X XE E j.$X5X@X=X*X/.].}. X5XY 9 %.$.-.%.( ( ",
"5 * - 9 t 4.}.p.R L.bXBX1Xn.%.K J M m e F %.B.5X`.4 9 p Z 9 u 6 u i i 6 : > I H.4X5X X XOXE.@.m 9 4 4 4 7 d M %.F.i z ! l L D n ",
"3 6 F Q { #X@XX.L.8XxXrX1.%.J M M M D F M n 4 9.oXn D m 0 Z i n u u 2 y y : o o b G.4X;.7 O O $ < < < 4 < < < X %.-.2 p u 5 5 : ",
"j Q 4.h.4X).9 D ) ) I.U.k M F F F F F D F D D 0 `.;.0 D d p i 9 u u 6 u 5 6 6 5 - 5 L O 1 7 4 4 7 7 7 7 n 8 8 8 0 9.i i p a 0 d ",
"^ d.i.t.[.Z 3 F $.P +.,.m F F D D d g D D D F 6 9.B.0 F D d p p A 9 u 6 9 6 n u u Z n 4 7 7 7 7 0 7 7 7 e 0 0 e 8 } M.s z / ` ^ ",
"4X4Xy.t.P 2 J J K K O.K M F D m n D A D D F H A H R.J L J H H H H f g p Z n 6 Z n A n 7 8 0 8 8 8 e e 8 e e e r f ! .XK.O.u.a.L.",
"D.x H G 5 J P $.P %.s.F F m D D D D H D h D l D p .X` f P $.P P P L L L H F D A n A n 8 n e 8 e m e e e e e r j ! k P.0XI.3X9XqX",
"s i 2 > n P ;.<.K X.R.m D D D F D f h h f h -.g j 6X3Xj l ;.%.$.$.$.$.P P P L J F D m 8 e e e e w m m w e r j k ! ` c.gXzXnXhX' ",
"/ x g A 9 P 9.,.%.XX).f h H D H f H h h L ! g p [ hXbXa.j J ;.<.;.%.$.$.$.P P $.$.H F 8 w e w r r e N w r t k ! ( | M.fXCXNX>Xc ",
":.L h p 9 L ,.` s.0XP.( -.L F h H L l ! L 5 : R 0XNXmXzX+.M F %.<.7.<.2.,.,.,.-.J F $.0 m N M r t B B N K k K Q ( } b.iXBXdXv.b.",
":.P H F D f ( s.eXmX8X| ' / l l z ! P Z & # Q 0XnXhX).jXgXX.r r -.F.M.T.m.%.P j f ;.B.8 r k k k K ! @.Q @.@.#.( <.} m.P.gXA.v.n.",
"' U J J L P ^ &XbXAXNXK.z a u u u u : @ 4 ~ 4XhXQ.Q ! k B.5X~.N.b.V.V.z.:.P $.;.X.#X4Xf e k @.! $.#.#.@.%.%.%.,.,.7...U.I.l.m.2.",
";.-.L J L Q `.zXCXAXVXzXP.! 6 = # = 6 R p.5X5X*.r z / g F 3XhXhXfXjX<XM.} 6.d.oX#X[.+XK.r k *.#.Q ( ( &.,.*.*.,.<.<.9.<._.( 2.2.",
",.$.$.$.J !.gXhXkXkXtXkX0X9X6Xu.] ] t.i.h.#X;XF f z c x v.gXBXVXBXvXgX5XXX:X#X[.K. .u.4X .k ! =.=.=.=.=.=.=.=.=.<.7.8.^ ^.:.;.<.",
"<.%.$.N } 9XN.( Y.'.'.4._.zXaX#X0XlXaX{ E  XeXF h c x x.hXBXCXmXzXfXiXeX7X9X4X[.K.u.L.lXiX^ k *.7.4.=.7.7.4.=.7.=.7.8.#.^.2.$.9.",
"$.K B 4.4XN.2 l ' M.` | hXaXd.8.=.B.gX6Xr.+XeXH a x x.,XmXVXzX2Xm.;.J J $...-X9X0XpXvXZXbXY.Q f *.q.q.q.8.8.8.8.7.7.8.@./.M.J ,.",
"@.=.a.#X5X9 O g c l ( sXvXd.@.K F e <.pX4X4X9X:.g T >XlXbXiXm.-.P F M F m e F ` T.1XjXlXvX0X[ j J =.7.8.q.w.w.w.w.w.<.N !.oXm N ",
"}.$X4X5X4XwXv u 2 z qXzX*X&.$.$.P M e P.gXbXvX1Xb.P.pXhX).! L J m M F F F H F d l ;.| ..I.pX*X[ ,.! K B @.@.#.*.=.=.#.B +.4X~.}.",
"Y C V I z.4X9XeX<XfXzXqX8.,.;.! J F f  .bXVXMXfX0X0X6X,.M F F m D F D D D d D F J P ;.,.k R.0X-XY.5.#.#.@.@.@.@.$.*.=.#.E.5X6XH.",
". % +   o : x I.gXbXzX'.M.| 1.P H d f _ vXbX3X3XpX3XP m F m m D e p d A 0 D d d D f l l J $.9XgX0XXXd.6.4.=.=.4.q.q.5.d.5X'.b   ",
": : : b y y u a x.dXnXfXM.' ,.U h g 1 U lXaX.X4X0X%.F J F D D D D D p p D D D F H F F F $.l.lXnX0X4X4X#X$XXXXX&X(.f.;XhX).= * > ",
"V b : b u i s v l.Z.dXbXlXz.z z v g - yX5Xt.5XpXU.F L F n g D D D D D H h H H J H J H -.) uXVXhXO.%.%.,.w.(.XXqXhXcXbX,Xa p A C ",
"p i 6 5 u p g c l.V.x.>XzXgX$.h g 2 / 0X[ R @XqX,.F F D D D F D D h f F F H H l L L P v Z.BXzXO.J m n 9 9 F *.O.sXVXbX' l c d p ",
"d g p i u i g h v _ _ c ..9XI.6 a >XbXaXi.t.5XqX:.J d D F F g F F f H l l z z P z j h l.bXnXR.$.M A p 0 d H $.7.Y.vXdX/ -.l H D ",
"F H f d g p a h l c z z p 2.9XwXfXnXnXtX6X5XpX8X:.U f f g F F H H h l z F p Z i 6 p / iXmXrX<.P H D D p g L -.<.w.gX<Xz -.P H H ",
"L l L H h h D g h l l l l 8 ..hXaX'.s...b.<XgXhXV.l./ L F H H h L z z u & - 3 6 8 ` 9XBXvX} $.$.L D D g D H P ,.8.0Xz.P -.P P P ",
"P P P L L L D p f H h l l $.^ %Xq.@.$.$.) S.uXVXcXl.) -.P L P P ! l > o > 0 w w [ 5XhXvXlX7.J ;.:.v l f H P -.%.7.-X$.,.;.-.$.$.",
";.;.-.$.P P L 6 9 i f l ( X.[.=X#.P d g c S.Z.bXCXdXz.c p 5 > > > % + 2 w t ^ L.4XI.~ L.bXE.@.v 2.' ' / P L J F q.XXn m $.,.,.,.",
",.,.$.%.;.;.%.n 6 0 k =.a.XXzXrX%.z p 9 g c S.A.zXCXnX>Xl.L D D D z } i.{.%X4XqXOXW ~ [.gX7Xs.9.' ' / l 0 9 f #.XX.XB n 9 A P ,.",
"d f P $.;.P F 9 f ^ u.8XhXmXCXrX,.v g i i h l.x.A.nXBXlXlXpX#X#X4X4X|.L.i. X7X4X4X#X:X:X%XzXhX:XeXc.' / ! &.{ k.4X5X{.[ B 0 9 0 ",
"r M m D f e r =.[.5X9XhXlXBXBXwX` z g p p g g c A.lXrXC.b.S.,.(.5X XW R [ +X5X7XE.%.P %.d.hXCXmXxXtX&Xk.k.}.#X4X=X&X7X4X{.X.^ J ",
"{.] o.o.4.} {.4X9X%XW.X.6.rXnX1X2./ l d 6 * 5 / 1X0X).x.c g g K (.#X}.+X5X7X0.f 7 9 F -.2./.vXAXCXxXkXpX0X%XE.%.K K &.s.4X5X#X+X",
"Y G P 9.XX4X5X6X<.F J ;.9.^.pXE.%.$.d ; % : d ' `.5XG.U x x v ,.=XgX0X9XQ.L 4 9 p 9 g z ` ).tXMXZXBXlXtXO.L e F J L K N s.5X-XD.",
"3 9 4 6 D %X#Xm 4 9 D L $.+.5XE.k e 6 5 8 j | [.4X9X@XM.v h z X.pXhX;X9.J f p 9 6 6 i h ( M.'.wXkXMXpX8.P l l k H D D *.4X>.3 = ",
"L K $.J n #Xe.3 i 6 6 p F ,.5X(.%.$.#.` | ..G.G.>.Y 3.M.U.K.I.qXzXtXO.<.( l p u 2 5 6 p v ' M.U.(.gXsX7.-.L l z L D 6 Y.F.# f L ",
"<.,.K m &.#XP 6 i 9 u i 0 %.5X/.a.{.O.Y D C > # @ = 6 s v M.8XbXmXjX).N.;.l g u C 6 u p f v ;.7.(.0X6X7.-.P z l D 6 6 L.;.J %.,.",
"P F M #.{.;XF D p p p g H %.7X4X&XY y % * > 5 6 u i g L ( n.>XnXCXcX1XM.' v h p i i g Z ; 6 0 9.7X5XeX9.! h i 5 % @ F @X%.$.7.;.",
"M @.4.k.5XE.H P l h h $.F %.5XT.> o > 5 u 6 6 Z i i h z _ b.>XfXVXvX'.T.2.-.c H g f D % % 4 f d.qXhX0XU.K p = * 5 H } 4X,.m K F ",
"6.k.#X9X5XO.J ,.;.;.;.P 9 [.C.o * C 6 6 6 6 Z 9 9 p h v ;.z.v.2XMXfXQ.T.9.:.P L l j 5 g  .I.6X0XlXaX[.@XO.P l z ` K.%X9Xs.B #.=.",
"4X4XQ.<.4X%X@.K $.$.P 4 O.eX* : u 5 u Z Z i A p p p H l / :.2.P.hXpXs.e.0.1.;.P ( Z g L.aXaXqXkXtX-XI.6XeXW.~..X%X&Xs./.4XXXk.$X",
"..H 4 $ ;.9X/.#.$.%.#.O.9XI @ 9 6 Z p p p D D p D D h L z z ! I.0X0X`.8.e.7.,.<.F p ] 5X0X>.n p s l v f R.9X#X(.7.$.B B ^.9X5X%X",
"7 6 A 6 ; 3.5X9X%X=X:XhX2X= 6 9 p g g D D D h H H H H H F h ( oX(.'.pX*Xs.e.e.,.P { 0XfXD * 6 0 g j f f ;X/.$.M F K K J K 7Xs.D ",
"n u 5 C u ; L .XaXnXMXvX' 6 p g h h h H l j l l J L L D 0 f ..O.z D.aXnXhXrX2XC.I.gXvX) 9 F F H f L 0 0.^.K %.$.P J H m ;.Y.m n ",
"9 6 6 i p p p ! -XBXCXiX! l f f H L L L L L P P L P K D 9 K ,.l c x.2XVXAXVXVXmXBXBXA.c _ P K P %.%.m U.e.%.,.;.;.$.P 9 2.q.M D ",
"9 u i i g F $...s.hXMXc.z U j L L P P P $.$.P $.$.$.P n m $.K n a c b.zXbXfXlXlXnXnXz.D.2.,.,.9.<.@.@.s.<.<.,.;.%.$.$.D G.*.J p ",
"p p p g l $.;.e.s.-XgX( l L P P $.$.$.$.-.$.;.-.;.;.K 0 F &.$.F g s | ).v v ( <.=.pXH.$.e.0.7.%.K #.k.!.L 9.,.;.;.;.d Y &X#.K D ",
"H h L L L F F %.*.s.9XH h P $.$.;.%.;.*.;.;.;.<.,.P D 0 L { *.J F %.>.6 d L $.<.$.@.!.@.*.*.@.4.k.+XpX1X3 J 0.} 2.P - T.d.#.#.L ",
"H D D n p d N =.=.a.=XA l $.$.;.;.;.>.,.<.7.9.%.J F f j [ a.~.=.4.G.; 7 P $.<.9.K e `.=X7.f.$X:XG.P '.9Xn @ i >.l A F.4Xd.#.#.L ",
"#.#.@.^ =.6.y.k.k.k.&X6 P ( ;.,.3.=.<.9.0.,.J p f z ! ..d.f.$X5X%XZ = p P ,.9.J d #.wXvX0X%X3.A 4 = J pX3..     % _.!.! s.~.=.#.",
" X}.].{.{. X$X$X#X7X9Xe f <.,.,.7.e.9.,.J n 0 f z 1.Y.&X&X7X9X9X3.@ p p L 9.K 9 ;.{.5XaX2.6 4 D J D $.aXlXH.H C F.<.m $.$.6X#X$X",
"Y I I G I H L P e.pXvX' f 7.0.9.<.$.H 7 9 n D P 9.`.eXsXlXsXY.4X3.; d F J J e ,.#XQ ` %X4 d J K P J #.gXbXpXa.~.4XA 7 @.f.'.D.Y ",
"@ * = ; 3 5 5 3 3 B.zXfX/ ( ,.P h 0 n n m M $.7.~.6XmXVXlXM.t `.B.3 D 0 0 D ,.5Xh., Q XXD K P $.%.*.K -X-XN J M 0.*X7.Y.>.- . @ ",
"> 5 6 6 u n 0 A 0 j pXnXP.j j H j L L k @.#.{ }.4XlXZXNX_.| z Q.^.7 m l ..{.@X;X~.g.g.5X$.e $.,.*.K J XX%.e L D $.5XoXS . - b 5 ",
"b 5 5 6 u u Z 0 D 0 m.zXaXY.( <.| 7.7.=.a.j.+X_._ z.,XlX1X,.l m.%X0.[.OXQ.S.S - b Y Q.0XpXE.B N M N s.;X9 j K A ^.yX+ o b > > b ",
"5 5 6 6 u Z 9 n d 7 2.9XeX5XaXjXI.W.f.OX%XF.S % 2 a s b.0X' 6 | 5X7XG.G - + % > : + @ Z H.pX3X*.f.$X4X4XI @ 4 P D.. % b : > y 5 ",
"5 6 6 6 i 9 A p 0 n `.s.#.X.lXmXlX9X4XG.S . + y u i a 2 n.5X..6XT.Z # - 6 6 6 6 u i 9 ; # n ).4X'.D.I I G.Y > >.b * b b > > > y ",
"5 6 6 C n Z A A 2 ,.o.K *.<.wXbXhXP.h = 5 i Z i u i i i 3 T.9XR.= 3 A D p p Z 9 9 i i A A 3 9 _.&   . . ; -.'.D.+ > > > 5 > > 5 ",
"Z Z Z A A A A A D ,.L L P L _.0X_ h h f g a p p p p i i 6 0 4XQ.9 F D F H J H H H J D D D A P >.& 5 5 C 6 ; ,.>.% V 5 y 5 5 u C "
};
