/* XPM */
static char *d0f00ceff8ca4175ae83c053870aba51sZcY3D9Hki8NpAU1[] = {
/* columns rows colors chars-per-pixel */
"64 64 229 2 ",
"   c #0B0001",
".  c #190408",
"X  c #1C060A",
"o  c #1F0D12",
"O  c #2A0608",
"+  c #220A0D",
"@  c #32060F",
"#  c #250D11",
"$  c #2C0E12",
"%  c #330E12",
"&  c #3B0D14",
"*  c #2D1215",
"=  c #2D1518",
"-  c #331215",
";  c #3B1415",
":  c #341518",
">  c #3D1619",
",  c #381B1B",
"<  c #3D1B1C",
"1  c #51120A",
"2  c #410F15",
"3  c #431317",
"4  c #481B16",
"5  c #441519",
"6  c #4C161A",
"7  c #431C1C",
"8  c #4C1D1D",
"9  c #53161B",
"0  c #571819",
"q  c #531C1D",
"w  c #5C1C1D",
"e  c #7D1B0F",
"r  c #6E1815",
"t  c #631C1D",
"y  c #6B1E1D",
"u  c #771C1A",
"i  c #44201E",
"p  c #4D211E",
"a  c #54211E",
"s  c #5C221E",
"d  c #5F2A1A",
"f  c #652417",
"g  c #63241E",
"h  c #6B251F",
"j  c #652A1D",
"k  c #6C291E",
"l  c #73231E",
"z  c #7A241D",
"x  c #742B1F",
"c  c #7B2C1E",
"v  c #6B361B",
"b  c #73311D",
"n  c #7B321E",
"m  c #793A1D",
"M  c #411E20",
"N  c #591F20",
"B  c #641E20",
"V  c #6D1E21",
"C  c #741D22",
"Z  c #791E22",
"A  c #462424",
"S  c #4C2423",
"D  c #532321",
"F  c #5C2320",
"G  c #572C27",
"H  c #652320",
"J  c #6B2421",
"K  c #632B25",
"L  c #6D2921",
"P  c #662F28",
"I  c #732421",
"U  c #7B2522",
"Y  c #742921",
"T  c #7B2B22",
"R  c #68322A",
"E  c #7C3323",
"W  c #773629",
"Q  c #7D401D",
"!  c #871B15",
"~  c #991A16",
"^  c #A81E16",
"/  c #88271B",
"(  c #832C1E",
")  c #982617",
"_  c #9A2C1E",
"`  c #83331E",
"'  c #8A341F",
"]  c #833C1E",
"[  c #8C3B1E",
"{  c #91311E",
"}  c #9C361E",
"|  c #933B1E",
" . c #B82706",
".. c #B93B04",
"X. c #B43A0D",
"o. c #BB3A0D",
"O. c #A92717",
"+. c #B82A18",
"@. c #AB3718",
"#. c #AC341E",
"$. c #A53B1C",
"%. c #B43415",
"&. c #BD3314",
"*. c #BA3715",
"=. c #B43B14",
"-. c #B4331C",
";. c #832521",
":. c #8B2624",
">. c #832D22",
",. c #8B2C22",
"<. c #912721",
"1. c #932C22",
"2. c #9B2C23",
"3. c #853222",
"4. c #8C3222",
"5. c #8C3A21",
"6. c #873B28",
"7. c #933323",
"8. c #9B3423",
"9. c #943A23",
"0. c #9A3B23",
"q. c #953D2A",
"w. c #A42C22",
"e. c #AC2C22",
"r. c #A33423",
"t. c #AA3421",
"y. c #A43B23",
"u. c #AA3A24",
"i. c #B03E27",
"p. c #D61704",
"a. c #E10000",
"s. c #EA1B00",
"d. c #FA1B00",
"f. c #C62B01",
"g. c #C92D00",
"h. c #D82800",
"j. c #C63602",
"k. c #CA3400",
"l. c #CB3C00",
"z. c #C53708",
"x. c #CB310A",
"c. c #D53300",
"v. c #DF3100",
"b. c #D33B00",
"n. c #DC3D00",
"m. c #C22B12",
"M. c #C43411",
"N. c #E72800",
"B. c #FE2400",
"V. c #F32800",
"C. c #FF2C00",
"Z. c #E23400",
"A. c #E93400",
"S. c #E33D00",
"D. c #EC3D00",
"F. c #F43400",
"G. c #FE3600",
"H. c #F53D00",
"J. c #FE3D00",
"K. c #964F0A",
"L. c #89441E",
"P. c #974617",
"I. c #AB4A04",
"U. c #B54703",
"Y. c #BD4301",
"T. c #A55700",
"R. c #B65700",
"E. c #A74414",
"W. c #A3421A",
"Q. c #B84517",
"!. c #8B4225",
"~. c #964327",
"^. c #A54422",
"/. c #B14721",
"(. c #CB4400",
"). c #C74804",
"_. c #D44400",
"`. c #DB4500",
"'. c #D24C00",
"]. c #DB4D00",
"[. c #D75601",
"{. c #CE531A",
"}. c #E54500",
"|. c #EC4600",
" X c #E34D00",
".X c #ED4C00",
"XX c #F34500",
"oX c #FE4500",
"OX c #F44D00",
"+X c #FE4D00",
"@X c #E65700",
"#X c #ED5400",
"$X c #E45D00",
"%X c #ED5D00",
"&X c #F35400",
"*X c #FF5400",
"=X c #F45D00",
"-X c #FF5C00",
";X c #C46B00",
":X c #D96A01",
">X c #D47100",
",X c #E86600",
"<X c #E56D00",
"1X c #F46300",
"2X c #FE6300",
"3X c #FF6B00",
"4X c #E87301",
"5X c #F47700",
"6X c #FF7400",
"7X c #FF7C00",
"8X c #E78200",
"9X c #FF8400",
"0X c #FF8C00",
"qX c #FF9400",
"wX c #F39B00",
"eX c #FF9A00",
"rX c #FFA400",
"tX c #FFAC00",
"yX c #FFB200",
"uX c #FFBC00",
"iX c #FFC400",
"pX c #FFCB00",
"aX c #FECA0E",
"sX c #FFD400",
"dX c #FFDB00",
"fX c #FFE400",
"gX c #FFEE00",
"hX c #FFF300",
"jX c #FFFE00",
/* pixels */
"s s F s g F g q J >.L L c g ^./.Y 3.c L L h J j H J J H H 9 7.-XH L x L I Y T T T T >.T J H >.6.M q F F F 3 ,.W - 7 p p a a d a ",
"s j j H J j g N H Y T T I - c 8.3.>.E T T T T Y Y Y L J L I B y.Y U 3.4.3.,.3.,.1.,.4.4.4.I >.q.N L H 7 3 U *XP - a s s s s s j ",
"j h h L L h F p J U >.F - a j.5.3.T U T T >.>.>.>.>.Y H H B B H.%.U 7.7.7.7.,.,.7.q.8.u.7.B }.=.Y T 5 5 k.3X7XD 8 j F s g j H j ",
"Y x x Y U J 7 H T 8 < * f oX7X~.>.H B N w F N H H B t I 1.:.+.6XeX3X#X].9.T J H I ,.y.;.I .X7Xq.F q q A.V./ oXP q k H L h k L L ",
"Y c T ,.x 7 - U _ - 8 ) 3XfXrX6XXX<.;.U C I J h V J Z.3X3X-X-XeXsXdXgXrXv.:.h C U U Z 7.oX*X3X8.9 C J.J.1 O ) q.5 x k k Y x Y x ",
">.' ,.L 7 - w w.*XS.J.qXjXjXqX2X+XoXoXG.h.O.w.w.N.2X6Xq.N D P !.$XeXgXdXeX+X+.w.+.-.XXoXe u C.3XN.oX3XB.^ ! ^ +XS U x U c c c T ",
">.Y N : > t _ J.XXoXtXjXhX6XE.,.Z :.8.S.*X-X-X*X6X&XF - 7 > % % 4 c | R.8XeX-X*X-X6X*X~ ~ C.*X7X3X2X-X+XoXoX+X7XW q ' >.3.( ' ,.",
"7 - : q u w.oXB.! J.pXhX7X$.1.U I V B B J ,.`.7X-X6 9 s N 8 p M p a a 8 ; < R '.6X7X*X+X-X}.U B q 6 3 6 9 H H 1.Q.a c >.c Y J D ",
"> 8 I ! f.3X2Xf.&X7XrX0X7.>.I V J V H I V N 6 #.-XB H N s N a N p p 4 i 7 , # + M ).3Xq.9 @ @ & 2 2 2 6 3 6 2 O >.3.4 s a 8 < > ",
"l / w.J.3X#XN H ] 6.3X}.I C V H H H H H H H H N -X4.w H F s a q a 8 8 p i 8 7 8 - < L @ 2 9 6 9 9 9 9 9 9 0 0 9 t y.a q a s s f ",
"_ J.V.p.+XD 5 J 3.T b.1.B I L H H B N j H H L 6 y._.w L H t s s F a p 8 8 8 p p p N N 6 9 9 9 0 N 0 0 0 N 0 0 t 0 @._.h c ( { _ ",
"3X6Xd.s.W 5 L Y U U j.T V J H B g H H H L H L B L OXI Y I L L L L h H s N N N D N N N 9 0 0 N 0 0 t 0 t t B t y h / 3XS.l.Z.c.+X",
"W.L R K 5 Y >.,.U ,.D.H H H H H H L L H L J L k s -X8.h T >.T T T Y Y Y L L H F N F B 9 N t t 0 t t r t t t y l ( z %XqX2X6X9X7X",
"d a 4 7 p T ,.7.T k..Xg H H L H H J j h h k ` j k 3X3Xl Y ,.4.>.>.>.T T T T Y Y J H B 0 t t t t t t t t y y l z / ' ].rXiXfXyXP.",
"] k j a q T u.7.>.-X#Xh Y h H L h L k k x ( H s @.yXdXD.C Y 7.8.4.,.,.,.>.>.T T >.Y H 0 r B V B y y C C y u z >.' $.'.tXjXgX<Xm ",
"[ b h g w I 9.7.c.0X%X' 3.Y J h k Y Y ( Y i > ! 9XsXpXuXn.y H ,.8.8.0.8.7.4.7.,.Y H >.N B r r C u Z u C U z U / { @.(.qXjXyXR.U.",
"5.T L H H h 4.n.7XfX0XX.9.3.x Y c ( c D - - / qXsXyX%XeXrXg.C g 4.E.].].Q.4.T Y h 4.n.0 V u l Z U ( ;./ ;.;.,.7.8.@.Y.1XrX:X[.E.",
"9.T Y J U c 8.oXdXjXgX|.c s 8 p a S , $ 6 ) 3XtX@X<.>.l _.7XoXY.R.R.R.E.[ T U 1.b.-X6Xh t ( ;./ :.;.:.;.,.,.,.1.7.r.%.}.1XL.Y.0.",
"5.>.Y U T >.*XpXjXjXjXiX%X( 6 - % ; 6 / G.6X7X<.y T >.L k 7XtXtXrXqX,X_.o.+.A.2X3X+X-X}.y z ,.,./ ' 1.{ 7.1.1.7.8.r.#.r.&X4.0.0.",
"7.>.>.>.I XXrXtXrXrX0XrX0X0X6XH.b.k.p.V.C.3X2XJ h T b v [.tXhXjXjXsXtX7X+X-X3X+X`...A.3XX.z ,.8.2.2.1.2.2.2.2.2.8.r.#.{ &X5.5.0.",
"8.1.>.C %.9X(.' |.2X-Xe.=XpXqX3XqXuXeXf.~ *X3XH h b v T.yXjXjXgXiXrXqX7X3X9X6X+XXXh.*XuXqX{ z <.t.2.8.r.r.w.r.2.r.r.t.:.+X9.,.y.",
">.U I w.3X(.6 x | _.0.} yXrXF.-.2.l.tX6Xa.*X6XL d v K.wXgXjXiX5XU.' I C >.=.2X7X0X0XpXjXfXH./ y 1.M.m.&.-.-.-.t.r.r.-.;.+X_.J 7.",
"U 2.N.3X6Xp O j b k ( rXpXH.;.U V t 8.qX3X3X0X[ j Q <XuXdXeXY.3.T C V H B B J 7. X3XeXuXsX0Xw.u C 2.t.-.m.M.x.x.x.M.2.Z XX-XB C ",
"+X*X3X6X6X3XE p 0 c 0XiX-X<.>.>.U J g #XtXdXsX3XU.1XqXtX,X( Y J H H J J J J J j x ' @.X.2XqX*Xw.7.>.l Z ;.:.:.1.2.2.,.Z c.6XoXoX",
"W S A R E.6X9X6X,XrXpX7X%.7.4.>.I H h ..dXfXpXrX9X0X7X7.V J V B H H H H H g H H x T 4.4.c |.0X2X|.-.:.:.;.;.;.;.:.1.1.:.D.7X6X{.",
"o # o . + > b 1XrXdXpX3X'.=.7.c L H h [ sXsX7X6XeX3XT t J B H H H t g N w H H g B h x U l 3.0XrX0X-XV.+.w.2.2.e.+.M.e.H.7X-XM   ",
", , , M i i 4 j K.yXdXtX'.| | E h h 3 Q uXqX-X6X0X,.H I H H H j g g F j H J H L J L L J T L.uXfX0X6X3X2X-X*X+X+XoXJ.3XtX,X> - < ",
"A < , M p a j m P.;XtXsXuXW.c c c j * 4X6XN.7X0X}.h T H H s H H H J H H J h L I L I I T ] wXjXyXj.:.,.8.z.OX-X0XyXuXsX9Xs s s p ",
"s a 7 7 p s j b L.R.T.4XiXrX( h j 3 ` 0X .u 3X0X7.h J H H H L H H j h k L k L I Y L T ] ;XjXpXj.I N w q w H <.k.eXjXdX[ x x d s ",
"j j g a a a j k n ] L.b X.9X3X6 s 8XdXeXF.h.6X0X5.I B j H J H J J L J I x c c c c l k L.dXfX.X>.h t s s g L 3.r.|.sXrX` ' c J j ",
"J J j g j s d k x b n c w | 7X7XrXsXsXqX6X6XeX9X5.E h J L k J k L L x c h s D a q s ` eXgX9X8.U L H j H j I 3.0.x.tX4Xc 3.T L L ",
"T I Y L k L F k k x x c x w X.tXrX-XZ.o.).<XrXyXR.L.` Y h J L L x c c p = , 5 8 w { 9XjXsXf.>.>.Y J F g H L T 7.-.0XW.T 3.T T T ",
"c T T T Y Y H F h k L Y x >.2.2Xm.;.>.>.L.!.qXjXuXL.L.3.Y U c T ( x , o > w r r O.7XyXsXuXr.U 4.5.c k k k T >.1.t.2X>.7.4.3.>.T ",
"4.4.>.>.T T Y 8 q a h x [ k.+X-X,.T H j b Q >XdXjXuXP.x s 7 > M > * # 6 r z _ oX3X*X) XXsX}.U ( | W.| ` E Y Y H M.*Xw H ,.7.7.7.",
"7.7.,.3.4.4.,.s 7 w l _ V.-XiX9X,.c s q j m L.>XiXjXfX5XL.Y H F H T @.J.*X-X3X9X*X^ ) oXyX6Xh.$.} | ` k s q t :.+X-XZ 0 9 H T 9.",
"g J T >.,.T H q h _ A.9XyXgXjX0X8.c j 8 a k L.K.>XfXjXiXuXeX-X3X3X3X-XH.F.+X3X6X3X3X2X3X3XiXyX2X6X X| ` T :.p.J.6X7XoXw.C N 9 w ",
"y B B H h t y 2.*X6X7XyXuXjXjX6X0.n j s s g k m :XuX0X:XI.5.7.XX7X+X^ ! O.*X7X3XS.4.T 4.D.yXjXhXuX9X+XG.J.+X2X6X-X+X3X3X+Xg.1.I ",
"+Xc.g.g.r.+.oX6X9X3XXXm.m.9XfX3X| ( x g A : 4 ` 3X0X$XE.m j j T *X2XJ.-X7X6X*.J 9 q J >.8.+XsXjXjXuXeXeX0X2X}.,.U U :.D.6X6X3X-X",
"W K T #.-X3X7X3X8.J I 4.t.&XeX}.>.>.g > * ; g | 2X7X).m v b n 1.-XrX0X7X XU 6 8 F q j n 0.&X9XfXjXjXuX7Xl.I g H Y I U Z D.9X-X~.",
"3 q 8 8 t 2X3XB 6 q g x >.b.6X|.U H 6 7 q l @.+X3X7X2Xl.m k c j.eXyX3X$.U J F q 8 8 q k ' (.3X3XrXfXeXe.T I l c L J N 1.3X3.5 ; ",
"U T >.I N 2Xz.5 a p 8 s H 8.6XXX<.>.,.} } =.(.).q.W q._.S..X2X9XpX0Xj.8.4.x s 8 4 8 8 s n | (.S.oXrXqXr.3.Y Y c Y H 6 |.Q.- h Y ",
"8.7.T B <.3XT 8 a a p a N ,.6X*XN.oXj.W F D M = $ : 4 s n '.0XsXgXqX%X).5.b j p p A p a h n 7.8.*X0X6X8.3.T c l H p 8 +X4.l 4.7.",
"T B V :.oX2XJ j s s s j L ,.3X6X*XW i * - , 7 p 8 s j E ` E.<XfXjXuX3X].9.n L s s q j a > 8 s y.3X7X6Xu.( k D 7 * $ L -X,.>.r.,.",
"V :.w.J.6X|.J Y l k h ( J ,.6X].< + > p 7 p 8 N q a j Y [ ).<XyXjXiX3X].} 3.b L j h j * - 5 h F.0XyX0X}.U s > : 7 L @.3X7.B U J ",
"+.J.3X7X7X&.T 7.4.' 7.T w *X[.+ - 8 7 8 p p N 8 a s k b ' P.[.9XfXtX.X X$.5.T Y I x 7 F ..3X6X9XuXqX+X3X*.>.I Y 7.|.2X7XS.U :.2.",
"3X3X.X8.6X-X;.T T >.T 6 o.6X: : S 8 S N N D F F s s L c ' ' | %XyXeXS.l.=.7.4.>.' D j H.eXrXqXqX0X3X-X6X3X|.+X-X-X+XD.*X6XoXJ.*X",
"*.J 6 & 3.7X+X:.>.,.>.j.7XR $ N 8 a a s s H H j H H k Y Y c c -X0X9X-Xt.M.0.7.8.H F c.7X0X3.D s g x E h #X9X3XoXr.;.Z Z oX9X7X2X",
"6 p p N > 0.7X7X3X-X-XtX7X> 8 q s j g j L H J H L L I L h k ' 2XOX-XqX-XS.z.*.7.T f.0XrXH % q F j l h g -X*X;.J I U T V T 3XS.H ",
"F p 8 S a > Y *XrXsXaXpX[ q s f j L L L l x x Y x Y Y H s h o.(.E W.eXfXyX9X5X$X2XrXsXE q L J J I U w =.+XU >.>.T I L B 4.|.t N ",
"N M 8 q s s s ' 3XsXgXqX( x h L L Y Y x T Y Y T T T T N q U 1.x m P.8XjXjXjXjXhXjXjX:Xn 5.T I U >.,.B `.*.7.7.4.4.>.Y q 0.M.V t ",
"N p a a s L 3.=.D.tXsX[.n c L Y T T T T T T >.>.T >.T B B ;.T w d m U.pXdXrXuXiXfXfXI.!.0.7.q.r.8.;.:.v.8.7.7.4.4.>.,.H (.2.I H ",
"s s s j Y 3.4.o.c.3XrX[ x Y T T T >.>.,.>.4.3.,.4.4.U w y 1.>.H j f Q.$Xn ` ' 8.8.qX[.>.i.i.y.1.U :.G.XXY r.8.4.4.4.H W +X;.U H ",
"J L x Y L J I :.1.S.7XL L T c >.,.4.4.4.4.4.4.8.8.T H w U f.2.I H ,.6.8 t Y >.8.;.>.XX;.1.,.:.2.J.*X0X3X5 L u.t.0.T > [.F.:.:.Y ",
"H j H s w H U 1.2.N.-XF U >.3.4.4.4.4.7.7.r.y.4.I H J l 2.V.J.7.e.(.> 8 T T 7.u.U B -X-Xw.J.-X-X(.T 2X9XN $ D 4.U D Q.3XH.:.:.T ",
":.:.;.<.w. .s.C.C.G.+X8 U 7.4.7.7.8.8.u.u.7.I s J c ( %.F.C.2X6X3XD ; N T 9.y.I t ,.3XpXqX-X0.F 7 3 J qXq.. .   * =XXX>.n.oX2.:.",
"*X+XoXoX+X*X*X2X2X7X9Xt j 8.7.7.r.i.u.7.I N w h c 9.|.+XoX6X9X7Xq.$ s w U y.U q 4.+X7XrXy.7 6 H U H ,.rXuX:XK S {.7.H >.:.3X3X*X",
"W P P K P Y Y T %.eXpXW.y 0.u.y.8.3.J 0 N N g U 0.*X6XrXiXqX|.3Xq.> H J I I N 8.-X/ } 3X6 w I T U I ,.rXdXqXV.oX3Xa 0 ;.J.-X!.W ",
"$ - ; > 5 7 7 5 5 (.pXrX` ' 7.T h q N N t V >.t.J.7XfXjXuX_.l *X_.3 s w t B 7.6XG.2 / *XH Y T ;.,.1.I 3X2XC L V *.-Xr.A.6.: X * ",
"M M 8 p p N q F N l qXfX,Xl I h x U Y l ;.:.g.+X3XuXjXhX=X=.c  X+X0 B U *.+X3X3X+Xd.B.6X>.w :.7.1.T U *X,.B I B T 7X3XG X : M 7 ",
"M 7 8 7 p S D w B t Y.pXrX|.{ 8.$.r.r.2.p.J.-X%XL.I.0XuX3X' Y Y.2X@.*X-X#X6.G - M W |.0XeX|.C I V V N.3Xw h U N OX@X* + M < < M ",
"5 M 7 p S q s F H 9 0.9X3X7XeX0X2XH.J.*X3XQ.G * 3 d d I.0X7.8 =.7X3X).P - + - < , # $ D [.eX3X1.G.-X3X6XP $ 8 W ~.+ = M , < 7 i ",
"7 p 8 8 p q F w w N -XZ.<.g.iXpXuX9X3X).S X # i p d f 6 U.7XQ.3X}.D % : M 8 p 8 8 N 8 > $ N 1X6X2X~.R R ].W , 6.M = 7 < < < < 7 ",
"7 8 p N q s F H 8 7.c.I 4.8.7XsXtX%Xv > 7 a a D p a a a 5 ].9X|.; 7 F H s s N N q a N N F 5 N #X=   X X > 3.{.~.# < < < 7 < < i ",
"a a D D F F F N F 7.I Y T Y =X9X[ j k Y H s s s s s a a 6 N 6XOXq H H J L Y L H L Y H H H F I q.= M 7 A p 5 8.6.* 7 i 7 i 7 p p "
};
