/* XPM */
static char *_e630a02e5ec4f598f2da9757d3721c1y6A9xwUiotNNZMwL[] = {
/* columns rows colors chars-per-pixel */
"48 64 216 2 ",
"   c #0C0E11",
".  c #0F1113",
"X  c #0F1018",
"o  c #101417",
"O  c #13161B",
"+  c #16191E",
"@  c #181B1D",
"#  c #1C231C",
"$  c #2F320E",
"%  c #232A1D",
"&  c #2A3619",
"*  c #373C17",
"=  c #141721",
"-  c #161A22",
";  c #1A1D23",
":  c #1B1E2A",
">  c #1D1F30",
",  c #221F29",
"<  c #1D2126",
"1  c #1E222B",
"2  c #1F2232",
"3  c #232924",
"4  c #21252D",
"5  c #24292E",
"6  c #2D3325",
"7  c #343B29",
"8  c #222533",
"9  c #2D2737",
"0  c #252A34",
"q  c #292C36",
"w  c #23263A",
"e  c #262A3B",
"r  c #2A2E3B",
"t  c #332C38",
"y  c #2C3235",
"u  c #2C323D",
"i  c #343C33",
"p  c #33333F",
"a  c #7A0707",
"s  c #7D181E",
"d  c #752F0A",
"f  c #56252A",
"g  c #503135",
"h  c #79252A",
"j  c #6D2C37",
"k  c #673034",
"l  c #3A450D",
"z  c #3C4414",
"x  c #3D461B",
"c  c #3F5216",
"v  c #3B4525",
"b  c #3A422D",
"n  c #3A4333",
"m  c #434404",
"M  c #474C00",
"N  c #464807",
"B  c #484B02",
"V  c #465605",
"C  c #464917",
"Z  c #43541B",
"A  c #485818",
"S  c #4C6107",
"D  c #566C04",
"F  c #5B7806",
"G  c #4E6318",
"H  c #546B17",
"J  c #637208",
"K  c #444C24",
"L  c #444B2C",
"P  c #4A5824",
"I  c #454B39",
"U  c #445137",
"Y  c #546724",
"T  c #526439",
"R  c #262B41",
"E  c #2A2D43",
"W  c #2A2E49",
"Q  c #312D46",
"!  c #2D3343",
"~  c #2E324A",
"^  c #323643",
"/  c #3A3545",
"(  c #333945",
")  c #393D45",
"_  c #31364A",
"`  c #353B4A",
"'  c #3A3D4C",
"]  c #363B52",
"[  c #363A57",
"{  c #393E53",
"}  c #453B48",
"|  c #423F52",
" . c #673C45",
".. c #3E4544",
"X. c #3B414E",
"o. c #3D4453",
"O. c #3D445A",
"+. c #3D4164",
"@. c #444A47",
"#. c #4D5C43",
"$. c #424553",
"%. c #434956",
"&. c #414659",
"*. c #4A475C",
"=. c #444B5B",
"-. c #4A4D5D",
";. c #544A56",
":. c #4A5254",
">. c #47505E",
",. c #4A505F",
"<. c #6E424B",
"1. c #694B54",
"2. c #58654D",
"3. c #464766",
"4. c #464E61",
"5. c #484F61",
"6. c #504E61",
"7. c #475061",
"8. c #4C5363",
"9. c #4F5967",
"0. c #4D5669",
"q. c #4F596C",
"w. c #515565",
"e. c #515966",
"r. c #515768",
"t. c #595769",
"y. c #535B6C",
"u. c #595D6E",
"i. c #555E72",
"p. c #585F72",
"a. c #615F72",
"s. c #58616D",
"d. c #576074",
"f. c #5B6374",
"g. c #5D6876",
"h. c #5C657A",
"j. c #5E687D",
"k. c #606A6E",
"l. c #626475",
"z. c #62677A",
"x. c #66687A",
"c. c #626A7D",
"v. c #840505",
"b. c #8D0404",
"n. c #910404",
"m. c #9B0404",
"M. c #990A06",
"N. c #9A191E",
"B. c #A50404",
"V. c #AC0404",
"C. c #A30A0B",
"Z. c #A90A0A",
"A. c #B40405",
"S. c #BC0303",
"D. c #B20C0C",
"F. c #AC0F13",
"G. c #B80E12",
"H. c #A01718",
"J. c #B81213",
"K. c #953006",
"L. c #9F1D21",
"P. c #9D282A",
"I. c #A92429",
"U. c #AC2E32",
"Y. c #C40303",
"T. c #CC0302",
"R. c #CC0A0B",
"E. c #D40202",
"W. c #DC0101",
"Q. c #D80808",
"!. c #CA0F1A",
"~. c #C81315",
"^. c #E40000",
"/. c #EC0000",
"(. c #F20000",
"). c #F90303",
"_. c #E71818",
"`. c #F81010",
"'. c #8C474C",
"]. c #648501",
"[. c #678901",
"{. c #6A8D01",
"}. c #6A8D0A",
"|. c #6E9300",
" X c #709600",
".X c #739C00",
"XX c #51A901",
"oX c #79A400",
"OX c #7DA900",
"+X c #5F6A80",
"@X c #646D82",
"#X c #686F81",
"$X c #677186",
"%X c #6A7285",
"&X c #65708A",
"*X c #6B758A",
"=X c #6E798C",
"-X c #717B8E",
";X c #6E7990",
":X c #747D92",
">X c #787F95",
",X c #778096",
"<X c #798296",
"1X c #768199",
"2X c #7B849B",
"3X c #7E899E",
"4X c #7D88A2",
"5X c #81889E",
"6X c #838CA4",
"7X c #838EA8",
"8X c #8790A7",
"9X c #8791AA",
"0X c #8A94AC",
"qX c #8E98B1",
"wX c #929CB5",
"eX c #94A1B9",
/* pixels */
"3X3X2X2X>X>X:X-X=X*X$X@Xx.z.h.i.d.,.=.8.r 2 f.c.c.c.c.c.x.k.z.k.z.f.s.u.u.9.,.8.8.,.5 u =.o.O.7.",
"3X2X1X1X>X;X=X&X%X$X#Xc.@Xp.p.i.q.q.8.=.0 X.c.l.k.z.g.g.g.s.d.s.u.y.e.e.8.,.,.,.-.w.p 1 o.o.o.O.",
"2X1X>X:X;X=X=X&X$X@X@Xh.h.i.y.0.0.7.4.o.u ,.s.>.-.s.u.u.u.y.t.e.8.8.,.,.,.-.-.-.-.,.( - R X.` X.",
"*X1X;X=X*X*X&X@Xz.h.i.i.i.q.0.5.7.7.O.` ( y.9.o.%.e.e.,.e.e.,.>.,.,.-.-.=.*.:.%.%.-.) ; : e ! ! ",
"@X*X&X@X@X+Xj.d.d.i.i.i.=.=.0.8.7.=.4.u ) y.8.8.8.,.-.-.-.-.-.-.-.-.:.%.%.%.$.%.$.$.( < - : : 1 ",
"*X&X@X@X@X+Xj.j.i.i.i.y.&.O.8.5.>.=.o.2 $.,.,.,.1.I.I.;.*.:.%.%.%.$.$.$.$.$.@.$.' o.9 @ 1 - - < ",
"@X&X@X+Xj.h.d.d.d.i.y.y.8.4.5.4.>.=.! 1 %.%.1.I.W.^./.L.;.$.$.$.$.$.$.$.$.X.' ' ' ) 1 - < < 1 2 ",
"@X@Xj.j.h.h.d.i.i.i.0.0.0.8.5.=.O.O.1 5 ;.U./.(./.^./.T.Y.'.$.$.@.' ' ' ' ' ) / ' y + 1 2 0 0 e ",
"+X+X+Xh.h.f.i.i.i.0.0.8.5.4.4.=.=./ f h R.^.W.W.R.S.^.^.Y.Y.$.' '  .j $.( p ( ) / : : 0 0 q e u ",
"+X+Xh.h.d.d.i.i.y.0.8.8.8.4.4.o.1.T.V.S.^.R.~.C.A.A.B.E.T.Y.h ' ' E.W.} ( ( p p 8 @ 4 0 e y u ! ",
"h.h.j.d.d.i.i.q.0.0.8.8.8.O._ e N./.V.Y.E.S.A.C.Q.Y.a D.E.S.N. .C./.~.p r t 9 w ; < 0 0 e u ! ( ",
"h.i.d.d.i.q.q.0.0.8.8.&.` e w w C./.S.V.A.B.S.S.T.M.B.S.V.V.W.W.^./.Y.9 9 8 8 < + 1 e r u ! ( ( ",
"d.i.i.i.q.q.q.y.y.O.~ E w w 2 : Z.^.E.S.V.M.^.A.m.T.^.B.v.S.W.R.E.W.s 1 < : ; + ; 8 r u ! ! ( ` ",
"+Xi.q.i.d.d.q.4.] E e e R 8 < e F.W.Q.`.W.F.Y.Y.v.S.Y.C.V.E./.Y.T./.k # @ ; + + < e y u _ ( X.X.",
"d.j.j.h.q.O._ E R R E R 4 4 u _ J.W.~._.(.^.T.Y.A.A.T.W.(./.A.Y.^.^.j 2 8 8 < + 4 r u ! ( X.( X.",
"0.h.h.[ E E W ! E E e 4 1 ! ( 6.Y./.E.m.M.Q.W./.(.(././.T.M.v.E.(.E.g e 8 q 8 + 5 u ! ) X.X.o.%.",
"0.d.3.e 2 R ~ E E e 1 1 ! X.( <.T.W./.Y.a A.Q.Y.T.T.Y.B.B.v.b.^.(.A.q 0 8 y 8 + 0 ! ( ` X.o.=.,.",
"{ y.O.E R E W R 8 < 2 u ! ( X.k ^.Y././.Y.Y./.E.Y.Y.A.Y.Y.b.T.`.U.t r r r u 4 - 0 ) ( ' o.%.=.,.",
"~ ` ~ W ~ ! w ; < 1 E X.X.` o.<.^.Y.Y./.E.S.W.^.^.^.^./.B.C.T.H.f p u u ! ( < - e u ) o.%.:.,.,.",
"~ E W W 2 < 1 u 5 - u =.( X.o.O.U./.A.D._.S.E.^.W.^.^.W.n.b.b.k y p u ^ ^ ^ < + w y ! ( o.-.8.e.",
"r E 1 : q =.g.;X7.< 1 _ ( o.o.O.7.U./.V.G.T.T.^.^.W./.S.a S.F.u p p ( ( u e - + 1 w r ^ ( X.>.9.",
"- < ( d.2X4X3X1X*X( - e ( X.o.=.7.0.1.K.n.Y.E.^.^.^.^.b.m.(.P.r r u u q r 2 O O + : 0 r ^ X.o.>.",
"` c.0XqX6X<X-X*X*Xq.1 1 R ~ _ [ O.O.#.XXZ C.^./.^.^.m.n.^.(.P.2 8 8 0 w 1 O + - - - - w R _ ` O.",
"qXeX0X5X<X:X=X@X$X+X( + 2 0 r u ~ ] G ..=.:.I.W.^.m.m.^.).^.j 2 2 8 8 < O O - < 1 1 < - w ! ~ ` ",
"qX8X3X<X:X=X*X@Xz.z.4.< - < # < < 3 6 5 0 q 8 g n.T./.).W.d : ; ; - + O O ; : 8 0 q 0 : O < u ` ",
"2X-X2X1X-X*X@Xc.f.i.0.! - < S Z < < + + + + + + $ ~.!.h J XX@ o O O O O = : 8 q 0 5 8 8 +   . 1 ",
"<X=X,X=X*X@Xj.h.i.0.8.' < 1 Z OX[.A 0 0 2 0 8 2 & 6 4 ; % ].& + o + O = : 4 0 5 w w : o + u p o ",
"<X1X=X*X@Xh.i.i.q.8.4.` 1 0 y |.OX XD i 7 7 0 0 * & 4 , < % l @ - O o @ : 1 : 8 < O O 0 =.i.f.>.",
"=X*X$X@Xh.d.i.q.0.8.4.! 1 u u v {.|.F S c 7 q q * * 4 4 1 : 3 % - - O O = : : O o 4 X.9.e.,.u.f.",
"$X$X@Xj.h.d.i.0.8.8.O.y 8 ! ! ! ! b {.].{.c u u * z 0 8 8 4 < ; ; - = O + O o ; ( 8.8.9.=.=.d.d.",
"$X+Xj.j.d.i.q.0.5.4.O.q 0 ( ( _ X.P oX|.oXn ! ( * z r Z v 0 4 4 1 : + O o o 0 %.>.=.,.8.e.e.u.g.",
"j.j.h.d.i.y.0.8.4.=.' 8 q X.o.o.X.G oX XA ..' ` K C ^ {.].q 0 8 1 - o   < ` *.%.%.=.,.8.e.u.s.g.",
"j.h.d.d.q.0.9.+.7.O.( 2 u ` X.O.%.$.{..Xo.I X.} v x (  X XH y 0 < = . + X.=.X.%.%.=.8.8.e.y.s.f.",
"d.d.d.i.q.0.9.O.o.X.u 1 _ X.( ` %.-.P Y =.L K $.L C ` A {.A e 1 = X O ( o.X.X.%.:.>.,.w.e.u.u.f.",
"d.d.q.q.q.7.O.X.X.( 2 1 ( o.X.X.' o.@.>.,.:.C :.I m G G S x z # = o u %.X.o.$.%.=.,.8.w.e.u.u.g.",
"y.q.q.q.O.o.X.X.X.2 < 0 ] o.o.o.X.X.X.o.%.*.U L I D oX{.].3 & |.l 5 o.X.X.o.$.%.=.,.8.w.y.u.s.l.",
"8.7.O.o.o.X.X.W 2 2 < 1 ] o.X.o.o.O.X.X.o.o.%.L m [..XoX[.1 : ].oXF X.` X.o.%.%.-.,.w.e.e.u.u.f.",
"O.O.o.o.X.! 2 2 2 1 1 # 1 X.[ ] o.&.%.o.X.X.' { C |.oX].* : = l  XOXF X.o.$.%.:.,.,.w.e.u.u.s.l.",
"o.O.X.! e e 2 1 e ` ` ! 2 < _ O.{ { o.o.%.o.X.X.A ].A 5 2 : o y Y |.OX].U o.%.=.-.8.8.y.e.u.f.l.",
"` E R 2 0 1 2 ( X.` X.o.o.u 1 u O.[ _ ` X.o.X.$.C & 1 0 w o q o.( ..n P L X.$.=.,.,.8.e.e.u.s.f.",
"2 2 2 < < # ! +.X.! o.=.O.7.o.0 8 _ O.[ ~ ! n U z 6 w 9 + : X.( ( ` X.X.X.$.%.=.>.,.,.e.y.t.s.f.",
"2 e n O.O.0 0 O.>.O.=.=.>.=.-.7.( 8 y [ O.n ].n l i R - + ( ( ( ` ` X.X.X.o.o.%.=.>.8.w.w.y.p.d.",
"X.i.,X4X4Xg.y 0 7.0.0.8.0.0.8.8.9.=.y 1 n oX}.! m y < O u ( ( ( ( X.` X.X.o.o.O.%.-.,.8.0.e.u.s.",
"*X1X2X2X1X3X+X0 ! 0.q.d.f.f.f.d.u.q.0.X.S oXZ u l # . y ` ^ _ ! u ( ` ` X.o.o.o.%.-.,.,.0.0.y.s.",
":X:X1X%Xi.,X3Xj.0 ! q.g.c.%X@Xh.s.2.2.Y Y v # 6 N 8.q 1 X.! ( u y ` X.` X.X.o.o.%.=.=.,.w.e.q.8.",
"&X*X=X*Xj.*X2X2Xf.2 ] q.c.*X%Xf.}.|. X|.H _ 1 K Z j.O.2 ! ! ( ^ ( ` ` ` X.X.X.o.o.o.=.>.-.-.=.=.",
"$X$X%X*X;X=X=X,X2X>.8 [ 0.c.+Xi.y.T }.oX].* 0 Z P 7.7.y y ! ! _ ^ ( _ X.` X.X.o.o.o.o.O.o.O.>.>.",
"@X@X$X$X*X$X*X*X=X*X( w +.4.+XO.[ _ ~ A .XV O z v o.O.u e ( ^ ^ ( _ ( ( ( X.X.X.o.o.$.o._ X.o.` ",
"i.j.@X@X@X&X@Xj.c.&Xf.1 ~ +.3.+.O.~ E 2 c S L z % 0 ) u y ( ! _ ( ( ( ` ` ` ' ` X.` ( _ E ^ _ _ ",
"y.h.h.h.j.j.h.d.j.j.&XX.# ! ~ ~ ! u ! o.s.g.N B t.p 1 1 8 ( ( u r _ ( ! ( ^ ! ~ E ! ! ! ^ _ _ _ ",
"q.i.i.i.d.i.d.h.h.j.j.O.< + 0 u X.>.q.g.f.g.C B :X;X=.< O w ! e e e e e r e r E ! ! ~ _ _ _ _ ! ",
"0.q.q.i.i.d.d.d.d.j.i.[ < u o.o.O.O.7.9.y.f.A P c.%X,Xg.u o : 2 w 0 e e e e w 9 e e q 8 8 8 4 4 ",
"0.q.q.i.i.i.d.d.d.d.d.~ 2 ` u ! o.O.O.7.0.r.B T j.c.c.-X%Xo.+ + 1 1 1 < 4 4 4 4 5 4 5 5 4 , ; r ",
"5.0.0.0.q.q.q.d.q.i.+.R y ~ r ! X.o.>.7.8.:.B s.h.h.h.c.c.%X4.< + < 4 8 9 t p / ^ / / / / 9 5 r ",
"[ O.O.=.+.O.O.o.o.X.X.e 2 E X.` X.o.O.*.-.L M y.f.f.f.f.g.f.j.=.; , 9 t p / ' } } | | ' ' / 4 ! ",
"e R E ~ ~ ~ ~ ~ ~ ~ ~ 5 2 2 e ! X.o.o.%.-.m Z 8.9.9.y.i.d.s.y.d.^ , t ( ' | $.*.6.6.-.*.*.' 4 r ",
"2 2 2 1 2 1 2 1 2 1 < < 2 1 2 2 E ~ X.o.o.V @.>.7.7.7.0.9.9.0.q.u 5 / | *.-.t.t.t.t.t.a.t.} < w ",
"c.g.s.9.,.>.o.' ..! u y 5 2 1 2 2 2 E E v M X.' O.7.0.7.7.O.O.o.w t / | *.t.a.a.@X#Xa.a.| Q , - ",
"eXeXwXqXqX0X6X6X1X1X&X+Xd.9.O.o.r < 2 e m M ~ ~ X.] X._ ~ E R 2 < 9 / ' | *.;.t.a.a.a.| Q > , X.",
"wXwXqX0X0X8X6X6X4X1X1X1X,X,X$X$Xg.o.1 < * * e r R R 2 2 2 2 2 < ; - ; 8 Q { &.*.6.t.| Q w 8 @X7X",
"0X0X9X8X6X5X3X2X>X:X:X=X*X*Xg.g.$X+X4.2 < 1 1 < < 1 0 u n X.X...o.o...p 9 8 0 r ] 3.[ 9 8 h.2X:X",
"0X9X9X5X6X4X2X<X>X:X=X=X$X$X$Xc.h.g.h.7.5 < < 0 O.9.g.$X,Xx.,X,X,X=X*Xc.s.,.' ^ 0 0 9 4 8.*X@X%X",
"8X7X6X3X2X2X1X>X>X:X=X*X$X$Xj.j.h.d.d.d.X.+ 3 g.3X<X<X<X<X<X,X-Xg.g.%X%X%X$X#Xz.8.y o X.h.y.h.j.",
"6X3X3X3X2X2X>X:X-X*X*X%X$X@Xc.g.g.q.7.q.X.; ..,X,Xc.,X*X=X-Xc.c.s.s.c.c.l.l.l.s.c.>.1 o.0.8.r.y."
};
