/* XPM */
static char *_876304930d2490bbec2a09c6058058fP1j2Fd8Ct2FSN8G2[] = {
/* columns rows colors chars-per-pixel */
"64 64 239 2 ",
"   c #010101",
".  c #050909",
"X  c #0A0B0C",
"o  c #190A0A",
"O  c #0D0E12",
"+  c #0F1115",
"@  c #0F1019",
"#  c #111216",
"$  c #13151A",
"%  c #1A1619",
"&  c #15191D",
"*  c #2C1213",
"=  c #2A211C",
"-  c #171A22",
";  c #1A1D23",
":  c #181B27",
">  c #1C1E32",
",  c #1D2126",
"<  c #1E222B",
"1  c #1F2232",
"2  c #1F2239",
"3  c #21252D",
"4  c #24272D",
"5  c #3A2526",
"6  c #3E332B",
"7  c #212533",
"8  c #252A33",
"9  c #292D36",
"0  c #23263A",
"q  c #252A3A",
"w  c #2A2E3B",
"e  c #2A3037",
"r  c #2C323C",
"t  c #363538",
"y  c #31333C",
"u  c #4F1515",
"i  c #6B1918",
"p  c #631F20",
"a  c #4F2D30",
"s  c #6F2A2C",
"d  c #4A443B",
"f  c #724925",
"g  c #6A6A3A",
"h  c #262B41",
"j  c #2A2D43",
"k  c #2B2E49",
"l  c #2D3343",
"z  c #2E334B",
"x  c #303644",
"c  c #343A45",
"v  c #3B3943",
"b  c #30314B",
"n  c #31354B",
"m  c #353B4C",
"M  c #383E4C",
"N  c #353C52",
"B  c #353955",
"V  c #393F55",
"C  c #4A3B4C",
"Z  c #753C45",
"A  c #3E4447",
"S  c #3A414D",
"D  c #3C4354",
"F  c #3F4856",
"G  c #3D445B",
"H  c #3F4859",
"J  c #3E4462",
"K  c #4A4848",
"L  c #424553",
"P  c #424956",
"I  c #434B5C",
"U  c #48495B",
"Y  c #524B57",
"T  c #695454",
"R  c #786A4E",
"E  c #6A7D47",
"W  c #7A7042",
"Q  c #414664",
"!  c #454D62",
"~  c #484E67",
"^  c #514F64",
"/  c #475163",
"(  c #4B5364",
")  c #4F5967",
"_  c #4C556A",
"`  c #4F596C",
"'  c #535667",
"]  c #525A6D",
"[  c #524D70",
"{  c #4E5675",
"}  c #545D72",
"|  c #5A5E70",
" . c #525B7B",
".. c #705C6E",
"X. c #566175",
"o. c #5A6275",
"O. c #56627A",
"+. c #5B657B",
"@. c #5E697E",
"#. c #756A6F",
"$. c #656479",
"%. c #616A7D",
"&. c #8B1F1C",
"*. c #91201C",
"=. c #89272A",
"-. c #982827",
";. c #983237",
":. c #B23334",
">. c #D91D1C",
",. c #E40804",
"<. c #F90911",
"1. c #E61A18",
"2. c #F61319",
"3. c #E7221D",
"4. c #FB0F20",
"5. c #FC1B24",
"6. c #C82B29",
"7. c #D22D2A",
"8. c #DB2D2B",
"9. c #CD362C",
"0. c #DC322D",
"q. c #D8342D",
"w. c #C83735",
"e. c #D93834",
"r. c #E82824",
"t. c #E32E2B",
"y. c #EC2E2B",
"u. c #F72528",
"i. c #E5312C",
"p. c #E8312C",
"a. c #F2332E",
"s. c #E92F30",
"d. c #E23531",
"f. c #E93733",
"g. c #FB3832",
"h. c #9A5C3B",
"j. c #B84A35",
"k. c #AA5539",
"l. c #93633D",
"z. c #C84537",
"x. c #E8463D",
"c. c #8D3D45",
"v. c #C53E40",
"b. c #904750",
"n. c #B1474D",
"m. c #876A40",
"M. c #8D6C45",
"N. c #825564",
"B. c #BB5A63",
"V. c #8D736B",
"C. c #AB636F",
"Z. c #CC4649",
"A. c #D34546",
"S. c #EB4A47",
"D. c #F14F4B",
"F. c #EA564C",
"G. c #E7655C",
"H. c #EE6F6D",
"J. c #1C9847",
"K. c #359B51",
"L. c #0CB55B",
"P. c #27A555",
"I. c #30A153",
"U. c #4C8C4C",
"Y. c #58874A",
"T. c #48924E",
"R. c #67834B",
"E. c #9B8372",
"W. c #A78A75",
"Q. c #AB8F78",
"!. c #CD9B74",
"~. c #F28B76",
"^. c #545D82",
"/. c #5B6587",
"(. c #5F6A81",
"). c #636D83",
"_. c #646C89",
"`. c #667086",
"'. c #6A7286",
"]. c #66728A",
"[. c #6B758B",
"{. c #6D788E",
"}. c #73738A",
"|. c #717A8E",
" X c #636D94",
".X c #6E7A92",
"XX c #677499",
"oX c #737D94",
"OX c #767E97",
"+X c #6A75A1",
"@X c #927B8F",
"#X c #AE7482",
"$X c #768096",
"%X c #798397",
"&X c #76819A",
"*X c #7A849C",
"=X c #7C889F",
"-X c #7B88A3",
";X c #7E8AA2",
":X c #8C8A98",
">X c #BB9A82",
",X c #838DA4",
"<X c #878FA8",
"1X c #8390A6",
"2X c #8691AA",
"3X c #8A94AC",
"4X c #8A96B1",
"5X c #8D99B2",
"6X c #8898B4",
"7X c #929CB5",
"8X c #939FB9",
"9X c #96A0B7",
"0X c #95A2BC",
"qX c #9AA5BE",
"wX c #C59D81",
"eX c #F4928A",
"rX c #D4AE8F",
"tX c #F1A388",
"yX c #E7BC9B",
"uX c #F1BC96",
"iX c #D2BAA8",
"pX c #F5B1AA",
"aX c #F2C29C",
"sX c #EBC1A0",
"dX c #F3C5A3",
"fX c #F7CAA7",
"gX c #F4CCAA",
"hX c #F6D0B2",
"jX c #F7D8B6",
"kX c #F7E4BD",
"lX c #99A7C3",
"zX c #D2D3D2",
"xX c #F7D4D0",
"cX c #F9E6C4",
"vX c #FBE7D8",
"bX c #FCE7E5",
"nX c #FDF4ED",
"mX c #FEFBF7",
"MX c #FFFEFE",
/* pixels */
",X,X;X=X=X=X%XoXoXoXoX}.].'.'.).).] _ } c w [.%X%X%X%X%X%X%X%X%X$X$X%X$X%.%.%.%.%.o.e m ` ) ] } X.} } } } ` H S &X6X2X2X2X2X1X,X",
";X=X=X*X*X&XoXOXoXoX[.[.].'.).(.+.| } } r P %X|.|.$X|.$X$X%X|.$X[.#.%.%.%.%.$.%.$.%.A q / / / ( _ _ _ ( / ` S D 6X1X1X1X;X,X,X;X",
"=X=X*X&XoXoXoX.X|.[.[.`.).%. .| } } ] ! c o.%.| | '.'.'.%.|.'.%.%.%.%.+.%.%.o.o.o.$.U < N / I ! / / / / H H 1 ) 6X&X$X;X;X;X;X=X",
"[.*XoXoXoX.X{.[._.).%.%.+.O.} } ` _ ( N M %.o.U ) o.o.$.o.$.o.| | o.| | | | | | | o.U 7 2 z D D S N m l l 1 1 (.;X*X$X;X=X*X;X[.",
"[..X[.[.].`.`.(.(.(.+.+._ ( ] _ ( U I r A ] ) ) ) ) ( ( ( ( ( ) ) ( ) ) ) ) ) ) | ' U 4 3 > 2 0 2 2 q 1 1 1 8 `.&X&X&X.XoX.X$X].",
"[.'.'.].`._.).).(.@.(.o.U I ( I P D c 7 c L F I A K F F L L L L L K L P K Y Y ) ^ ' c 3 8 7 3 3 8 1 1 < 4 4 , ) -X.X.X{.{.{.[.{.",
"'.'.].].).).(.@.+.+.O.X._ I P S c x 3 % =.;.Y.R w.>.t.q.i.i.p.p.p.p.p.p.i.i.q.w.w.c.a 4 8 8 9 w r l l l c l < e ]..X.X{.{.[.[.].",
"].]._.).).).@.@.+.+.| ` ( L M x w 7 # s r.4.g J.k.q.q.5.p.i.p.p.p.p.p.p.p.p.p.p.p.p.0.;.a x c m S S D D F H S & J &X].[.[.[.[.].",
"].).).).(.(.(.+.+.o.] ( P M y 8 < ; d G.>.l.T.g j.Y.E 5.u.i.i.p.p.p.p.p.p.t.p.p.p.p.p.i.:.C m N D G H S H H / l 1 (.].].].].].].",
").(.).(.@.@.+.+.o.} ` ! V x 9 ; $ d iX~.9.Y.R.k.h.I.U.z.p.u.p.p.p.p.p.p.p.p.p.p.p.p.p.p.s.:.L G H H I H H / / / < m ].).(.].`.).",
").@.(.+.+.+.o.O.} ] ( I M q ; # X R yXgXF.1.9.Y.I.M.j.Y.E p.u.p.p.p.p.p.p.p.p.p.p.p.p.p.y.0.c.Y ! / / _ ` / ` } H < _ (.(.(.).).",
"(.+.@.+.+.O.X.X.| } ( M q : @ O . E.sXkX~.2.3.k.l.h.h.I.K.0.5.p.p.p.p.p.p.p.p.p.p.p.p.p.t.y.9.T / ( ` ` ` } ` ` O.c l  .@.(.@.@.",
"o.o.+.o.X.} o.+.O.I z 0 : - @ X . W.aXjXaXS.2.2.k.P.P.U.k.e.z.r.p.p.p.p.p.p.p.p.p.p.p.p.p.p.0.b.) ` } } X.X.X.X.O.` 8 D  .(.O.@.",
").O.} +.@.@.o._ V z 0 7 > # O O + W.sXdXkX~.1.2.u.z.E j.t.U.U.u.y.p.p.p.p.p.p.p.p.p.p.p.p.p.p.n.X.O.o.o.@.@.@.(.(.].F e J ` +.+.",
"O.).).).} ~ B z z j h 0 - # # @ + W.sXaXjXhXF.1.2.u.M.T.K.L.W 2.t.p.p.p.p.p.p.p.p.p.i.p.p.p.p.w.).(.`.`.].`.`.`.`.`.(.r z J ` O.",
"] ).).G z z z n n k h ; & - - # + W.sXdXaXkXuXp.1.u.9.E K.m.t.i.p.p.p.p.y.p.p.p.p.p.t.p.p.p.p.q.).`.[.[.[.[.{.{.{.[.$X` 1 D G } ",
"] +.~ j 0 j n z z q < , < , & $ # Q.fXfXaXgXcX~.1.2.p.l.h.i.W E u.y.p.p.p.p.p.p.p.p.p.p.p.p.y.e.'.[.|.oX{.$X$X$X$X{.{..XS 8 G V ",
"D X.J k z z z z w < 8 7 1 < - $ & E.fXjXdXaXkXgXF.<.u.W U.T.L.W 5.p.i.p.p.p.p.p.p.p.p.p.p.p.p.f..XoXoX%X*X*X&X&X&X&X$X.X].8 k B ",
"n B N z z z h < , 3 j c 8 < - & $ f M.rXhXgXaXkXtXr.<.z.U.P.W 5.u.i.p.p.p.p.p.t.p.p.p.p.p.p.p.d.$X&X*X=X;X,X;X;X;X;X$X$X&XH < B ",
"z z k z 0 , 8 c 9 : r M 7 < , & $ M.h.l.yXgXdXjXfXD.2.h.m.q.u.w.q.y.y.p.p.p.p.p.y.i.p.p.p.i.s.e.%X&X,X,X1X1X2X2X2X1X*X[. .{ r 1 ",
"l j 7 , l ( [.-X] , 1 r 8 3 - & # V.yX!.!.fXfXgXjX~.2.g P.W E Y.p.p.p.p.p.p.p.p.i.p.p.p.p.p.p.d.&X,X3X4X5X5X6X4X-X&X(.{ { ^.J < ",
"- < c %.2X5X5X2X*Xm - 1 7 < ; - # K yXkXfXdXdXaXcXyXu.>.U.L.P.h.u.u.p.p.p.p.p.p.p.p.p.p.i.p.p.e.oX;X1X4X2X2X-X&X]./. . .{ ^.H , ",
"S '.8XqX7X<X,X&X=X| < ; : : $ $ $ 5 Q.kXhXdXaXdXkXhXD.<.9.m.j.u.y.p.p.p.p.p.p.p.p.p.p.p.p.p.y.e.[.OX-X;X=X.X]. X^.{ ^.^./.H & , ",
"0XlX8X3X,X,X*XOXoX].c & - & $ + + = E.kXfXdXdXdXjXjXH.1.u.u.u.p.i.p.p.p.p.p.p.p.p.p.p.p.i.y.p.0.O.)..X;X-X/./././.{  X/.S $ S $X",
"9X5X<X1X,X=XoXoX'._.! ; # # X X . 6 Q.kXgXdXdXdXfXjXeXt.3.p.p.p.p.p.p.p.p.p.p.p.p.p.p.p.p.p.p.d. .{ O. X$X/./. X XXX .8 e ].lXlX",
"1X*X,X,X=XOXOX|.'.+.] 9 $ # O X . V.yXaXfXdXdXdXaXkXpXs.1.p.p.p.p.p.p.p.p.p.p.p.p.p.p.p.p.p.i.i.J ^.^. ./. X X+X XH 8 H ;XlX0X6X",
"=X%X=X*X&XoX{.'.).] ( x $ $ # O X rXaXfXdXdXdXdXyXcXhXs.1.p.p.p.p.p.p.p.p.p.p.p.p.i.p.p.p.i.p.0., S J O././. .H 1 , @.0X6X6X;X;X",
"=X;X%X$X[.].).@.o.] / l $ $ @ # X rXfXaXdXdXdXdXuXvXbXS.,.p.p.p.p.p.p.p.p.p.p.p.p.p.p.p.p.p.p.e.e + < r c n e < & S ;X-X%X;X;X;X",
"oXoX.X[.`.).).+.o.] I w & - $ # O Q.dXdXdXdXdXdXuXcXMXH.,.s.p.p.p.p.p.p.p.p.p.p.p.p.p.p.i.i.f.Z.&Xr < < 8 S / @.H S &X&X&X$X$X$X",
"{.[.].].).).+.+.} } I 8 ; ; $ $ # W.sXdXdXdXdXdXuXhXMXpXr.1.p.t.p.p.p.p.p.p.p.p.p.i.p.p.p.i.x.B.;XO.- r H ` @..X+.F .X&X$X{.$X].",
"[.].].).(.(.+.O.} _ G 7 ; 3 - $ # W.aXdXdXdXdXdXuXhXmXxXS.,.t.p.p.p.p.p.p.p.p.p.p.p.p.p.p.p.x.C.;X-Xr r H _ ).-X].F `.&X@.X.].{.",
"`.).).(.@.o.O.} ] ( D 3 3 8 ; - % V.yXaXdXdXdXdXuXhXmXMXeX,.1.f.p.p.p.p.p.p.p.p.p.p.p.p.p.p.A.:X0X6XH 8 / X.$X;X$XS @.$X%.O.].].",
").).@.+.O.O.} X.} ! m 3 9 9 3 , , T yXdXdXdXdXaXaXxXMXMXbXD.,.1.d.i.p.i.p.p.p.p.p.p.p.p.p.i.B.:X7X7X[.l H (..X2X$XS +.].`.].`.).",
"+.+.+.O.X.X.} / ! P l 3 l r 8 3 < v R dXdXdXdXaXaXvXMXMXMXxXS.,.,.r.p.p.p.p.p.p.p.p.p.p.f.e.#X<X5X7X4XF l +.].;XO.w X.`.`.%.@.@.",
"+.O.| O.} } / D F D q 7 m M l 9 8 8 t V.yXdXgXyXfXnXMXMXMXMXbXeXS.f.p.p.i.y.p.p.p.p.p.p.p.A.<X3X3X8X7X+.l J } /.G 1 ` X.+.@.@.O.",
"| | } ` ( I H H N l 7 w V F S m l e e x T W.>X!.iXzXzXxXxXxXbXnXpXG.y.r.p.0.9.q.i.p.p.p.e.C.2X3X3X5X7X-XS j V J l , J } ) X.O.o.",
"] _ ! I H F D m j 7 3 9 G G G P L S c r 9 t a K K A T Z.x.D.D.G.H.F.i.r.i.;.s T w.y.i.y.A.@X<X<X3X3X8X5X| 4 q l l e l / ( / ( ` ",
"I G I F D n j 2 3 8 9 , 9 H J G I I P m r 8 < , + $ o ,.<.,.,.,.,.3.i.i.0.Z L ^ ..A.i.d.B.,X<X,X3X3X7X<XoXy < H )..XS j ! / H / ",
"H G N z j h 7 8 l D D m 9 8 G ~ J G I F c 9 , - & * *.g.f.p.f.i.f.p.p.p.i.c.^ | ).n.0.Z.@X-X,X,X<X3X3X5X-XI r } +.&X$Xl h G I H ",
"m l j q 0 8 e S H D I _ ( m w m [ ~ V m x 9 3 - $ i a.p.i.p.p.p.p.p.p.p.i.b.| o._.V.n.C.=X=X,X,X,X<X<X7X-Xo.x I X.).;X`.q h N S ",
"h 2 < < , - S _ H m I ) ` } ( c l G ~ N q > : & $ &.f.p.p.p.p.p.p.p.p.p.i.n.| %.`.}.oXOX&X,X*X,X=X,X,X5X].(.H n } +.`.-X( < h h ",
"< 9 c / ( 9 8 _ ` / ` } } } O.O.H e l m l 3 - $ + &.i.p.p.p.p.p.p.p.p.p.y.n...(._.[.|.oXOXoX*X*X=X,X,X2X)._.) l / ` O.(.(.l < 1 ",
"S X.&X3X6X].e r X.o.o.+.o.+.+.o.o.( r < < 1 - @ # *.t.p.p.p.p.p.p.p.i.p.i.v...%.).[.}.{.oXoX&X&X*X,X2XoX(.`.(.l S / ` _ J D , e ",
".X;X<X<X=X;X[.w c O.@.].[.[.'.].@.] / e $ # @ # u 0.i.p.p.p.p.p.p.p.p.p.f.e.N.+.%.`.'.{.|.oXoX&X$X}.@.).`.O.(.m 2 D G n n x D O.",
"*XOX*X.Xo.&X5X[.w N +.].|.$X|.`.$.] I S w & . O i g.a.p.p.p.p.p.p.p.p.p.p.e.N.%.@.)._.`.[.|.[.`.@.o.@.&X[.O.(.H 7 q 0 w S ` ].$X",
"}..XOXoX[.%X,X4X@.q G O.|.$X{.X.o.| P x a , O . u 7.g.p.p.p.p.p.p.p.p.p.i.i.N.o.o.+.@.).).+.o.O.@._.`.`.`.@.` J 9 < y I +.].[.[.",
"'.[.oXoX*X$X*X;X3X) w J ] `.@.( P A 9 < #.Q.6     &.g.p.p.p.p.p.p.p.p.p.i.i.b.o.X.X.X.X.} X.o.+.O.} _ _ o.X.Q D < r _ +.%.%.(.].",
"`.'.[.[.oXoX$X&X&X-Xm w J / o.m q 1 9 V.wXcXQ.=   i g.g.p.p.p.p.p.p.p.p.i.p.b.} } ] } ] I _ ` ~ ! J G G J J J r 3 I ` } } O.+.(.",
"+.)._.'.{..X{.`.].OX].1 n J J z j 0 9 yXuXcXQ.& o *.a.a.p.p.p.p.p.i.p.p.s.s.n.| ( ~ ~ Q V G J P G H J H J J D < c H H / } } X.+.",
"} ).%._.).).).).`.[.oXD , l j l 7 8 e E.>X>XK , = :.a.p.p.p.p.p.p.t.p.p.s.s.:.C G G D G Q V I Q J J J G D c 1 1 S H S H _ ` } O.",
"} | } O.+.+.(.(._.].].! , - 8 r x S F L S 8 1 , 5 9.r.p.p.p.p.p.i.t.p.p.s.i.:.C G G G J J G G N m c l r 8 8 < < z D m H ~ ( _ ] ",
"} } |  .O.+.(.(.)._.(.H < l D H I L D M l 8 1 , p 6.p.p.p.p.p.p.i.t.p.p.i.i.e.C n z x l l w w w w l c D / } D , 1 m F J ( ( _ ` ",
"` } X.X.O.o.(.(.@.(./.S w S l m P P D c y 8 3 ; a 7.p.p.p.p.p.p.8.t.p.p.p.p.9.a r y y y w 7 4 l m D ! ] X.o.].S - 0 m F ! / / _ ",
"( _ ` ` } X.o.o.X.X._ z r S l m G F D c 9 3 ; ; p 7.p.p.p.p.p.p.8.t.p.p.p.p.0.Z L L C C C b w m N m / o.+.).[..Xr - 0 z N G I ( ",
"V G H ! / ~ I J G G G h e c S G L D M x 9 < - % s p.p.p.t.p.p.p.8.8.p.p.y.t.y.c.^ ^ [ ~ U C w m I ( } ).[..X{.;X`.< 1 2 0 l z N ",
"0 j z z z z z z z n m q 2 2 k c M V M x 8 ; - % &.p.p.0.t.p.p.p.8.i.a.p.q.d.s.b.$.$.| | | Y 9 x I ` O.).{.$X&X-X;XI , 7 1 1 1 0 ",
"8 3 3 3 7 8 7 4 1 1 , < 1 1 0 r l l l w < , - % -.p.t.8.p.p.p.i.8.i.p.f.w.w.f.n._._.).).$.C 7 j N G / { /.].XXXX+X/.< & e e 8 1 ",
").+.X.] ( I P D S S x r e 8 1 < 1 2 2 < , - $ % -.p.t.8.p.p.p.t.8.8.p.i.:.Z.f.n.@X@X@X'.[ B 3 ; 1 l z c J J G D H l e X.&X$X$X].",
"qX0X0X8X7X5X3X3X-X-X$X[.(.X.( F r ; , , - $ @ = :.r.8.8.p.p.a.p.8.a.a.p.;.n.f.v.N.}.}.^ b 0 9 U X.].+.S & , ( _ : w 6X0XqXqX0X0X",
"9X8X7X7X5X7X3X<X1X1X1X;X;X=X.X{.+.S - # $ $ @ u 7.y.8.t.a.g.g.g.y.p.a.f.;.c.q.e.N.$.~ C j y oX8XqXqX0X6XX.e / &X8 X.lXqXqX9XqX0X",
"5X3X3X3X<X,X,X,X,X,X*XOX%X%X).).'.+.F , # # # u -.8.6.7.p.a.q.-.p u i &.s a ;.;.Y [ Q b e `.6X;X;X;X;X5X6X$XS < e =XqX9X9X7X1X5X",
"3X3X3X<X,X,X,X,XOX*X%XoXoX{.[.'.%.+.| D ; $ + % 5 5 5 p i p * o #     X ' | Y M r r b 4 X.*X$X$X*X=X=X%X%X$X.Xw x 6X9X5X8X1X'.%X",
"<X<X<X1X,X,X=X,X*XOXOXoXoX[.[.'.@.+.X.( r # $ y L t $ # .             X ' oXOX|.o.e & F `.@.).{.{.%.`.`.@.O.O.S ( 0X9X4X5X1X%X,X",
"1X,X,X,X,X*X*X%XOXOXoX.X[.[.'.).%.] / ) r & t ( P 4 . . . .         X t %.}.'.).[.X.4 H } } O.+.+.) } +.X.X.` S `.6X3X3X2X3X3X1X"
};
