/* XPM */
static char *_e4c8fbf07794a45f7d36439f80b7a9dY0lJ9N0in6dJzhP9[] = {
/* columns rows colors chars-per-pixel */
"64 64 249 2 ",
"   c #000000",
".  c #080707",
"X  c #0A0B0D",
"o  c #130A0C",
"O  c #0D0D12",
"+  c #0E0F19",
"@  c #0F1115",
"#  c #13161B",
"$  c #14161A",
"%  c #2A120F",
"&  c #212617",
"*  c #161922",
"=  c #1A1D23",
"-  c #191C28",
";  c #1D2125",
":  c #1E222A",
">  c #1F2232",
",  c #21252D",
"<  c #24282D",
"1  c #342D29",
"2  c #212533",
"3  c #252A34",
"4  c #292D35",
"5  c #22263A",
"6  c #252A3A",
"7  c #292E3A",
"8  c #2A3037",
"9  c #2C323C",
"0  c #333436",
"q  c #511816",
"w  c #6C1315",
"e  c #611B20",
"r  c #492D33",
"t  c #6C302D",
"y  c #2C5512",
"u  c #4E4E0F",
"i  c #6E4C12",
"p  c #506E09",
"a  c #737508",
"s  c #5A4A34",
"d  c #754A25",
"f  c #262B41",
"g  c #2A2E46",
"h  c #2D3243",
"j  c #2E334C",
"k  c #303644",
"l  c #343A45",
"z  c #343A4B",
"x  c #353C4C",
"c  c #2F3350",
"v  c #353B52",
"b  c #363B55",
"n  c #383D60",
"m  c #733E50",
"M  c #3A414C",
"N  c #3C4454",
"B  c #3D445A",
"V  c #3F4859",
"C  c #3D4363",
"Z  c #524C4F",
"A  c #434956",
"S  c #434857",
"D  c #434B5C",
"F  c #49515D",
"G  c #6D564E",
"H  c #4C6240",
"J  c #6F7148",
"K  c #787343",
"L  c #444C63",
"P  c #464D68",
"I  c #495364",
"U  c #4B5364",
"Y  c #4C556A",
"T  c #4F596B",
"R  c #565A6A",
"E  c #525A6D",
"W  c #484D76",
"Q  c #4D5572",
"!  c #545D72",
"~  c #545B7A",
"^  c #6D5A69",
"/  c #55606F",
"(  c #576175",
")  c #5A6275",
"_  c #586379",
"`  c #5B657B",
"'  c #5E687E",
"]  c #796C6B",
"[  c #646775",
"{  c #626A7D",
"}  c #941110",
"|  c #A90301",
" . c #B30403",
".. c #BB0000",
"X. c #AC150E",
"o. c #9D2319",
"O. c #AE2B1C",
"+. c #992625",
"@. c #8B2F32",
"#. c #AA2826",
"$. c #B32927",
"%. c #B03434",
"&. c #B93636",
"*. c #C70102",
"=. c #D70101",
"-. c #CA1915",
";. c #E60906",
":. c #FA0D16",
">. c #E61515",
",. c #EA1717",
"<. c #E61C1B",
"1. c #FF1522",
"2. c #FF1C25",
"3. c #FC172F",
"4. c #C62926",
"5. c #D12023",
"6. c #D52927",
"7. c #DD2E2A",
"8. c #CD332D",
"9. c #DA342E",
"0. c #C93934",
"q. c #D63A32",
"w. c #E72724",
"e. c #E22E2B",
"r. c #EC2D2A",
"t. c #FD2227",
"y. c #F52628",
"u. c #FA2528",
"i. c #F32B2B",
"p. c #E6312C",
"a. c #E9312C",
"s. c #E43D29",
"d. c #F5342E",
"f. c #F03032",
"g. c #FE3832",
"h. c #93520D",
"j. c #AB541A",
"k. c #945C38",
"l. c #BB4935",
"z. c #A65639",
"x. c #B45339",
"c. c #8A663F",
"v. c #94683A",
"b. c #D3462D",
"n. c #C54533",
"m. c #E74238",
"M. c #923D44",
"N. c #A73D45",
"B. c #884953",
"V. c #A7424C",
"C. c #866B41",
"Z. c #976E48",
"A. c #AC774F",
"S. c #8F776B",
"D. c #EC5349",
"F. c #D66D56",
"G. c #D06B5B",
"H. c #ED6858",
"J. c #EE6B5B",
"K. c #ED7865",
"L. c #F5726A",
"P. c #308400",
"I. c #508E01",
"U. c #349950",
"Y. c #18AB57",
"T. c #06BA5C",
"R. c #13B55B",
"E. c #27A756",
"W. c #35A053",
"Q. c #4A8E4D",
"!. c #59864A",
"~. c #648349",
"^. c #00C05E",
"/. c #00C962",
"(. c #00D967",
"). c #00E36B",
"_. c #A6B35B",
"`. c #AC8D73",
"'. c #A8A366",
"]. c #CC9875",
"[. c #EB8A73",
"{. c #D2A97B",
"}. c #535C82",
"|. c #5C6781",
" X c #5F6A81",
".X c #636D83",
"XX c #616C8A",
"oX c #667086",
"OX c #6A7185",
"+X c #677289",
"@X c #6B758B",
"#X c #6D788E",
"$X c #70778B",
"%X c #717A8E",
"&X c #6C7893",
"*X c #737D94",
"=X c #737E99",
"-X c #7C848A",
";X c #758096",
":X c #76829A",
">X c #7A8499",
",X c #7A849C",
"<X c #7E89A1",
"1X c #7D89A4",
"2X c #8C8A8E",
"3X c #B29786",
"4X c #ACA79C",
"5X c #838CA4",
"6X c #8590A6",
"7X c #8691AA",
"8X c #8A93AC",
"9X c #8C98B2",
"0X c #929CB5",
"qX c #939EB9",
"wX c #98A3BC",
"eX c #F29587",
"rX c #D2AF90",
"tX c #EAAB8B",
"yX c #E8BA9A",
"uX c #F2BB97",
"iX c #CD9FA3",
"pX c #F6B8B3",
"aX c #D1D19A",
"sX c #EBC39E",
"dX c #F2C19C",
"fX c #E8C6A6",
"gX c #F3C5A3",
"hX c #F4C9A6",
"jX c #FAC9A6",
"kX c #F4CBAA",
"lX c #FACDAB",
"zX c #F8D3AC",
"xX c #F9CDB5",
"cX c #F9DAB5",
"vX c #F5E2BA",
"bX c #FBE4B9",
"nX c #FEE3BC",
"mX c #99A7C2",
"MX c #F9BDC1",
"NX c #DCCFD6",
"BX c #F1CFCA",
"VX c #FDE8C4",
"CX c #FEEBC4",
"ZX c #FDF3CB",
"AX c #F0E7D6",
"SX c #FEFBD6",
"DX c #FCF6E9",
"FX c #FDFFF5",
"GX c #FFFFFE",
/* pixels */
"5X5X<X<X,X,X,X:X*X*X*X@X@XOXXX.X.X! U ! l 7 $X>X-X>X>X>X5X*X*X*X%X$XOXOX{ [ / / R ! 4 x Y U T E ! ! ! ! T T L M :X9X7X7X7X6X6X<X",
"<X,X,X,X,X>X*X*X*X*X@X@XOXOX.X{ [ ) ! ! h S >X%X*X%X%X%X$X$X$X{ [ [ ) E R U R U U T 0 2 N B D D L I U U U T l N 9X7X7X<X6X<X<X6X",
",X,X,X,X*X*X*X*X$X$X#X+X.X{ ~ ) ~ ! E L l ) OX! ) @XOX{ [ [ [ / R U F D A S S S D D 0 * 7 x x N V V D D D B : T 9X:X:X<X<X<X,X<X",
"#X,X;X*X*X&X@X@X.X.X.X` ` ` ` ! ! ! E B N OX{ U R { [ ^ ^ N.&.0.q.9.p.y.p.8.%.+.t r 4 $ * : 7 7 9 h h h f > <  X<X:X;X1X,X,X<X#X",
"@X&X@X@X+X+X.X.X X.X{ ` T T ! ! ! E E x S .X` ! ^ N.&.n.2.p.z.q.r.i.9.z.9.2.q.9.2.p.$.q @ + + * * - : - > : 3  X;X:X:X;X;X;X*X+X",
"#X+X+X+X+X.X.X.X X` ` ` U L ) ! ~ E P 9 U [ B.l.y.z.R.q.l.^.U.w.i.p.y.!./.z.p.Y.c.u.q.t.$.q + + + # # = ; ; ; I :X&X&X#X#X#X@X#X",
"@X+X+X+X.X.X X' ` ` ` ` ! ! ! ! E E b h G e.C.!.b.(.!.1.E.W.2.y.p.p.i.2.Q.T.t.c.).n.J J t.i.o.@ # # * ; 2 3 = 3  X&X#X#X&X@X@X@X",
"OXoX.X.X.X.X' ' { ` ` ~ [ ! ! ! E Y 6 @.u.0.(.k.l.E.c.0.x.W.l.t.a.p.u.q.W.z.8.v.E.z.x.).z.t.a.4.# # - : 3 9 9 # N :X.X@X@X+X@X+X",
"+X.X.X.X.X' ' ' ` ` ) ~ ! ) E E Q v $.Q.9.z.T.K 0.2.Y.^.l.!.T.q.i.i.p.Y.Q.l.R.^.y.9.c.T.c.i.Q.9.$.@ # ; : 4 k 3 : _ +X.X+X+X+X+X",
".X X.X X` ' ` _ ` ! ) E ! E E Y b 4.x./.x.t.z.T.^.c.n.~.c.1.n.n.i.r.b.l.2.z.~.l.c.T./.k.i.n./.v.1.#.# # = 2 9 x : h  X' .X+X+X.X",
".X'  X` ` ` _ ) ~ ) ! ) ! Y B j @.2.x.^.K x.l.c.~.~.i.1.t.a.y.r.p.p.r.t.a.u.1.u.K ~.c.l.l.c.T.c.1.a.w # * , 4 l h : C .X'  X.X X",
" X` ' ` ` _ ( ( ! ) ! Y B c g r c.K 2.J Y./.E.r.:.2.a.p.r.<.>.>.<.>.>.,.>.w.p.p.t.:.u.W.^.R.!.t.v.K 2.# # = 2 0 N 3 9 Q '  X X X",
"_ _ ` _ ( ! _ ` _ U v j g g g 5.Q.T.7.t.x.K 9.t.a.r.<.>.r.D.H.K.[.K.[.J.D.a.<.>.w.p.y.p.c.k.d.r.Y.E.2.e $ = , 9 M N > M Q  X_ ' ",
".X( ! ` ' ' ) Y B j j j c f 1 1.K ^.K ~.Q.a.2.r.,.<.D.[.uXkXcXcXvXvXvXcXcXgXeXH.r.>.w.t.y.!.!.c.T.!.1.w.# = ; 4 M V M 3 C T ' ' ",
"` .X.X{ ( L b j j j j j 7 3 M.y.y.K Y.T.K i.w.>.D.tXcXvXcXkXgXgXgXgXgXgXgXkXvXvXuXK.w.>.y.c.R.Y.J p.t.q.1 = ; 8 h V T 9 6 C T _ ",
"T { .XD j j j j j j j 3 3 M G Q.t.a.n.x.2.,.p.[.vXvXhXhXgXgXgXgXgXgXgXgXgXgXgXgXcXvXuXD.,.1.l.l.9.t.!.J w ; ; < M V ( B > N B ( ",
"E ` P f 5 j j j j g < 3 v Z z.(.K l.E.J :.f.hXVXzXjXgXgXgXgXgXgXgXgXgXgXgXgXgXgXgXjXbXbXK.:.k.E.z.v.(.C.o.= : 3 l S R  Xl 3 b B ",
"B ! D j g j c j 9 , 7 x b G t.U.Y.^.R.>.g.VXSXlXdXjXcXjXgXgXgXgXgXgXgXgXgXgXgXlXcXzXdXcXSXeX:.U./.E.W.a.4.= : 3 l S E ` ' 3 j b ",
"j v c j c j 6 , ; 3 z U S M.y.p.C.C.;.g.ZXrXA.k.d d A.fXlXgXgXgXgXgXgXgXgXgXjXdXA.d d k.A.aXtX1.k.K 9.t.8.$ , 4 l D R [ &XN : c ",
"c j j j 5 ; < l 3 - z T B N.e.i.f.:.g.pX'.A.].{.].Z.d tXzXgXgXgXgXgXgXgXgXgXzXrXi Z.].].].`.'.K.:.y.a.p.7.$ , 4 l Z ! ) T Q 9 3 ",
"h g 2 : 9 U +X1X! : 6 N D V.p.a.w.>.pXrXtXCXkXkXSXVXjXgXgXgXgXgXgXgXgXgXgXgXgXgXjXVXZXkXkXbXrXaXJ.;.a.p.7.: , 4 l N D C P ~ L : ",
"* : l { 7X0X8X8X<XM - j B %.a.p.;.K.SXbXrX%   . s kXcXgXgXgXgXgXgXgXgXgXgXgXgXgXcXlXZ .   % yXZXAXm.>.r.7.= : , 4 z N L P }.B - ",
"M OXqXwX0X8X5X>X5X' 3 6 j %.r.w.<.BXZXyX, -XZ     1 bXhXgXgXgXgXgXgXgXgXgXgXgXjXbXr     Z -X& rXFXpX;.r.7.$ - : > 7 B L ~ D # : ",
"wXmX0X8X5X5X,X*X*X=XM - 9 %.e.;.L.GXcXd [ GXZ       ].bXgXgXgXgXgXgXgXhXgXgXgXnX].      Z FX[ t CXGXH.>.8.$ * : 3 h C Q x $ l =X",
"wX9X6X5X5X,X=X*X$X%X~ 3 : %.r.;.BXDXbXG ; 0         `.bXgXgXgXgXhXgXhXgXgXgXgXCX`.        0 = G cXGXMX;.8.* * : 6 B N : 3 ' wXmX",
"5X>X5X5X,X>X*X#X#X.X.Xx > $.<.D.GXcXzXrX            yXcXgXgXgXhXdXtXuXhXgXgXgXzXyX            rXzXAXGXp.$.$ - 2 7 > $ M 1XwXwX9X",
",X*X,X,X=X*X#X+X.X` ` D 2 8.;.eXGXdXdXnXG     .   S.bXgXgXgXgXhXuXrXtXhXhXhXhXgXCX`.  .     G nXuXzXGXL. .$ * $ + @ D :X1X5X5X5X",
"5X<X,X:X#X+X.X X` ` ! S 5 8.;.MXGXuXdXjXcX`.G s `.cXhXgXgXgXgXkXkXsXfXbXzXvXcXzXcXSX4XJ G `.bXhXuXjXGXeX} O X O X , .X#X;X,X,X1X",
";X*X&X@XoX.X X` ` ! ! v 9 w.w.AXGXuXdXgXhXnXnXnXnXjXgXgXgXhXzXsXD.m.G.tXzXK.q.tXyX[.L.H.lXSXzXyXgXdXGXpX} X # , : < ` oX#X;X;X&X",
"#X@X+X+XoX X` ` ) ~ T l r w.4.NXDXuXgXgXgXhXhXhXgXhXgXhXhXuXvX[. .*.*...-.....-.-.....*.b.CXuXkXgXuXGXpX% $ * 8 k 8 ( +X#X#X;X#X",
"@X@XoX.X X' ` ( ! ! U k @.w.%.4XDXuXdXgXgXgXgXgXgXgXgXgXkXyXq.5.| | ..*.*. . ...=.*. .| -.7.[.cXuXuXGXiX@ $ : M M 9 ( @X` ( &X#X",
"oX.X X X' ` ` ! ! E D 7 8.w.B.E FXuXgXgXgXgXgXgXgXgXgXgXgXZXp.*.*.*.*.=.=.*.=...*.=.*.*...=.kXzXgXuXDXZ $ ; 8 S F 9 T @X' _ +XoX",
".X.X` ` _ _ ! ! ! Y N 7 p.y.Z U AXuXgXgXgXgXgXgXgXgXgXgXgXcXuX-.| =.;... .=.;.| | =.;.| | [.vXgXgXuXNXX # : k I E 9 E .X+X+X.X.X",
"` ` ` ` _ ! ! I I D h 3 M.M.D D ) gXgXgXgXgXgXgXgXgXgXgXgXuXbXfX .*.=.n.'.9.*.5.'.*.=...[.CXhXgXgXgXZ $ # 7 M ( D 3 T  X.X.X.X' ",
"` ` ( ( ! ! I N N N 7 3 C U U D L ] gXgXgXgXjXdXgXgXfXhXgXgXgXZXF.X.j._.aX~.h.v.SXG.X.b.ZXkXgXkXsXG l 3 * 7 x L M 3 U ( ` { ` ` ",
"! ~ ! E I B V V N h 3 9 C Y U Y U L ! 3XgXgXgXjXfXcXvXvXcXcXxXVXaXjXxX_.P._.aXI.{.cXyX_.xXgXsX`.Z S S F 3 - j v 4 ; L T T ( ( ~ ",
"E I L D V N N v f > : 4 L P L E ! T T T ) S.2X2X2XS.G.H.K.J.K.F.S.rXC.G.a A.F.I.G J `.^ ] G M x S I [ ) S = > 9 h 3 h I U I T E ",
"S D D D N z g > > 3 9 ; 4 L P P T ! ! ! E T E Y U %.>.>.,.,.,.,.w y p X.m.-.p j.i y y # , 9 r N F ) OX#X' 9 ; N ' #XM f L D D L ",
"D N x z f f 3 3 9 N N M 4 2 D Q P P Q _ ` ! T ! N.r.e.r.p.a.f.i.i & P.h.3.8.j.3.h.I.u H , 4 l Z R ` $X-X*XS 7 ! ' :X;Xh f B D D ",
"l j f 5 6 3 3 N V V D L Y x 7 x Q Q P P Q ! _ ^ p.p.r.e.a.r.i.b.a   w b.j.h.w.j.%.i.t p 0 4 0 S R [ $X6X;X` h D ( ' 1XoX7 f z x ",
"f > : : ; - x Y B x D T T ! U h h L ~ W L L P q.a.a.p.p.a.a.a.s.6.q 3.b.I.p h.h.s.u.u.& < , 0 M F [ #X5XoX XV k ! ' oX1XI : f f ",
": 6 l I U 3 3 Y Y Y E E ! ! ( ` D h z Y ~ P m p.a.a.p.a.a.a.p.r.a.p.a.;.i u i O.m.g.i.$.= ; 3 l F ) OX>X'  XT h U T ( |.|.h : > ",
"N ) :X8X7X' 8 h ! _ _ _ _ ` ' ` .X( M 9 b W V.g.a.p.p.a.a.a.a.p.a.r.w.H.].eXF.q } o.d.r.1 $ < 9 S R OXoX' .X' h x I T Y P N ; 8 ",
"&X<X5X7X1X7X#X8 l ( ' +X#X#X#X#XOX@X.XI l f t #.g.a.p.a.a.p.a.a.a.<.D.vXbXbXZXS.    w g.+.= < 9 x F U (  X_ .Xx 7 b B z j k N ` ",
"=X=X1X%X` ,X9X+X7 v _ @X=X>X,X*X*X*X#X#XoXx     } g.9.a.a.a.a.a.a.<.D.kXhXgXzXVX1     7.+.= : < 9 N L OX.X_  XD > 7 5 7 x T @X*X",
"$X%X*X*X+X>X8X8X' 7 B |.*X5X5X#X5X8X,X*X{ +       p.d.p.a.p.a.a.a.w.f.dXzXhXzXbX1     o.@.# = , 0 S I ) { ' Q C 8 : 9 F _ oX#X@X",
"$X$X#X*X>X*X>X5X8XT 6 C ` ;X,X+X.X XQ L h         4.g.a.a.p.a.p.a.a.<.tXZXvXZX`.    . $.q $ = < 9 x N D ! ! L N , 9 Y ~ ` {  X.X",
"oX+X+X#X*X=X:X>X:X1XM 6 W ! :XQ C b C n O       . w.d.p.r.a.a.a.p.a.w.m.K.D.H.#.o.$.p.6.O $ * - 2 h x v B C C 9 , B E ! ! ` ` .X",
"~ .XOX@X#X=X#X.X#X=X+X3 v W ~ W C C b 9 &   .   q g.a.a.a.a.a.a.p.a.a.<.>.<.>.u.g.g.d.+.O @ $ - 2 g x b B C B : h L V U ! ! ` ` ",
"! .X.X.X.X.X.X.XOXXX=XB - x v v z M N 2XhXS.1 # 5.g.p.a.p.p.a.p.a.a.a.a.a.a.a.a.a.a.a.#.O + $ - 3 h v b x h 4 : M N M N Y T ! ( ",
"! ! ! ~ _ `  X.X.X+X+XP : - 9 x V / oXiXzXCXCXH.,.p.a.a.a.r.a.a.a.a.p.a.a.p.a.a.a.a.a.$.O + # - , < 4 4 8 8 : : j N x D Y I T Q ",
"R ! ! ! _ _  X.X.XOX XD , z D U T T ( rXgXkXyXm.w.p.a.a.a.p.a.a.p.a.a.a.a.a.p.a.a.a.a.#.X O O $ * , 7 v C / N ; > M N C L I T T ",
"E ~ ! ! ` ` _ ` '  X` M 3 N h v I T ( 3XyXfX3X0.r.a.p.a.a.p.a.a.a.a.p.a.a.a.p.a.a.a.p.$.. o O $ - 7 v Y E [ +XM * 5 x V L I I T ",
"U T E E ! ! ) ' ( ( Q j 9 N h x D I T 2XfXfX[ 5.a.a.a.p.a.a.a.a.p.a.a.p.a.a.a.a.a.a.p.$.O O O * , 4 N E ) .X&X#X9 * 5 j x B D I ",
"v D L L L L D D V B B f 3 x N N V L I T iX4X! <.a.a.a.p.p.p.p.a.p.p.a.p.p.a.a.a.a.a.w.#.@ @ O = 3 x F ` OX&X#X1XoX: > > 5 g j x ",
"6 f g j j j j c c c v 7 > 5 h x N L I Y ! ~ ! p.a.p.a.p.a.p.p.a.p.p.a.p.p.a.a.a.a.a.a.#.@ $ O # 3 v U ) @X;X,X,X1XD ; 3 > > > 5 ",
"2 2 , 2 2 2 2 , > : ; : > > 5 6 j x B D T / E 9.a.0.p.p.w.p.a.a.e.p.a.p.p.a.a.a.p.a.a.#.$ @ O $ > h N T |. X&X&X&X}.; # 4 8 > 3 ",
".X[ ! R U F S S M M k 9 9 3 > : 5 g j v B V L 9.a.0.a.e.p.a.e.a.7.e.a.e.e.a.a.a.p.p.a.#.@ O X X * : 6 h C C B B C j 9 ( :X:X;XoX",
"wXwXqXqX0X9X8X8X1X,X;X@X X( T D h , 3 j j j v 9.p.%.a.7.p.p.e.a.e.7.a.p.e.a.a.a.e.p.p.+.O O O , M I ( M - ; T T ; 9 7XmXwXwXwXwX",
"wX0X0X0X0X9X8X6X7X5X6X1X<X>X#X;X.XS , : 7 7 h 9.9.%.a.7.p.p.7.a.7.p.a.p.7.a.a.a.e.9.p.+.O O 8 U ` :X,X1X( 6 B :X4 ( mXmXwXwXwXwX",
"9X8X8X8X6X5X5X5X5X5X5X=X;X;XoXOX*X@XT 3 ; 3 3 +.8.&.g.u.a.r.f.d.7.7.a.f.a.d.d.g.g.p.p.q X < M F / OX;X5X9X;XM : 8 :XwXwXwX0X5X7X",
"8X8X8X6X5X5X5X5X=X>X=X*X*X%X#X#XOXoX+X! 8 < : 9 R B.$.#.r.y.4.a.a.p.g.7.6.g.4.4.o.w e O # 9 0 S / ' -X;X;X;X&X7 k 9XwX0XwX<X@X>X",
"8X6X6X6X5X>X5X5X>X=X*X*X*X$X@XOX.X{ .X XV ; < OX9X[ X   % % . o < r e o o %     . @ . # < < 9 V U / _ .X X_ ` M I wXwX7X0X6X;X5X",
"5X5X5X5X5X5X*X>X>X*X=X$X#X+XOX.X.X( E ( N ; F 6XS             . , ; 0               X # ; : 8 M V V I ( ( / T M .X9X8X8X6X7X8X6X"
};
