/* XPM */
static char *_7f17f8f3b974023dea8c3a8ff7b4bcehb91yAhOxJ1quv5F[] = {
/* columns rows colors chars-per-pixel */
"64 64 239 2 ",
"   c #010101",
".  c #080606",
"X  c #0A0B0C",
"o  c #140B0C",
"O  c #0C0E12",
"+  c #160F12",
"@  c #0F1014",
"#  c #111215",
"$  c #13141A",
"%  c #1B161C",
"&  c #16191D",
"*  c #231519",
"=  c #321011",
"-  c #171A22",
";  c #1A1D23",
":  c #181B28",
">  c #201D26",
",  c #1D2126",
"<  c #1E222A",
"1  c #1E2232",
"2  c #25252A",
"3  c #22252D",
"4  c #3A2B2C",
"5  c #212533",
"6  c #292737",
"7  c #252B34",
"8  c #292D35",
"9  c #23263A",
"0  c #252A3A",
"q  c #292E3A",
"w  c #2A3037",
"e  c #2C323C",
"r  c #3C3536",
"t  c #32343D",
"y  c #491717",
"u  c #731B1B",
"i  c #45261E",
"p  c #4F2E2F",
"a  c #47383C",
"s  c #6F2C30",
"d  c #56473D",
"f  c #5D632E",
"g  c #262B41",
"h  c #292E44",
"j  c #2B2F48",
"k  c #2D3343",
"l  c #2E334C",
"z  c #313643",
"x  c #343A45",
"c  c #3B3845",
"v  c #32354B",
"b  c #32314F",
"n  c #353B4C",
"m  c #3A3E4B",
"M  c #353B52",
"N  c #373B54",
"B  c #383D60",
"V  c #463C4D",
"C  c #713945",
"Z  c #3B414D",
"A  c #3C4454",
"S  c #3D445B",
"D  c #3F485A",
"F  c #3D4362",
"G  c #454449",
"H  c #554A43",
"J  c #424553",
"K  c #424956",
"L  c #41465C",
"P  c #434B5C",
"I  c #4B4A5A",
"U  c #4A515D",
"Y  c #5A5252",
"T  c #6A4C4F",
"R  c #6A7B47",
"E  c #777344",
"W  c #726255",
"Q  c #444D62",
"!  c #454A67",
"~  c #4C4D6C",
"^  c #475063",
"/  c #4B5364",
"(  c #4F5A67",
")  c #4C556A",
"_  c #4F596C",
"`  c #555768",
"'  c #525B6D",
"]  c #4D5573",
"[  c #545D73",
"{  c #585F72",
"}  c #525B7B",
"|  c #6E5466",
" . c #566175",
".. c #5A6275",
"X. c #576279",
"o. c #5B657B",
"O. c #5E697E",
"+. c #766469",
"@. c #646578",
"#. c #626A7D",
"$. c #901D1A",
"%. c #8B2726",
"&. c #9B2C2E",
"*. c #873237",
"=. c #A72A28",
"-. c #B82B2A",
";. c #AF3131",
":. c #B93637",
">. c #DB1915",
",. c #E40805",
"<. c #F30E11",
"1. c #E61716",
"2. c #C12C1E",
"3. c #E3211D",
"4. c #FB1A23",
"5. c #C92C29",
"6. c #D32624",
"7. c #D42D2B",
"8. c #DC2D2B",
"9. c #CD312E",
"0. c #D4342E",
"q. c #DD322D",
"w. c #C93735",
"e. c #D33533",
"r. c #DC3431",
"t. c #D53B32",
"y. c #E92625",
"u. c #E52E29",
"i. c #EB2D2B",
"p. c #F82528",
"a. c #F22A2A",
"s. c #E5312C",
"d. c #E8312C",
"f. c #F4342E",
"g. c #E63533",
"h. c #FC3631",
"j. c #FC3933",
"k. c #915535",
"l. c #A65739",
"z. c #B05037",
"x. c #8C653E",
"c. c #93633E",
"v. c #C74334",
"b. c #D14134",
"n. c #E9413A",
"m. c #913D48",
"M. c #AD3E44",
"N. c #C03F42",
"B. c #8F4650",
"V. c #864954",
"C. c #AE474E",
"Z. c #876A42",
"A. c #836F4A",
"S. c #AC775B",
"D. c #825765",
"F. c #8C746E",
"G. c #EB4946",
"H. c #F0514B",
"J. c #EC625E",
"K. c #F16F69",
"L. c #1D9144",
"P. c #379A51",
"I. c #389B52",
"U. c #1BAD58",
"Y. c #0AB45A",
"T. c #29A354",
"R. c #35A254",
"E. c #56884B",
"W. c #498F50",
"Q. c #918472",
"!. c #B18F75",
"~. c #EE8A77",
"^. c #CDA07C",
"/. c #545D83",
"(. c #5A6483",
"). c #5F6A81",
"_. c #5B6689",
"`. c #636D83",
"'. c #606B8D",
"]. c #667086",
"[. c #6A7286",
"{. c #66728A",
"}. c #6B758B",
"|. c #6E788D",
" X c #7A7389",
".X c #71798E",
"XX c #666D90",
"oX c #6E7A92",
"OX c #677499",
"+X c #737D94",
"@X c #727E99",
"#X c #6A75A1",
"$X c #768097",
"%X c #76829A",
"&X c #7B859C",
"*X c #7B869C",
"=X c #7C88A3",
"-X c #7E8AA2",
";X c #80889F",
":X c #BA9B83",
">X c #BCA38E",
",X c #838CA4",
"<X c #838FA9",
"1X c #8690A7",
"2X c #8691AA",
"3X c #8A94AC",
"4X c #8B96B1",
"5X c #8D99B3",
"6X c #8899B5",
"7X c #929CB5",
"8X c #939EB9",
"9X c #95A1BB",
"0X c #9AA5BE",
"qX c #F49190",
"wX c #D5AB8C",
"eX c #C3AB9B",
"rX c #DDB495",
"tX c #F5A896",
"yX c #E7B897",
"uX c #F1BB96",
"iX c #F0B9AD",
"pX c #EDC09E",
"aX c #F2C19E",
"sX c #DCD7B3",
"dX c #F3C4A3",
"fX c #F6CAA8",
"gX c #F1C9AC",
"hX c #F7D2AE",
"jX c #F7D9B5",
"kX c #F8E3BB",
"lX c #99A7C3",
"zX c #C7C7C8",
"xX c #F7DCC4",
"cX c #F7D1CF",
"vX c #F7E7C6",
"bX c #F9EAD4",
"nX c #F6E9E6",
"mX c #FEF2F3",
"MX c #FFFEFE",
/* pixels */
",X,X-X-X*X&X&X+X+X+X.X}.}.XX[.@.#.[ / [ k 7 #.$X[.|.#.$XE.@X X[.[.[.[.#.@. . .{ { ` 8 x ) / _ [ [ [ [ [ [ _ D Z $X6X2X2X1X2X1X,X",
"-X*X*X*X*X@X+X+X+X+X|.}.}.`.`.`... .' _ e Z ].@...@...@.....`.@. .` ' ` / ( ( U / ` t 3 S L P ^ ^ ) ) / ^ _ Z A 6X-X2X-X-X-X,X-X",
"*X=X*X*X@X+X+X+X.X|.}.[.`.`.{ { ' _ / A e U / J K U Y U U U U U I K J J S V G G J J t - q A A D D ^ ^ P P D 1 ( 6X*X%X-X-X-X*X-X",
"}.*X+X+X+XoX}.[.[.`.`.o.O.(.{ | V.C.w.0.s.d.s.d.d.s.s.s.d.d.s.d.s.i.y.8.A.W.k.-.s c 8 $ - 5 k k n n n v l 1 < O.-X*X%X=X*X*X-X|.",
"[.oX}.}.{.{.`.`.).).O.o.) ` V.M.s.s.d.d.d.d.d.d.d.d.d.d.d.d.d.i.4.t.b.z.f L.9.4.7.T ; # $ $ : : 1 1 1 0 1 1 7 ].%X%X%X$X$XoX%X{.",
"}.[.[.{.{.`.`.`.).O.O.o./ T e.i.d.d.d.d.d.d.d.d.d.d.d.d.d.d.i.p.4.E I.l.Z.I.R 5.f.S.r X O $ & - < < < < 3 3 , ) =X{.oX}.|.|.}.|.",
"}.{.{.{.`.`.).O.O.o.O.o.| e.g.i.u.d.d.d.d.d.d.u.d.d.d.d.s.d.a.s.t.E.T.Z.v.Z.I.k.G.dXQ.X O @ & ; < 0 e k x z < w OX}.oXoX|.}.}.}.",
"[.{.`.`.`.`.).O.o.o.{ @.C.i.i.g.d.d.d.d.d.d.d.d.d.d.d.s.d.a.a.E.R z.c.W.R.l.1.3.~.hX:X2 O $ - < q k Z A D D Z & D %X{.}.}.}.{.{.",
"`.`.`.).).O.O.O.o.o.{ D.s.s.d.d.d.d.d.d.u.d.d.d.d.d.d.d.i.4.d.U.T.l.l.E Z.b.<.h.aXkXwXd O $ - < 0 k Z Z D D D e 1 ).{.`.{.{.{.].",
"`.).`.).O.O.o.o.{ { [ C.u.i.d.d.d.d.d.d.d.d.d.d.d.d.d.d.d.t.u.x.W.T.R.c.y.4.<.K.hXhXrXd O # - < e n A D ^ D ) _ 1 Z OX).`.{.].`.",
"`.).O.O.O.o.o. .{ { { C.d.d.d.d.d.d.d.d.d.d.d.d.d.d.d.a.q.W.x.y.z.E.E 0.4.,.n.pXkXfXrXd O $ - 3 e Z D / _ ) _ _ D 7 ) ).).).`.`.",
"O.O.O.o.X.o. . .{ X.[ w.d.d.d.d.d.d.d.d.d.d.d.d.d.d.d.p.3.P.Y.x.R A.a.4.3.>.~.kXhXdXrXd O $ ; 7 k Z D / _ _ _ _ X.e e } O.).O.O.",
"o.o.o.o. .{ X.o.o.^ M e.d.d.d.d.d.d.d.d.d.d.d.d.d.d.d.i.y.z.R.T.T.c.p.p.1.H.jXjXdXpXrXH # & ; 7 x A ^ _ [  . .X.O._ 7 A [ O.X.O.",
"`.[ [ o.O.O. .) S l j r.d.d.d.d.d.d.d.d.d.d.d.d.d.d.a.q.l.0.v.E x.s.p.1.s.uXkXfXdXaXrXH # & < 8 Z D ( X.O.O.O.O.O.`.D 0 F ] o.O.",
"o.`.`.O. .Q N l j l b s.s.s.d.d.d.d.d.d.d.d.d.d.d.u.p.0.R.P.b.x.E b.<.1.~.kXgXaXdXhXyXd # & , 8 Z /  .O.].].`.`.{.].).e j F _ o.",
"' `.#.S l l b v l b j s.s.d.d.d.d.d.d.d.d.d.d.d.d.d.p.i.x.Y.U.Y.c.4.<.H.dXkXdXpXjXhX^.d & ; < e A ( o.].{.{.$X$X}.{.$X_ 7 A S [ ",
"_ o.! j 9 j b b l k 1 s.d.d.d.d.d.d.d.d.d.d.d.d.d.d.s.a.4.l.E.x.b.<.f.~.kXfXaXjXaXl.f i $ , 3 t K ` #.}.|.$X$X$XoXoX|.$XZ 7 S S ",
"N  .S j k l b l e < w q.d.d.d.d.d.d.d.s.d.d.d.d.d.i.d.v.l.a.a.R E 3.n.aXkXfXfXhX!.k.!.d $ , 7 t U { ]..X*X*X%X*X%X$X$XoX).7 j M ",
"v M M l M l 0 < , 7 v r.d.d.d.d.d.d.d.d.s.d.d.d.d.i.p.v.R.I.R Y.k.3.K.jXfXdXhXyX^.aX>Xa & , 7 Z U ..[.$X*X-X-X-X-X-X%X$X%XD < l ",
"b l l l 1 < 1 x 8 < v r.d.d.d.d.d.d.d.d.d.d.d.d.d.d.a.i.c.U.Y.E.1.p.tXvXaXaXdXaXhXkXQ.2 & , 7 Z U ...X*X-X2X3X3X3X-X*X|.} ] k 1 ",
"e l 5 < e ^ {.-X[ , 0 r.d.d.d.d.d.d.s.i.d.s.d.d.d.d.d.i.a.z.x.b.<.G.fXvXaXaXfXaXkXjXE o $ , 7 Z U #.$X,X4X7X6X6X=X$X'.} ] } F < ",
"- < x ..2X8X5X3X=XZ : d.d.d.d.d.d.d.d.d.s.s.d.d.d.d.d.d.a.4.p.p.,.J.hXjXfXaXaXfXkXhXd X @ - < z U #.$X-X1X2X-X%X{.(.} } } /.D < ",
"Z [.9X0X7X2X*X*X-X).7 d.s.u.d.d.d.d.s.d.d.d.d.d.d.d.d.d.d.a.p.i.y.K.xXhXaXaXaXaXjXhXW + @ - < e K  .}.*X*XoX'._.} ] /./._.D & < ",
"9XlX9X2X1X,X*X%X+X+XA d.d.d.d.d.d.d.d.d.d.d.d.d.d.d.d.d.d.d.d.3.y.qXxXfXfXaXfXaXfXfX!.p O $ , 7 Z / O.*X*X(._.'.(.} _._.Z # Z $X",
"9X5X1X,X;X*X+X+X.X.X{ i.d.d.d.d.d.d.d.d.d.d.d.d.d.d.d.s.d.d.s.1.g.iXvXaXdXdXdXdXaXaXhXY . # & w l S ] ).OX'.'.'.OXOX] w 7 {.lXlX",
",X*X1X*X;X@X+X+X}.`.).q.d.d.d.d.s.d.d.d.d.d.d.d.d.d.s.i.d.d.d.,.G.cXbXuXaXdXdXdXaXfXfXW . . X & k F ] ] ).'.'.#X'.S 7 D -XlX9X6X",
";X%X*X*X@X+XoX[.`.o.X.w.s.d.d.d.d.d.d.d.d.d.d.d.d.d.d.d.d.d.u.,.J.nXbXuXdXdXdXdXaXfXaXT X # , O @ 0 A ] _._.} D 1 - O.lX6X6X-X-X",
"-X,X$X$X}.{.`.O.o.o.[ :.s.d.d.d.d.d.d.d.d.s.d.d.d.d.d.d.d.s.y.,.qXMXbXtXdXdXdXfXaXaXrXd ; 8 x x , @ < 0 x l w < - Z -X=X*X-X-X-X",
"$X$XoX}.].`.).O.o.o.] *.g.d.d.d.d.d.i.s.d.d.d.d.d.d.d.d.d.d.1.3.cXMXxXuXaXdXdXdXfXdXrXY , 2 t U / < , , 7 Z D O.D Z %X%X$X$X$X}.",
"|.{.}.{.].).O.o.{ [ ) m.d.d.d.d.s.d.d.d.d.s.d.d.d.d.d.d.s.i.,.J.nXMXxXuXdXdXdXdXdXdXrXY , , Z U O.D & w D [ ).$Xo.D oX%X$X$X$X}.",
"}.{.].`.O.O.o. .[ [ ~ p e.s.d.d.d.d.d.d.d.d.d.d.s.d.d.d.s.,.1.cXMXMXxXuXaXdXdXfXdXdX!.d 2 w Z ( O.].w e D ( `.=X].A ].$XO. .{.}.",
"].].).O.O.o.X.[ [ _ P a ;.s.d.d.d.d.d.d.d.d.d.d.d.d.d.u.1.1.qXmXMXMXbXaXaXdXdXdXdXdXQ.7 w Z K ( $X%XD 1 D  .$X-X$XA O.$X).o.{.{.",
"`.`.).#.o.X.[ [ [ ) A q m.r.d.d.d.d.d.d.d.d.d.d.g.d.1.,.3.qXmXMXMXMXnXfXuXaXdXdXfX:XH w x K ( @.$X;X#.t D O.oX2X$XZ X.{.{.{.].`.",
"O.O.X.o.[  .[ ^ Q P z 6 V e.d.d.d.d.d.d.d.d.d.i.i.i.g.~.cXmXMXMXMXMXMXvXuXaXdXdX:XY x Z K ` @.|.$X3X3XA z o.{.-XX.w  .`.].O.).O.",
"o.[  .[ [ [ ^ A A A 6 6 I M.r.d.d.d.g.s.9.9.u.u.3.n.qXcXmXcXcXcXzXnXzXeXeX!.!.F.Y Z K U ` @.[.$X;X3X5XO.k F [ (.S 7 _ X.O.O.O.o.",
"{ [ [ _ / P D D A l 1 t L | r.s.d.d.:.s s *.9.i.i.n.J.K.J.H.H.n.b.T U K d d G Z K U { @.#.|.$X&X,X3X9X-XZ g F F h , D [ / X. . .",
"' ) Q P D D A M g 5 3 8 Q ~ :.s.d.s.C x h p w.d.g.i.1.,.,.,.,.<.,.= , ; ; 7 t Z / { #.[. X+X;X,X1X3X9X3X .2 g k z w j ^ / ^ ) _ ",
"K L K L A v g 1 5 5 8 , 8 ! T e.d.B.I D c C w.d.d.d.u.u.u.d.d.d.h.$.+ & ; 3 z J ` #.[.+X$X;X;X,X1X3X7X1X$Xt < K ).oXZ k Q ^ D ^ ",
"S S M n h g 7 3 e A S n 7 7 I m.w.T P Q I T 0.d.d.d.d.d.d.d.d.s.f.f.u > ; 3 t K ' #..X$X&X;X,X,X1X3X3X7X-XP e [ o.%X$Xk g S P D ",
"v k h 9 7 7 7 A D D P / ) n 8 V ` ~ S L I T t.d.d.d.d.d.d.d.d.s.s.f.=.* ; 3 e J ` #.}.&X&X&X;X,X,X1X1X7X&X..z S X.`.-X].0 g n Z ",
"g 1 < < < ; n ) K n Q ( ) [ / x j ! ] ! ! m.e.u.d.u.d.d.d.d.d.d.s.d.=.* & 3 w Z / @.[.+X*X&X;X;X,X<X,X5X]._.D k _ O.{.=X^ < g g ",
"< 7 x U / 7 7 ) ) / ' ' [ [ [ o.L t n ) ~ M.r.u.d.d.d.d.d.d.d.d.d.s.=.* & , 8 x U ' #.}.+X@X@X;X&X*X,X1X`.]._ k ^ _ [ O.).k < 1 ",
"A ..*X3X6X{.w w  .X.X.o.o.O.O.O.`.[ m e V M.s.u.s.d.d.d.d.d.d.d.s.s.5.y & , < e J / ..`.}..X+X*X*X,X2X+X`.`.O.k Z ^ _ ) F A , w ",
"oX-X2X<X*X-X|.e k X.#.{.|.}.}.oX}.[.`./ V ;.d.d.d.d.d.d.d.d.d.d.s.d.j.%.$ , < w x K ` ..`.[.}.+X+X.X).O.].o.].n 1 S S M v k A o.",
"@X@X*X+Xo.*X5X}.0 M o.|.+X&X*X+X+X+XoX}.D.w.g.d.d.d.d.d.d.s.d.d.s.f.h.$.= $ , 2 8 m K / { #.#.#.o...#.*X}. .).D 7 9 6 q Z ( {.%X",
" XoX+X+X[.@X2X3XO.0 S X.+X=X,X.X,X2X;XoXD.e.d.d.d.d.d.d.d.d.d.d.s.j.6.y   X r Y t w x D U / ) [ o.`.].`.].).] F 7 3 k Q o.{.}.}.",
"}..XoX+X%X%X&X-X5X' 0 F o.$X*X{.`.`.} ! C 9.d.d.d.d.d.d.d.d.d.s.f.j.$..   4 :X>XW r e x m K / ' [ _ / )  . .F A , z )  .o.O.).{.",
"`.[.}.}.+X+X+X&X$X=XZ j ! [ @X] F N B B C q.d.d.d.d.s.d.d.d.s.i.f.j.u . . A.vXhXrX+.e t q x A S S F S S F S ! e 3 K _ [ [ o.O.).",
"o.`.`.|.oXoX|.{.}.+X{.7 N ] /.! ! F M g s g.d.d.d.d.d.d.d.d.d.d.f.h.-.= X Y sXgXdXF.q q 7 g n M A S S F F F A < Z D D ^ [  . .o.",
"{ O.`.`.`.`.`.`.{.}.@XK , n N N n n A ` C.g.d.d.d.d.d.d.d.d.d.d.d.d.9.= @ , W !.!.Y 7 q k v n N S F F A M z 1 1 Z D n D ) _ [ X.",
"[ [ { { o.o.).).`.{.{.^ , , g n L ' [. XC.g.g.d.s.u.s.s.d.d.d.d.d.u.0.y @ @ $ 5 q q k l v M M n v z k e w w < 1 k Z Z D ! / ) ' ",
"' [ { } o.o.o.).`.`.).F 3 v P ^ _ [ { +.C.f.g.d.d.s.q.s.d.d.d.d.d.d.7.u # @ $ - : 5 7 9 q 7 7 8 q k x A P [ A , 1 M D F / ) ) _ ",
"] [ [ [ o.o.O.O.O.O.(.Z w A k N ^ ) [ | N.d.d.d.d.s.8.s.d.d.d.d.d.d.7.u + O @ % > 2 6 6 6 5 3 k n A Q '  .O.{.Z : 1 n D Q ^ / _ ",
"/ ) ' ' { { o.X. .X.] l e M x n P / ( | w.d.d.d.d.s.8.u.d.d.d.d.d.d.d.u + + % : 6 t c V V z q x A n K o.O.`.}.oXe - 9 l M A P ^ ",
"M S P Q ! Q P S D A S g 0 n A A D ^ ) V.t.g.d.d.d.s.8.8.d.d.d.s.d.d.d.%.+ + ; > q c J I I V e v D / [ #.[.oX|.=X].< 1 1 9 h l M ",
"0 h j l l l l b l l M e 1 1 h n S Q ^ V.r.d.r.s.d.d.8.u.d.d.d.s.d.d.d.$.* + > 6 c J I ` ` I q z D _ o.`.}.%X*X*X-XP < 7 1 1 1 0 ",
"7 3 3 2 5 5 5 5 1 1 , < 1 1 1 k l M S B.g.s.e.r.d.s.8.8.d.d.d.u.8.d.f.=.* % 2 6 c I ` @.@.V 7 g Z S F ] `._.OXOX#X(.< & w w 7 1 ",
"#.O...' ' P K J Z Z k e w 7 < 1 1 k l *.d.w.:.e.d.u.8.7.d.d.d.s.8.d.d.-.= ; 2 t J ` @.@.~ c 3 : 1 k Z Z F F D S F k w ' %X%X$X].",
"9X9X9X8X7X5X5X1X-X*X$XoXO.X.' P k 3 9 &.s.;.&.e.d.d.8.7.s.d.d.d.7.u.u.-.y % > 8 V I { I b 6 6 P X.].O.Z - < ) _ , w 6XlX0X0X9X9X",
"9X9X7X7X7X1X3X3X2X2X-X-X-X*X|.$X`.S 4 -.s.;.*.e.j.h.h.a.h.f.d.s.7.7.u.7.u % > 6 z V V b 6 t +X8XlXlXlX-X .w K %X7 [ lX0X0X0X0X9X",
"5X3X3X3X1X<X,X,X;X,X&X&X$X$X].[..XXX| ;.7.*.s -.s.2.2.6.f.h.h.h.d.i.h.f.u + $ - w n M q w {.6X-X=X=X-X4X6X$XZ < w %X0X9X7X7X<X3X",
"3X3X3X2X,X,X,X;X&X&X+X+X+X|.|.}.].]. XV.*.i 4 u y = = i $.-.q.q.-.;.=.%.s 2 , 3 , 3 q 3 ( %X$X$X%X=X*X$X$X$XoXw Z 5X9X7X8X2X].*X",
"2X1X<X,X,X;X;X;X&X@X+X+X|.}.}.].`.`.`.`.J ; 2 p     X + o = = y i i 2 a r x J K A 7 # A ].O.`.}.$X#.].{.O.o.o.Z U 8X7X3X5X1X$X,X",
"1X,X,X,X,X;X@X;X+X+X+X|.+X}.[.`.`.{ ` { J ; D 4             X . O # ; t x c J I ( U 3 D [ [  .o.o.( ' o. .[ _ Z ].6X3X3X2X2X3X2X"
};
