/* XPM */
static char *_42f68c9abff483ba9a2e06820b468e0RF79U7jdAnIgw8XC[] = {
/* columns rows colors chars-per-pixel */
"64 64 213 2 ",
"   c #020605",
".  c #0B0C0E",
"X  c #150C0E",
"o  c #0E0E12",
"O  c #100F16",
"+  c #0F1214",
"@  c #111216",
"#  c #13151B",
"$  c #18151A",
"%  c #16191E",
"&  c #1A1A1E",
"*  c #2D0C0C",
"=  c #291619",
"-  c #381719",
";  c #171A23",
":  c #161827",
">  c #1A1D23",
",  c #1A1E2A",
"<  c #2E1C20",
"1  c #371D21",
"2  c #1D2126",
"3  c #1E222A",
"4  c #1F2232",
"5  c #252328",
"6  c #21252C",
"7  c #23282F",
"8  c #392428",
"9  c #212533",
"0  c #252A33",
"q  c #292E36",
"w  c #22263A",
"e  c #252A3A",
"r  c #292E3A",
"t  c #352B33",
"y  c #2B3037",
"u  c #2C323C",
"i  c #313036",
"p  c #32333C",
"a  c #461819",
"s  c #58191A",
"d  c #680A0A",
"f  c #691D1D",
"g  c #731E1E",
"h  c #4B1F22",
"j  c #43272C",
"k  c #542325",
"l  c #482F3A",
"z  c #582E33",
"x  c #47393C",
"c  c #672427",
"v  c #7B2323",
"b  c #792729",
"n  c #752A2E",
"m  c #682F35",
"M  c #752C30",
"N  c #763539",
"B  c #262B41",
"V  c #292E44",
"C  c #2B2F49",
"Z  c #3B2E43",
"A  c #2D3344",
"S  c #2E334C",
"D  c #313643",
"F  c #3C3444",
"G  c #343A45",
"H  c #3C3D46",
"J  c #30364B",
"K  c #353B4B",
"L  c #3A3E4A",
"P  c #2F3450",
"I  c #313651",
"U  c #353B52",
"Y  c #373D56",
"T  c #383D60",
"R  c #473A47",
"E  c #553644",
"W  c #6E3B45",
"Q  c #3C424D",
"!  c #3C4454",
"~  c #3F4853",
"^  c #3D445A",
"/  c #3F4859",
"(  c #3D4463",
")  c #47454B",
"_  c #564A4C",
"`  c #424552",
"'  c #4D4557",
"]  c #434956",
"[  c #40465D",
"{  c #434B5C",
"}  c #494E5C",
"|  c #564756",
" . c #47505E",
".. c #4B515E",
"X. c #674550",
"o. c #414760",
"O. c #444C63",
"+. c #484E63",
"@. c #444B6C",
"#. c #475062",
"$. c #4B5364",
"%. c #4F5A67",
"&. c #4C556A",
"*. c #4F596B",
"=. c #505665",
"-. c #525B6D",
";. c #585969",
":. c #4F4D71",
">. c #4C5372",
",. c #4F5873",
"<. c #545D72",
"1. c #585F73",
"2. c #515779",
"3. c #525B7C",
"4. c #605A6A",
"5. c #576175",
"6. c #596275",
"7. c #576279",
"8. c #5B657B",
"9. c #5E687E",
"0. c #7C6B62",
"q. c #606777",
"w. c #616A7D",
"e. c #881F1E",
"r. c #8C2726",
"t. c #9B2523",
"y. c #962929",
"u. c #892F32",
"i. c #973537",
"p. c #A72A29",
"a. c #B62B28",
"s. c #BB2D2A",
"d. c #AA3334",
"f. c #BB3233",
"g. c #C52925",
"h. c #CB2B26",
"j. c #C22D2A",
"k. c #CB2D29",
"l. c #DF2825",
"z. c #D42C29",
"x. c #DC2E2A",
"c. c #CD322F",
"v. c #D3312C",
"b. c #DC322D",
"n. c #C83736",
"m. c #DB3431",
"M. c #D63936",
"N. c #E12724",
"B. c #E32F2B",
"V. c #E6312C",
"C. c #E8312C",
"Z. c #F4342E",
"A. c #FA352F",
"S. c #E13531",
"D. c #EA3530",
"F. c #F53631",
"G. c #FD3631",
"H. c #F33B35",
"J. c #FE3934",
"K. c #FF3E38",
"L. c #FF423A",
"P. c #953E40",
"I. c #A43A41",
"U. c #9A4C54",
"Y. c #87565F",
"T. c #A7414B",
"R. c #BD4446",
"E. c #8C5967",
"W. c #89736D",
"Q. c #D0484B",
"!. c #928773",
"~. c #535C82",
"^. c #5B6681",
"/. c #5F6A81",
"(. c #636D83",
"). c #676E85",
"_. c #667086",
"`. c #6A7286",
"'. c #677289",
"]. c #6B758B",
"[. c #6D798E",
"{. c #71798F",
"}. c #687497",
"|. c #6E7A91",
" X c #737D94",
".X c #737E99",
"XX c #907587",
"oX c #768096",
"OX c #768199",
"+X c #7A859A",
"@X c #7B849C",
"#X c #7C87A2",
"$X c #7E89A1",
"%X c #7E89A2",
"&X c #7F8FAC",
"*X c #82899E",
"=X c #9D889D",
"-X c #838CA4",
";X c #8690A7",
":X c #8691AA",
">X c #8A93AC",
",X c #8B97B1",
"<X c #8D99B3",
"1X c #8899B4",
"2X c #929CB5",
"3X c #939EB9",
"4X c #96A0B7",
"5X c #95A2BC",
"6X c #9AA5BE",
"7X c #DCBD9E",
"8X c #E9BF9F",
"9X c #FBDBB5",
"0X c #9AA7C3",
/* pixels */
"-X-X$X$X@X@X@XOX X X X].].`.).(.(.-.&.<.G e `.@X+XoXoXoXoXoX{.*XoXw.w.w.w.q.q.q.8.6.y K &.&.-.-.6.<.<.<.,.*.{ Q OX1X:X:X:X:X-X-X",
"$X@X$X@X@XOX X X X X].].].).(.9.8.5.1.,.u ] oX`.`.{.{.w.`.`.w.w.w.q.q.6.q.q.1.4.;.1.G 0 { { O.#.#.&.$.$.$.&.G ~ 1X:X-X-X$X-X-X$X",
"@X@X@X@XoX X X X].].].).(.(.8.1.1.<.*.O.G 1.8.%.%.q.q.q.6.1.6.;.4...=.....$.....} =.H , J ~ ~ ^ ^ ] { { { ~ 3 %.1XoXoX-X$X$X$X#X",
"[.OXoX X X|.].'.).).(.9.8.8.1.<.<.-.*.Q K 6.%.` ) ..) ) ) Q ) H ) Q Q Q Q Q ) Q ! ` p ; , w r A D S A D B 4 7 9.&XoXoX$X@X+X$X].",
"].|.].].'.'.).(./.9.9.9.&.*.6.1.%.#.` j z N M u.y.y.p.a.s.s.s.s.a.a.p.t.r.b b n z j 5 # # # ; ; 3 , 3 , 4 3 0 _.OXOXOX|.OX|.OX'.",
"].'.'.'.'.).(./.9.9.9.8.+.+.<.' N i.d.j.c.m.D.Z.G.J.G.G.J.J.G.G.G.G.G.A.J.A.S.b.c.j.p.e.s = @ + # # % ; 2 > % #.OX[.|.|.[.[.].[.",
"].'.'.'.(.(.(./.9.9.8.8.5.$.W d.A.J.J.J.F.A.Z.A.F.Z.Z.C.C.C.Z.C.C.Z.Z.Z.Z.Z.A.J.G.J.G.J.F.p.r.- # ; ; 2 3 0 ; e '.'.|.[.|.].].'.",
"'._.).(.(./.9.9.8.8.7.5.,.W M.L.J.C.V.V.V.V.C.B.V.V.V.V.C.C.C.V.C.V.V.C.C.C.C.V.V.V.C.C.G.H.F.t.= # ; 3 9 u y # ! }./.].].].].'.",
").(.(.(././.9.8.8.7.7.1.' n.J.Z.B.B.C.C.C.C.C.C.C.V.C.C.C.C.C.C.C.C.C.C.C.C.C.C.C.C.C.V.V.C.Z.L.V.- % % 3 0 D 3 3 3.'.(.].'.'.'.",
"(.(././.9.9.8.8.7.6.6.;.W M.J.B.C.C.C.C.C.C.C.C.C.C.C.C.C.C.C.C.C.C.V.C.C.C.C.C.V.C.C.C.C.C.B.Z.J.a.= @ ; 3 q G 2 D /./.^.'._._.",
"(./.9.9.9.7.8.5.6.<.<.;.N m.J.B.C.C.C.C.C.C.C.C.C.C.C.C.C.V.V.V.C.C.C.C.C.C.C.C.C.C.C.C.C.C.C.C.Z.J.f @ % 2 q D u 2 ( ^.9./.(./.",
"9.8.9.8.8.7.6.1.1.6.5.| m m.J.V.C.C.C.C.C.C.C.C.C.C.C.C.C.C.B.C.C.C.C.C.V.C.C.C.C.C.C.C.C.C.C.V.C.J.t.$ % ; 3 y ! 0 q ,.9./.9.9.",
"8.8.8.7.5.<.7.8.8.#.Y Z c m.G.B.C.C.C.C.C.C.C.C.C.C.V.C.C.C.C.C.C.C.V.C.C.C.C.C.V.C.C.C.C.C.C.C.C.J.v.a # & 3 y Q / 3 Q ,.9.7.9.",
"(.5.1.8.9.9.6.&.^ S C Z z b.G.B.C.C.C.C.V.C.C.C.C.C.C.C.C.C.C.C.C.V.C.C.C.C.C.C.C.C.C.C.C.C.C.V.C.J.G.g # % 7 y Q / Q 4 ( *.7.9.",
"8.).(.9.<.O.Y S C S S Z c m.J.B.C.V.C.C.C.C.C.C.C.C.C.C.C.C.C.C.C.C.C.C.C.C.C.C.C.C.C.V.C.V.C.C.C.Z.G.p.# > 3 q G / *.y V ( -.7.",
"*.w.(.^ S S P J S P V t c m.J.C.C.C.C.C.C.C.C.V.C.C.C.C.C.C.C.C.C.C.C.C.C.C.C.V.C.C.C.C.C.C.C.C.C.C.G.a.= > 3 q Q / <.#.4 ! ^ <.",
"-.8.+.C w C I S S A 0 t n b.J.V.C.C.C.V.C.C.C.C.C.C.C.C.C.C.C.C.C.C.C.V.V.C.C.C.C.C.C.C.C.C.V.C.C.C.G.k.- > 7 q H } %.w.Q 0 ^ ^ ",
"! 5.^ C A S P S u 3 e F n S.G.V.C.C.C.C.C.C.C.C.C.C.C.C.C.C.C.C.C.C.C.C.C.C.C.C.C.C.C.C.C.C.C.C.C.C.J.v.a & 5 y G } 1.9.9.7 C I ",
"S U I S J S e , 3 0 U | M S.J.C.C.C.C.C.C.C.C.C.C.C.C.C.C.C.C.C.C.C.C.C.C.C.C.C.C.B.C.C.C.C.C.C.C.V.J.b.s & 6 y Q  .;.w.[.~ 3 I ",
"I C P S w 2 0 G q 3 K | M S.J.V.C.C.C.C.C.C.V.C.C.V.C.C.C.C.C.C.C.C.C.C.C.C.C.C.C.C.V.C.C.C.C.C.C.V.J.b.f 8 5 y G  .-.6.>.,.u 4 ",
"A C 9 2 u #.].$X<.2 e R M m.J.V.C.C.C.C.C.C.C.C.C.C.C.C.C.C.C.C.C.C.C.C.C.C.C.C.C.C.C.C.V.C.C.C.C.V.G.S.v 1 7 y Q ~ #.( ( 3.( 3 ",
"; 2 K 8.:X2X<X:X#XQ , Z M V.G.V.C.C.C.C.C.C.C.V.V.C.C.C.C.C.C.C.V.C.C.C.C.C.C.V.C.C.C.C.C.C.C.C.C.C.J.D.r.1 3 7 q J ! #.&.~.~ 2 ",
"Q `.3X0X2X:X-X@X-X9.6 t b S.G.C.C.V.V.C.C.C.C.C.C.C.C.C.C.V.V.C.C.V.C.C.C.C.V.C.C.C.C.C.C.C.C.C.C.C.A.C.t.< & 3 4 e ! ( 3./ % 3 ",
"5X0X2X>X-X-X@X X X X! 8 b S.G.V.C.C.C.C.C.C.C.C.C.C.C.C.C.C.C.C.C.C.C.C.C.C.C.C.C.C.C.C.C.C.C.C.C.C.A.D.e.- ; 3 4 A ( >.A + Q oX",
"4X<X;X-X-X@X@X X{.{.<.t v b.J.B.C.C.C.C.C.C.V.C.C.C.C.C.C.C.C.C.C.C.C.C.C.C.V.C.C.C.C.C.C.C.V.C.C.B.G.D.r.- ; 3 u ! Q 3 4 9.5X0X",
"-X@X;X*X@XOX X].].(.w.R v V.J.V.C.C.C.C.C.C.C.C.C.C.V.C.C.C.C.C.C.C.C.C.C.C.C.C.C.C.C.C.V.C.C.C.C.B.G.D.e.1 : 9 r 4 % Q $X5X2X1X",
"@XOX@X@XOX X].'.(.8.1.| v b.J.B.C.C.C.V.C.C.C.C.C.C.C.C.V.C.C.C.C.C.V.C.C.C.C.C.C.V.C.C.C.C.C.C.C.V.G.S.f = % % + + / OX$X:X&X-X",
"$X$XOXoX].'.).9.8.1.<.| c m.J.C.C.C.C.C.C.C.C.V.C.C.C.C.C.C.C.C.C.C.C.C.V.C.C.C.C.C.C.C.C.C.C.C.C.B.J.b.s X . o . 3 (.].OX+X@X@X",
"oXoX|.].)._./.8.7.7.<.R c v.J.B.C.C.C.C.C.C.C.C.C.C.C.V.C.C.C.C.C.C.C.C.C.C.C.C.C.V.C.C.C.C.C.C.C.C.J.z.- . @ 5 3 7 6.'.[.oX|.oX",
"[.].'.'._./.9.8.1.1.*.F k M.J.B.C.C.C.C.C.C.C.C.V.C.C.C.C.C.C.C.C.C.B.C.C.C.C.C.C.C.C.C.C.C.C.C.C.C.J.j.= @ 2 y p y -.'._.[.oX].",
"].'._.(.9.9.8.7.<.<.$.p 8 n.G.B.C.C.C.C.C.C.C.C.C.C.C.C.C.C.C.C.C.C.C.C.C.C.C.C.C.C.C.C.C.C.C.C.C.A.J.e.+ # 2 Q Q u <.'.7.5.'.].",
"_._.(./.9.8.7.<.<.,.O.r t f.J.Z.C.C.V.C.V.C.C.C.C.C.C.C.C.C.C.V.C.C.C.C.C.C.V.C.C.C.C.V.C.C.C.B.C.J.z.a + 2 q ~  .u *.'.9.8.'.'.",
"(./.9.9.7.5.3.5.<.#.~ e K u.F.J.C.C.C.C.C.V.C.C.C.C.V.C.C.C.C.C.C.C.C.C.C.C.C.C.C.C.C.C.C.C.V.C.C.L.r.X # 3 D  .#.u *.(._._.).(.",
"9.8.8.6.5.5.5.#.$.{ S 0 ` x n.L.C.C.C.C.C.C.C.C.C.C.C.C.C.C.C.V.C.C.C.V.C.C.C.C.V.C.C.C.C.C.C.C.J.H.k @ + 0 Q %.{ 0 *.9.(.(./.9.",
"8.7.6.5.1.-.$.! ` ^ r 0 { O.m J.K.J.Z.C.C.C.C.C.C.C.C.C.C.C.C.C.C.C.C.C.C.C.V.C.V.C.V.V.C.Z.A.J.L.n t 6 % 0 K / K 7 #.<.8.(.9.8.",
"1.1.3.*.$./ / / Y A 9 p ( $.{ E d.C.J.J.J.K.J.J.Z.B.V.V.C.C.C.C.C.C.C.C.V.C.C.C.B.C.Z.L.L.G.G.p.8 p ` ` 4 , A I e 2 O.*.$.<.7.5.",
"*.$.+.{ / ~ ! I B 9 6 q / +.$.&.} R x m m n u.j.V.Z.C.C.C.V.C.C.C.C.C.C.C.C.V.B.C.J.J.s.f h 8 p Q  .4.q.Q > 4 e A q A #.$.#.&.-.",
"{ [ { / ! J V 4 6 0 q 2 e O.@.+.&.-.&.O.] ` R R b V.A.Z.Z.C.C.C.C.C.C.C.C.C.C.Z.V.p.a = 2 7 Q ` =.1.w.q.6.y 2 ~ 8.].Q V O.O.{ O.",
"/ ^ K J V B 4 0 u ! ~ K e 0 ^ >.O.@.&.1.-.*...&.N b.V.z.V.C.Z.C.C.C.C.C.C.C.Z.G.j.- & 2 7 p ) ..6.w.oX*XoX~ q *.8.OXoXA B ! { { ",
"K A V e e 0 q ! / ^ { &.$.Q e K >.>.O.+.&.<.-.' d.Z.z.k.h.b.C.C.C.C.C.C.Z.B.z.Z.a.- > 2 q p ] %.q.{.*X;XoX5.D / 7.9.$X_.e B K K ",
"B 4 3 3 2 & Q $./ K { &.*.3.$.G A O.3.&.o.@.O.| n.H.B.x.h.h.z.C.Z.C.C.C.x.h.g.Z.b.f = 5 q p } 1.w. X*X>X_./.{ D <.8.'.$X#.4 e B ",
"3 e G #.&.e 0 &.*.$.-.-.-.-.5.6.{ A L >.2.@.R P.m.G.B.C.B.z.g.z.B.V.x.z.h.h.x.A.V.v < 2 7 D ` 1.`. X@X-X(.(.*.A $.*.5./.^.D 4 4 ",
"! 6.OX>X&X'.q A 5.7.7.7.9.8.9.9.(.5.K u ^ :.:.T.m.V.C.C.V.V.x.z.h.z.z.z.x.B.C.Z.V.a.1 5 7 p Q %.w. X-X X/.(.^.A Q #.*.&.( ! 2 y ",
"|.$X-X:X$X:X].q J 7.9.'.[.[.[.[.`._._.#.A V | I.b.C.C.C.V.C.V.V.x.x.x.V.V.B.C.C.V.j.1 & 6 y Q %.q.w.7.9._.7.(.K 4 ! ^ I J D ~ 7.",
".X.X@X X9.@X<X'.u K 8.].oX@X@XoXoXoX[.[.(.~ 8 d.m.C.C.C.C.C.C.C.V.V.C.C.C.C.C.V.V.a.= 2 2 q p Q ] #.-.{._.<.^.^ 0 w w r Q &.].oX",
"{. X X X`.oX:X>X^.q ^ ^.oX$X$X|.*X:X@XoX/.O.l R.S.C.C.C.C.C.C.C.C.C.C.C.C.C.C.C.V.b.v = ; 5 0 p Q ..-.6.8.5.*.^ 0 5 A { 7.'.].].",
"`.{. X XOXOX@X$X:X*.e ( 7.oXOX'._.9.>.( ( S E f.m.C.C.C.C.C.C.C.C.C.C.C.C.C.C.C.V.C.V.t.- ; 6 y D K K ~ #.&.^ U 2 D $.8.9.9./._.",
").`.].]. X X X@XOX#XQ A @.3.|.>.( ^ ( T P 4 8 f.V.C.C.C.C.C.C.C.C.C.C.C.C.C.C.C.V.C.J.l.d @ x ) i e e e K I ^ y 3 ^ *.<.6.7.9./.",
"<.(.).].[. X].'.]. X'.0 U >.~.@.@.( I A u Q X.f.V.C.C.C.C.C.C.C.C.C.C.C.C.V.C.C.V.C.G.N.d   !.7X0.p 0 B S P J 2 u #.( #.,.5.7.8.",
"1.(.(.(.(.(.(.(.(.]..X~ 2 K Y Y K K ~ $.'.:X=XQ.C.C.C.C.C.C.C.C.C.V.V.C.C.C.C.C.V.V.A.g.d   !.9X8X_ e r e e 3 3 K ~ Q / *.*.<.6.",
"<.<.<.1.8.8./.).(.'.}.@.2 2 e K / -.'.|. XoXXXQ.C.C.C.C.C.C.C.C.C.V.V.C.C.C.C.C.C.g.r.s X # _ !.W.i 3 6 3 3 2 2 A Q I / $.$.&.-.",
"<.<.1.3.7.8.9.^.(.'././ 7 S { #.&.-.5.9._.|.XXM.C.C.C.C.C.C.C.C.V.V.V.C.C.C.C.C.V.k.a X . + % 6 5 6 0 D Q O.G 2 4 K / / #.&.&.&.",
"&.<.3.6.6.8.9.9.9.9.^.Q e ! S Q $.&.-.5.~.).W.M.C.C.C.C.C.C.C.C.V.V.V.V.C.C.C.C.C.g.- . X o @ 3 0 A ! { &.-./.Q , 4 Q ^ O.O.$.&.",
"&.&.-.-.-.5.6.8.7.7.>.A u Q A K { $.*.<.3.(.E.S.C.C.C.C.C.C.C.C.V.x.V.V.C.C.C.C.C.k.- o @ # % 3 r u / <.7.w._.].u : 4 S Y ~ ( $.",
"U ^ O.O.#.O.{ ^ ^ ^ ( A 4 K Q ^ { O.$.-.1.9.E.B.C.C.C.V.C.C.C.C.V.x.B.V.C.C.C.C.V.k.a @ & $ : 4 K { -.9.`.|.].:X_.3 4 4 w S J K ",
"e B V S S S P P P S U u 4 4 A K ! O.$.$.<.1.U.C.C.C.V.V.V.C.C.C.B.x.V.C.C.C.C.C.C.v.a @ ; ; # 3 K { 1.9.[. X+X@X:X{ 2 0 4 4 4 9 ",
"7 7 6 9 9 9 9 9 4 3 2 2 4 4 w V S K / O.%.;.U.C.C.C.x.B.C.C.C.C.x.x.C.C.C.C.C.C.C.z.h # > > $ , B ! / &.7.}.}.}.}.~.2 > y y 0 3 ",
"(.8.6.-.%.} ] ! Q Q D u y y 3 3 w V S U ! | I.V.C.V.x.V.C.C.C.C.x.x.B.C.C.C.C.C.C.z.h > $ $ @ @ 3 e A Q ( ( ^ / ( A u <.oXoX[.'.",
"6X5X3X3X<X<X,X>X%XOXOX]./.5.%.{ A 6 0 S J E d.C.C.B.x.C.C.C.C.C.z.z.V.C.C.C.C.C.C.V.k # O O # q / 7.5.Q 2 2 #.%.2 y 1X5X5X6X5X5X",
"4X4X2X2X2X>X,X;X:X&X-X$X@X@XoX|.(.] 6 2 e m n.C.C.z.V.C.C.C.C.C.x.z.B.C.C.C.C.C.C.C.s @ O # ! w.oX&X1X1X<.0 #.OX0 5.0X6X6X6X6X6X",
"<X>X>X>X;X;X-X-X-X@X@X@XOXoX_.`. X].-.e 2 M v.C.x.z.x.C.V.V.V.b.B.J.J.J.C.V.B.C.C.C.c X # p $.6._.oXoX:X1XoXQ 3 y +X6X4X5X<X;X,X",
">X>X>X:X-X-X-X*X@X*X.X XoX[.].].).`.'.<.q u.C.b.x.C.G.J.J.F.C.C.x.s.a.b.A.F.C.B.V.V.v $ y ] ..5.w.oXoXoXOXOX}.y G <X4X<X3X;X`.+X",
">X-X;X-X-X-X*X@X@X.X X X X].].`.(.w.(././ k y.Q.Q.n.k.k.c.n.T.i.v - * s N i.i.i.y.r.- 0 ~ ~  .-.9.9.w.`./.7.7.Q #.6X<X<X<X:XoX-X",
"-X-X-X-X-X@X@X*X X X X{.].].`.(.(.5.-.6.~ 2 ..*X*XY.a * k X.] H t .   % H Q H F Q p & u ~ ~  .%.<. .<.7.<.<.*.Q (.3X,X>X;X;X,X;X"
};
