/* XPM */
static char *_b90610bd317474fae7520c2bb6dd0f5M1HRtnTGzklzKeVy[] = {
/* columns rows colors chars-per-pixel */
"64 64 234 2 ",
"   c #010101",
".  c #07080A",
"X  c #0A0A0C",
"o  c #0C0D12",
"O  c #150D11",
"+  c #0E1014",
"@  c #13151A",
"#  c #15151A",
"$  c #16191D",
"%  c #341719",
"&  c #161924",
"*  c #1A1D23",
"=  c #1D1F31",
"-  c #391F23",
";  c #1D2126",
":  c #1E222A",
">  c #1E2232",
",  c #23262A",
"<  c #22252D",
"1  c #352E2F",
"2  c #212533",
"3  c #282732",
"4  c #252A33",
"5  c #292C35",
"6  c #23263A",
"7  c #252A3A",
"8  c #292E3B",
"9  c #2A3037",
"0  c #2C323C",
"q  c #32343A",
"w  c #4F1717",
"e  c #721C1B",
"r  c #672C16",
"t  c #4E2F2F",
"y  c #463B38",
"u  c #733034",
"i  c #576A10",
"p  c #6D631B",
"a  c #4A433A",
"s  c #564B3B",
"d  c #57673A",
"f  c #657A2F",
"g  c #262B41",
"h  c #2A2E43",
"j  c #2B2F49",
"k  c #2D3343",
"l  c #2E334C",
"z  c #313643",
"x  c #343A45",
"c  c #3A3944",
"v  c #31354B",
"b  c #353B4C",
"n  c #3A3E4B",
"m  c #2F3350",
"M  c #353B52",
"N  c #363955",
"B  c #443B4A",
"V  c #4E3D50",
"C  c #6D3C49",
"Z  c #3B4144",
"A  c #3A414D",
"S  c #3C4454",
"D  c #3D445A",
"F  c #3F4858",
"G  c #3C4262",
"H  c #51504D",
"J  c #424653",
"K  c #434956",
"L  c #46475A",
"P  c #434B5B",
"I  c #4A4C5C",
"U  c #4A515E",
"Y  c #704E51",
"T  c #576F4C",
"R  c #6D774E",
"E  c #454D62",
"W  c #454B67",
"Q  c #4A5364",
"!  c #4A5464",
"~  c #4C556A",
"^  c #4F596C",
"/  c #525565",
"(  c #575A69",
")  c #525A6D",
"_  c #4A4D70",
"`  c #4C5573",
"'  c #545D73",
"]  c #5A5E73",
"[  c #525B7B",
"{  c #665966",
"}  c #5A6068",
"|  c #576175",
" . c #5A6376",
".. c #56617A",
"X. c #5B657B",
"o. c #5E697E",
"O. c #6A6F68",
"+. c #616A7D",
"@. c #69687A",
"#. c #911F1B",
"$. c #B60000",
"%. c #BC0000",
"&. c #B40F0C",
"*. c #90211E",
"=. c #A82A1E",
"-. c #AA1C23",
";. c #86292A",
":. c #852D31",
">. c #942E30",
",. c #A62B2B",
"<. c #B92826",
"1. c #AD3527",
"2. c #AB3436",
"3. c #BA3434",
"4. c #CA0000",
"5. c #D60000",
"6. c #C61718",
"7. c #E40603",
"8. c #EF0D10",
"9. c #FC091A",
"0. c #E61A17",
"q. c #F3201A",
"w. c #FD1622",
"e. c #FE1D25",
"r. c #CC2F2C",
"t. c #D42B29",
"y. c #DD2D2B",
"u. c #D6372F",
"i. c #DC322D",
"p. c #CA3837",
"a. c #D63832",
"s. c #E72824",
"d. c #E22E2B",
"f. c #EC2E2B",
"g. c #F82528",
"h. c #F92628",
"j. c #E6322C",
"k. c #E8312C",
"l. c #F6322E",
"z. c #E93633",
"x. c #FF3933",
"c. c #FC3834",
"v. c #8C4A38",
"b. c #9A5E3C",
"n. c #B84C36",
"m. c #A75438",
"M. c #B35037",
"N. c #91633E",
"B. c #C94332",
"V. c #EA403C",
"C. c #8E3C45",
"Z. c #A53B41",
"A. c #914B51",
"S. c #B0494E",
"D. c #8C6D49",
"F. c #8E5C67",
"G. c #8C736A",
"H. c #EC4845",
"J. c #EA5448",
"K. c #ED655C",
"L. c #F16F68",
"P. c #20873C",
"I. c #65821F",
"U. c #369A51",
"Y. c #1AA957",
"T. c #07B85C",
"R. c #14B259",
"E. c #2BA655",
"W. c #52874A",
"Q. c #6C8651",
"!. c #00C661",
"~. c #00D264",
"^. c #A58C7D",
"/. c #C39974",
"(. c #CCAC73",
"). c #545D83",
"_. c #5B6587",
"`. c #5F6A81",
"'. c #636D83",
"]. c #656C88",
"[. c #667086",
"{. c #6A7286",
"}. c #66728A",
"|. c #6B758B",
" X c #6E788D",
".X c #71798E",
"XX c #636D94",
"oX c #6E7A92",
"OX c #677499",
"+X c #737D94",
"@X c #727E99",
"#X c #6A75A1",
"$X c #758097",
"%X c #76829A",
"&X c #7B869B",
"*X c #7B859C",
"=X c #7E89A1",
"-X c #7C88A3",
";X c #80899F",
":X c #BB9F86",
">X c #838CA4",
",X c #838FA9",
"<X c #8690A7",
"1X c #8691AA",
"2X c #8A94AC",
"3X c #8B96B1",
"4X c #8D99B3",
"5X c #8899B5",
"6X c #929CB5",
"7X c #939EB9",
"8X c #95A1BB",
"9X c #9AA5BE",
"0X c #F29388",
"qX c #D0AE92",
"wX c #F0A186",
"eX c #E7BA9A",
"rX c #F1BB95",
"tX c #F6B0AB",
"yX c #EFC09E",
"uX c #F2C29D",
"iX c #F3C5A3",
"pX c #F7CBA8",
"aX c #F7D3AD",
"sX c #F5CDB4",
"dX c #FAD6B5",
"fX c #F8E4BC",
"gX c #99A7C3",
"hX c #F8BBC0",
"jX c #F7DAC5",
"kX c #FBECCF",
"lX c #FDEEE9",
"zX c #FCF8E9",
"xX c #FAF8F5",
"cX c #FFFFFF",
/* pixels */
">X>X=X=X&X&X&X+X+X+XoX.X{.{.].'.'.' Q ] z 4 +..X.X{. X X{.{..X{.|.{.{.+.+.X. . . .} 8 b ~ ~ ^ ' | | ' ^ ' ^ F A %X-X1X1X1X1X>X>X",
"=X*X*X&X&X$X@X+X+X.X.X{.}.].'.+.] ] ' ~ 5 S {.+.+.@. .O.+.X.O. . .} ) ' } ! ( U ! ( q 6 P P E ! ~ ~ Q ~ ! ^ A S 5X5X1X=X=X>X>X=X",
"*X&X&X&X$X@X$XoX.X.X{.[.'.'.] ] ) ^ Q S 8 E / F K / ! U ! U U P K K K F F U K K K I q * k K F F E E ! E F F : ) 5X%X%X=X=X=X=X&X",
".X&X@X+X+XoX|.{.[.'.'.o.X.X.' ' { A.2.3.r.a.i.i.i.i.j.i.i.a.r.r.3.3.,.2.G.T y y x n 0 $ & 7 k x A b b l h > 4 o.=X&X%X-X&X&X=X X",
"}.+X|.|.}.].].'.`.`.`.+.~ ^ A.p.k.k.k.k.k.k.k.k.j.k.k.k.k.k.k.k.j.h.f.e.P.W.w.j.:.4 < # @ & & > > > > > > > 4 '.%X%X%X$X%X$X$X[.",
"|.}.{.[.[.].'.'.X.`.X.X.Q 3.f.z.k.k.k.k.k.k.k.k.k.k.k.k.k.k.k.f.e.N.N.B.~.m.9.q.z.a # o + @ & * : > > > 4 < ; ^ -X|.oX|. X X|.|.",
"}.}.}.[.].'.'.o.'.] +.X.p.k.j.j.k.k.k.k.k.k.k.k.k.k.k.k.k.k.f.g.j.!.N.h.b.E.Y.<.x.aX; X o @ * ; > 9 0 k Z k : 9 OX}. XoXoX X|.}.",
"}.[.[.'.'.+.o.o.`.X.@.Z.k.k.k.k.k.k.j.k.k.k.k.j.k.k.k.k.k.k.j.m.n.T.W.R m.N.W.1.L.fXG.o + @ * 2 0 x A S S F A $ F %X}. X}.|.}.}.",
"].'.'.'.`.o.o.o.] X.F.d.d.k.k.j.k.k.k.k.k.k.k.k.k.k.k.k.k.g.N.T.B.B.M.T.R.u.9.h.uXaXeX+ o @ & : 8 v A S F G F 0 > `.}.'.}.}.}.}.",
"'.'.`.`.o.o.X.X.X.] p.k.f.j.k.k.k.k.k.j.k.k.k.k.k.k.k.j.h.9.R !.N.b.b.M.h.f.7.K.fXiXuX1 + + * < 8 v S S F ! ~ ! > A OX`.'.}.[.'.",
"+.`.o.o.X.X.X...' ' z.k.k.k.k.k.k.k.k.k.k.k.k.k.k.k.k.g.M.u.z.R U.!.Y.u.e.s.0.eXfXuXpXa + @ & < k A F ! ^ ! ^ ' F : ~ `.`.`.'.`.",
"o.o.o.X.X...| ' ] ..f.j.k.k.k.k.k.k.k.k.k.k.k.k.k.k.k.w.Q.E.h.h.n.N.e.h.i.0.L.fXuXiXuXa o # * 4 k A U ~ ^ ^ ^ ^ ..z k [ o.o.o.o.",
"X.X.X...| ' X.o.X.Q k.k.k.k.k.k.k.j.k.k.k.j.k.k.k.k.k.w.b.~.R f Y.B.e.j.0.z.aXaXuXiXiXy O $ * 4 x S E ^ ' | | | o.^ 4 D | o...o.",
"'.| ' X.o.o.| Q N v k.k.k.k.k.k.k.k.k.k.k.k.k.k.k.k.j.g.q.R E.T.N.h.k.d.0.wXfXiXiXiXiXa + $ ; 5 A F ^ | o.o.o.`.o.'.F 4 G ' X.X.",
" .].'.+.| E N l m l k.k.k.k.d.k.k.k.k.k.k.k.k.k.k.k.h.f M.q.n.n.B.h.k.8.K.fXiXiXiXiXiXa # * ; 5 A ! | o.[.[.[.[.[.[.`.k k G ^ X.",
"^ +.'.D l l l m v m k.k.k.k.k.k.k.k.k.k.k.k.k.k.k.k.e.D.!.n.n.T.b.g.0.z.aXaXiXiXiXpXdXH # $ : 0 F /  .[.}. X X}.$X}.$X^ 4 D D ^ ",
") o.W j 6 h m l l k j.k.k.k.k.k.k.k.k.k.j.k.k.k.k.k.h.j.R.U.!.Q.e.f.0.wXfXiXuXuXaXuX/.a $ $ 4 0 K ) o. X X$X$X$XoX+X XoXA > D D ",
"S | D j l l m l 8 < f.j.k.j.k.k.k.k.k.k.k.k.k.k.k.k.k.w.s.Q.b.u.z.8.J.dXpXiXiXdXrXp r t $ * 4 z K } [. X%X&X%X&X%X%X$XoX}.4 j N ",
"l M M l m l 7 : : 4 k.k.k.k.k.k.j.k.k.k.k.k.k.k.k.f.u.N.s.s.m.E.a.8.(.jXuXiXpXpXb.N.yXH $ ; 4 Z U  .{.$X&X=X=X=X>X=X$X$X%XF : M ",
"m l j l 6 ; 4 x 8 * k.k.k.k.k.k.f.j.k.k.k.k.k.k.k.f.h.U.!.b.T.E.9.H.sXpXiXiXpXeXeXkX:X1 $ ; 4 Z U  ..X&X,X1X1X3X1X=X&X X[ ` 0 > ",
"k j 2 ; 0 ! |.=X' : j.k.k.k.f.k.k.k.k.k.k.f.j.k.k.k.g.k.E.R.W.B.9.L.kXuXiXpXuXpXaXaX^.X @ & > Z U  .$X>X3X6X5X5X-X$X`.[ ` [ G > ",
"$ : x +.1X4X4X1X=Xn k.k.k.k.j.j.k.k.k.k.k.j.k.k.k.k.j.g.g.M.B.h.7.0XfXuXiXiXiXiXuXfXs . @ & > x I +.$X=X1X1X-X%XXX_.[ [ [ ).F ; ",
"A {.7XgX6X<X>X&X>Xo.k.k.k.k.k.k.k.k.k.k.j.k.k.k.k.k.k.k.f.g.f.s.s.tXfXuXuXiXuXpXpXfXs . + $ : z K | {.&X&X X}._.[ ` ).)._.F $ : ",
"8XgX6X2X>X>X&X+X+X@Xk.j.k.k.k.k.j.f.k.k.k.k.k.k.k.k.k.k.k.k.k.s.j.sXaXiXpXuXpXuXuXfXY . o @ ; > b ! o.&X&X_._._._.` XX_.A @ Z $X",
"8X4X<X>X;X;X+X+X.X.Xf.k.k.k.k.k.j.k.k.k.k.k.k.k.k.k.k.k.j.k.k.0.H.kXiXiXiXiXiXiXiXaXqX1 X X $ 4 A F ^ _.$X_._.XXOXOX[ 4 9 }.gXgX",
">X&X<X;X;X@X@X.X{.].k.k.k.k.k.k.k.k.k.k.k.k.k.k.k.k.j.k.k.k.k.0.L.lXuXiXiXiXiXiXpXtXaXY X . X $ j G G ` _.XXXX#XXXD 4 F -XgX7X5X",
";X%X;X&X@X+X X}.'.X.k.k.k.k.j.k.k.k.k.k.k.k.k.k.k.k.f.j.k.k.z.5.0XcXeXiXiXiXiXiXiXiXiXD.X # ; X + 7 D ` _._.[ F 4 & o.gX5X2X=X1X",
"&X=X%X+X|.}.'.o.X.| k.k.k.k.k.k.k.j.k.k.j.k.k.k.k.k.k.k.k.k.k.8.tXcXrXrXiXiXiXiXiXiXiXD.$ , q Z ; + : 9 k k 9 : @ Z -X-X&X&X=X=X",
"$X$X+X|.'.'.`.o.X.| k.k.k.k.f.j.k.k.k.k.k.k.f.j.k.k.k.k.k.k.s.s.lXzXrXiXiXiXiXiXiXiXiXH ; : q F F < ; ; 7 A F o.F A %X%X%X$X$X$X",
" X|.}.}.'.'.o.o.| ] k.k.k.k.k.k.k.k.k.k.k.k.k.k.j.k.k.k.k.k.7.L.cXlXrXiXiXiXiXiXiXiXiXH ; ; Z F X.F $ 9 F ^ '.$Xo.A $X%X$X$X$X'.",
"|.}.}.'.`.o.X...' ] p.k.k.j.k.k.k.j.j.k.k.k.k.k.k.k.k.k.k.s.7.tXcXlXrXiXiXiXiXiXiXiXiXa ; 4 Z U | o.4 0 F ^ '.-X}.S [.$Xo.| [.}.",
"[.'.'.o.o.X.' ' ' ^ Z.f.k.k.k.k.k.f.k.k.k.k.j.k.k.k.k.k.z.7.K.cXcXxXiXiXpXiXiXiXiXpXqX< < 0 Z ^ +.$XF 4 F | $X-X$XA o.$X`.X.}.}.",
"'.o.o.o...[ | ..| ~ C j.k.k.k.k.k.k.k.k.k.k.k.k.k.k.f.d.7.k.xXcXcXcXaXrXiXiXiXiXuXiXG.< 9 c K } .X;X[.9 P o.oX1X$Xx ..}.}.}.[.[.",
"o.o.X.| | | | F E F l r.j.k.k.k.k.k.k.k.k.k.k.k.k.z.0.7.H.lXcXcXcXcXdXeXiXiXiXiXuXqX9 q x K / +..X>X>XS k X.{.=X..0 | '.[.o.o.o.",
"X. ...| | ' ! D S S g :.k.k.k.k.k.k.k.k.k.k.k.k.s.7.k.tXcXcXcXcXcXcXlXyXuXpXiXiXqXB z Z K !  .{..X>X<X| 0 G ' [ D 4 ~ ..o.`.o.X.",
"] ' ' ^ ! F D F A l = y j.k.k.k.k.k.k.k.k.k.k.s.z.0XlXcXcXcXcXcXxXxXcXsXrXiXqXO.x A K I U } @.{..X&X&XoXx 6 N G g ; P ^ ! | | | ",
") ! E P P D S A g 6 : 4 Z.k.k.k.k.r.t t u f.k.s.z.L.K.H.H.H.H.c.A.H # q 1 q q n L U ( ( (  .@..X{..X+X.XP ; 2 5 0 4 k E E E ~ ) ",
"P F P K S l h > > 4 0 : t k.k.k.j.J c q 1 k.k.k.j.0.0.0.0.0.0.q.&.O # $ < 5 x I ( @.@. .@.Z.5.F.@.@.@. .~ 4 & n ^ ..z 7 D P P U ",
"D S N l k g 4 > z S S A 7 :.k.f.C.v v n V k.k.k.k.k.j.z.k.k.k.k.l.w # * : 8 n F.4.$.6. .S.$.$.$.6.} O.F.Y J ; n K  . .8 > S S P ",
"b l g 8 7 4 4 A S S P ! Q A t.u.G W M b C k.k.k.k.k.k.j.k.k.k.d.f.s.# $ * 5 H &.$.4.4.F.S.5.5.$.S./ -.%.4.2.: 5 A F X.^ > 6 l A ",
"g > : : ; * b ~ S A P ^ ~ | / q k D W L C f.k.k.k.k.k.k.k.k.k.k.k.f.1 O * 5 Y 4.$.7.4.G.O.&.7.$.J { 4.4.$.4.:.u z A P o.S : > g ",
": 7 x E ~ 9 5 ! ~ ~ ) ) ' ' | ..P 0 v E C.z.k.k.k.k.k.k.k.k.k.k.k.k.w # * < z { -.5.A.o.Q.} -.1.U ( 6.7.$.4.Y Y 9 x A ! ^ 0 > > ",
"S | %X2X1X}.8 0 | | ..X.X.o.o.X.o.' n 0 2.k.k.k.j.k.k.k.k.k.k.k.k.k.r # & < 5 b U v. .O.I.R ) U Q.W.O.5.-.L b ; > k A S D M ; 9 ",
"oX=X<X<X=X=X X8 l ..+.}.|.|. X X}.[.'.! 2.k.k.f.k.k.k.k.k.k.k.k.k.f.;.# $ ; 4 z J U O.} R O.O.R R R S Y H A F 4 ; 8 k k g k A ..",
"+X@X;XoXo.&X4X|.5 M X.}.+X*X*X+X+X+X.X.Xp.z.f.d.k.k.k.j.k.k.k.k.k.k.x.% @ $ < 5 x A f i ( ( f W.} T d ( P S P k * < 2 4 x Q |.+X",
".X.X@X+X}.$X<X2X[.7 D X.+X>X>X.X>X<X>X.Xa.z.k.k.k.k.k.f.k.k.k.k.k.k.x.w . + * < 5 Q.Q.U H T d A H i i } K P n l < & 8 P ..[.|.|.",
"{..X.X+X&X%X%X=X1X~ g G ..%X*X].'.@.[ I k.k.k.k.k.k.k.k.k.k.k.k.k.x.<.        o ; q 5 q T i d d s z H d n S m k * 9 E ] X.+.'.].",
"].{.|.|.+X+X@X&X%X=XA h W ] +X_ G G G V k.k.k.k.k.k.k.k.k.k.k.k.k.x.#.            X o * Y (.a a Z 4 5 q k k M 4 : S ~ ) ' X.X.+.",
"] '.].{. X+X|.}.}.@X}.4 M _ )._ _ G m u j.d.k.k.j.k.k.k.k.k.k.k.k.x.*.                s aX:X/.:X: > 4 9 h l v ; 0 F G F | | ..X.",
"] '.'.].'.'.'.'.}.|.@XF ; x N N b b S A.k.j.k.k.d.k.k.k.k.k.k.k.k.x.*.X               qXkXtXsXeX4 > 7 > 9 > : : A F A F ^ ^ ' | ",
"' ' ' ..X.X.`.'.'.}.}.W : ; 8 b K ) |.S.k.k.k.k.k.d.k.k.k.k.k.k.k.k.<.o o + @ & @ @ o 1 aXaXiX^.> : > : : > ; : k A m F ~ ~ ~ ' ",
"' ' ' ] ..X.`.`.'.].`.P : x G ! ^ ) ..S.k.k.k.k.k.d.k.k.k.k.k.k.k.k.<.o o @ O & : > 4 4 5 y 3 : ; > 9 0 S ! A ; > A F F W Q Q ~ ",
"~ ' ' ' ..X.X.o.o.o._.A 0 S l A E ~ ^ p.k.k.k.k.k.d.k.k.k.k.k.k.k.k.<.X o o O & : < 3 3 3 = ; 7 0 x A U ! | `.A & g A F E E ~ ~ ",
"! ~ ) ' ' | | X...| ` k 0 A k b E ~ ) i.k.k.k.k.k.y.j.k.k.k.k.k.k.k.t.X o @ & 3 8 c n B B c 3 z v x F ' | o.}.oX0 & > l M S P ! ",
"S D E E E E P P D S G h 7 b S S E E / j.k.k.k.k.k.y.d.k.k.k.k.k.k.k.y.O O # * 3 v V L I L B 5 v F ! ' o.}. X|.-X[.: > > > h l b ",
"6 g h l l l m m m m A 7 > > h b B W Y j.f.j.k.k.k.d.y.k.k.k.j.d.k.k.f.% O # < 8 B I ( ( ( I 8 v F ^ ..'. X$X&X&X-XP : 7 > > > 7 ",
"4 < : < 2 2 2 2 > : : ; > > 7 g v M Y d.z.i.k.k.k.y.y.k.k.k.k.d.k.k.k.w # * 3 q J / { @.@.V 3 g S D ` G _.}.OX%X#X).: $ 9 9 4 4 ",
"'.o. .( ~ U P B Z A z 0 9 4 > > 2 h :.f.r.p.k.k.k.d.t.k.k.k.k.y.j.k.f.w # * 3 c I ] {.{./ m < & > g A A G G G F G k 9 ' %X$X}.[.",
"8X8X8X8X7X3X3X<X-X&X$XoXo.) ^ K z < >.k.3.2.f.k.k.j.t.k.k.k.k.y.y.k.k.;.O & < q V ~ @.I m 6 3 W | }.o.Z $ ; F ^ ; 9 5X9X9X9X9X9X",
"8X8X6X4X6X3X6X>X5X=X=X=X&X&X$X$X].P ,.k.,.:.j.k.k.d.t.k.k.k.k.j.t.k.k.*.o O * 3 c L B l h 1 +X8XgX8X8X5X| 4 ! %X4 | gX9X9X9X9X8X",
"2X2X2X2X>X<X>X>X;X;X*X$X%X%X+.{.+X|.p.d.*.u k.k.k.y.t.d.k.k.k.k.t.j.k.<.o O + & 8 S N h 4 $X3X=X-X=X=X3X5X$XA : 9 %X9X8X7X6X<X2X",
"3X2X2X<X>X>X>X>X&X>X+X+X$X X X X'.{.z.j.:.t l.l.x.x.l.l.d.f.k.k.t.j.k.t.; ; ; * ; : 8 < ^ &X$X$X%X-X&X%X%X%X X4 x 4X8X6X7X<X{.&X",
"2X<X<X>X>X>X;X;X&X+X@X+X.X.X|.[.'.@.p.f.C 1 t.=.e e ;.t.l.x.x.l.f.f.s.d.t 8 c B A 4 + S o.o.[.}.$X+.}.{.o.X.o.A U 8X6X2X4X1X$X=X",
">X>X>X;X;X;X@X;X@X+X+X.X X|.[.'.'.| ) ] J $ +     X & X w #.,.;.w 1 t 1 4 q b J } F < F ' ' | X.X.! ' X...^ ^ A `.7X2X2X1X2X2X1X"
};
