/* XPM */
static char *_3623f2034bb4e34d52b6d56790f737e1LG0aVTiO2xhhzMk[] = {
/* columns rows colors chars-per-pixel */
"64 64 235 2 ",
"   c #010101",
".  c #060709",
"X  c #090909",
"o  c #0A0B0D",
"O  c #190708",
"+  c #13100D",
"@  c #0D0E11",
"#  c #0E1014",
"$  c #111316",
"%  c #1A1617",
"&  c #13151B",
"*  c #16191E",
"=  c #1A1B1E",
"-  c #281616",
";  c #37281F",
":  c #151620",
">  c #161922",
",  c #1A1D23",
"<  c #1B1E2A",
"1  c #231E26",
"2  c #2D1D29",
"3  c #1D2126",
"4  c #1E222B",
"5  c #1E2233",
"6  c #242426",
"7  c #22252C",
"8  c #25282E",
"9  c #3B2A28",
"0  c #222533",
"q  c #292732",
"w  c #252A33",
"e  c #2A2D35",
"r  c #22253A",
"t  c #262A3B",
"y  c #292E3A",
"u  c #2C3037",
"i  c #2C323C",
"p  c #31333D",
"a  c #393738",
"s  c #4E1212",
"d  c #731514",
"f  c #5F271B",
"g  c #4B2828",
"h  c #493A36",
"j  c #732C2B",
"k  c #387A39",
"l  c #57473B",
"z  c #714723",
"x  c #282C43",
"c  c #292D44",
"v  c #2D3343",
"b  c #2E334A",
"n  c #323643",
"m  c #343A45",
"M  c #3A3B45",
"N  c #31364B",
"B  c #353C4B",
"V  c #393E4B",
"C  c #373D55",
"Z  c #6A3D47",
"A  c #3C424E",
"S  c #3C4453",
"D  c #3D455A",
"F  c #3F4859",
"G  c #3F4565",
"H  c #514D4F",
"J  c #414754",
"K  c #434955",
"L  c #41475E",
"P  c #444B5C",
"I  c #494E5C",
"U  c #49505E",
"Y  c #704C4E",
"T  c #777444",
"R  c #767249",
"E  c #454D62",
"W  c #474E65",
"Q  c #475063",
"!  c #4B5364",
"~  c #4E5866",
"^  c #4D566A",
"/  c #4E586C",
"(  c #515666",
")  c #555B69",
"_  c #535B6D",
"`  c #4D5672",
"'  c #545D71",
"]  c #555C77",
"[  c #576174",
"{  c #5A6375",
"}  c #56617B",
"|  c #5C657A",
" . c #5E687D",
".. c #606578",
"X. c #626A7D",
"o. c #70767A",
"O. c #8C1716",
"+. c #B41A19",
"@. c #99211D",
"#. c #A1211F",
"$. c #861B23",
"%. c #902F2D",
"&. c #A92724",
"*. c #B82A27",
"=. c #B13733",
"-. c #CD1816",
";. c #E40D08",
":. c #EA0E0C",
">. c #FD0917",
",. c #E61717",
"<. c #FA191C",
"1. c #E6201A",
"2. c #EA1F2A",
"3. c #FE1A23",
"4. c #C82C2A",
"5. c #D32C27",
"6. c #DC2E2B",
"7. c #CA322F",
"8. c #D8352E",
"9. c #CD3334",
"0. c #D63A31",
"q. c #E72724",
"w. c #E22F2B",
"e. c #EA2E2B",
"r. c #FD2126",
"t. c #F72628",
"y. c #F32A2A",
"u. c #E6312C",
"i. c #E8312C",
"p. c #F5332E",
"a. c #E93936",
"s. c #FE3631",
"d. c #FF3934",
"f. c #8F5739",
"g. c #9C5A3A",
"h. c #AE4939",
"j. c #B84B35",
"k. c #A95539",
"l. c #B25138",
"z. c #8C673F",
"x. c #92653E",
"c. c #C94332",
"v. c #DF4A3F",
"b. c #EE4339",
"n. c #9C3A42",
"m. c #B03640",
"M. c #8B6B49",
"N. c #9B6253",
"B. c #CF5A55",
"V. c #EB504A",
"C. c #EB5549",
"Z. c #EC6959",
"A. c #F27467",
"S. c #3C914B",
"D. c #389851",
"F. c #16AC57",
"G. c #06B75C",
"H. c #14B75B",
"J. c #26A555",
"K. c #4A8E4D",
"L. c #57874A",
"P. c #45964F",
"I. c #628149",
"U. c #00C15F",
"Y. c #00C761",
"T. c #978470",
"R. c #B4966B",
"E. c #B5957B",
"W. c #C79773",
"Q. c #D39779",
"!. c #F28974",
"~. c #D5A476",
"^. c #555E82",
"/. c #5E6982",
"(. c #646D82",
"). c #666F86",
"_. c #667185",
"`. c #6A7286",
"'. c #677289",
"]. c #6B758A",
"[. c #6E798E",
"{. c #70778B",
"}. c #727A8E",
"|. c #606C95",
" X c #6C7993",
".X c #737D93",
"XX c #717F98",
"oX c #768096",
"OX c #758199",
"+X c #7A8398",
"@X c #7B859C",
"#X c #7D89A1",
"$X c #848A9B",
"%X c #89929A",
"&X c #BFB192",
"*X c #828CA4",
"=X c #8691AA",
"-X c #8A94AC",
";X c #8C99B3",
":X c #939DB6",
">X c #929FB9",
",X c #9EA7AE",
"<X c #95A3BD",
"1X c #9AA4BD",
"2X c #F39594",
"3X c #D4AF8F",
"4X c #E3A989",
"5X c #F0AD8C",
"6X c #E9BB9B",
"7X c #F2BB97",
"8X c #F7B5B5",
"9X c #CAC69C",
"0X c #EDC19C",
"qX c #F4C19D",
"wX c #EAC7A6",
"eX c #F3C5A3",
"rX c #F5C8A6",
"tX c #F7CCA9",
"yX c #FBCCAA",
"uX c #EFD4AF",
"iX c #F4D3AE",
"pX c #FED3AE",
"aX c #FAD9B5",
"sX c #FBE4BC",
"dX c #99A6C2",
"fX c #D5D1D2",
"gX c #FAD1CF",
"hX c #FEE9C4",
"jX c #FFF3CA",
"kX c #FAE1D6",
"lX c #FBF8D7",
"zX c #FCDEE1",
"xX c #E9E9E9",
"cX c #FDFCE8",
"vX c #FEFCF9",
/* pixels */
"*X*X*X@X@X@X@XoX.X.X{.].].).).X. ._ ! ] v e `.oX.X}.oX}.}..X}.{.}.{.{.o.X.X...{ X.{ u B / ^ / _ [ ] ' ' ' / F A OX#X-X=X=X=X=X#X",
"#X@X#X@X@XOX.X.X X.X].].'.).(.| | ' ' / i K }.].{.{.{.`.].].].{.o.X.X...| { { { ) ..M q E E W ! ! ! ! Q G / A S #X;X#X#X#X#X=X#X",
"@X#X@XOXoX.X.X.X{.].`.).(. .] ] _ ' ^ E v _ X.) _ o.o.X.X.o.X. .{ { { { ' { ) ) _ ] J 4 N P P P F Q Q P F F 4 ~ <XOXOX#X#X#X#X#X",
"].@XoX.X X[.].].).(. . .| { ' _ ' ` ! A A  .{ U ! { { { { { { ' ' ' ) ' ) ) ) ) ) ) K < 5 b B C S B B b x 5 w  .#X#XOX#X@X+X+XoX",
"]. X].'.'.)./././.| | | ! ! ' ' / ^ ! n A { { _ _ ' ' ' ) _ ] _ _ _ _ ^ ) ) ( ( ( ! A 7 4 5 5 5 5 5 5 5 5 5 w _.OXOXoXoXoXoXoX(.",
"].].'.'.).(.(. . .| | { E P _ / ^ ! L y P ) ) ) ( ) ` Y n.m.c.9.8.u.2.8.=.m.n.H I I n 1 4 4 4 4 5 5 4 4 8 4 > ~ OX'. X[.oX'.'.'.",
"].'._.).(.(. . .| | ] { _ ^ ^ ^ ! ! n q U I ~ ! f.m.k.i.i.R j.t.t.c.R 8.u.k.y.y.9.Z 5 , 4 w w w u y y y n i 4 y  X X X X[.[.oX'.",
"_.).(.(././. .| { ] ' ' _ / ^ ! Q L 0 y I K %.k.9.K.D.e.F.D.i.y.y.i.D.F.u.D.K.0.k.t.*.a y i v b N A A S S F A * F oX_.'.'.'._.'.",
"_.(.(././.| | | ] ' _ _ / ^ E E E v > c Z t.M.F.l.U.g.w.F.h.3.u.u.3.h.F.6.k.Y.c.J.T r.t.j x b b N A S A F F F i 4 ^.'.(.'.'.'.'.",
"(./. ./.| | [ [ ' ' / / ! ! ! K N 5 , %.M.y.P.J.c.0.J.P.g.G.l.r.r.l.G.g.P.F.0.c.J.D.e.z.u.j N A A S S S F F Q G 4 A '././.'._. .",
" . .| | | [ [ ' _ / / / ! L B x 5 > $.k.G.7.i.K.Y.z.k.L.0.c.l.y.y.j.c.8.R f.z.Y.L.e.c.U.k.3.Z C S S F P P Q Q / S 5 G /. . ._./.",
" .| | | [ ] ' / _ / ! P B x r 5 1 g t.j.G.L.z.g.T T t.3.y.r.3.q.q.t.3.y.3.t.T R g.x.L.G.j.t.7.D S S P P Q ! ~ ~ ' i i }  . . . .",
"| } | [ ' / ' ' _ L N c r r 0 , 0 h.P.e.l.S.G.l.>.r.e.,.:.q.w.a.a.u.q.,.,.q.3.3.k.G.P.k.e.K.l.%.S F P ~ ~ ~ / / [ / w S `  .[  .",
" .[ ' [ | { _ E B c t x x 0 , r j l.Y.x.l.T e.r.q.:.e.C.!.4X5X7X7X7X4X!.Z.e.:.q.3.y.T l.x.Y.l.q.F Q Q ~ _ ' [ [ [  .S w G / | | ",
"] (. .| ' L N c c c x r 5 1 y n 4.r.T F.G.T 3.,.6.A.7XaXsXaXiXiXiXiXaXsXaXeX!.i.:.3.T G.F.I.r.t.Y ! / ' [ { [ | |  ./.y x G / } ",
"/  . .S c c b c c x t 4 4 y c h L.h.t.g.M.<.,.C.7XhXaXwXeXeXeXeXeXeXeXeXeXuXsXwXA.,.>.M.x.r.j.L.n.! ) [ [  . .(./._.'./ w S F / ",
"/ { E x 5 x c x x r 3 4 y v v j P.H.g.J.f.>.!.sXsXpXtXeXeXeXeXeXeXeXeXeXeXqXpXsXjX5X<.h.J.g.Y.P.9.^ _ ] { X.X._._.`.`. XA 5 D S ",
"S _ G x x x c x 8 3 4 e y v v =.c.D.G.S.>.2XjX4XW.~.tXtXeXeXeXeXeXeXeXeXeXpXqXW.W.uXyXd.k G.D.c.6.^ ) .. ./.`.].].[.[.'. .w x C ",
"N N N b b c 0 > = 4 t m i v n =.r.0.h.>.!.9XR.x.x.z x.tXyXeXeXeXeXeXeXeXpX3Xz z M.R.W.3Xt.4.8.3.0.( ) ..X.o.`.].}.[.].'.XXS 4 N ",
"b c b x 5 , 7 y 7 * t V i y i =.i.p.>.A.9X~.yXaXjX0XW.0XeXeXeXeXeXrXeXeXpX4XW.aXsXqXqX3XQ.r.2.i.6.( { ..X.`.[.[.oXoXoX(.` ` i 5 ",
"y c 7 < y K { '.L * < y y p c 4.u.,.a.hXsXW.- % Y aXhXqXeXeXeXeXeXeXeXeXqXtXjX6Xl + ; 6XlX2X;.u.u.! { X.o.[.oXoX X_.} ` W ` G 4 ",
"> < n ) .X@X.X].X.i & 5 w y y 7.i.;.2XcX~.) %X    9 pXtXeXeXeXeXeXeXeXeXqXaX6Xo   6 %XH 6XcXZ.;.6.! ) {  ._._./.[ ` ` ` ` ^.D 3 ",
"V X.-X-X$X}.`.X.X.P , > < 0 5 9.1.b.kXjXl ,XfX      W.sXeXeXeXeXtXeXeXeXtXhXM.    X vXo.f.vX8X;.8.K ~ ' ) / ` ` G G ` ` ^.F & 3 ",
"-X<X=X+X.X].X..._ / e & , > > 7.;.2XcXsXM.          &XsXeXeXeX0X0XeXeXeXwXlXN.          R.hXvXV.-.S F ) ' P W ` ` Q } ^.N & n  X",
"-X*X@XoX].`...' ( ! V * $ & $ 5.,.gXkXyX3Xo       9 aXyXeXeXtX7X4X6XrXeXeXpX6X@       ; pXqXvX2X+.c N F Q E W ` } /.G w w | >X<X",
"@X}.oX{.].X.{ ) ( K S 7 & # % 1.b.vXaX7XsX3Xh - Y wXaXqXeXeXrX7X4X7XyXeXeXqXsX3Xh - l wXaX7XvXgX+.v N N D G ` } ` N 3 S #X<X;X=X",
"oX[.}.]._.{ ) ~ P S V w # & ; ;.A.vXuX6X7XaXsXpXsXiXqXqXeXtX0X5X4X4XwXrXeXeXeXaXsXpXhXpXqX7XlXzXO.= t B D G F N 5 * / #X#X#X#X#X",
"oXoX[.X.{ _ ! P S V m w & : f :.B.xXeXeXeXeXyXyXtXqXrXrXqXqX0X7X4X4X0XrXeXeXeXeXeXyXtXeXqXqXlXzXs X $ , 8 5 3 3 # v OXoXoXoXOX+X",
"].`.(.| _ / ! L S A n 7 & > %.:.Z fXeXqXeXeXeXeXrXqXeXeXeXeXtX7X4X0XyXeXeXeXeXeXeXeXeXeXeX7XkXfXM * $ $ * w A Q m i '.].'.oX'.oX",
"_.X.| [ _ ! U L A V v , * , u.;.& $XuX7XeXeXeXeXeXrXeXeXeXeXeXeX6XeXeXeXeXeXeXeXeXeXeXeXeX7XaX%XA e @ , w A F / ! A  .'.X.'.[._.",
"X. .{ ' _ ! P J V B y , * , *.O.& w wX7XeXeXeXeXeXeXeXeXeXeXeXeXrXeXeXeXeXeXeXeXeXeXeXeXeX7X&XV A A = , i n U  ._ m [ '.[ / _._.",
"X.{ ' _ ^ Q L A V n w > * 4 4 > : & a 6XeXeXeXeXeXeXrXeXtXrXtXeXeXrXrXrXrXrXeXeXeXeXeXeXeX3Xa p A K w * n S ~ X.[ m / _.[ ' (._.",
"| [ _ / Q P F S V v 0 * , , 3 , = * $ 3 N.0XeXeXiXuXuXaXiXiXuXuXhXuXuXiXiXuXuXuX0XeXeX6XM.t u m J P A , y F / _.{ i ~  . .X. ./.",
"[ ' _ ! U P F N n y < $ 4 4 , > = = * $ * $ a l = g V.C.C.C.V.k.N.h.C.C.V.v.; = H l a 6 5 y i m A H U 8 4 S !  .Q w ! [ | } |  .",
"_ _ / ! U F A y e w > * 7 7 , , * * & & & # o X O -.,.,.,.,.<.s o d <.<.<.,.+.o # & > , 7 e i a J U ! A 4 v S Q N 4 P ~ ' | { [ ",
"_ ^ Q P S B v v t 4 & > 0 4 4 , * & & # # # o . O.i.i.i.i.i.s.s . d d.0.=.6.y.+.$ % > 1 8 e p A J K ~ ! w < b b w , S Q W / ' ' ",
"! L F A B N i 5 < > & * 7 4 < < , * & $ @ o o f i.i.i.i.i.i.s.5.s h.f.j z h.y.u.d = , 7 8 u p M J K ) ) A = 4 r u 7 v F P P Q / ",
"S S A V m y 5 4 > > = # & 4 4 , , * * $ # + o 4.i.i.i.i.i.i.e.i.p.&.f j f j b.s.e.; , 6 8 u n V J H ) ) ! 8 = m ~  .N t S P F W ",
"S A b c 5 5 3 , 8 t w 4 * $ , < : : & $ $ o O s.p.u.i.i.i.i.i.i.t.v.3X4XQ.; O #.s.%.3 7 e u a A J I ( ) _ m 7 P ! _._.u x A F F ",
"v c t 5 5 4 4 y v u t u t , $ * < > & $ $ $ O - *.s.i.i.u.i.u.i.;.!.jXaXjX3X    #.7.3 6 e i m A J U ( ..' P w m Q [  X .5 t N B ",
"t 5 4 3 = * y A i w u i u y 7 & $ * : $ @ @     O w.p.i.i.i.i.i.,.Z.sXeXrXsX6   s 7.6 8 e p m A K U ( ..U Q n u P _  .XXU 4 t x ",
"4 5 p S F 4 3 S A m N n i y w w > @ $ & & .       *.s.i.i.i.i.i.1.v.sXsXjX3X    s &.4 8 e p M A K U ) { P ~ S r S ! ~ } } i 4 5 ",
"A / [.@XoX/ 4 5 S S A m m p i e w , $ @ +         4.s.i.i.i.i.i.u.q.Z.A.A.h.d #.6.f 4 8 u i M A H ! _ ( ! ! Q t v F ! Q G S , w ",
"'.OX@XoX[.oX| 4 w S F F J V m p e w 7 & 6 6     s s.i.i.i.i.i.i.u.w.,.,.;.t.d.d.p.; 6 8 u n M J K P K P ! Q / v 5 N A b v v A } ",
"{..X.X(._ `.oX) 4 t S P I K A M p e 0 1 T.yXT.l +.s.i.i.i.i.i.i.i.i.i.u.u.u.i.i.u.9 7 q y n m B V A S ' _ P ~ C 5 0 0 q N ~ '..X",
"`.].[.`.{ _.[.[.! 4 y S P I K m M m e 0 E.tXlX!.<.w.i.i.i.i.i.i.i.i.i.i.i.u.i.i.2.g < q e i i m A K U ! / ! E C 8 , i P [ _.].].",
").).`.`.`.`._.`.].A < c V K J n i q < > E.qXT.h.,.e.i.i.i.i.i.i.i.i.i.i.i.i.u.i.u.9 < 7 q u n B B V B V P Q C N 3 i W ] { X. .(.",
"(.(._._._._._.X. . .e 4 b m K t < < > > R tXH j q.i.i.w.i.i.i.u.i.i.i.i.i.i.i.i.u.g < 0 4 w u i v v v b N C C e 4 S ^ / ' ] | /.",
"] (.(.(.X.(. .{ ' { ! 3 0 b b r 5 < : # = 3X6 d i.i.i.i.i.i.i.w.u.u.u.i.e.i.i.i.q.9 , < < 0 0 t t v v b B C N 3 i F F F / ' [ | ",
"_ { ..{ | { ' _ _ _ [ i & 0 0 4 > , , , 4 5 4 O.i.8.i.u.i.i.i.w.u.u.e.i.u.i.i.i.e.; > < < 0 q y v v b b v i 5 4 m S N D / / ' [ ",
"' ] ] ' ' ' ' ' ' _ / N & $ > 4 4 w e e w 6 3 @.i.5.i.6.i.w.i.w.u.i.w.i.i.u.i.i.e.2 > < 0 0 r t r w w 0 5 4 3 3 v A N F W ! ^ ' ",
"/ / / ' ` ' ' ' _ _ Q v * 7 y y e w w 8 4 4 3 %.i.*.i.6.i.6.i.w.w.i.w.i.i.i.w.u.w.- * * > > , , 3 8 e n S F A = 5 N S F W W ! / ",
"/ / ` ' ' _ ' _ / ~ ! t 4 t 4 4 w w 7 4 1 , = j i.&.i.6.i.6.i.6.w.i.w.u.e.u.6.w.6.& & & : * * 7 r i B F Q /  .A > 5 B F E G ~ ~ ",
"! ^ / / / / _ / ! Q S r 4 w 4 7 w w 7 7 4 , , g 7.*.d.d.s.s.s.i.6.p.s.s.d.d.s.s.*.> < 1 1 1 , 0 y u A ! _ [ /._.c > 5 b A D F Q ",
"C S L P L D S C V b b 0 < 0 w w w 0 7 7 4 , , * = s $.O.5.#.&.*.6.i.#.4.&.@.d s 1 1 1 q q q < 0 n A F ) { _. .OX .5 4 5 5 b N C ",
"r x c N b b b c b c c 4 > < 4 5 7 0 7 4 7 , > * & X           o . O         . & 1 q q u p u , 0 n S Q /  .`. XoX#XK 4 t 5 5 5 5 ",
"w 7 4 4 4 0 5 1 4 > , = , > > < 4 < 4 4 < > > : .             o . .             % q p M M q > 1 t N S G ` ^./.|.|.] 4 * u u 8 8 ",
"(.| [ ~ ! K S V n i u 8 4 , : : : > > > , : > #             . o . . .           . n M M p 2 & & 3 w y v S D D S G v u [ OXOXoX_.",
"<X<X<X:X;X=X*X@XoX`. ._ ! F B u 3 $ & & : : # #       . . . . . . . o @ X .     @ p M e 5 > < n F / ~ i * 3 F ~ 3 u #XdX1X1X<X<X",
":X:X:X-X-X=X*X*XOX.X[.`.X.{ ! U S w $ # # $ # # @ @ o . . . . . . . X X @ & > 7 q q q < > 1 ! ].oX@X@XOX! 5 F OX5 ' dXdX1X<X1X>X",
"-X-X-X-X*X*X+X+X.X{.`.X.{ { P I I S u & @ # # o o o o @ o @ @ o # # # @ @ @ # & 3 0 0 < = U X.X.X.`.].+X#X'.A 4 w OX<X,X>X;X=X-X",
"-X-X-X*X$X*X.X.X}.`._...{ ) ( U K A A u & # o # > = , , = , , 3 , 3 3 3 1 , , * & * > * A ~ ~ '  .X._.o.'.'._.w p ;X<X;X>X=Xo.@X",
"=X*X*X$X*X+X.X.X{.]._.X.{ _ ! I S A A m 4 o # 8 u e 8 7 7 6 6 3 = , 7 8 8 e e p u * o 8 S S U / [ / [ { [ ' ' A ! >X;X-X;X=XoX#X",
"*X*X*X*X@X@X.X{.{._.X...' ) ! I S A i p 4 # 4 a u e 8 7 3 6 3 6 , = 6 6 8 q e e p u & w A A S U Q S Q ~ / ~ Q A  .;X-X=X=X=X;X=X"
};
