/* XPM */
static char *_29157755277497ddd864f309d451b6duayyXeLAfxhf95pS[] = {
/* columns rows colors chars-per-pixel */
"64 64 239 2 ",
"   c #010101",
".  c #030708",
"X  c #050909",
"o  c #0A0A0C",
"O  c #150C0C",
"+  c #0D0E12",
"@  c #0E1015",
"#  c #111216",
"$  c #13151B",
"%  c #1A1618",
"&  c #16191D",
"*  c #2E1211",
"=  c #151724",
"-  c #161922",
";  c #1A1D23",
":  c #1C1E2A",
">  c #1C1E32",
",  c #221C21",
"<  c #1D2126",
"1  c #1E222A",
"2  c #1F2232",
"3  c #1F2239",
"4  c #21252D",
"5  c #2A2628",
"6  c #24282E",
"7  c #212533",
"8  c #292733",
"9  c #252A33",
"0  c #292D35",
"q  c #23263A",
"w  c #252A3A",
"e  c #2A2E3A",
"r  c #392D31",
"t  c #2A3037",
"y  c #2C323C",
"u  c #36363A",
"i  c #491413",
"p  c #6B1514",
"a  c #4E1F21",
"s  c #4F2E33",
"d  c #742F34",
"f  c #394135",
"g  c #546F11",
"h  c #544834",
"j  c #7D4B22",
"k  c #5A6C2B",
"l  c #676E38",
"z  c #2A2D43",
"x  c #282D44",
"c  c #2D3343",
"v  c #2E334B",
"b  c #313643",
"n  c #333A46",
"m  c #30314B",
"M  c #343748",
"N  c #353C4C",
"B  c #393E4C",
"V  c #353C52",
"C  c #353855",
"Z  c #393E54",
"A  c #423D51",
"S  c #6E3B48",
"D  c #3B4344",
"F  c #3A414D",
"G  c #3C4454",
"H  c #3D445C",
"J  c #3F485A",
"K  c #3E4561",
"L  c #46484D",
"P  c #56534B",
"I  c #424655",
"U  c #434956",
"Y  c #454658",
"T  c #434B5C",
"R  c #4A4D5D",
"E  c #5A4856",
"W  c #4C545E",
"Q  c #68574B",
"!  c #715455",
"~  c #5F7E48",
"^  c #667D47",
"/  c #757444",
"(  c #6E6F57",
")  c #414564",
"_  c #454D62",
"`  c #494E64",
"'  c #524E64",
"]  c #475163",
"[  c #4B5365",
"{  c #4F5967",
"}  c #4D5569",
"|  c #4F596C",
" . c #515665",
".. c #55586A",
"X. c #525A6D",
"o. c #524D70",
"O. c #4D5675",
"+. c #545D72",
"@. c #5A5E71",
"#. c #525B7B",
"$. c #655766",
"%. c #705A6C",
"&. c #5D6769",
"*. c #566175",
"=. c #5A6275",
"-. c #586379",
";. c #5C657B",
":. c #5E697E",
">. c #676C66",
",. c #656779",
"<. c #61697D",
"1. c #981718",
"2. c #BB0203",
"3. c #B51012",
"4. c #9A201C",
"5. c #862424",
"6. c #943134",
"7. c #A72828",
"8. c #B72B28",
"9. c #AD3233",
"0. c #B93737",
"q. c #C70101",
"w. c #D70000",
"e. c #E30705",
"r. c #E5130D",
"t. c #E61A17",
"y. c #FC1016",
"u. c #E9211D",
"i. c #FD1523",
"p. c #FE1C24",
"a. c #C82B27",
"s. c #DD2021",
"d. c #D42D2A",
"f. c #DC2E2A",
"g. c #CB322F",
"h. c #D6362F",
"j. c #DB322D",
"k. c #C83835",
"l. c #D63A37",
"z. c #E62723",
"x. c #E32F2B",
"c. c #EB2D2A",
"v. c #F62628",
"b. c #E5322C",
"n. c #E8312C",
"m. c #F7342F",
"M. c #E93833",
"N. c #FA3832",
"B. c #8E5233",
"V. c #B04B33",
"C. c #B94B35",
"Z. c #A75639",
"A. c #8C663E",
"S. c #C74032",
"D. c #FF413A",
"F. c #AA3E42",
"G. c #CA3F40",
"H. c #914A52",
"J. c #B44B51",
"K. c #876A41",
"L. c #866A59",
"P. c #A4734C",
"I. c #8F5866",
"U. c #9B696D",
"Y. c #AC7273",
"T. c #CF4547",
"R. c #EC504A",
"E. c #EB6A5A",
"W. c #EF6764",
"Q. c #EF726F",
"!. c #58932D",
"~. c #2E9E52",
"^. c #0EB258",
"/. c #26A555",
"(. c #2CAE58",
"). c #4F8E4D",
"_. c #6B8445",
"`. c #01C962",
"'. c #8C8A6C",
"]. c #B18E6D",
"[. c #EE8B74",
"{. c #545D82",
"}. c #5B6587",
"|. c #5F6A81",
" X c #636C83",
".X c #646C89",
"XX c #667086",
"oX c #6A7286",
"OX c #66728A",
"+X c #6B758B",
"@X c #6D788F",
"#X c #73738A",
"$X c #717A8E",
"%X c #636D94",
"&X c #6E7A92",
"*X c #677499",
"=X c #737D94",
"-X c #767E98",
";X c #6A75A1",
":X c #94798B",
">X c #758096",
",X c #76819A",
"<X c #7A8599",
"1X c #7A859C",
"2X c #7B88A3",
"3X c #7E8AA1",
"4X c #8B889E",
"5X c #B99780",
"6X c #838DA4",
"7X c #8690A6",
"8X c #8691A9",
"9X c #8A94AC",
"0X c #9298AF",
"qX c #8A96B1",
"wX c #8D99B2",
"eX c #8899B5",
"rX c #929CB5",
"tX c #939FB9",
"yX c #95A1BB",
"uX c #9AA5BE",
"iX c #F18B84",
"pX c #D4AF93",
"aX c #F1B38F",
"sX c #E6B999",
"dX c #F2BB97",
"fX c #F0B3A4",
"gX c #F3C19D",
"hX c #E9CAA8",
"jX c #F3C5A3",
"kX c #F6CBA8",
"lX c #FAD1AE",
"zX c #F9D9B8",
"xX c #F6E4BC",
"cX c #99A7C3",
"vX c #F9D1CD",
"bX c #F9EBD2",
"nX c #F8EBE7",
"mX c #FCF3F2",
"MX c #FFFEFE",
/* pixels */
"6X6X3X3X1X1X1X>X=X=X=X+X+XoX.X<. XX.} +.M 0 oX<X<X>X<X<X<X>X<X>X>X>X>XoXoX<.<.<.,.-.t N X.| | *.*.*.+.+.*.| J F ,XeX8X8X8X8X8X3X",
"3X1X1X1X<X>X-X=X=X&X@X+XoX.X X<.:.@.+.+.y T >X>X$X>X$X>X>X>X>X#X>X,.oX<.<.,.<.,.,.<.B w _ ] ] { } [ } [ J | F J eX3X8X3X3X3X7X3X",
"1X1X1X1X>X-X=X&X$X+X+XXX X:.;.@.+.+.X.T n *.XXX.&.oX<.#XoXoXoX<.>.<.<.;.;.;.&.;.=.,.I 4 V R R K ] K ] J J J 2 { tX,X>X3X3X3X3X3X",
"@X1X>X=X=X&X+X+X.X X<.<.:.-.+.+.| X.} Z B ,.@.R } ;.;.>.;.,.=.@.&.=.=.=.=.&.@.=.@.@.R 7 3 v G G G F F v x 3 6 |.3X<X>X2X1X1X1X@X",
"+X&X+XOXOXXX X X X:.;.;.[ [ X.} [ ] T c D .. . . .{ [  .[  .[  . . . .}  . .{ ....X.I 4 2 > q q 3 3 3 w 2 1 9  X,X,X,X>X,X>X>XXX",
"+X+X+XXXXX.XXX X:.:.;.-.T Y [ T U G N 4 B Y Y Y I I I J I I I I I I I Y R R R  .'  .B 4 6 4 7 4 2 9 1 1 6 6 < | ,XOX>X@X>XOXOX+X",
"+XOXXXXXXX X|.:.:.;.-.+.[ T Y B n n 4 , s P ~ H.7.8.0.k.g.d.h.j.j.j.j.h.h.h.g.0.F.S s 5 9 0 0 e y y c c D c 1 t *X>X@X@X@X+X+X+X",
".XXXXX X<. X:.:.;.-.+.} R J n c 0 8 % 7.i.x.^.B.n.n.v.n.n.n.n.n.n.n.n.c.x.n.b.b.b.b.j.6.s b M N F G G J G H F - J >XXX@X+XOX+XOX",
".X.X X X<.:.<.;.-.+.| ] G n e 8 1 1 U.u.s.S.~.K.S.).j.v.c.n.n.n.n.n.n.n.n.n.n.n.n.n.n.n.j.S B B G J J G J J J y 2 }.OXOXOXOXOXOX",
" X|.|.|.:.:.;.-.-.+.[ U B e 6 ; @ ( gXv.l `./ h.C.`.K.v.c.n.n.n.n.n.n.n.n.n.n.n.n.n.n.n.n.n.S I J J J J J ] | ] 1 F OX|.|.OXXXXX",
"<.|.|.:.:.-.-.-.X.} ] I b 7 - + 5 pXzXE.a.V.A./._.).V./ K.p.n.n.n.n.n.n.n.n.b.n.b.n.n.n.n.n.j.E J ] ] } | | { +.G 6 K }.|.|.|.|.",
":.:.;.;.;.-.-.+.X...T n 4 = + + h gXxXaXy.y.S._.K.h.l.^.~.i.v.n.n.n.n.n.n.n.n.n.n.n.n.n.n.n.n.0.[ } | | | | | | -.c D #.:.|.|.:.",
";.;.;.-.*.+.-.;.*.J z 2 = $ + o Q jXkXxXE.t.p.p./ (.~./.K.i.h.c.b.n.n.n.n.n.n.n.n.n.n.n.n.n.n.n...X...*.+.*.*.-.|.| 9 G *.|.-.:.",
" X*.+.;.:.<.-.[ Z z q : = + o + Q jXgXxXdXz.z.v.j./ K.h.p./ ).i.n.n.n.n.n.n.b.n.n.n.n.n.n.n.n.n.H.;.=.;.:.:.:.:.|.|.J w K | :.:.",
";..X X:.+._ C v x z q > $ + + + Q kXjXhXvX[.t.c.v.v.)./ Z.`.^ i.n.n.n.n.n.n.n.n.n.n.n.n.n.n.n.n.J.<. XXXOXXXXXXXXXXX|.y v K | -.",
"| <. XH v v v v v x 3 - $ $ $ @ Q jXjXjXkXlXR.t.c.v.Z.^./.).v.p.b.n.n.n.n.n.n.n.n.n.n.n.n.n.n.b.k.XX+X+XOXOX>XOX>XOX>X| 7 G K | ",
"X.;.` x w x C v v w ; ; ; - $ # Q kXkXgXgXxXgXz.z.c.b.Z.C.c.C.l v.c.n.n.n.n.n.n.n.n.n.n.n.n.n.n.l.@X=X=X&X>X>X>X&X&X@X&XF t H H ",
"G *.K x v v v x w < < 1 < - $ # Q xXlXgXjXjXxX[.t.v.h.~._.Z.`.^ i.b.n.n.n.b.c.n.n.n.n.n.n.n.n.n.l.-X=X-X1X<X,X<X,X<X>X&XOX2 x C ",
"v V C v C v x : < 1 w y < - & $ s P.aXlXjXgXlXxXR.u.v.V.(./.).v.v.n.n.n.n.n.n.n.n.c.n.n.n.n.n.n.l.1X1X1X3X3X3X3X3X3X,X>X,XJ < C ",
"v v v v q < 6 n 9 ; w b < = & $ h B.j pXlXkXgXxXaXu.u.Z.C.C.v.z.h.c.n.n.n.n.n.n.n.b.n.n.n.n.n.n.l.1X6X6X7X7X8X7X8X3X1X&X#.O.y 2 ",
"c x 2 1 y ] +X2X| ; 1 7 < ; & $ s xX].].kXkXjXkXxXR.y.~.).c./ ).n.v.n.n.n.n.n.n.n.b.n.n.n.n.n.n.T.4X9XqXwXwXeXeX2X>X|.O.O.#.K 1 ",
"- 1 N ,.8XwXwX6X=Xb $ : < - & $ ; pXxXgXgXjXjXgXbXiXy.Z.^.~.`.K.v.c.n.n.n.n.n.b.n.n.n.n.n.n.n.n.l.3X7XqX8X9X2X,XOX}.{.#.O.{.J 1 ",
"F oXtXuXrX7X6X>X,XX.< - = = @ @ X L.zXlXjXjXjXgXzXfXz.p.C._.C.p.c.n.n.n.n.n.n.n.n.n.n.n.n.n.n.n.T.=X2X3X1X&XOX%X#.O.{.{.}.K & 1 ",
"yXcXtX9X6X6X1X=X+X Xy # $ @ @ @   ( xXkXjXjXjXjXjXvXR.u.m.c.v.n.n.n.n.n.n.n.n.n.n.n.n.n.n.n.n.n.l.|.&X3X2X}.}.}.}.#.%X}.F $ D >X",
"yXwX7X7X6X1X>X=X X,.J & + o o o o L.xXkXjXjXjXhXgXbXW.t.n.c.c.n.n.n.n.n.n.n.n.n.n.n.n.n.n.n.n.n.h.O.{.OX,X}.}.%X%X*X#.w t OXcXcX",
"6X<X7X1X1X-X=X$X<.@._ 1 @ + o o h pXkXjXjXjXjXjXdXbXiXr.n.n.n.n.n.n.n.n.n.n.n.n.n.n.n.n.n.n.n.n.h.{.}.#.}.OX%X;X%XG 4 J 3XcXyXeX",
"1X,X3X1X-X=X@X.X;.} T e @ + + + L.lXgXjXjXjXjXjXdXnXfXe.n.n.n.n.n.n.n.n.n.n.n.n.n.n.n.n.n.n.n.n.h.n K {.}.}.#.J 9 - :.cXeXeX3X3X",
"3X3X<X>X@XOX X:.+.[ J 0 $ # + % Y.jXkXjXjXjXjXjXdXbXvXt.x.n.n.n.n.n.n.n.n.n.n.n.n.n.n.n.n.n.n.n.0.$ 1 e N v t 1 & F 2X2X<X3X3X3X",
">X>X@X+XXX X|.-.X.} G 4 $ $ # # K.jXjXjXjXjXjXkXdXvXmXM.u.b.n.n.n.n.n.n.n.n.n.n.n.n.n.n.n.n.n.n.J.e 1 1 9 F ] -.J F ,X,X>X>X>XOX",
"@X+X+XOX X|.|.;.X.[ G 4 & & # + Q jXjXjXjXjXjXjXgXzXMXQ.e.M.n.n.n.n.n.n.n.n.n.n.n.n.n.n.n.n.n.n.Y.@.- y J | |.>X-.G >X,X>X>XOX>X",
"OXOXXX X|.:.;.+.X.` Z 1 = ; $ # Q jXjXjXjXjXjXjXaXzXmXlXe.z.c.n.n.n.n.n.n.n.n.n.n.n.n.n.n.n.n.n.4X,Xy c J ] |.3XOXG XX>X:.+.OX>X",
"XXXX X:.:.;.-.+.X.] B 1 ; < ; $ Q sXjXjXjXkXjXjXaXbXMXMXW.e.M.n.n.n.n.n.n.n.n.n.n.n.n.n.n.n.c.T.rXeXT 9 { *.>X3X>XG :.>X:.-.OXOX",
" X|.:.;.-.-.*.+.+.T M 1 7 4 ; ; 8 5XjXjXjXjXjXjXgXnXMXMXnXu.r.n.n.n.n.n.n.n.n.n.n.n.n.n.n.n.n.Y.0XrX+Xe J :.&X8X>Xn -.OXOXOXXX<.",
":.;.;.-.*.*.*.J _ J y 1 e 0 4 : < Q sXjXjXjXjXgXgXmXMXMXMXvXz.e.z.M.n.n.n.n.n.n.n.n.n.n.n.n.n.4X0XrXeXY c -.OX3X-.y *.XXXX:.:.:.",
";.-.*.*.*.+.] J G Z w 1 M M e 9 2 9 ( sXjXjXhXaXzXMXMXMXMXMXnXQ.u.r.n.n.n.n.n.n.n.n.n.n.n.n.T.9X9XtXrX;.z _ +.}.K t } -.:.:.:.:.",
"@.+.*.} [ J G J B x 1 0 V B n b t w t L ].pXsXsXnXnXmXnXmXmXmXmXvXQ.n.z.n.n.b.j.b.n.n.n.n.n.:XeX9XwXrX2XB x K K x < K | } *.=.*.",
"X.[ _ T J J F v q 2 1 6 V Z B G G n M t 8 0 r s n 0 L.l.R.R.M.R.W.W.M.c.n.k.d Q F.j.n.n.c.T.4X8X9X9XtX0X+.7 e z n t c ] [ ] { | ",
"T H J G F c 3 2 < 1 1 - 4 Z H Z U T U n e 4 < & @ @ p y.t.t.t.t.r.t.x.b.n.6.B I { J.b.n.n.:X7X7X9X9X0X8X=Xb 1 J |.&XF x K ] J ] ",
"J G N c 3 3 1 < 1 y c y 0 1 V ' S E H F n 9 < & % * z.m.n.n.M.n.b.n.n.n.n.0.E [ =.,.T.n.T.3X6X6X7X9X9X0X2XT y +.:.,X>Xc x G T T ",
"M x 3 2 2 < < t y w b d 9.S d 9.2.8.! B t 4 4 & # 7.m.x.n.n.b.n.n.n.n.n.n.k.$.@.,..XU.J.4X2X3X3X6X7X8XrX1X;.c T *.|.3XXX3 x N G ",
"q 2 ; & $ @ 1 c t 9 E 3.2.2.w.w.2.2.3.E w : - % # a.x.n.n.n.n.n.n.n.n.n.n.l.%.-..X+X=X-X>X1X1X3X1X6X6XwXOX|.J b | :.OX2X[ 2 w x ",
"< 1 0 y u - = B.4.9.7.q.w.3.9.d.w.2.! F e : = $ # d.n.n.n.n.n.n.n.n.n.n.n.l.I.:. X+X$X=X-X-X1X4X6X6X6X7X|.XX| c [ | *.|.|.c 1 2 ",
"n T X.*.} n a 2.2.q.3.9.q.w.>.>.q.H.t < : : $ @ # f.n.n.n.c.n.n.n.n.n.n.c.b.I.<. X+X+X$X=X=X-X<X<X6X8X=X X X|.c N ] } } K G < t ",
"|. X,.X.R R H.2.q.w.B.{ &.! _.>.=.X.J 9 % @ # + 5.n.n.n.n.n.n.n.n.n.n.n.n.n.H.-.<.oXoX+X$X@X-X<X-X@X|.|.OX;.|.N w G H v v b G -.",
"oX<.,.W B R ..! 1.3.W !._.,.^ l ( } F b 7 # X o d.m.n.n.n.n.n.n.n.n.n.n.n.n.J.-.:. X.XoX+X$X+X X:.;.:.-X+X*.|.H 9 w q e F } OX>X",
"<.<.;.X.R  .....L f u P ( >.k g ~ '.F 0 ; +     p N.n.n.n.n.n.n.n.n.n.b.n.n.J.@.-.-.|. X X:.;.#.:. XXX XXX|.+.K 9 1 c _ |.OX+X+X",
" X<.<.<.;.X. ...X.D g f F ~ k L n f 6 @           f.m.n.n.n.n.n.n.b.n.c.n.n.0.,.@.+.*.+.+.-.-.:.*.+.} } *.*.) G 1 c } @.;.:.|.XX",
"XX X<.;.,.=... .W &.k f h g '.' 9 @               4.N.n.n.n.n.n.n.n.n.n.n.n.k.$.+.+.+.X.T ] | _ _ K K H K K K y 4 J | +.@.-.:. X",
"=.<. X<.<.=.X.R T &.L $ f l ].zX'.* .         . * d.m.n.n.n.n.n.b.b.n.n.n.b.l.! [ _ _ _ C H H H H K J K K K G 1 b ] J ] +.+.-.;.",
"@.:.:.<.;.+...T U F J 4 u pXpXxXbXh   o @ $ & < a m.b.b.n.n.n.n.n.x.c.n.n.c.j.S H H H H H K T ) K K K H V c 7 2 F J N J } | X.-.",
"+.+.+.@.+.+.X.} R T U c u fXlXhX( 5 t b t 6 4 , d b.n.n.n.n.n.n.n.x.n.n.n.n.b.S H H K K H ) H Z N n c y t t 1 1 c F V K ` } } +.",
"X.+.+.#.-.+.+.X.{ [ ] c 1 P >.$.I G F b t 8 4 & 5.x.n.n.n.n.n.n.b.f.n.n.n.n.b.6.N v c c y y 0 0 w c n G ] +.G < 2 N J J ` ` } | ",
"| +.+.#.-.*.*.+.| +.} c 6 N y c G G G b 8 4 ; ; 5.x.n.n.n.n.n.n.x.x.n.n.n.n.n.6.e u y y r 8 4 v B G _ X.*.;.OXF - q N J _ _ ` } ",
"[ | | +.+.+.*.+.| | ] z t N c N G G F c 8 4 ; & 7.c.n.b.b.n.n.n.f.f.c.b.n.n.n.F.Y A A A A M 0 N G N _ -.:. X@X&Xy - 3 N G G K [ ",
"Z J T _ ] _ T K H G V c 3 N F G G G n y 9 < & & 8.n.n.x.x.n.n.n.f.x.c.M.c.f.c.G.E ' ' ' Y A e M J [ +. X+X&X@X3XXX1 2 2 w z N N ",
"q x x v v v v v v C N t 3 q c v B F n 0 4 ; $ % a.n.b.f.x.n.n.n.f.f.n.m.x.8.f.l.%.,.%.@.@.R w M J | -. X+X=X,X1X3XT < 2 2 2 3 3 ",
"6 9 1 4 2 2 7 7 2 2 1 1 2 2 w w c e e 3 1 & - , d.n.x.f.n.n.n.b.d.f.n.N.f.1.d.M.I..X X.X,.A 7 x V H K O.{.OX*X*X;X{.1 & t t 9 9 ",
"XX:.*.{ { R U G F n b y t 9 2 1 2 2 2 : - & @ a d.n.f.x.n.n.n.b.d.x.c.N.a.p a.D.U.-X:X#Xo.m 2 : 3 c F v K K J J K c y -.,X>X>XXX",
"yXyXyXyXtXwX9X9X3X,X>X+X|.=.{ G t ; - & $ @ + p f.b.d.j.n.n.n.b.d.f.c.D.a.i 8.N.I.:X#X' A 8 8 Y *.OX:.D < < ] | < t 3XcXuXuXyXyX",
"yXyXrXrXwXwX9X9X9X7X7X3X3X1X@XOX*.b $ + @ + + 5.N.m.v.m.m.m.m.s.f.x.M.M.a.O 8.D.F.,.' C q y -XyXuXyXyXeX+.9 ] ,Xt +.cXcXuXyXuXyX",
"9XwX9X9X9X6X6X6X3X4X1X-X>X-X<.<.,.{ b $ X + + i 5.7.a.b.N.j.8.d s 5 r p i   * 5.E o.) m t +XeX3X3X3X3XwXeX>XF 1 t <XuXyXrXwX8X9X",
"9X9X9X7X6X2X6X6X1X1X-X=X=X@X+X<.*.{ J y $ @ O O * O O * * * P L I J 6 X       r e y m 7 +.<X>X>X<X3X3X,X,X,X&Xt D wXyXwXyX7XoX<X",
"9X7X6X6X6X4X3X1X1X,X-X=X$X+XoX<.*.[ J F 6 + # X X X X . X 1  .W n o       o  .oX&.t & J XX:.XXOX+X<.XXoX|.-.-.F ] tXrXwXwX8X>X7X",
"6X6X6X6X3X3X1X<X-X=X=X$X$X+X X<.=.R G F 0 # y D t 5 % % 5 W ....F O . , I ,.oXoX>XX.6 J +.+.*.:.:.{ +.-.+.+.| F XXeX9X8X8X8X9X8X"
};
